G04*
G04 #@! TF.GenerationSoftware,Altium Limited,Altium Designer,19.1.8 (144)*
G04*
G04 Layer_Physical_Order=2*
G04 Layer_Color=16711680*
%FSLAX43Y43*%
%MOMM*%
G71*
G01*
G75*
%ADD20C,0.762*%
%ADD21C,1.270*%
%ADD23C,2.200*%
%ADD24C,2.800*%
%ADD25C,1.800*%
%ADD26C,0.711*%
G04:AMPARAMS|DCode=27|XSize=1.5mm|YSize=1mm|CornerRadius=0.05mm|HoleSize=0mm|Usage=FLASHONLY|Rotation=0.000|XOffset=0mm|YOffset=0mm|HoleType=Round|Shape=RoundedRectangle|*
%AMROUNDEDRECTD27*
21,1,1.500,0.900,0,0,0.0*
21,1,1.400,1.000,0,0,0.0*
1,1,0.100,0.700,-0.450*
1,1,0.100,-0.700,-0.450*
1,1,0.100,-0.700,0.450*
1,1,0.100,0.700,0.450*
%
%ADD27ROUNDEDRECTD27*%
G36*
X156415Y234355D02*
X156087Y234136D01*
X155784Y233833D01*
X155547Y233478D01*
X155383Y233083D01*
X155300Y232664D01*
Y232236D01*
X155383Y231817D01*
X155547Y231422D01*
X155784Y231067D01*
X156087Y230764D01*
X156442Y230527D01*
X156837Y230363D01*
X157256Y230280D01*
X157684D01*
X158103Y230363D01*
X158498Y230527D01*
X158853Y230764D01*
X159156Y231067D01*
X159355Y231365D01*
X159482Y231326D01*
Y188518D01*
X143490D01*
X142992Y189016D01*
Y194096D01*
X141722Y195366D01*
X138674D01*
X128613Y195366D01*
X124866Y199113D01*
X124654Y199276D01*
X124407Y199378D01*
X124141Y199413D01*
X124141Y199413D01*
X120894D01*
X120894Y201208D01*
X117338Y204764D01*
X109972D01*
X106416Y201208D01*
Y198775D01*
X102608Y194967D01*
X102573Y194982D01*
X102140Y195068D01*
X101700D01*
X101267Y194982D01*
X100860Y194813D01*
X100493Y194568D01*
X100182Y194257D01*
X99937Y193890D01*
X99922Y193855D01*
X99724D01*
X85895Y207684D01*
X85897Y207687D01*
X85980Y208106D01*
Y208534D01*
X85897Y208953D01*
X85733Y209348D01*
X85496Y209703D01*
X85193Y210006D01*
X84838Y210243D01*
X84443Y210407D01*
X84024Y210490D01*
X83596D01*
X83177Y210407D01*
X82782Y210243D01*
X82427Y210006D01*
X82124Y209703D01*
X81887Y209348D01*
X81723Y208953D01*
X81640Y208534D01*
Y208106D01*
X81723Y207687D01*
X81887Y207292D01*
X82124Y206937D01*
X82427Y206634D01*
X82782Y206397D01*
X83177Y206233D01*
X83596Y206150D01*
X84024D01*
X84443Y206233D01*
X84446Y206235D01*
X98575Y192105D01*
X98575Y192105D01*
X98788Y191943D01*
X99035Y191840D01*
X99300Y191805D01*
X99922D01*
X99937Y191770D01*
X100182Y191403D01*
X100493Y191092D01*
X100860Y190847D01*
X101267Y190678D01*
X101700Y190592D01*
X102140D01*
X102573Y190678D01*
X102980Y190847D01*
X103347Y191092D01*
X103658Y191403D01*
X103903Y191770D01*
X104072Y192177D01*
X104158Y192610D01*
Y193050D01*
X104072Y193483D01*
X104057Y193518D01*
X106299Y195759D01*
X106416Y195711D01*
Y195012D01*
X106267Y194982D01*
X105860Y194813D01*
X105493Y194568D01*
X105182Y194257D01*
X104937Y193890D01*
X104768Y193483D01*
X104682Y193050D01*
Y192610D01*
X104768Y192177D01*
X104937Y191770D01*
X105182Y191403D01*
X105493Y191092D01*
X105860Y190847D01*
X106267Y190678D01*
X106416Y190648D01*
Y189778D01*
X105156Y188518D01*
X83649D01*
X83610Y188645D01*
X83923Y188854D01*
X84226Y189157D01*
X84463Y189512D01*
X84627Y189907D01*
X84710Y190326D01*
Y190754D01*
X84627Y191173D01*
X84463Y191568D01*
X84226Y191923D01*
X83923Y192226D01*
X83568Y192463D01*
X83173Y192627D01*
X82754Y192710D01*
X82326D01*
X81907Y192627D01*
X81512Y192463D01*
X81157Y192226D01*
X80854Y191923D01*
X80645Y191610D01*
X80518Y191649D01*
Y234482D01*
X156388D01*
X156415Y234355D01*
D02*
G37*
G36*
X76415D02*
X76087Y234136D01*
X75784Y233833D01*
X75547Y233478D01*
X75383Y233083D01*
X75300Y232664D01*
Y232236D01*
X75383Y231817D01*
X75547Y231422D01*
X75784Y231067D01*
X76087Y230764D01*
X76442Y230527D01*
X76837Y230363D01*
X77256Y230280D01*
X77684D01*
X78103Y230363D01*
X78498Y230527D01*
X78853Y230764D01*
X79156Y231067D01*
X79355Y231365D01*
X79482Y231326D01*
Y188518D01*
X63490D01*
X62992Y189016D01*
Y194096D01*
X61722Y195366D01*
X58674D01*
X48613Y195366D01*
X44866Y199113D01*
X44654Y199276D01*
X44407Y199378D01*
X44141Y199413D01*
X44141Y199413D01*
X40894D01*
X40894Y201208D01*
X37338Y204764D01*
X29972D01*
X26416Y201208D01*
Y198775D01*
X22608Y194967D01*
X22573Y194982D01*
X22140Y195068D01*
X21700D01*
X21267Y194982D01*
X20860Y194813D01*
X20493Y194568D01*
X20182Y194257D01*
X19937Y193890D01*
X19922Y193855D01*
X19724D01*
X5895Y207684D01*
X5897Y207687D01*
X5980Y208106D01*
Y208534D01*
X5897Y208953D01*
X5733Y209348D01*
X5496Y209703D01*
X5193Y210006D01*
X4838Y210243D01*
X4443Y210407D01*
X4024Y210490D01*
X3596D01*
X3177Y210407D01*
X2782Y210243D01*
X2427Y210006D01*
X2124Y209703D01*
X1887Y209348D01*
X1723Y208953D01*
X1640Y208534D01*
Y208106D01*
X1723Y207687D01*
X1887Y207292D01*
X2124Y206937D01*
X2427Y206634D01*
X2782Y206397D01*
X3177Y206233D01*
X3596Y206150D01*
X4024D01*
X4443Y206233D01*
X4446Y206235D01*
X18575Y192105D01*
X18575Y192105D01*
X18788Y191943D01*
X19035Y191840D01*
X19300Y191805D01*
X19922D01*
X19937Y191770D01*
X20182Y191403D01*
X20493Y191092D01*
X20860Y190847D01*
X21267Y190678D01*
X21700Y190592D01*
X22140D01*
X22573Y190678D01*
X22980Y190847D01*
X23347Y191092D01*
X23658Y191403D01*
X23903Y191770D01*
X24072Y192177D01*
X24158Y192610D01*
Y193050D01*
X24072Y193483D01*
X24057Y193518D01*
X26299Y195759D01*
X26416Y195711D01*
Y195012D01*
X26267Y194982D01*
X25860Y194813D01*
X25493Y194568D01*
X25182Y194257D01*
X24937Y193890D01*
X24768Y193483D01*
X24682Y193050D01*
Y192610D01*
X24768Y192177D01*
X24937Y191770D01*
X25182Y191403D01*
X25493Y191092D01*
X25860Y190847D01*
X26267Y190678D01*
X26416Y190648D01*
Y189778D01*
X25156Y188518D01*
X3649D01*
X3610Y188645D01*
X3923Y188854D01*
X4226Y189157D01*
X4463Y189512D01*
X4627Y189907D01*
X4710Y190326D01*
Y190754D01*
X4627Y191173D01*
X4463Y191568D01*
X4226Y191923D01*
X3923Y192226D01*
X3568Y192463D01*
X3173Y192627D01*
X2754Y192710D01*
X2326D01*
X1907Y192627D01*
X1512Y192463D01*
X1157Y192226D01*
X854Y191923D01*
X645Y191610D01*
X518Y191649D01*
Y234482D01*
X76388D01*
X76415Y234355D01*
D02*
G37*
G36*
X156415Y187355D02*
X156087Y187136D01*
X155784Y186833D01*
X155547Y186478D01*
X155383Y186083D01*
X155300Y185664D01*
Y185236D01*
X155383Y184817D01*
X155547Y184422D01*
X155784Y184067D01*
X156087Y183764D01*
X156442Y183527D01*
X156837Y183363D01*
X157256Y183280D01*
X157684D01*
X158103Y183363D01*
X158498Y183527D01*
X158853Y183764D01*
X159156Y184067D01*
X159355Y184365D01*
X159482Y184326D01*
Y141518D01*
X143490D01*
X142992Y142016D01*
Y147096D01*
X141722Y148366D01*
X138674D01*
X128613Y148366D01*
X124866Y152113D01*
X124654Y152276D01*
X124407Y152378D01*
X124141Y152413D01*
X124141Y152413D01*
X120894D01*
X120894Y154208D01*
X117338Y157764D01*
X109972D01*
X106416Y154208D01*
Y151775D01*
X102608Y147967D01*
X102573Y147982D01*
X102140Y148068D01*
X101700D01*
X101267Y147982D01*
X100860Y147813D01*
X100493Y147568D01*
X100182Y147257D01*
X99937Y146890D01*
X99922Y146855D01*
X99724D01*
X85895Y160684D01*
X85897Y160687D01*
X85980Y161106D01*
Y161534D01*
X85897Y161953D01*
X85733Y162348D01*
X85496Y162703D01*
X85193Y163006D01*
X84838Y163243D01*
X84443Y163407D01*
X84024Y163490D01*
X83596D01*
X83177Y163407D01*
X82782Y163243D01*
X82427Y163006D01*
X82124Y162703D01*
X81887Y162348D01*
X81723Y161953D01*
X81640Y161534D01*
Y161106D01*
X81723Y160687D01*
X81887Y160292D01*
X82124Y159937D01*
X82427Y159634D01*
X82782Y159397D01*
X83177Y159233D01*
X83596Y159150D01*
X84024D01*
X84443Y159233D01*
X84446Y159235D01*
X98575Y145105D01*
X98575Y145105D01*
X98788Y144943D01*
X99035Y144840D01*
X99300Y144805D01*
X99922D01*
X99937Y144770D01*
X100182Y144403D01*
X100493Y144092D01*
X100860Y143847D01*
X101267Y143678D01*
X101700Y143592D01*
X102140D01*
X102573Y143678D01*
X102980Y143847D01*
X103347Y144092D01*
X103658Y144403D01*
X103903Y144770D01*
X104072Y145177D01*
X104158Y145610D01*
Y146050D01*
X104072Y146483D01*
X104057Y146518D01*
X106299Y148759D01*
X106416Y148711D01*
Y148012D01*
X106267Y147982D01*
X105860Y147813D01*
X105493Y147568D01*
X105182Y147257D01*
X104937Y146890D01*
X104768Y146483D01*
X104682Y146050D01*
Y145610D01*
X104768Y145177D01*
X104937Y144770D01*
X105182Y144403D01*
X105493Y144092D01*
X105860Y143847D01*
X106267Y143678D01*
X106416Y143648D01*
Y142778D01*
X105156Y141518D01*
X83649D01*
X83610Y141645D01*
X83923Y141854D01*
X84226Y142157D01*
X84463Y142512D01*
X84627Y142907D01*
X84710Y143326D01*
Y143754D01*
X84627Y144173D01*
X84463Y144568D01*
X84226Y144923D01*
X83923Y145226D01*
X83568Y145463D01*
X83173Y145627D01*
X82754Y145710D01*
X82326D01*
X81907Y145627D01*
X81512Y145463D01*
X81157Y145226D01*
X80854Y144923D01*
X80645Y144610D01*
X80518Y144649D01*
Y187482D01*
X156388D01*
X156415Y187355D01*
D02*
G37*
G36*
X76415D02*
X76087Y187136D01*
X75784Y186833D01*
X75547Y186478D01*
X75383Y186083D01*
X75300Y185664D01*
Y185236D01*
X75383Y184817D01*
X75547Y184422D01*
X75784Y184067D01*
X76087Y183764D01*
X76442Y183527D01*
X76837Y183363D01*
X77256Y183280D01*
X77684D01*
X78103Y183363D01*
X78498Y183527D01*
X78853Y183764D01*
X79156Y184067D01*
X79355Y184365D01*
X79482Y184326D01*
Y141518D01*
X63490D01*
X62992Y142016D01*
Y147096D01*
X61722Y148366D01*
X58674D01*
X48613Y148366D01*
X44866Y152113D01*
X44654Y152276D01*
X44407Y152378D01*
X44141Y152413D01*
X44141Y152413D01*
X40894D01*
X40894Y154208D01*
X37338Y157764D01*
X29972D01*
X26416Y154208D01*
Y151775D01*
X22608Y147967D01*
X22573Y147982D01*
X22140Y148068D01*
X21700D01*
X21267Y147982D01*
X20860Y147813D01*
X20493Y147568D01*
X20182Y147257D01*
X19937Y146890D01*
X19922Y146855D01*
X19724D01*
X5895Y160684D01*
X5897Y160687D01*
X5980Y161106D01*
Y161534D01*
X5897Y161953D01*
X5733Y162348D01*
X5496Y162703D01*
X5193Y163006D01*
X4838Y163243D01*
X4443Y163407D01*
X4024Y163490D01*
X3596D01*
X3177Y163407D01*
X2782Y163243D01*
X2427Y163006D01*
X2124Y162703D01*
X1887Y162348D01*
X1723Y161953D01*
X1640Y161534D01*
Y161106D01*
X1723Y160687D01*
X1887Y160292D01*
X2124Y159937D01*
X2427Y159634D01*
X2782Y159397D01*
X3177Y159233D01*
X3596Y159150D01*
X4024D01*
X4443Y159233D01*
X4446Y159235D01*
X18575Y145105D01*
X18575Y145105D01*
X18788Y144943D01*
X19035Y144840D01*
X19300Y144805D01*
X19922D01*
X19937Y144770D01*
X20182Y144403D01*
X20493Y144092D01*
X20860Y143847D01*
X21267Y143678D01*
X21700Y143592D01*
X22140D01*
X22573Y143678D01*
X22980Y143847D01*
X23347Y144092D01*
X23658Y144403D01*
X23903Y144770D01*
X24072Y145177D01*
X24158Y145610D01*
Y146050D01*
X24072Y146483D01*
X24057Y146518D01*
X26299Y148759D01*
X26416Y148711D01*
Y148012D01*
X26267Y147982D01*
X25860Y147813D01*
X25493Y147568D01*
X25182Y147257D01*
X24937Y146890D01*
X24768Y146483D01*
X24682Y146050D01*
Y145610D01*
X24768Y145177D01*
X24937Y144770D01*
X25182Y144403D01*
X25493Y144092D01*
X25860Y143847D01*
X26267Y143678D01*
X26416Y143648D01*
Y142778D01*
X25156Y141518D01*
X3649D01*
X3610Y141645D01*
X3923Y141854D01*
X4226Y142157D01*
X4463Y142512D01*
X4627Y142907D01*
X4710Y143326D01*
Y143754D01*
X4627Y144173D01*
X4463Y144568D01*
X4226Y144923D01*
X3923Y145226D01*
X3568Y145463D01*
X3173Y145627D01*
X2754Y145710D01*
X2326D01*
X1907Y145627D01*
X1512Y145463D01*
X1157Y145226D01*
X854Y144923D01*
X645Y144610D01*
X518Y144649D01*
Y187482D01*
X76388D01*
X76415Y187355D01*
D02*
G37*
G36*
X156415Y140355D02*
X156087Y140136D01*
X155784Y139833D01*
X155547Y139478D01*
X155383Y139083D01*
X155300Y138664D01*
Y138236D01*
X155383Y137817D01*
X155547Y137422D01*
X155784Y137067D01*
X156087Y136764D01*
X156442Y136527D01*
X156837Y136363D01*
X157256Y136280D01*
X157684D01*
X158103Y136363D01*
X158498Y136527D01*
X158853Y136764D01*
X159156Y137067D01*
X159355Y137365D01*
X159482Y137326D01*
Y94518D01*
X143490D01*
X142992Y95016D01*
Y100096D01*
X141722Y101366D01*
X138674D01*
X128613Y101366D01*
X124866Y105113D01*
X124654Y105276D01*
X124407Y105378D01*
X124141Y105413D01*
X124141Y105413D01*
X120894D01*
X120894Y107208D01*
X117338Y110764D01*
X109972D01*
X106416Y107208D01*
Y104775D01*
X102608Y100967D01*
X102573Y100982D01*
X102140Y101068D01*
X101700D01*
X101267Y100982D01*
X100860Y100813D01*
X100493Y100568D01*
X100182Y100257D01*
X99937Y99890D01*
X99922Y99855D01*
X99724D01*
X85895Y113684D01*
X85897Y113687D01*
X85980Y114106D01*
Y114534D01*
X85897Y114953D01*
X85733Y115348D01*
X85496Y115703D01*
X85193Y116006D01*
X84838Y116243D01*
X84443Y116407D01*
X84024Y116490D01*
X83596D01*
X83177Y116407D01*
X82782Y116243D01*
X82427Y116006D01*
X82124Y115703D01*
X81887Y115348D01*
X81723Y114953D01*
X81640Y114534D01*
Y114106D01*
X81723Y113687D01*
X81887Y113292D01*
X82124Y112937D01*
X82427Y112634D01*
X82782Y112397D01*
X83177Y112233D01*
X83596Y112150D01*
X84024D01*
X84443Y112233D01*
X84446Y112235D01*
X98575Y98105D01*
X98575Y98105D01*
X98788Y97943D01*
X99035Y97840D01*
X99300Y97805D01*
X99922D01*
X99937Y97770D01*
X100182Y97403D01*
X100493Y97092D01*
X100860Y96847D01*
X101267Y96678D01*
X101700Y96592D01*
X102140D01*
X102573Y96678D01*
X102980Y96847D01*
X103347Y97092D01*
X103658Y97403D01*
X103903Y97770D01*
X104072Y98177D01*
X104158Y98610D01*
Y99050D01*
X104072Y99483D01*
X104057Y99518D01*
X106299Y101759D01*
X106416Y101711D01*
Y101012D01*
X106267Y100982D01*
X105860Y100813D01*
X105493Y100568D01*
X105182Y100257D01*
X104937Y99890D01*
X104768Y99483D01*
X104682Y99050D01*
Y98610D01*
X104768Y98177D01*
X104937Y97770D01*
X105182Y97403D01*
X105493Y97092D01*
X105860Y96847D01*
X106267Y96678D01*
X106416Y96648D01*
Y95778D01*
X105156Y94518D01*
X83649D01*
X83610Y94645D01*
X83923Y94854D01*
X84226Y95157D01*
X84463Y95512D01*
X84627Y95907D01*
X84710Y96326D01*
Y96754D01*
X84627Y97173D01*
X84463Y97568D01*
X84226Y97923D01*
X83923Y98226D01*
X83568Y98463D01*
X83173Y98627D01*
X82754Y98710D01*
X82326D01*
X81907Y98627D01*
X81512Y98463D01*
X81157Y98226D01*
X80854Y97923D01*
X80645Y97610D01*
X80518Y97649D01*
Y140482D01*
X156388D01*
X156415Y140355D01*
D02*
G37*
G36*
X76415D02*
X76087Y140136D01*
X75784Y139833D01*
X75547Y139478D01*
X75383Y139083D01*
X75300Y138664D01*
Y138236D01*
X75383Y137817D01*
X75547Y137422D01*
X75784Y137067D01*
X76087Y136764D01*
X76442Y136527D01*
X76837Y136363D01*
X77256Y136280D01*
X77684D01*
X78103Y136363D01*
X78498Y136527D01*
X78853Y136764D01*
X79156Y137067D01*
X79355Y137365D01*
X79482Y137326D01*
Y94518D01*
X63490D01*
X62992Y95016D01*
Y100096D01*
X61722Y101366D01*
X58674D01*
X48613Y101366D01*
X44866Y105113D01*
X44654Y105276D01*
X44407Y105378D01*
X44141Y105413D01*
X44141Y105413D01*
X40894D01*
X40894Y107208D01*
X37338Y110764D01*
X29972D01*
X26416Y107208D01*
Y104775D01*
X22608Y100967D01*
X22573Y100982D01*
X22140Y101068D01*
X21700D01*
X21267Y100982D01*
X20860Y100813D01*
X20493Y100568D01*
X20182Y100257D01*
X19937Y99890D01*
X19922Y99855D01*
X19724D01*
X5895Y113684D01*
X5897Y113687D01*
X5980Y114106D01*
Y114534D01*
X5897Y114953D01*
X5733Y115348D01*
X5496Y115703D01*
X5193Y116006D01*
X4838Y116243D01*
X4443Y116407D01*
X4024Y116490D01*
X3596D01*
X3177Y116407D01*
X2782Y116243D01*
X2427Y116006D01*
X2124Y115703D01*
X1887Y115348D01*
X1723Y114953D01*
X1640Y114534D01*
Y114106D01*
X1723Y113687D01*
X1887Y113292D01*
X2124Y112937D01*
X2427Y112634D01*
X2782Y112397D01*
X3177Y112233D01*
X3596Y112150D01*
X4024D01*
X4443Y112233D01*
X4446Y112235D01*
X18575Y98105D01*
X18575Y98105D01*
X18788Y97943D01*
X19035Y97840D01*
X19300Y97805D01*
X19922D01*
X19937Y97770D01*
X20182Y97403D01*
X20493Y97092D01*
X20860Y96847D01*
X21267Y96678D01*
X21700Y96592D01*
X22140D01*
X22573Y96678D01*
X22980Y96847D01*
X23347Y97092D01*
X23658Y97403D01*
X23903Y97770D01*
X24072Y98177D01*
X24158Y98610D01*
Y99050D01*
X24072Y99483D01*
X24057Y99518D01*
X26299Y101759D01*
X26416Y101711D01*
Y101012D01*
X26267Y100982D01*
X25860Y100813D01*
X25493Y100568D01*
X25182Y100257D01*
X24937Y99890D01*
X24768Y99483D01*
X24682Y99050D01*
Y98610D01*
X24768Y98177D01*
X24937Y97770D01*
X25182Y97403D01*
X25493Y97092D01*
X25860Y96847D01*
X26267Y96678D01*
X26416Y96648D01*
Y95778D01*
X25156Y94518D01*
X3649D01*
X3610Y94645D01*
X3923Y94854D01*
X4226Y95157D01*
X4463Y95512D01*
X4627Y95907D01*
X4710Y96326D01*
Y96754D01*
X4627Y97173D01*
X4463Y97568D01*
X4226Y97923D01*
X3923Y98226D01*
X3568Y98463D01*
X3173Y98627D01*
X2754Y98710D01*
X2326D01*
X1907Y98627D01*
X1512Y98463D01*
X1157Y98226D01*
X854Y97923D01*
X645Y97610D01*
X518Y97649D01*
Y140482D01*
X76388D01*
X76415Y140355D01*
D02*
G37*
G36*
X156415Y93355D02*
X156087Y93136D01*
X155784Y92833D01*
X155547Y92478D01*
X155383Y92083D01*
X155300Y91664D01*
Y91236D01*
X155383Y90817D01*
X155547Y90422D01*
X155784Y90067D01*
X156087Y89764D01*
X156442Y89527D01*
X156837Y89363D01*
X157256Y89280D01*
X157684D01*
X158103Y89363D01*
X158498Y89527D01*
X158853Y89764D01*
X159156Y90067D01*
X159355Y90365D01*
X159482Y90326D01*
Y47518D01*
X143490D01*
X142992Y48016D01*
Y53096D01*
X141722Y54366D01*
X138674D01*
X128613Y54366D01*
X124866Y58113D01*
X124654Y58276D01*
X124407Y58378D01*
X124141Y58413D01*
X124141Y58413D01*
X120894D01*
X120894Y60208D01*
X117338Y63764D01*
X109972D01*
X106416Y60208D01*
Y57775D01*
X102608Y53967D01*
X102573Y53982D01*
X102140Y54068D01*
X101700D01*
X101267Y53982D01*
X100860Y53813D01*
X100493Y53568D01*
X100182Y53257D01*
X99937Y52890D01*
X99922Y52855D01*
X99724D01*
X85895Y66684D01*
X85897Y66687D01*
X85980Y67106D01*
Y67534D01*
X85897Y67953D01*
X85733Y68348D01*
X85496Y68703D01*
X85193Y69006D01*
X84838Y69243D01*
X84443Y69407D01*
X84024Y69490D01*
X83596D01*
X83177Y69407D01*
X82782Y69243D01*
X82427Y69006D01*
X82124Y68703D01*
X81887Y68348D01*
X81723Y67953D01*
X81640Y67534D01*
Y67106D01*
X81723Y66687D01*
X81887Y66292D01*
X82124Y65937D01*
X82427Y65634D01*
X82782Y65397D01*
X83177Y65233D01*
X83596Y65150D01*
X84024D01*
X84443Y65233D01*
X84446Y65235D01*
X98575Y51105D01*
X98575Y51105D01*
X98788Y50943D01*
X99035Y50840D01*
X99300Y50805D01*
X99922D01*
X99937Y50770D01*
X100182Y50403D01*
X100493Y50092D01*
X100860Y49847D01*
X101267Y49678D01*
X101700Y49592D01*
X102140D01*
X102573Y49678D01*
X102980Y49847D01*
X103347Y50092D01*
X103658Y50403D01*
X103903Y50770D01*
X104072Y51177D01*
X104158Y51610D01*
Y52050D01*
X104072Y52483D01*
X104057Y52518D01*
X106299Y54759D01*
X106416Y54711D01*
Y54012D01*
X106267Y53982D01*
X105860Y53813D01*
X105493Y53568D01*
X105182Y53257D01*
X104937Y52890D01*
X104768Y52483D01*
X104682Y52050D01*
Y51610D01*
X104768Y51177D01*
X104937Y50770D01*
X105182Y50403D01*
X105493Y50092D01*
X105860Y49847D01*
X106267Y49678D01*
X106416Y49648D01*
Y48778D01*
X105156Y47518D01*
X83649D01*
X83610Y47645D01*
X83923Y47854D01*
X84226Y48157D01*
X84463Y48512D01*
X84627Y48907D01*
X84710Y49326D01*
Y49754D01*
X84627Y50173D01*
X84463Y50568D01*
X84226Y50923D01*
X83923Y51226D01*
X83568Y51463D01*
X83173Y51627D01*
X82754Y51710D01*
X82326D01*
X81907Y51627D01*
X81512Y51463D01*
X81157Y51226D01*
X80854Y50923D01*
X80645Y50610D01*
X80518Y50649D01*
Y93482D01*
X156388D01*
X156415Y93355D01*
D02*
G37*
G36*
X76415D02*
X76087Y93136D01*
X75784Y92833D01*
X75547Y92478D01*
X75383Y92083D01*
X75300Y91664D01*
Y91236D01*
X75383Y90817D01*
X75547Y90422D01*
X75784Y90067D01*
X76087Y89764D01*
X76442Y89527D01*
X76837Y89363D01*
X77256Y89280D01*
X77684D01*
X78103Y89363D01*
X78498Y89527D01*
X78853Y89764D01*
X79156Y90067D01*
X79355Y90365D01*
X79482Y90326D01*
Y47518D01*
X63490D01*
X62992Y48016D01*
Y53096D01*
X61722Y54366D01*
X58674D01*
X48613Y54366D01*
X44866Y58113D01*
X44654Y58276D01*
X44407Y58378D01*
X44141Y58413D01*
X44141Y58413D01*
X40894D01*
X40894Y60208D01*
X37338Y63764D01*
X29972D01*
X26416Y60208D01*
Y57775D01*
X22608Y53967D01*
X22573Y53982D01*
X22140Y54068D01*
X21700D01*
X21267Y53982D01*
X20860Y53813D01*
X20493Y53568D01*
X20182Y53257D01*
X19937Y52890D01*
X19922Y52855D01*
X19724D01*
X5895Y66684D01*
X5897Y66687D01*
X5980Y67106D01*
Y67534D01*
X5897Y67953D01*
X5733Y68348D01*
X5496Y68703D01*
X5193Y69006D01*
X4838Y69243D01*
X4443Y69407D01*
X4024Y69490D01*
X3596D01*
X3177Y69407D01*
X2782Y69243D01*
X2427Y69006D01*
X2124Y68703D01*
X1887Y68348D01*
X1723Y67953D01*
X1640Y67534D01*
Y67106D01*
X1723Y66687D01*
X1887Y66292D01*
X2124Y65937D01*
X2427Y65634D01*
X2782Y65397D01*
X3177Y65233D01*
X3596Y65150D01*
X4024D01*
X4443Y65233D01*
X4446Y65235D01*
X18575Y51105D01*
X18575Y51105D01*
X18788Y50943D01*
X19035Y50840D01*
X19300Y50805D01*
X19922D01*
X19937Y50770D01*
X20182Y50403D01*
X20493Y50092D01*
X20860Y49847D01*
X21267Y49678D01*
X21700Y49592D01*
X22140D01*
X22573Y49678D01*
X22980Y49847D01*
X23347Y50092D01*
X23658Y50403D01*
X23903Y50770D01*
X24072Y51177D01*
X24158Y51610D01*
Y52050D01*
X24072Y52483D01*
X24057Y52518D01*
X26299Y54759D01*
X26416Y54711D01*
Y54012D01*
X26267Y53982D01*
X25860Y53813D01*
X25493Y53568D01*
X25182Y53257D01*
X24937Y52890D01*
X24768Y52483D01*
X24682Y52050D01*
Y51610D01*
X24768Y51177D01*
X24937Y50770D01*
X25182Y50403D01*
X25493Y50092D01*
X25860Y49847D01*
X26267Y49678D01*
X26416Y49648D01*
Y48778D01*
X25156Y47518D01*
X3649D01*
X3610Y47645D01*
X3923Y47854D01*
X4226Y48157D01*
X4463Y48512D01*
X4627Y48907D01*
X4710Y49326D01*
Y49754D01*
X4627Y50173D01*
X4463Y50568D01*
X4226Y50923D01*
X3923Y51226D01*
X3568Y51463D01*
X3173Y51627D01*
X2754Y51710D01*
X2326D01*
X1907Y51627D01*
X1512Y51463D01*
X1157Y51226D01*
X854Y50923D01*
X645Y50610D01*
X518Y50649D01*
Y93482D01*
X76388D01*
X76415Y93355D01*
D02*
G37*
G36*
X156415Y46355D02*
X156087Y46136D01*
X155784Y45833D01*
X155547Y45478D01*
X155383Y45083D01*
X155300Y44664D01*
Y44236D01*
X155383Y43817D01*
X155547Y43422D01*
X155784Y43067D01*
X156087Y42764D01*
X156442Y42527D01*
X156837Y42363D01*
X157256Y42280D01*
X157684D01*
X158103Y42363D01*
X158498Y42527D01*
X158853Y42764D01*
X159156Y43067D01*
X159355Y43365D01*
X159482Y43326D01*
Y518D01*
X143490D01*
X142992Y1016D01*
Y6096D01*
X141722Y7366D01*
X138674D01*
X128613Y7366D01*
X124866Y11113D01*
X124654Y11276D01*
X124407Y11378D01*
X124141Y11413D01*
X124141Y11413D01*
X120894D01*
X120894Y13208D01*
X117338Y16764D01*
X109972D01*
X106416Y13208D01*
Y10775D01*
X102608Y6967D01*
X102573Y6982D01*
X102140Y7068D01*
X101700D01*
X101267Y6982D01*
X100860Y6813D01*
X100493Y6568D01*
X100182Y6257D01*
X99937Y5890D01*
X99922Y5855D01*
X99724D01*
X85895Y19684D01*
X85897Y19687D01*
X85980Y20106D01*
Y20534D01*
X85897Y20953D01*
X85733Y21348D01*
X85496Y21703D01*
X85193Y22006D01*
X84838Y22243D01*
X84443Y22407D01*
X84024Y22490D01*
X83596D01*
X83177Y22407D01*
X82782Y22243D01*
X82427Y22006D01*
X82124Y21703D01*
X81887Y21348D01*
X81723Y20953D01*
X81640Y20534D01*
Y20106D01*
X81723Y19687D01*
X81887Y19292D01*
X82124Y18937D01*
X82427Y18634D01*
X82782Y18397D01*
X83177Y18233D01*
X83596Y18150D01*
X84024D01*
X84443Y18233D01*
X84446Y18235D01*
X98575Y4105D01*
X98575Y4105D01*
X98788Y3943D01*
X99035Y3840D01*
X99300Y3805D01*
X99922D01*
X99937Y3770D01*
X100182Y3403D01*
X100493Y3092D01*
X100860Y2847D01*
X101267Y2678D01*
X101700Y2592D01*
X102140D01*
X102573Y2678D01*
X102980Y2847D01*
X103347Y3092D01*
X103658Y3403D01*
X103903Y3770D01*
X104072Y4177D01*
X104158Y4610D01*
Y5050D01*
X104072Y5483D01*
X104057Y5518D01*
X106299Y7759D01*
X106416Y7711D01*
Y7012D01*
X106267Y6982D01*
X105860Y6813D01*
X105493Y6568D01*
X105182Y6257D01*
X104937Y5890D01*
X104768Y5483D01*
X104682Y5050D01*
Y4610D01*
X104768Y4177D01*
X104937Y3770D01*
X105182Y3403D01*
X105493Y3092D01*
X105860Y2847D01*
X106267Y2678D01*
X106416Y2648D01*
Y1778D01*
X105156Y518D01*
X83649D01*
X83610Y645D01*
X83923Y854D01*
X84226Y1157D01*
X84463Y1512D01*
X84627Y1907D01*
X84710Y2326D01*
Y2754D01*
X84627Y3173D01*
X84463Y3568D01*
X84226Y3923D01*
X83923Y4226D01*
X83568Y4463D01*
X83173Y4627D01*
X82754Y4710D01*
X82326D01*
X81907Y4627D01*
X81512Y4463D01*
X81157Y4226D01*
X80854Y3923D01*
X80645Y3610D01*
X80518Y3649D01*
Y46482D01*
X156388D01*
X156415Y46355D01*
D02*
G37*
G36*
X76415D02*
X76087Y46136D01*
X75784Y45833D01*
X75547Y45478D01*
X75383Y45083D01*
X75300Y44664D01*
Y44236D01*
X75383Y43817D01*
X75547Y43422D01*
X75784Y43067D01*
X76087Y42764D01*
X76442Y42527D01*
X76837Y42363D01*
X77256Y42280D01*
X77684D01*
X78103Y42363D01*
X78498Y42527D01*
X78853Y42764D01*
X79156Y43067D01*
X79355Y43365D01*
X79482Y43326D01*
Y518D01*
X63490D01*
X62992Y1016D01*
Y6096D01*
X61722Y7366D01*
X58674D01*
X48613Y7366D01*
X44866Y11113D01*
X44654Y11276D01*
X44407Y11378D01*
X44141Y11413D01*
X44141Y11413D01*
X40894D01*
X40894Y13208D01*
X37338Y16764D01*
X29972D01*
X26416Y13208D01*
Y10775D01*
X22608Y6967D01*
X22573Y6982D01*
X22140Y7068D01*
X21700D01*
X21267Y6982D01*
X20860Y6813D01*
X20493Y6568D01*
X20182Y6257D01*
X19937Y5890D01*
X19922Y5855D01*
X19724D01*
X5895Y19684D01*
X5897Y19687D01*
X5980Y20106D01*
Y20534D01*
X5897Y20953D01*
X5733Y21348D01*
X5496Y21703D01*
X5193Y22006D01*
X4838Y22243D01*
X4443Y22407D01*
X4024Y22490D01*
X3596D01*
X3177Y22407D01*
X2782Y22243D01*
X2427Y22006D01*
X2124Y21703D01*
X1887Y21348D01*
X1723Y20953D01*
X1640Y20534D01*
Y20106D01*
X1723Y19687D01*
X1887Y19292D01*
X2124Y18937D01*
X2427Y18634D01*
X2782Y18397D01*
X3177Y18233D01*
X3596Y18150D01*
X4024D01*
X4443Y18233D01*
X4446Y18235D01*
X18575Y4105D01*
X18575Y4105D01*
X18788Y3943D01*
X19035Y3840D01*
X19300Y3805D01*
X19922D01*
X19937Y3770D01*
X20182Y3403D01*
X20493Y3092D01*
X20860Y2847D01*
X21267Y2678D01*
X21700Y2592D01*
X22140D01*
X22573Y2678D01*
X22980Y2847D01*
X23347Y3092D01*
X23658Y3403D01*
X23903Y3770D01*
X24072Y4177D01*
X24158Y4610D01*
Y5050D01*
X24072Y5483D01*
X24057Y5518D01*
X26299Y7759D01*
X26416Y7711D01*
Y7012D01*
X26267Y6982D01*
X25860Y6813D01*
X25493Y6568D01*
X25182Y6257D01*
X24937Y5890D01*
X24768Y5483D01*
X24682Y5050D01*
Y4610D01*
X24768Y4177D01*
X24937Y3770D01*
X25182Y3403D01*
X25493Y3092D01*
X25860Y2847D01*
X26267Y2678D01*
X26416Y2648D01*
Y1778D01*
X25156Y518D01*
X3649D01*
X3610Y645D01*
X3923Y854D01*
X4226Y1157D01*
X4463Y1512D01*
X4627Y1907D01*
X4710Y2326D01*
Y2754D01*
X4627Y3173D01*
X4463Y3568D01*
X4226Y3923D01*
X3923Y4226D01*
X3568Y4463D01*
X3173Y4627D01*
X2754Y4710D01*
X2326D01*
X1907Y4627D01*
X1512Y4463D01*
X1157Y4226D01*
X854Y3923D01*
X645Y3610D01*
X518Y3649D01*
Y46482D01*
X76388D01*
X76415Y46355D01*
D02*
G37*
%LPC*%
G36*
X93234Y233350D02*
X92806D01*
X92387Y233267D01*
X91992Y233103D01*
X91637Y232866D01*
X91334Y232563D01*
X91097Y232208D01*
X90933Y231813D01*
X90850Y231394D01*
Y230966D01*
X90933Y230547D01*
X91097Y230152D01*
X91334Y229797D01*
X91634Y229497D01*
X91106Y228968D01*
X91088Y228945D01*
X90580D01*
X90412Y228912D01*
X90269Y228817D01*
X90174Y228674D01*
X90141Y228506D01*
Y227606D01*
X90174Y227438D01*
X90229Y227356D01*
X90174Y227274D01*
X90141Y227106D01*
Y226792D01*
X89462D01*
X89179Y227075D01*
X89020Y227197D01*
X88835Y227274D01*
X88636Y227300D01*
X88437Y227274D01*
X88252Y227197D01*
X88093Y227075D01*
X87970Y226916D01*
X87894Y226731D01*
X87867Y226532D01*
X87894Y226333D01*
X87970Y226148D01*
X88093Y225988D01*
X88601Y225480D01*
X88760Y225358D01*
X88945Y225281D01*
X89144Y225255D01*
X89144Y225255D01*
X90648D01*
X90847Y225281D01*
X91032Y225358D01*
X91192Y225480D01*
X91478Y225766D01*
X91980D01*
X92148Y225800D01*
X92291Y225895D01*
X92386Y226038D01*
X92420Y226206D01*
Y227106D01*
X92386Y227274D01*
X92331Y227356D01*
X92386Y227438D01*
X92420Y227606D01*
Y228108D01*
X93088Y228776D01*
X93601D01*
X93669Y228649D01*
X93641Y228506D01*
Y227606D01*
X93674Y227438D01*
X93729Y227356D01*
X93674Y227274D01*
X93641Y227106D01*
Y226206D01*
X93674Y226038D01*
X93769Y225895D01*
X93912Y225800D01*
X94080Y225766D01*
X94421D01*
Y225387D01*
X94294Y225319D01*
X94048Y225483D01*
X93653Y225647D01*
X93234Y225730D01*
X92806D01*
X92387Y225647D01*
X91992Y225483D01*
X91637Y225246D01*
X91334Y224943D01*
X91097Y224588D01*
X90933Y224193D01*
X90850Y223774D01*
Y223346D01*
X90933Y222927D01*
X91097Y222532D01*
X91334Y222177D01*
X91637Y221874D01*
X91992Y221637D01*
X92387Y221473D01*
X92806Y221390D01*
X93234D01*
X93653Y221473D01*
X94048Y221637D01*
X94403Y221874D01*
X94706Y222177D01*
X94943Y222532D01*
X95107Y222927D01*
X95190Y223346D01*
Y223630D01*
X95388Y223656D01*
X95573Y223733D01*
X95733Y223855D01*
X95855Y224014D01*
X95932Y224199D01*
X95958Y224398D01*
Y226786D01*
X95932Y226985D01*
X95920Y227014D01*
Y227106D01*
X95886Y227274D01*
X95886Y227274D01*
X95954Y227401D01*
X98694D01*
X100415Y225680D01*
Y214035D01*
X100441Y213836D01*
X100518Y213651D01*
X100640Y213492D01*
X102113Y212018D01*
X102273Y211896D01*
X102458Y211819D01*
X102657Y211793D01*
X103774D01*
X103973Y211819D01*
X104159Y211896D01*
X104318Y212018D01*
X104440Y212178D01*
X104517Y212363D01*
X104543Y212562D01*
X104517Y212761D01*
X104440Y212946D01*
X104318Y213105D01*
X104159Y213227D01*
X103973Y213304D01*
X103774Y213330D01*
X102975D01*
X101952Y214353D01*
Y225998D01*
X101926Y226197D01*
X101849Y226383D01*
X101727Y226542D01*
X101727Y226542D01*
X99620Y228649D01*
X99672Y228776D01*
X105091D01*
X110550Y223318D01*
Y222265D01*
X110576Y222066D01*
X110653Y221880D01*
X110775Y221721D01*
X110934Y221599D01*
X111119Y221522D01*
X111318Y221496D01*
X111517Y221522D01*
X111702Y221599D01*
X111862Y221721D01*
X111984Y221880D01*
X112061Y222066D01*
X112087Y222265D01*
Y223636D01*
X112087Y223636D01*
X112061Y223835D01*
X111984Y224020D01*
X111862Y224180D01*
X111862Y224180D01*
X105953Y230088D01*
X105794Y230211D01*
X105608Y230287D01*
X105409Y230314D01*
X95124D01*
X95054Y230419D01*
X95107Y230547D01*
X95190Y230966D01*
Y231394D01*
X95107Y231813D01*
X94943Y232208D01*
X94706Y232563D01*
X94403Y232866D01*
X94048Y233103D01*
X93653Y233267D01*
X93234Y233350D01*
D02*
G37*
G36*
X118227Y222576D02*
X118028Y222550D01*
X117843Y222473D01*
X117684Y222351D01*
X116308Y220976D01*
X103851D01*
X103652Y220950D01*
X103466Y220873D01*
X103307Y220751D01*
X103185Y220591D01*
X103108Y220406D01*
X103082Y220207D01*
X103108Y220008D01*
X103185Y219823D01*
X103307Y219664D01*
X103466Y219542D01*
X103652Y219465D01*
X103851Y219439D01*
X116627D01*
X116826Y219465D01*
X117011Y219542D01*
X117170Y219664D01*
X118770Y221264D01*
X118893Y221423D01*
X118969Y221608D01*
X118996Y221807D01*
X118969Y222006D01*
X118893Y222192D01*
X118770Y222351D01*
X118611Y222473D01*
X118426Y222550D01*
X118227Y222576D01*
D02*
G37*
G36*
X124602Y218692D02*
X124602Y218692D01*
X103825D01*
X103560Y218657D01*
X103313Y218555D01*
X103101Y218392D01*
X102938Y218180D01*
X102835Y217932D01*
X102800Y217667D01*
X102835Y217402D01*
X102938Y217155D01*
X103101Y216943D01*
X103313Y216780D01*
X103560Y216677D01*
X103825Y216642D01*
X124178D01*
X133585Y207235D01*
Y205165D01*
X133582Y205163D01*
X133227Y204926D01*
X132924Y204623D01*
X132687Y204268D01*
X132523Y203873D01*
X132440Y203454D01*
Y203026D01*
X132523Y202607D01*
X132687Y202212D01*
X132924Y201857D01*
X133227Y201554D01*
X133582Y201317D01*
X133977Y201153D01*
X134396Y201070D01*
X134824D01*
X135243Y201153D01*
X135638Y201317D01*
X135993Y201554D01*
X136296Y201857D01*
X136533Y202212D01*
X136697Y202607D01*
X136780Y203026D01*
Y203454D01*
X136697Y203873D01*
X136533Y204268D01*
X136296Y204623D01*
X135993Y204926D01*
X135638Y205163D01*
X135635Y205165D01*
Y207660D01*
X135600Y207925D01*
X135497Y208172D01*
X135335Y208384D01*
X135335Y208384D01*
X125327Y218392D01*
X125115Y218555D01*
X124868Y218657D01*
X124602Y218692D01*
D02*
G37*
G36*
X124664Y205410D02*
X124236D01*
X123817Y205327D01*
X123422Y205163D01*
X123067Y204926D01*
X122764Y204623D01*
X122527Y204268D01*
X122363Y203873D01*
X122280Y203454D01*
Y203026D01*
X122363Y202607D01*
X122527Y202212D01*
X122764Y201857D01*
X123067Y201554D01*
X123422Y201317D01*
X123817Y201153D01*
X124236Y201070D01*
X124664D01*
X125083Y201153D01*
X125478Y201317D01*
X125833Y201554D01*
X126136Y201857D01*
X126373Y202212D01*
X126537Y202607D01*
X126620Y203026D01*
Y203454D01*
X126537Y203873D01*
X126373Y204268D01*
X126136Y204623D01*
X125833Y204926D01*
X125478Y205163D01*
X125083Y205327D01*
X124664Y205410D01*
D02*
G37*
G36*
X84024D02*
X83596D01*
X83177Y205327D01*
X82782Y205163D01*
X82427Y204926D01*
X82124Y204623D01*
X81887Y204268D01*
X81723Y203873D01*
X81640Y203454D01*
Y203026D01*
X81723Y202607D01*
X81887Y202212D01*
X82124Y201857D01*
X82427Y201554D01*
X82782Y201317D01*
X83177Y201153D01*
X83596Y201070D01*
X84024D01*
X84443Y201153D01*
X84838Y201317D01*
X85193Y201554D01*
X85496Y201857D01*
X85733Y202212D01*
X85897Y202607D01*
X85980Y203026D01*
Y203454D01*
X85897Y203873D01*
X85733Y204268D01*
X85496Y204623D01*
X85193Y204926D01*
X84838Y205163D01*
X84443Y205327D01*
X84024Y205410D01*
D02*
G37*
G36*
Y200330D02*
X83596D01*
X83177Y200247D01*
X82782Y200083D01*
X82427Y199846D01*
X82124Y199543D01*
X81887Y199188D01*
X81723Y198793D01*
X81640Y198374D01*
Y197946D01*
X81723Y197527D01*
X81887Y197132D01*
X82124Y196777D01*
X82427Y196474D01*
X82782Y196237D01*
X83177Y196073D01*
X83596Y195990D01*
X84024D01*
X84443Y196073D01*
X84838Y196237D01*
X85193Y196474D01*
X85496Y196777D01*
X85733Y197132D01*
X85897Y197527D01*
X85980Y197946D01*
Y198374D01*
X85897Y198793D01*
X85733Y199188D01*
X85496Y199543D01*
X85193Y199846D01*
X84838Y200083D01*
X84443Y200247D01*
X84024Y200330D01*
D02*
G37*
G36*
X13234Y233350D02*
X12806D01*
X12387Y233267D01*
X11992Y233103D01*
X11637Y232866D01*
X11334Y232563D01*
X11097Y232208D01*
X10933Y231813D01*
X10850Y231394D01*
Y230966D01*
X10933Y230547D01*
X11097Y230152D01*
X11334Y229797D01*
X11634Y229497D01*
X11106Y228968D01*
X11088Y228945D01*
X10580D01*
X10412Y228912D01*
X10269Y228817D01*
X10174Y228674D01*
X10141Y228506D01*
Y227606D01*
X10174Y227438D01*
X10229Y227356D01*
X10174Y227274D01*
X10141Y227106D01*
Y226792D01*
X9462D01*
X9179Y227075D01*
X9020Y227197D01*
X8835Y227274D01*
X8636Y227300D01*
X8437Y227274D01*
X8252Y227197D01*
X8093Y227075D01*
X7970Y226916D01*
X7894Y226731D01*
X7867Y226532D01*
X7894Y226333D01*
X7970Y226148D01*
X8093Y225988D01*
X8601Y225480D01*
X8760Y225358D01*
X8945Y225281D01*
X9144Y225255D01*
X9144Y225255D01*
X10648D01*
X10847Y225281D01*
X11032Y225358D01*
X11192Y225480D01*
X11478Y225766D01*
X11980D01*
X12148Y225800D01*
X12291Y225895D01*
X12386Y226038D01*
X12420Y226206D01*
Y227106D01*
X12386Y227274D01*
X12331Y227356D01*
X12386Y227438D01*
X12420Y227606D01*
Y228108D01*
X13088Y228776D01*
X13601D01*
X13669Y228649D01*
X13641Y228506D01*
Y227606D01*
X13674Y227438D01*
X13729Y227356D01*
X13674Y227274D01*
X13641Y227106D01*
Y226206D01*
X13674Y226038D01*
X13769Y225895D01*
X13912Y225800D01*
X14080Y225766D01*
X14421D01*
Y225387D01*
X14294Y225319D01*
X14048Y225483D01*
X13653Y225647D01*
X13234Y225730D01*
X12806D01*
X12387Y225647D01*
X11992Y225483D01*
X11637Y225246D01*
X11334Y224943D01*
X11097Y224588D01*
X10933Y224193D01*
X10850Y223774D01*
Y223346D01*
X10933Y222927D01*
X11097Y222532D01*
X11334Y222177D01*
X11637Y221874D01*
X11992Y221637D01*
X12387Y221473D01*
X12806Y221390D01*
X13234D01*
X13653Y221473D01*
X14048Y221637D01*
X14403Y221874D01*
X14706Y222177D01*
X14943Y222532D01*
X15107Y222927D01*
X15190Y223346D01*
Y223630D01*
X15388Y223656D01*
X15573Y223733D01*
X15733Y223855D01*
X15855Y224014D01*
X15932Y224199D01*
X15958Y224398D01*
Y226786D01*
X15932Y226985D01*
X15920Y227014D01*
Y227106D01*
X15886Y227274D01*
X15886Y227274D01*
X15954Y227401D01*
X18694D01*
X20415Y225680D01*
Y214035D01*
X20441Y213836D01*
X20518Y213651D01*
X20640Y213492D01*
X22113Y212018D01*
X22273Y211896D01*
X22458Y211819D01*
X22657Y211793D01*
X23774D01*
X23973Y211819D01*
X24159Y211896D01*
X24318Y212018D01*
X24440Y212178D01*
X24517Y212363D01*
X24543Y212562D01*
X24517Y212761D01*
X24440Y212946D01*
X24318Y213105D01*
X24159Y213227D01*
X23973Y213304D01*
X23774Y213330D01*
X22975D01*
X21952Y214353D01*
Y225998D01*
X21926Y226197D01*
X21849Y226383D01*
X21727Y226542D01*
X21727Y226542D01*
X19620Y228649D01*
X19672Y228776D01*
X25091D01*
X30550Y223318D01*
Y222265D01*
X30576Y222066D01*
X30653Y221880D01*
X30775Y221721D01*
X30934Y221599D01*
X31119Y221522D01*
X31318Y221496D01*
X31517Y221522D01*
X31702Y221599D01*
X31862Y221721D01*
X31984Y221880D01*
X32061Y222066D01*
X32087Y222265D01*
Y223636D01*
X32087Y223636D01*
X32061Y223835D01*
X31984Y224020D01*
X31862Y224180D01*
X31862Y224180D01*
X25953Y230088D01*
X25794Y230211D01*
X25608Y230287D01*
X25409Y230314D01*
X15124D01*
X15054Y230419D01*
X15107Y230547D01*
X15190Y230966D01*
Y231394D01*
X15107Y231813D01*
X14943Y232208D01*
X14706Y232563D01*
X14403Y232866D01*
X14048Y233103D01*
X13653Y233267D01*
X13234Y233350D01*
D02*
G37*
G36*
X38227Y222576D02*
X38028Y222550D01*
X37843Y222473D01*
X37684Y222351D01*
X36308Y220976D01*
X23851D01*
X23652Y220950D01*
X23466Y220873D01*
X23307Y220751D01*
X23185Y220591D01*
X23108Y220406D01*
X23082Y220207D01*
X23108Y220008D01*
X23185Y219823D01*
X23307Y219664D01*
X23466Y219542D01*
X23652Y219465D01*
X23851Y219439D01*
X36627D01*
X36826Y219465D01*
X37011Y219542D01*
X37170Y219664D01*
X38770Y221264D01*
X38893Y221423D01*
X38969Y221608D01*
X38996Y221807D01*
X38969Y222006D01*
X38893Y222192D01*
X38770Y222351D01*
X38611Y222473D01*
X38426Y222550D01*
X38227Y222576D01*
D02*
G37*
G36*
X44602Y218692D02*
X44602Y218692D01*
X23825D01*
X23560Y218657D01*
X23313Y218555D01*
X23101Y218392D01*
X22938Y218180D01*
X22835Y217932D01*
X22800Y217667D01*
X22835Y217402D01*
X22938Y217155D01*
X23101Y216943D01*
X23313Y216780D01*
X23560Y216677D01*
X23825Y216642D01*
X44178D01*
X53585Y207235D01*
Y205165D01*
X53582Y205163D01*
X53227Y204926D01*
X52924Y204623D01*
X52687Y204268D01*
X52523Y203873D01*
X52440Y203454D01*
Y203026D01*
X52523Y202607D01*
X52687Y202212D01*
X52924Y201857D01*
X53227Y201554D01*
X53582Y201317D01*
X53977Y201153D01*
X54396Y201070D01*
X54824D01*
X55243Y201153D01*
X55638Y201317D01*
X55993Y201554D01*
X56296Y201857D01*
X56533Y202212D01*
X56697Y202607D01*
X56780Y203026D01*
Y203454D01*
X56697Y203873D01*
X56533Y204268D01*
X56296Y204623D01*
X55993Y204926D01*
X55638Y205163D01*
X55635Y205165D01*
Y207660D01*
X55600Y207925D01*
X55497Y208172D01*
X55335Y208384D01*
X55335Y208384D01*
X45327Y218392D01*
X45115Y218555D01*
X44868Y218657D01*
X44602Y218692D01*
D02*
G37*
G36*
X44664Y205410D02*
X44236D01*
X43817Y205327D01*
X43422Y205163D01*
X43067Y204926D01*
X42764Y204623D01*
X42527Y204268D01*
X42363Y203873D01*
X42280Y203454D01*
Y203026D01*
X42363Y202607D01*
X42527Y202212D01*
X42764Y201857D01*
X43067Y201554D01*
X43422Y201317D01*
X43817Y201153D01*
X44236Y201070D01*
X44664D01*
X45083Y201153D01*
X45478Y201317D01*
X45833Y201554D01*
X46136Y201857D01*
X46373Y202212D01*
X46537Y202607D01*
X46620Y203026D01*
Y203454D01*
X46537Y203873D01*
X46373Y204268D01*
X46136Y204623D01*
X45833Y204926D01*
X45478Y205163D01*
X45083Y205327D01*
X44664Y205410D01*
D02*
G37*
G36*
X4024D02*
X3596D01*
X3177Y205327D01*
X2782Y205163D01*
X2427Y204926D01*
X2124Y204623D01*
X1887Y204268D01*
X1723Y203873D01*
X1640Y203454D01*
Y203026D01*
X1723Y202607D01*
X1887Y202212D01*
X2124Y201857D01*
X2427Y201554D01*
X2782Y201317D01*
X3177Y201153D01*
X3596Y201070D01*
X4024D01*
X4443Y201153D01*
X4838Y201317D01*
X5193Y201554D01*
X5496Y201857D01*
X5733Y202212D01*
X5897Y202607D01*
X5980Y203026D01*
Y203454D01*
X5897Y203873D01*
X5733Y204268D01*
X5496Y204623D01*
X5193Y204926D01*
X4838Y205163D01*
X4443Y205327D01*
X4024Y205410D01*
D02*
G37*
G36*
Y200330D02*
X3596D01*
X3177Y200247D01*
X2782Y200083D01*
X2427Y199846D01*
X2124Y199543D01*
X1887Y199188D01*
X1723Y198793D01*
X1640Y198374D01*
Y197946D01*
X1723Y197527D01*
X1887Y197132D01*
X2124Y196777D01*
X2427Y196474D01*
X2782Y196237D01*
X3177Y196073D01*
X3596Y195990D01*
X4024D01*
X4443Y196073D01*
X4838Y196237D01*
X5193Y196474D01*
X5496Y196777D01*
X5733Y197132D01*
X5897Y197527D01*
X5980Y197946D01*
Y198374D01*
X5897Y198793D01*
X5733Y199188D01*
X5496Y199543D01*
X5193Y199846D01*
X4838Y200083D01*
X4443Y200247D01*
X4024Y200330D01*
D02*
G37*
G36*
X93234Y186350D02*
X92806D01*
X92387Y186267D01*
X91992Y186103D01*
X91637Y185866D01*
X91334Y185563D01*
X91097Y185208D01*
X90933Y184813D01*
X90850Y184394D01*
Y183966D01*
X90933Y183547D01*
X91097Y183152D01*
X91334Y182797D01*
X91634Y182497D01*
X91106Y181968D01*
X91088Y181945D01*
X90580D01*
X90412Y181912D01*
X90269Y181817D01*
X90174Y181674D01*
X90141Y181506D01*
Y180606D01*
X90174Y180438D01*
X90229Y180356D01*
X90174Y180274D01*
X90141Y180106D01*
Y179792D01*
X89462D01*
X89179Y180075D01*
X89020Y180197D01*
X88835Y180274D01*
X88636Y180300D01*
X88437Y180274D01*
X88252Y180197D01*
X88093Y180075D01*
X87970Y179916D01*
X87894Y179731D01*
X87867Y179532D01*
X87894Y179333D01*
X87970Y179148D01*
X88093Y178988D01*
X88601Y178480D01*
X88760Y178358D01*
X88945Y178281D01*
X89144Y178255D01*
X89144Y178255D01*
X90648D01*
X90847Y178281D01*
X91032Y178358D01*
X91192Y178480D01*
X91478Y178766D01*
X91980D01*
X92148Y178800D01*
X92291Y178895D01*
X92386Y179038D01*
X92420Y179206D01*
Y180106D01*
X92386Y180274D01*
X92331Y180356D01*
X92386Y180438D01*
X92420Y180606D01*
Y181108D01*
X93088Y181776D01*
X93601D01*
X93669Y181649D01*
X93641Y181506D01*
Y180606D01*
X93674Y180438D01*
X93729Y180356D01*
X93674Y180274D01*
X93641Y180106D01*
Y179206D01*
X93674Y179038D01*
X93769Y178895D01*
X93912Y178800D01*
X94080Y178766D01*
X94421D01*
Y178387D01*
X94294Y178319D01*
X94048Y178483D01*
X93653Y178647D01*
X93234Y178730D01*
X92806D01*
X92387Y178647D01*
X91992Y178483D01*
X91637Y178246D01*
X91334Y177943D01*
X91097Y177588D01*
X90933Y177193D01*
X90850Y176774D01*
Y176346D01*
X90933Y175927D01*
X91097Y175532D01*
X91334Y175177D01*
X91637Y174874D01*
X91992Y174637D01*
X92387Y174473D01*
X92806Y174390D01*
X93234D01*
X93653Y174473D01*
X94048Y174637D01*
X94403Y174874D01*
X94706Y175177D01*
X94943Y175532D01*
X95107Y175927D01*
X95190Y176346D01*
Y176630D01*
X95388Y176656D01*
X95573Y176733D01*
X95733Y176855D01*
X95855Y177014D01*
X95932Y177199D01*
X95958Y177398D01*
Y179786D01*
X95932Y179985D01*
X95920Y180014D01*
Y180106D01*
X95886Y180274D01*
X95886Y180274D01*
X95954Y180401D01*
X98694D01*
X100415Y178680D01*
Y167035D01*
X100441Y166836D01*
X100518Y166651D01*
X100640Y166492D01*
X102113Y165018D01*
X102273Y164896D01*
X102458Y164819D01*
X102657Y164793D01*
X103774D01*
X103973Y164819D01*
X104159Y164896D01*
X104318Y165018D01*
X104440Y165178D01*
X104517Y165363D01*
X104543Y165562D01*
X104517Y165761D01*
X104440Y165946D01*
X104318Y166105D01*
X104159Y166227D01*
X103973Y166304D01*
X103774Y166330D01*
X102975D01*
X101952Y167353D01*
Y178998D01*
X101926Y179197D01*
X101849Y179383D01*
X101727Y179542D01*
X101727Y179542D01*
X99620Y181649D01*
X99672Y181776D01*
X105091D01*
X110550Y176318D01*
Y175265D01*
X110576Y175066D01*
X110653Y174880D01*
X110775Y174721D01*
X110934Y174599D01*
X111119Y174522D01*
X111318Y174496D01*
X111517Y174522D01*
X111702Y174599D01*
X111862Y174721D01*
X111984Y174880D01*
X112061Y175066D01*
X112087Y175265D01*
Y176636D01*
X112087Y176636D01*
X112061Y176835D01*
X111984Y177020D01*
X111862Y177180D01*
X111862Y177180D01*
X105953Y183088D01*
X105794Y183211D01*
X105608Y183287D01*
X105409Y183314D01*
X95124D01*
X95054Y183419D01*
X95107Y183547D01*
X95190Y183966D01*
Y184394D01*
X95107Y184813D01*
X94943Y185208D01*
X94706Y185563D01*
X94403Y185866D01*
X94048Y186103D01*
X93653Y186267D01*
X93234Y186350D01*
D02*
G37*
G36*
X118227Y175576D02*
X118028Y175550D01*
X117843Y175473D01*
X117684Y175351D01*
X116308Y173976D01*
X103851D01*
X103652Y173950D01*
X103466Y173873D01*
X103307Y173751D01*
X103185Y173591D01*
X103108Y173406D01*
X103082Y173207D01*
X103108Y173008D01*
X103185Y172823D01*
X103307Y172664D01*
X103466Y172542D01*
X103652Y172465D01*
X103851Y172439D01*
X116627D01*
X116826Y172465D01*
X117011Y172542D01*
X117170Y172664D01*
X118770Y174264D01*
X118893Y174423D01*
X118969Y174608D01*
X118996Y174807D01*
X118969Y175006D01*
X118893Y175192D01*
X118770Y175351D01*
X118611Y175473D01*
X118426Y175550D01*
X118227Y175576D01*
D02*
G37*
G36*
X124602Y171692D02*
X124602Y171692D01*
X103825D01*
X103560Y171657D01*
X103313Y171555D01*
X103101Y171392D01*
X102938Y171180D01*
X102835Y170932D01*
X102800Y170667D01*
X102835Y170402D01*
X102938Y170155D01*
X103101Y169943D01*
X103313Y169780D01*
X103560Y169677D01*
X103825Y169642D01*
X124178D01*
X133585Y160235D01*
Y158165D01*
X133582Y158163D01*
X133227Y157926D01*
X132924Y157623D01*
X132687Y157268D01*
X132523Y156873D01*
X132440Y156454D01*
Y156026D01*
X132523Y155607D01*
X132687Y155212D01*
X132924Y154857D01*
X133227Y154554D01*
X133582Y154317D01*
X133977Y154153D01*
X134396Y154070D01*
X134824D01*
X135243Y154153D01*
X135638Y154317D01*
X135993Y154554D01*
X136296Y154857D01*
X136533Y155212D01*
X136697Y155607D01*
X136780Y156026D01*
Y156454D01*
X136697Y156873D01*
X136533Y157268D01*
X136296Y157623D01*
X135993Y157926D01*
X135638Y158163D01*
X135635Y158165D01*
Y160660D01*
X135600Y160925D01*
X135497Y161172D01*
X135335Y161384D01*
X135335Y161384D01*
X125327Y171392D01*
X125115Y171555D01*
X124868Y171657D01*
X124602Y171692D01*
D02*
G37*
G36*
X124664Y158410D02*
X124236D01*
X123817Y158327D01*
X123422Y158163D01*
X123067Y157926D01*
X122764Y157623D01*
X122527Y157268D01*
X122363Y156873D01*
X122280Y156454D01*
Y156026D01*
X122363Y155607D01*
X122527Y155212D01*
X122764Y154857D01*
X123067Y154554D01*
X123422Y154317D01*
X123817Y154153D01*
X124236Y154070D01*
X124664D01*
X125083Y154153D01*
X125478Y154317D01*
X125833Y154554D01*
X126136Y154857D01*
X126373Y155212D01*
X126537Y155607D01*
X126620Y156026D01*
Y156454D01*
X126537Y156873D01*
X126373Y157268D01*
X126136Y157623D01*
X125833Y157926D01*
X125478Y158163D01*
X125083Y158327D01*
X124664Y158410D01*
D02*
G37*
G36*
X84024D02*
X83596D01*
X83177Y158327D01*
X82782Y158163D01*
X82427Y157926D01*
X82124Y157623D01*
X81887Y157268D01*
X81723Y156873D01*
X81640Y156454D01*
Y156026D01*
X81723Y155607D01*
X81887Y155212D01*
X82124Y154857D01*
X82427Y154554D01*
X82782Y154317D01*
X83177Y154153D01*
X83596Y154070D01*
X84024D01*
X84443Y154153D01*
X84838Y154317D01*
X85193Y154554D01*
X85496Y154857D01*
X85733Y155212D01*
X85897Y155607D01*
X85980Y156026D01*
Y156454D01*
X85897Y156873D01*
X85733Y157268D01*
X85496Y157623D01*
X85193Y157926D01*
X84838Y158163D01*
X84443Y158327D01*
X84024Y158410D01*
D02*
G37*
G36*
Y153330D02*
X83596D01*
X83177Y153247D01*
X82782Y153083D01*
X82427Y152846D01*
X82124Y152543D01*
X81887Y152188D01*
X81723Y151793D01*
X81640Y151374D01*
Y150946D01*
X81723Y150527D01*
X81887Y150132D01*
X82124Y149777D01*
X82427Y149474D01*
X82782Y149237D01*
X83177Y149073D01*
X83596Y148990D01*
X84024D01*
X84443Y149073D01*
X84838Y149237D01*
X85193Y149474D01*
X85496Y149777D01*
X85733Y150132D01*
X85897Y150527D01*
X85980Y150946D01*
Y151374D01*
X85897Y151793D01*
X85733Y152188D01*
X85496Y152543D01*
X85193Y152846D01*
X84838Y153083D01*
X84443Y153247D01*
X84024Y153330D01*
D02*
G37*
G36*
X13234Y186350D02*
X12806D01*
X12387Y186267D01*
X11992Y186103D01*
X11637Y185866D01*
X11334Y185563D01*
X11097Y185208D01*
X10933Y184813D01*
X10850Y184394D01*
Y183966D01*
X10933Y183547D01*
X11097Y183152D01*
X11334Y182797D01*
X11634Y182497D01*
X11106Y181968D01*
X11088Y181945D01*
X10580D01*
X10412Y181912D01*
X10269Y181817D01*
X10174Y181674D01*
X10141Y181506D01*
Y180606D01*
X10174Y180438D01*
X10229Y180356D01*
X10174Y180274D01*
X10141Y180106D01*
Y179792D01*
X9462D01*
X9179Y180075D01*
X9020Y180197D01*
X8835Y180274D01*
X8636Y180300D01*
X8437Y180274D01*
X8252Y180197D01*
X8093Y180075D01*
X7970Y179916D01*
X7894Y179731D01*
X7867Y179532D01*
X7894Y179333D01*
X7970Y179148D01*
X8093Y178988D01*
X8601Y178480D01*
X8760Y178358D01*
X8945Y178281D01*
X9144Y178255D01*
X9144Y178255D01*
X10648D01*
X10847Y178281D01*
X11032Y178358D01*
X11192Y178480D01*
X11478Y178766D01*
X11980D01*
X12148Y178800D01*
X12291Y178895D01*
X12386Y179038D01*
X12420Y179206D01*
Y180106D01*
X12386Y180274D01*
X12331Y180356D01*
X12386Y180438D01*
X12420Y180606D01*
Y181108D01*
X13088Y181776D01*
X13601D01*
X13669Y181649D01*
X13641Y181506D01*
Y180606D01*
X13674Y180438D01*
X13729Y180356D01*
X13674Y180274D01*
X13641Y180106D01*
Y179206D01*
X13674Y179038D01*
X13769Y178895D01*
X13912Y178800D01*
X14080Y178766D01*
X14421D01*
Y178387D01*
X14294Y178319D01*
X14048Y178483D01*
X13653Y178647D01*
X13234Y178730D01*
X12806D01*
X12387Y178647D01*
X11992Y178483D01*
X11637Y178246D01*
X11334Y177943D01*
X11097Y177588D01*
X10933Y177193D01*
X10850Y176774D01*
Y176346D01*
X10933Y175927D01*
X11097Y175532D01*
X11334Y175177D01*
X11637Y174874D01*
X11992Y174637D01*
X12387Y174473D01*
X12806Y174390D01*
X13234D01*
X13653Y174473D01*
X14048Y174637D01*
X14403Y174874D01*
X14706Y175177D01*
X14943Y175532D01*
X15107Y175927D01*
X15190Y176346D01*
Y176630D01*
X15388Y176656D01*
X15573Y176733D01*
X15733Y176855D01*
X15855Y177014D01*
X15932Y177199D01*
X15958Y177398D01*
Y179786D01*
X15932Y179985D01*
X15920Y180014D01*
Y180106D01*
X15886Y180274D01*
X15886Y180274D01*
X15954Y180401D01*
X18694D01*
X20415Y178680D01*
Y167035D01*
X20441Y166836D01*
X20518Y166651D01*
X20640Y166492D01*
X22113Y165018D01*
X22273Y164896D01*
X22458Y164819D01*
X22657Y164793D01*
X23774D01*
X23973Y164819D01*
X24159Y164896D01*
X24318Y165018D01*
X24440Y165178D01*
X24517Y165363D01*
X24543Y165562D01*
X24517Y165761D01*
X24440Y165946D01*
X24318Y166105D01*
X24159Y166227D01*
X23973Y166304D01*
X23774Y166330D01*
X22975D01*
X21952Y167353D01*
Y178998D01*
X21926Y179197D01*
X21849Y179383D01*
X21727Y179542D01*
X21727Y179542D01*
X19620Y181649D01*
X19672Y181776D01*
X25091D01*
X30550Y176318D01*
Y175265D01*
X30576Y175066D01*
X30653Y174880D01*
X30775Y174721D01*
X30934Y174599D01*
X31119Y174522D01*
X31318Y174496D01*
X31517Y174522D01*
X31702Y174599D01*
X31862Y174721D01*
X31984Y174880D01*
X32061Y175066D01*
X32087Y175265D01*
Y176636D01*
X32087Y176636D01*
X32061Y176835D01*
X31984Y177020D01*
X31862Y177180D01*
X31862Y177180D01*
X25953Y183088D01*
X25794Y183211D01*
X25608Y183287D01*
X25409Y183314D01*
X15124D01*
X15054Y183419D01*
X15107Y183547D01*
X15190Y183966D01*
Y184394D01*
X15107Y184813D01*
X14943Y185208D01*
X14706Y185563D01*
X14403Y185866D01*
X14048Y186103D01*
X13653Y186267D01*
X13234Y186350D01*
D02*
G37*
G36*
X38227Y175576D02*
X38028Y175550D01*
X37843Y175473D01*
X37684Y175351D01*
X36308Y173976D01*
X23851D01*
X23652Y173950D01*
X23466Y173873D01*
X23307Y173751D01*
X23185Y173591D01*
X23108Y173406D01*
X23082Y173207D01*
X23108Y173008D01*
X23185Y172823D01*
X23307Y172664D01*
X23466Y172542D01*
X23652Y172465D01*
X23851Y172439D01*
X36627D01*
X36826Y172465D01*
X37011Y172542D01*
X37170Y172664D01*
X38770Y174264D01*
X38893Y174423D01*
X38969Y174608D01*
X38996Y174807D01*
X38969Y175006D01*
X38893Y175192D01*
X38770Y175351D01*
X38611Y175473D01*
X38426Y175550D01*
X38227Y175576D01*
D02*
G37*
G36*
X44602Y171692D02*
X44602Y171692D01*
X23825D01*
X23560Y171657D01*
X23313Y171555D01*
X23101Y171392D01*
X22938Y171180D01*
X22835Y170932D01*
X22800Y170667D01*
X22835Y170402D01*
X22938Y170155D01*
X23101Y169943D01*
X23313Y169780D01*
X23560Y169677D01*
X23825Y169642D01*
X44178D01*
X53585Y160235D01*
Y158165D01*
X53582Y158163D01*
X53227Y157926D01*
X52924Y157623D01*
X52687Y157268D01*
X52523Y156873D01*
X52440Y156454D01*
Y156026D01*
X52523Y155607D01*
X52687Y155212D01*
X52924Y154857D01*
X53227Y154554D01*
X53582Y154317D01*
X53977Y154153D01*
X54396Y154070D01*
X54824D01*
X55243Y154153D01*
X55638Y154317D01*
X55993Y154554D01*
X56296Y154857D01*
X56533Y155212D01*
X56697Y155607D01*
X56780Y156026D01*
Y156454D01*
X56697Y156873D01*
X56533Y157268D01*
X56296Y157623D01*
X55993Y157926D01*
X55638Y158163D01*
X55635Y158165D01*
Y160660D01*
X55600Y160925D01*
X55497Y161172D01*
X55335Y161384D01*
X55335Y161384D01*
X45327Y171392D01*
X45115Y171555D01*
X44868Y171657D01*
X44602Y171692D01*
D02*
G37*
G36*
X44664Y158410D02*
X44236D01*
X43817Y158327D01*
X43422Y158163D01*
X43067Y157926D01*
X42764Y157623D01*
X42527Y157268D01*
X42363Y156873D01*
X42280Y156454D01*
Y156026D01*
X42363Y155607D01*
X42527Y155212D01*
X42764Y154857D01*
X43067Y154554D01*
X43422Y154317D01*
X43817Y154153D01*
X44236Y154070D01*
X44664D01*
X45083Y154153D01*
X45478Y154317D01*
X45833Y154554D01*
X46136Y154857D01*
X46373Y155212D01*
X46537Y155607D01*
X46620Y156026D01*
Y156454D01*
X46537Y156873D01*
X46373Y157268D01*
X46136Y157623D01*
X45833Y157926D01*
X45478Y158163D01*
X45083Y158327D01*
X44664Y158410D01*
D02*
G37*
G36*
X4024D02*
X3596D01*
X3177Y158327D01*
X2782Y158163D01*
X2427Y157926D01*
X2124Y157623D01*
X1887Y157268D01*
X1723Y156873D01*
X1640Y156454D01*
Y156026D01*
X1723Y155607D01*
X1887Y155212D01*
X2124Y154857D01*
X2427Y154554D01*
X2782Y154317D01*
X3177Y154153D01*
X3596Y154070D01*
X4024D01*
X4443Y154153D01*
X4838Y154317D01*
X5193Y154554D01*
X5496Y154857D01*
X5733Y155212D01*
X5897Y155607D01*
X5980Y156026D01*
Y156454D01*
X5897Y156873D01*
X5733Y157268D01*
X5496Y157623D01*
X5193Y157926D01*
X4838Y158163D01*
X4443Y158327D01*
X4024Y158410D01*
D02*
G37*
G36*
Y153330D02*
X3596D01*
X3177Y153247D01*
X2782Y153083D01*
X2427Y152846D01*
X2124Y152543D01*
X1887Y152188D01*
X1723Y151793D01*
X1640Y151374D01*
Y150946D01*
X1723Y150527D01*
X1887Y150132D01*
X2124Y149777D01*
X2427Y149474D01*
X2782Y149237D01*
X3177Y149073D01*
X3596Y148990D01*
X4024D01*
X4443Y149073D01*
X4838Y149237D01*
X5193Y149474D01*
X5496Y149777D01*
X5733Y150132D01*
X5897Y150527D01*
X5980Y150946D01*
Y151374D01*
X5897Y151793D01*
X5733Y152188D01*
X5496Y152543D01*
X5193Y152846D01*
X4838Y153083D01*
X4443Y153247D01*
X4024Y153330D01*
D02*
G37*
G36*
X93234Y139350D02*
X92806D01*
X92387Y139267D01*
X91992Y139103D01*
X91637Y138866D01*
X91334Y138563D01*
X91097Y138208D01*
X90933Y137813D01*
X90850Y137394D01*
Y136966D01*
X90933Y136547D01*
X91097Y136152D01*
X91334Y135797D01*
X91634Y135497D01*
X91106Y134968D01*
X91088Y134945D01*
X90580D01*
X90412Y134912D01*
X90269Y134817D01*
X90174Y134674D01*
X90141Y134506D01*
Y133606D01*
X90174Y133438D01*
X90229Y133356D01*
X90174Y133274D01*
X90141Y133106D01*
Y132792D01*
X89462D01*
X89179Y133075D01*
X89020Y133197D01*
X88835Y133274D01*
X88636Y133300D01*
X88437Y133274D01*
X88252Y133197D01*
X88093Y133075D01*
X87970Y132916D01*
X87894Y132731D01*
X87867Y132532D01*
X87894Y132333D01*
X87970Y132148D01*
X88093Y131988D01*
X88601Y131480D01*
X88760Y131358D01*
X88945Y131281D01*
X89144Y131255D01*
X89144Y131255D01*
X90648D01*
X90847Y131281D01*
X91032Y131358D01*
X91192Y131480D01*
X91478Y131766D01*
X91980D01*
X92148Y131800D01*
X92291Y131895D01*
X92386Y132038D01*
X92420Y132206D01*
Y133106D01*
X92386Y133274D01*
X92331Y133356D01*
X92386Y133438D01*
X92420Y133606D01*
Y134108D01*
X93088Y134776D01*
X93601D01*
X93669Y134649D01*
X93641Y134506D01*
Y133606D01*
X93674Y133438D01*
X93729Y133356D01*
X93674Y133274D01*
X93641Y133106D01*
Y132206D01*
X93674Y132038D01*
X93769Y131895D01*
X93912Y131800D01*
X94080Y131766D01*
X94421D01*
Y131387D01*
X94294Y131319D01*
X94048Y131483D01*
X93653Y131647D01*
X93234Y131730D01*
X92806D01*
X92387Y131647D01*
X91992Y131483D01*
X91637Y131246D01*
X91334Y130943D01*
X91097Y130588D01*
X90933Y130193D01*
X90850Y129774D01*
Y129346D01*
X90933Y128927D01*
X91097Y128532D01*
X91334Y128177D01*
X91637Y127874D01*
X91992Y127637D01*
X92387Y127473D01*
X92806Y127390D01*
X93234D01*
X93653Y127473D01*
X94048Y127637D01*
X94403Y127874D01*
X94706Y128177D01*
X94943Y128532D01*
X95107Y128927D01*
X95190Y129346D01*
Y129630D01*
X95388Y129656D01*
X95573Y129733D01*
X95733Y129855D01*
X95855Y130014D01*
X95932Y130199D01*
X95958Y130398D01*
Y132786D01*
X95932Y132985D01*
X95920Y133014D01*
Y133106D01*
X95886Y133274D01*
X95886Y133274D01*
X95954Y133401D01*
X98694D01*
X100415Y131680D01*
Y120035D01*
X100441Y119836D01*
X100518Y119651D01*
X100640Y119492D01*
X102113Y118018D01*
X102273Y117896D01*
X102458Y117819D01*
X102657Y117793D01*
X103774D01*
X103973Y117819D01*
X104159Y117896D01*
X104318Y118018D01*
X104440Y118178D01*
X104517Y118363D01*
X104543Y118562D01*
X104517Y118761D01*
X104440Y118946D01*
X104318Y119105D01*
X104159Y119227D01*
X103973Y119304D01*
X103774Y119330D01*
X102975D01*
X101952Y120353D01*
Y131998D01*
X101926Y132197D01*
X101849Y132383D01*
X101727Y132542D01*
X101727Y132542D01*
X99620Y134649D01*
X99672Y134776D01*
X105091D01*
X110550Y129318D01*
Y128265D01*
X110576Y128066D01*
X110653Y127880D01*
X110775Y127721D01*
X110934Y127599D01*
X111119Y127522D01*
X111318Y127496D01*
X111517Y127522D01*
X111702Y127599D01*
X111862Y127721D01*
X111984Y127880D01*
X112061Y128066D01*
X112087Y128265D01*
Y129636D01*
X112087Y129636D01*
X112061Y129835D01*
X111984Y130020D01*
X111862Y130180D01*
X111862Y130180D01*
X105953Y136088D01*
X105794Y136211D01*
X105608Y136287D01*
X105409Y136314D01*
X95124D01*
X95054Y136419D01*
X95107Y136547D01*
X95190Y136966D01*
Y137394D01*
X95107Y137813D01*
X94943Y138208D01*
X94706Y138563D01*
X94403Y138866D01*
X94048Y139103D01*
X93653Y139267D01*
X93234Y139350D01*
D02*
G37*
G36*
X118227Y128576D02*
X118028Y128550D01*
X117843Y128473D01*
X117684Y128351D01*
X116308Y126976D01*
X103851D01*
X103652Y126950D01*
X103466Y126873D01*
X103307Y126751D01*
X103185Y126591D01*
X103108Y126406D01*
X103082Y126207D01*
X103108Y126008D01*
X103185Y125823D01*
X103307Y125664D01*
X103466Y125542D01*
X103652Y125465D01*
X103851Y125439D01*
X116627D01*
X116826Y125465D01*
X117011Y125542D01*
X117170Y125664D01*
X118770Y127264D01*
X118893Y127423D01*
X118969Y127608D01*
X118996Y127807D01*
X118969Y128006D01*
X118893Y128192D01*
X118770Y128351D01*
X118611Y128473D01*
X118426Y128550D01*
X118227Y128576D01*
D02*
G37*
G36*
X124602Y124692D02*
X124602Y124692D01*
X103825D01*
X103560Y124657D01*
X103313Y124555D01*
X103101Y124392D01*
X102938Y124180D01*
X102835Y123932D01*
X102800Y123667D01*
X102835Y123402D01*
X102938Y123155D01*
X103101Y122943D01*
X103313Y122780D01*
X103560Y122677D01*
X103825Y122642D01*
X124178D01*
X133585Y113235D01*
Y111165D01*
X133582Y111163D01*
X133227Y110926D01*
X132924Y110623D01*
X132687Y110268D01*
X132523Y109873D01*
X132440Y109454D01*
Y109026D01*
X132523Y108607D01*
X132687Y108212D01*
X132924Y107857D01*
X133227Y107554D01*
X133582Y107317D01*
X133977Y107153D01*
X134396Y107070D01*
X134824D01*
X135243Y107153D01*
X135638Y107317D01*
X135993Y107554D01*
X136296Y107857D01*
X136533Y108212D01*
X136697Y108607D01*
X136780Y109026D01*
Y109454D01*
X136697Y109873D01*
X136533Y110268D01*
X136296Y110623D01*
X135993Y110926D01*
X135638Y111163D01*
X135635Y111165D01*
Y113660D01*
X135600Y113925D01*
X135497Y114172D01*
X135335Y114384D01*
X135335Y114384D01*
X125327Y124392D01*
X125115Y124555D01*
X124868Y124657D01*
X124602Y124692D01*
D02*
G37*
G36*
X124664Y111410D02*
X124236D01*
X123817Y111327D01*
X123422Y111163D01*
X123067Y110926D01*
X122764Y110623D01*
X122527Y110268D01*
X122363Y109873D01*
X122280Y109454D01*
Y109026D01*
X122363Y108607D01*
X122527Y108212D01*
X122764Y107857D01*
X123067Y107554D01*
X123422Y107317D01*
X123817Y107153D01*
X124236Y107070D01*
X124664D01*
X125083Y107153D01*
X125478Y107317D01*
X125833Y107554D01*
X126136Y107857D01*
X126373Y108212D01*
X126537Y108607D01*
X126620Y109026D01*
Y109454D01*
X126537Y109873D01*
X126373Y110268D01*
X126136Y110623D01*
X125833Y110926D01*
X125478Y111163D01*
X125083Y111327D01*
X124664Y111410D01*
D02*
G37*
G36*
X84024D02*
X83596D01*
X83177Y111327D01*
X82782Y111163D01*
X82427Y110926D01*
X82124Y110623D01*
X81887Y110268D01*
X81723Y109873D01*
X81640Y109454D01*
Y109026D01*
X81723Y108607D01*
X81887Y108212D01*
X82124Y107857D01*
X82427Y107554D01*
X82782Y107317D01*
X83177Y107153D01*
X83596Y107070D01*
X84024D01*
X84443Y107153D01*
X84838Y107317D01*
X85193Y107554D01*
X85496Y107857D01*
X85733Y108212D01*
X85897Y108607D01*
X85980Y109026D01*
Y109454D01*
X85897Y109873D01*
X85733Y110268D01*
X85496Y110623D01*
X85193Y110926D01*
X84838Y111163D01*
X84443Y111327D01*
X84024Y111410D01*
D02*
G37*
G36*
Y106330D02*
X83596D01*
X83177Y106247D01*
X82782Y106083D01*
X82427Y105846D01*
X82124Y105543D01*
X81887Y105188D01*
X81723Y104793D01*
X81640Y104374D01*
Y103946D01*
X81723Y103527D01*
X81887Y103132D01*
X82124Y102777D01*
X82427Y102474D01*
X82782Y102237D01*
X83177Y102073D01*
X83596Y101990D01*
X84024D01*
X84443Y102073D01*
X84838Y102237D01*
X85193Y102474D01*
X85496Y102777D01*
X85733Y103132D01*
X85897Y103527D01*
X85980Y103946D01*
Y104374D01*
X85897Y104793D01*
X85733Y105188D01*
X85496Y105543D01*
X85193Y105846D01*
X84838Y106083D01*
X84443Y106247D01*
X84024Y106330D01*
D02*
G37*
G36*
X13234Y139350D02*
X12806D01*
X12387Y139267D01*
X11992Y139103D01*
X11637Y138866D01*
X11334Y138563D01*
X11097Y138208D01*
X10933Y137813D01*
X10850Y137394D01*
Y136966D01*
X10933Y136547D01*
X11097Y136152D01*
X11334Y135797D01*
X11634Y135497D01*
X11106Y134968D01*
X11088Y134945D01*
X10580D01*
X10412Y134912D01*
X10269Y134817D01*
X10174Y134674D01*
X10141Y134506D01*
Y133606D01*
X10174Y133438D01*
X10229Y133356D01*
X10174Y133274D01*
X10141Y133106D01*
Y132792D01*
X9462D01*
X9179Y133075D01*
X9020Y133197D01*
X8835Y133274D01*
X8636Y133300D01*
X8437Y133274D01*
X8252Y133197D01*
X8093Y133075D01*
X7970Y132916D01*
X7894Y132731D01*
X7867Y132532D01*
X7894Y132333D01*
X7970Y132148D01*
X8093Y131988D01*
X8601Y131480D01*
X8760Y131358D01*
X8945Y131281D01*
X9144Y131255D01*
X9144Y131255D01*
X10648D01*
X10847Y131281D01*
X11032Y131358D01*
X11192Y131480D01*
X11478Y131766D01*
X11980D01*
X12148Y131800D01*
X12291Y131895D01*
X12386Y132038D01*
X12420Y132206D01*
Y133106D01*
X12386Y133274D01*
X12331Y133356D01*
X12386Y133438D01*
X12420Y133606D01*
Y134108D01*
X13088Y134776D01*
X13601D01*
X13669Y134649D01*
X13641Y134506D01*
Y133606D01*
X13674Y133438D01*
X13729Y133356D01*
X13674Y133274D01*
X13641Y133106D01*
Y132206D01*
X13674Y132038D01*
X13769Y131895D01*
X13912Y131800D01*
X14080Y131766D01*
X14421D01*
Y131387D01*
X14294Y131319D01*
X14048Y131483D01*
X13653Y131647D01*
X13234Y131730D01*
X12806D01*
X12387Y131647D01*
X11992Y131483D01*
X11637Y131246D01*
X11334Y130943D01*
X11097Y130588D01*
X10933Y130193D01*
X10850Y129774D01*
Y129346D01*
X10933Y128927D01*
X11097Y128532D01*
X11334Y128177D01*
X11637Y127874D01*
X11992Y127637D01*
X12387Y127473D01*
X12806Y127390D01*
X13234D01*
X13653Y127473D01*
X14048Y127637D01*
X14403Y127874D01*
X14706Y128177D01*
X14943Y128532D01*
X15107Y128927D01*
X15190Y129346D01*
Y129630D01*
X15388Y129656D01*
X15573Y129733D01*
X15733Y129855D01*
X15855Y130014D01*
X15932Y130199D01*
X15958Y130398D01*
Y132786D01*
X15932Y132985D01*
X15920Y133014D01*
Y133106D01*
X15886Y133274D01*
X15886Y133274D01*
X15954Y133401D01*
X18694D01*
X20415Y131680D01*
Y120035D01*
X20441Y119836D01*
X20518Y119651D01*
X20640Y119492D01*
X22113Y118018D01*
X22273Y117896D01*
X22458Y117819D01*
X22657Y117793D01*
X23774D01*
X23973Y117819D01*
X24159Y117896D01*
X24318Y118018D01*
X24440Y118178D01*
X24517Y118363D01*
X24543Y118562D01*
X24517Y118761D01*
X24440Y118946D01*
X24318Y119105D01*
X24159Y119227D01*
X23973Y119304D01*
X23774Y119330D01*
X22975D01*
X21952Y120353D01*
Y131998D01*
X21926Y132197D01*
X21849Y132383D01*
X21727Y132542D01*
X21727Y132542D01*
X19620Y134649D01*
X19672Y134776D01*
X25091D01*
X30550Y129318D01*
Y128265D01*
X30576Y128066D01*
X30653Y127880D01*
X30775Y127721D01*
X30934Y127599D01*
X31119Y127522D01*
X31318Y127496D01*
X31517Y127522D01*
X31702Y127599D01*
X31862Y127721D01*
X31984Y127880D01*
X32061Y128066D01*
X32087Y128265D01*
Y129636D01*
X32087Y129636D01*
X32061Y129835D01*
X31984Y130020D01*
X31862Y130180D01*
X31862Y130180D01*
X25953Y136088D01*
X25794Y136211D01*
X25608Y136287D01*
X25409Y136314D01*
X15124D01*
X15054Y136419D01*
X15107Y136547D01*
X15190Y136966D01*
Y137394D01*
X15107Y137813D01*
X14943Y138208D01*
X14706Y138563D01*
X14403Y138866D01*
X14048Y139103D01*
X13653Y139267D01*
X13234Y139350D01*
D02*
G37*
G36*
X38227Y128576D02*
X38028Y128550D01*
X37843Y128473D01*
X37684Y128351D01*
X36308Y126976D01*
X23851D01*
X23652Y126950D01*
X23466Y126873D01*
X23307Y126751D01*
X23185Y126591D01*
X23108Y126406D01*
X23082Y126207D01*
X23108Y126008D01*
X23185Y125823D01*
X23307Y125664D01*
X23466Y125542D01*
X23652Y125465D01*
X23851Y125439D01*
X36627D01*
X36826Y125465D01*
X37011Y125542D01*
X37170Y125664D01*
X38770Y127264D01*
X38893Y127423D01*
X38969Y127608D01*
X38996Y127807D01*
X38969Y128006D01*
X38893Y128192D01*
X38770Y128351D01*
X38611Y128473D01*
X38426Y128550D01*
X38227Y128576D01*
D02*
G37*
G36*
X44602Y124692D02*
X44602Y124692D01*
X23825D01*
X23560Y124657D01*
X23313Y124555D01*
X23101Y124392D01*
X22938Y124180D01*
X22835Y123932D01*
X22800Y123667D01*
X22835Y123402D01*
X22938Y123155D01*
X23101Y122943D01*
X23313Y122780D01*
X23560Y122677D01*
X23825Y122642D01*
X44178D01*
X53585Y113235D01*
Y111165D01*
X53582Y111163D01*
X53227Y110926D01*
X52924Y110623D01*
X52687Y110268D01*
X52523Y109873D01*
X52440Y109454D01*
Y109026D01*
X52523Y108607D01*
X52687Y108212D01*
X52924Y107857D01*
X53227Y107554D01*
X53582Y107317D01*
X53977Y107153D01*
X54396Y107070D01*
X54824D01*
X55243Y107153D01*
X55638Y107317D01*
X55993Y107554D01*
X56296Y107857D01*
X56533Y108212D01*
X56697Y108607D01*
X56780Y109026D01*
Y109454D01*
X56697Y109873D01*
X56533Y110268D01*
X56296Y110623D01*
X55993Y110926D01*
X55638Y111163D01*
X55635Y111165D01*
Y113660D01*
X55600Y113925D01*
X55497Y114172D01*
X55335Y114384D01*
X55335Y114384D01*
X45327Y124392D01*
X45115Y124555D01*
X44868Y124657D01*
X44602Y124692D01*
D02*
G37*
G36*
X44664Y111410D02*
X44236D01*
X43817Y111327D01*
X43422Y111163D01*
X43067Y110926D01*
X42764Y110623D01*
X42527Y110268D01*
X42363Y109873D01*
X42280Y109454D01*
Y109026D01*
X42363Y108607D01*
X42527Y108212D01*
X42764Y107857D01*
X43067Y107554D01*
X43422Y107317D01*
X43817Y107153D01*
X44236Y107070D01*
X44664D01*
X45083Y107153D01*
X45478Y107317D01*
X45833Y107554D01*
X46136Y107857D01*
X46373Y108212D01*
X46537Y108607D01*
X46620Y109026D01*
Y109454D01*
X46537Y109873D01*
X46373Y110268D01*
X46136Y110623D01*
X45833Y110926D01*
X45478Y111163D01*
X45083Y111327D01*
X44664Y111410D01*
D02*
G37*
G36*
X4024D02*
X3596D01*
X3177Y111327D01*
X2782Y111163D01*
X2427Y110926D01*
X2124Y110623D01*
X1887Y110268D01*
X1723Y109873D01*
X1640Y109454D01*
Y109026D01*
X1723Y108607D01*
X1887Y108212D01*
X2124Y107857D01*
X2427Y107554D01*
X2782Y107317D01*
X3177Y107153D01*
X3596Y107070D01*
X4024D01*
X4443Y107153D01*
X4838Y107317D01*
X5193Y107554D01*
X5496Y107857D01*
X5733Y108212D01*
X5897Y108607D01*
X5980Y109026D01*
Y109454D01*
X5897Y109873D01*
X5733Y110268D01*
X5496Y110623D01*
X5193Y110926D01*
X4838Y111163D01*
X4443Y111327D01*
X4024Y111410D01*
D02*
G37*
G36*
Y106330D02*
X3596D01*
X3177Y106247D01*
X2782Y106083D01*
X2427Y105846D01*
X2124Y105543D01*
X1887Y105188D01*
X1723Y104793D01*
X1640Y104374D01*
Y103946D01*
X1723Y103527D01*
X1887Y103132D01*
X2124Y102777D01*
X2427Y102474D01*
X2782Y102237D01*
X3177Y102073D01*
X3596Y101990D01*
X4024D01*
X4443Y102073D01*
X4838Y102237D01*
X5193Y102474D01*
X5496Y102777D01*
X5733Y103132D01*
X5897Y103527D01*
X5980Y103946D01*
Y104374D01*
X5897Y104793D01*
X5733Y105188D01*
X5496Y105543D01*
X5193Y105846D01*
X4838Y106083D01*
X4443Y106247D01*
X4024Y106330D01*
D02*
G37*
G36*
X93234Y92350D02*
X92806D01*
X92387Y92267D01*
X91992Y92103D01*
X91637Y91866D01*
X91334Y91563D01*
X91097Y91208D01*
X90933Y90813D01*
X90850Y90394D01*
Y89966D01*
X90933Y89547D01*
X91097Y89152D01*
X91334Y88797D01*
X91634Y88497D01*
X91106Y87968D01*
X91088Y87945D01*
X90580D01*
X90412Y87912D01*
X90269Y87817D01*
X90174Y87674D01*
X90141Y87506D01*
Y86606D01*
X90174Y86438D01*
X90229Y86356D01*
X90174Y86274D01*
X90141Y86106D01*
Y85792D01*
X89462D01*
X89179Y86075D01*
X89020Y86197D01*
X88835Y86274D01*
X88636Y86300D01*
X88437Y86274D01*
X88252Y86197D01*
X88093Y86075D01*
X87970Y85916D01*
X87894Y85731D01*
X87867Y85532D01*
X87894Y85333D01*
X87970Y85148D01*
X88093Y84988D01*
X88601Y84480D01*
X88760Y84358D01*
X88945Y84281D01*
X89144Y84255D01*
X89144Y84255D01*
X90648D01*
X90847Y84281D01*
X91032Y84358D01*
X91192Y84480D01*
X91478Y84766D01*
X91980D01*
X92148Y84800D01*
X92291Y84895D01*
X92386Y85038D01*
X92420Y85206D01*
Y86106D01*
X92386Y86274D01*
X92331Y86356D01*
X92386Y86438D01*
X92420Y86606D01*
Y87108D01*
X93088Y87776D01*
X93601D01*
X93669Y87649D01*
X93641Y87506D01*
Y86606D01*
X93674Y86438D01*
X93729Y86356D01*
X93674Y86274D01*
X93641Y86106D01*
Y85206D01*
X93674Y85038D01*
X93769Y84895D01*
X93912Y84800D01*
X94080Y84766D01*
X94421D01*
Y84387D01*
X94294Y84319D01*
X94048Y84483D01*
X93653Y84647D01*
X93234Y84730D01*
X92806D01*
X92387Y84647D01*
X91992Y84483D01*
X91637Y84246D01*
X91334Y83943D01*
X91097Y83588D01*
X90933Y83193D01*
X90850Y82774D01*
Y82346D01*
X90933Y81927D01*
X91097Y81532D01*
X91334Y81177D01*
X91637Y80874D01*
X91992Y80637D01*
X92387Y80473D01*
X92806Y80390D01*
X93234D01*
X93653Y80473D01*
X94048Y80637D01*
X94403Y80874D01*
X94706Y81177D01*
X94943Y81532D01*
X95107Y81927D01*
X95190Y82346D01*
Y82630D01*
X95388Y82656D01*
X95573Y82733D01*
X95733Y82855D01*
X95855Y83014D01*
X95932Y83199D01*
X95958Y83398D01*
Y85786D01*
X95932Y85985D01*
X95920Y86014D01*
Y86106D01*
X95886Y86274D01*
X95886Y86274D01*
X95954Y86401D01*
X98694D01*
X100415Y84680D01*
Y73035D01*
X100441Y72836D01*
X100518Y72651D01*
X100640Y72492D01*
X102113Y71018D01*
X102273Y70896D01*
X102458Y70819D01*
X102657Y70793D01*
X103774D01*
X103973Y70819D01*
X104159Y70896D01*
X104318Y71018D01*
X104440Y71178D01*
X104517Y71363D01*
X104543Y71562D01*
X104517Y71761D01*
X104440Y71946D01*
X104318Y72105D01*
X104159Y72227D01*
X103973Y72304D01*
X103774Y72330D01*
X102975D01*
X101952Y73353D01*
Y84998D01*
X101926Y85197D01*
X101849Y85383D01*
X101727Y85542D01*
X101727Y85542D01*
X99620Y87649D01*
X99672Y87776D01*
X105091D01*
X110550Y82318D01*
Y81265D01*
X110576Y81066D01*
X110653Y80880D01*
X110775Y80721D01*
X110934Y80599D01*
X111119Y80522D01*
X111318Y80496D01*
X111517Y80522D01*
X111702Y80599D01*
X111862Y80721D01*
X111984Y80880D01*
X112061Y81066D01*
X112087Y81265D01*
Y82636D01*
X112087Y82636D01*
X112061Y82835D01*
X111984Y83020D01*
X111862Y83180D01*
X111862Y83180D01*
X105953Y89088D01*
X105794Y89211D01*
X105608Y89287D01*
X105409Y89314D01*
X95124D01*
X95054Y89419D01*
X95107Y89547D01*
X95190Y89966D01*
Y90394D01*
X95107Y90813D01*
X94943Y91208D01*
X94706Y91563D01*
X94403Y91866D01*
X94048Y92103D01*
X93653Y92267D01*
X93234Y92350D01*
D02*
G37*
G36*
X118227Y81576D02*
X118028Y81550D01*
X117843Y81473D01*
X117684Y81351D01*
X116308Y79976D01*
X103851D01*
X103652Y79950D01*
X103466Y79873D01*
X103307Y79751D01*
X103185Y79591D01*
X103108Y79406D01*
X103082Y79207D01*
X103108Y79008D01*
X103185Y78823D01*
X103307Y78664D01*
X103466Y78542D01*
X103652Y78465D01*
X103851Y78439D01*
X116627D01*
X116826Y78465D01*
X117011Y78542D01*
X117170Y78664D01*
X118770Y80264D01*
X118893Y80423D01*
X118969Y80608D01*
X118996Y80807D01*
X118969Y81006D01*
X118893Y81192D01*
X118770Y81351D01*
X118611Y81473D01*
X118426Y81550D01*
X118227Y81576D01*
D02*
G37*
G36*
X124602Y77692D02*
X124602Y77692D01*
X103825D01*
X103560Y77657D01*
X103313Y77555D01*
X103101Y77392D01*
X102938Y77180D01*
X102835Y76932D01*
X102800Y76667D01*
X102835Y76402D01*
X102938Y76155D01*
X103101Y75943D01*
X103313Y75780D01*
X103560Y75677D01*
X103825Y75642D01*
X124178D01*
X133585Y66235D01*
Y64165D01*
X133582Y64163D01*
X133227Y63926D01*
X132924Y63623D01*
X132687Y63268D01*
X132523Y62873D01*
X132440Y62454D01*
Y62026D01*
X132523Y61607D01*
X132687Y61212D01*
X132924Y60857D01*
X133227Y60554D01*
X133582Y60317D01*
X133977Y60153D01*
X134396Y60070D01*
X134824D01*
X135243Y60153D01*
X135638Y60317D01*
X135993Y60554D01*
X136296Y60857D01*
X136533Y61212D01*
X136697Y61607D01*
X136780Y62026D01*
Y62454D01*
X136697Y62873D01*
X136533Y63268D01*
X136296Y63623D01*
X135993Y63926D01*
X135638Y64163D01*
X135635Y64165D01*
Y66660D01*
X135600Y66925D01*
X135497Y67172D01*
X135335Y67384D01*
X135335Y67384D01*
X125327Y77392D01*
X125115Y77555D01*
X124868Y77657D01*
X124602Y77692D01*
D02*
G37*
G36*
X124664Y64410D02*
X124236D01*
X123817Y64327D01*
X123422Y64163D01*
X123067Y63926D01*
X122764Y63623D01*
X122527Y63268D01*
X122363Y62873D01*
X122280Y62454D01*
Y62026D01*
X122363Y61607D01*
X122527Y61212D01*
X122764Y60857D01*
X123067Y60554D01*
X123422Y60317D01*
X123817Y60153D01*
X124236Y60070D01*
X124664D01*
X125083Y60153D01*
X125478Y60317D01*
X125833Y60554D01*
X126136Y60857D01*
X126373Y61212D01*
X126537Y61607D01*
X126620Y62026D01*
Y62454D01*
X126537Y62873D01*
X126373Y63268D01*
X126136Y63623D01*
X125833Y63926D01*
X125478Y64163D01*
X125083Y64327D01*
X124664Y64410D01*
D02*
G37*
G36*
X84024D02*
X83596D01*
X83177Y64327D01*
X82782Y64163D01*
X82427Y63926D01*
X82124Y63623D01*
X81887Y63268D01*
X81723Y62873D01*
X81640Y62454D01*
Y62026D01*
X81723Y61607D01*
X81887Y61212D01*
X82124Y60857D01*
X82427Y60554D01*
X82782Y60317D01*
X83177Y60153D01*
X83596Y60070D01*
X84024D01*
X84443Y60153D01*
X84838Y60317D01*
X85193Y60554D01*
X85496Y60857D01*
X85733Y61212D01*
X85897Y61607D01*
X85980Y62026D01*
Y62454D01*
X85897Y62873D01*
X85733Y63268D01*
X85496Y63623D01*
X85193Y63926D01*
X84838Y64163D01*
X84443Y64327D01*
X84024Y64410D01*
D02*
G37*
G36*
Y59330D02*
X83596D01*
X83177Y59247D01*
X82782Y59083D01*
X82427Y58846D01*
X82124Y58543D01*
X81887Y58188D01*
X81723Y57793D01*
X81640Y57374D01*
Y56946D01*
X81723Y56527D01*
X81887Y56132D01*
X82124Y55777D01*
X82427Y55474D01*
X82782Y55237D01*
X83177Y55073D01*
X83596Y54990D01*
X84024D01*
X84443Y55073D01*
X84838Y55237D01*
X85193Y55474D01*
X85496Y55777D01*
X85733Y56132D01*
X85897Y56527D01*
X85980Y56946D01*
Y57374D01*
X85897Y57793D01*
X85733Y58188D01*
X85496Y58543D01*
X85193Y58846D01*
X84838Y59083D01*
X84443Y59247D01*
X84024Y59330D01*
D02*
G37*
G36*
X13234Y92350D02*
X12806D01*
X12387Y92267D01*
X11992Y92103D01*
X11637Y91866D01*
X11334Y91563D01*
X11097Y91208D01*
X10933Y90813D01*
X10850Y90394D01*
Y89966D01*
X10933Y89547D01*
X11097Y89152D01*
X11334Y88797D01*
X11634Y88497D01*
X11106Y87968D01*
X11088Y87945D01*
X10580D01*
X10412Y87912D01*
X10269Y87817D01*
X10174Y87674D01*
X10141Y87506D01*
Y86606D01*
X10174Y86438D01*
X10229Y86356D01*
X10174Y86274D01*
X10141Y86106D01*
Y85792D01*
X9462D01*
X9179Y86075D01*
X9020Y86197D01*
X8835Y86274D01*
X8636Y86300D01*
X8437Y86274D01*
X8252Y86197D01*
X8093Y86075D01*
X7970Y85916D01*
X7894Y85731D01*
X7867Y85532D01*
X7894Y85333D01*
X7970Y85148D01*
X8093Y84988D01*
X8601Y84480D01*
X8760Y84358D01*
X8945Y84281D01*
X9144Y84255D01*
X9144Y84255D01*
X10648D01*
X10847Y84281D01*
X11032Y84358D01*
X11192Y84480D01*
X11478Y84766D01*
X11980D01*
X12148Y84800D01*
X12291Y84895D01*
X12386Y85038D01*
X12420Y85206D01*
Y86106D01*
X12386Y86274D01*
X12331Y86356D01*
X12386Y86438D01*
X12420Y86606D01*
Y87108D01*
X13088Y87776D01*
X13601D01*
X13669Y87649D01*
X13641Y87506D01*
Y86606D01*
X13674Y86438D01*
X13729Y86356D01*
X13674Y86274D01*
X13641Y86106D01*
Y85206D01*
X13674Y85038D01*
X13769Y84895D01*
X13912Y84800D01*
X14080Y84766D01*
X14421D01*
Y84387D01*
X14294Y84319D01*
X14048Y84483D01*
X13653Y84647D01*
X13234Y84730D01*
X12806D01*
X12387Y84647D01*
X11992Y84483D01*
X11637Y84246D01*
X11334Y83943D01*
X11097Y83588D01*
X10933Y83193D01*
X10850Y82774D01*
Y82346D01*
X10933Y81927D01*
X11097Y81532D01*
X11334Y81177D01*
X11637Y80874D01*
X11992Y80637D01*
X12387Y80473D01*
X12806Y80390D01*
X13234D01*
X13653Y80473D01*
X14048Y80637D01*
X14403Y80874D01*
X14706Y81177D01*
X14943Y81532D01*
X15107Y81927D01*
X15190Y82346D01*
Y82630D01*
X15388Y82656D01*
X15573Y82733D01*
X15733Y82855D01*
X15855Y83014D01*
X15932Y83199D01*
X15958Y83398D01*
Y85786D01*
X15932Y85985D01*
X15920Y86014D01*
Y86106D01*
X15886Y86274D01*
X15886Y86274D01*
X15954Y86401D01*
X18694D01*
X20415Y84680D01*
Y73035D01*
X20441Y72836D01*
X20518Y72651D01*
X20640Y72492D01*
X22113Y71018D01*
X22273Y70896D01*
X22458Y70819D01*
X22657Y70793D01*
X23774D01*
X23973Y70819D01*
X24159Y70896D01*
X24318Y71018D01*
X24440Y71178D01*
X24517Y71363D01*
X24543Y71562D01*
X24517Y71761D01*
X24440Y71946D01*
X24318Y72105D01*
X24159Y72227D01*
X23973Y72304D01*
X23774Y72330D01*
X22975D01*
X21952Y73353D01*
Y84998D01*
X21926Y85197D01*
X21849Y85383D01*
X21727Y85542D01*
X21727Y85542D01*
X19620Y87649D01*
X19672Y87776D01*
X25091D01*
X30550Y82318D01*
Y81265D01*
X30576Y81066D01*
X30653Y80880D01*
X30775Y80721D01*
X30934Y80599D01*
X31119Y80522D01*
X31318Y80496D01*
X31517Y80522D01*
X31702Y80599D01*
X31862Y80721D01*
X31984Y80880D01*
X32061Y81066D01*
X32087Y81265D01*
Y82636D01*
X32087Y82636D01*
X32061Y82835D01*
X31984Y83020D01*
X31862Y83180D01*
X31862Y83180D01*
X25953Y89088D01*
X25794Y89211D01*
X25608Y89287D01*
X25409Y89314D01*
X15124D01*
X15054Y89419D01*
X15107Y89547D01*
X15190Y89966D01*
Y90394D01*
X15107Y90813D01*
X14943Y91208D01*
X14706Y91563D01*
X14403Y91866D01*
X14048Y92103D01*
X13653Y92267D01*
X13234Y92350D01*
D02*
G37*
G36*
X38227Y81576D02*
X38028Y81550D01*
X37843Y81473D01*
X37684Y81351D01*
X36308Y79976D01*
X23851D01*
X23652Y79950D01*
X23466Y79873D01*
X23307Y79751D01*
X23185Y79591D01*
X23108Y79406D01*
X23082Y79207D01*
X23108Y79008D01*
X23185Y78823D01*
X23307Y78664D01*
X23466Y78542D01*
X23652Y78465D01*
X23851Y78439D01*
X36627D01*
X36826Y78465D01*
X37011Y78542D01*
X37170Y78664D01*
X38770Y80264D01*
X38893Y80423D01*
X38969Y80608D01*
X38996Y80807D01*
X38969Y81006D01*
X38893Y81192D01*
X38770Y81351D01*
X38611Y81473D01*
X38426Y81550D01*
X38227Y81576D01*
D02*
G37*
G36*
X44602Y77692D02*
X44602Y77692D01*
X23825D01*
X23560Y77657D01*
X23313Y77555D01*
X23101Y77392D01*
X22938Y77180D01*
X22835Y76932D01*
X22800Y76667D01*
X22835Y76402D01*
X22938Y76155D01*
X23101Y75943D01*
X23313Y75780D01*
X23560Y75677D01*
X23825Y75642D01*
X44178D01*
X53585Y66235D01*
Y64165D01*
X53582Y64163D01*
X53227Y63926D01*
X52924Y63623D01*
X52687Y63268D01*
X52523Y62873D01*
X52440Y62454D01*
Y62026D01*
X52523Y61607D01*
X52687Y61212D01*
X52924Y60857D01*
X53227Y60554D01*
X53582Y60317D01*
X53977Y60153D01*
X54396Y60070D01*
X54824D01*
X55243Y60153D01*
X55638Y60317D01*
X55993Y60554D01*
X56296Y60857D01*
X56533Y61212D01*
X56697Y61607D01*
X56780Y62026D01*
Y62454D01*
X56697Y62873D01*
X56533Y63268D01*
X56296Y63623D01*
X55993Y63926D01*
X55638Y64163D01*
X55635Y64165D01*
Y66660D01*
X55600Y66925D01*
X55497Y67172D01*
X55335Y67384D01*
X55335Y67384D01*
X45327Y77392D01*
X45115Y77555D01*
X44868Y77657D01*
X44602Y77692D01*
D02*
G37*
G36*
X44664Y64410D02*
X44236D01*
X43817Y64327D01*
X43422Y64163D01*
X43067Y63926D01*
X42764Y63623D01*
X42527Y63268D01*
X42363Y62873D01*
X42280Y62454D01*
Y62026D01*
X42363Y61607D01*
X42527Y61212D01*
X42764Y60857D01*
X43067Y60554D01*
X43422Y60317D01*
X43817Y60153D01*
X44236Y60070D01*
X44664D01*
X45083Y60153D01*
X45478Y60317D01*
X45833Y60554D01*
X46136Y60857D01*
X46373Y61212D01*
X46537Y61607D01*
X46620Y62026D01*
Y62454D01*
X46537Y62873D01*
X46373Y63268D01*
X46136Y63623D01*
X45833Y63926D01*
X45478Y64163D01*
X45083Y64327D01*
X44664Y64410D01*
D02*
G37*
G36*
X4024D02*
X3596D01*
X3177Y64327D01*
X2782Y64163D01*
X2427Y63926D01*
X2124Y63623D01*
X1887Y63268D01*
X1723Y62873D01*
X1640Y62454D01*
Y62026D01*
X1723Y61607D01*
X1887Y61212D01*
X2124Y60857D01*
X2427Y60554D01*
X2782Y60317D01*
X3177Y60153D01*
X3596Y60070D01*
X4024D01*
X4443Y60153D01*
X4838Y60317D01*
X5193Y60554D01*
X5496Y60857D01*
X5733Y61212D01*
X5897Y61607D01*
X5980Y62026D01*
Y62454D01*
X5897Y62873D01*
X5733Y63268D01*
X5496Y63623D01*
X5193Y63926D01*
X4838Y64163D01*
X4443Y64327D01*
X4024Y64410D01*
D02*
G37*
G36*
Y59330D02*
X3596D01*
X3177Y59247D01*
X2782Y59083D01*
X2427Y58846D01*
X2124Y58543D01*
X1887Y58188D01*
X1723Y57793D01*
X1640Y57374D01*
Y56946D01*
X1723Y56527D01*
X1887Y56132D01*
X2124Y55777D01*
X2427Y55474D01*
X2782Y55237D01*
X3177Y55073D01*
X3596Y54990D01*
X4024D01*
X4443Y55073D01*
X4838Y55237D01*
X5193Y55474D01*
X5496Y55777D01*
X5733Y56132D01*
X5897Y56527D01*
X5980Y56946D01*
Y57374D01*
X5897Y57793D01*
X5733Y58188D01*
X5496Y58543D01*
X5193Y58846D01*
X4838Y59083D01*
X4443Y59247D01*
X4024Y59330D01*
D02*
G37*
G36*
X93234Y45350D02*
X92806D01*
X92387Y45267D01*
X91992Y45103D01*
X91637Y44866D01*
X91334Y44563D01*
X91097Y44208D01*
X90933Y43813D01*
X90850Y43394D01*
Y42966D01*
X90933Y42547D01*
X91097Y42152D01*
X91334Y41797D01*
X91634Y41497D01*
X91106Y40968D01*
X91088Y40945D01*
X90580D01*
X90412Y40912D01*
X90269Y40817D01*
X90174Y40674D01*
X90141Y40506D01*
Y39606D01*
X90174Y39438D01*
X90229Y39356D01*
X90174Y39274D01*
X90141Y39106D01*
Y38792D01*
X89462D01*
X89179Y39075D01*
X89020Y39197D01*
X88835Y39274D01*
X88636Y39300D01*
X88437Y39274D01*
X88252Y39197D01*
X88093Y39075D01*
X87970Y38916D01*
X87894Y38731D01*
X87867Y38532D01*
X87894Y38333D01*
X87970Y38148D01*
X88093Y37988D01*
X88601Y37480D01*
X88760Y37358D01*
X88945Y37281D01*
X89144Y37255D01*
X89144Y37255D01*
X90648D01*
X90847Y37281D01*
X91032Y37358D01*
X91192Y37480D01*
X91478Y37766D01*
X91980D01*
X92148Y37800D01*
X92291Y37895D01*
X92386Y38038D01*
X92420Y38206D01*
Y39106D01*
X92386Y39274D01*
X92331Y39356D01*
X92386Y39438D01*
X92420Y39606D01*
Y40108D01*
X93088Y40776D01*
X93601D01*
X93669Y40649D01*
X93641Y40506D01*
Y39606D01*
X93674Y39438D01*
X93729Y39356D01*
X93674Y39274D01*
X93641Y39106D01*
Y38206D01*
X93674Y38038D01*
X93769Y37895D01*
X93912Y37800D01*
X94080Y37766D01*
X94421D01*
Y37387D01*
X94294Y37319D01*
X94048Y37483D01*
X93653Y37647D01*
X93234Y37730D01*
X92806D01*
X92387Y37647D01*
X91992Y37483D01*
X91637Y37246D01*
X91334Y36943D01*
X91097Y36588D01*
X90933Y36193D01*
X90850Y35774D01*
Y35346D01*
X90933Y34927D01*
X91097Y34532D01*
X91334Y34177D01*
X91637Y33874D01*
X91992Y33637D01*
X92387Y33473D01*
X92806Y33390D01*
X93234D01*
X93653Y33473D01*
X94048Y33637D01*
X94403Y33874D01*
X94706Y34177D01*
X94943Y34532D01*
X95107Y34927D01*
X95190Y35346D01*
Y35630D01*
X95388Y35656D01*
X95573Y35733D01*
X95733Y35855D01*
X95855Y36014D01*
X95932Y36199D01*
X95958Y36398D01*
Y38786D01*
X95932Y38985D01*
X95920Y39014D01*
Y39106D01*
X95886Y39274D01*
X95886Y39274D01*
X95954Y39401D01*
X98694D01*
X100415Y37680D01*
Y26035D01*
X100441Y25836D01*
X100518Y25651D01*
X100640Y25492D01*
X102113Y24018D01*
X102273Y23896D01*
X102458Y23819D01*
X102657Y23793D01*
X103774D01*
X103973Y23819D01*
X104159Y23896D01*
X104318Y24018D01*
X104440Y24178D01*
X104517Y24363D01*
X104543Y24562D01*
X104517Y24761D01*
X104440Y24946D01*
X104318Y25105D01*
X104159Y25227D01*
X103973Y25304D01*
X103774Y25330D01*
X102975D01*
X101952Y26353D01*
Y37998D01*
X101926Y38197D01*
X101849Y38383D01*
X101727Y38542D01*
X101727Y38542D01*
X99620Y40649D01*
X99672Y40776D01*
X105091D01*
X110550Y35318D01*
Y34265D01*
X110576Y34066D01*
X110653Y33880D01*
X110775Y33721D01*
X110934Y33599D01*
X111119Y33522D01*
X111318Y33496D01*
X111517Y33522D01*
X111702Y33599D01*
X111862Y33721D01*
X111984Y33880D01*
X112061Y34066D01*
X112087Y34265D01*
Y35636D01*
X112087Y35636D01*
X112061Y35835D01*
X111984Y36020D01*
X111862Y36180D01*
X111862Y36180D01*
X105953Y42088D01*
X105794Y42211D01*
X105608Y42287D01*
X105409Y42314D01*
X95124D01*
X95054Y42419D01*
X95107Y42547D01*
X95190Y42966D01*
Y43394D01*
X95107Y43813D01*
X94943Y44208D01*
X94706Y44563D01*
X94403Y44866D01*
X94048Y45103D01*
X93653Y45267D01*
X93234Y45350D01*
D02*
G37*
G36*
X118227Y34576D02*
X118028Y34550D01*
X117843Y34473D01*
X117684Y34351D01*
X116308Y32976D01*
X103851D01*
X103652Y32950D01*
X103466Y32873D01*
X103307Y32751D01*
X103185Y32591D01*
X103108Y32406D01*
X103082Y32207D01*
X103108Y32008D01*
X103185Y31823D01*
X103307Y31664D01*
X103466Y31542D01*
X103652Y31465D01*
X103851Y31439D01*
X116627D01*
X116826Y31465D01*
X117011Y31542D01*
X117170Y31664D01*
X118770Y33264D01*
X118893Y33423D01*
X118969Y33608D01*
X118996Y33807D01*
X118969Y34006D01*
X118893Y34192D01*
X118770Y34351D01*
X118611Y34473D01*
X118426Y34550D01*
X118227Y34576D01*
D02*
G37*
G36*
X124602Y30692D02*
X124602Y30692D01*
X103825D01*
X103560Y30657D01*
X103313Y30555D01*
X103101Y30392D01*
X102938Y30180D01*
X102835Y29932D01*
X102800Y29667D01*
X102835Y29402D01*
X102938Y29155D01*
X103101Y28943D01*
X103313Y28780D01*
X103560Y28677D01*
X103825Y28642D01*
X124178D01*
X133585Y19235D01*
Y17165D01*
X133582Y17163D01*
X133227Y16926D01*
X132924Y16623D01*
X132687Y16268D01*
X132523Y15873D01*
X132440Y15454D01*
Y15026D01*
X132523Y14607D01*
X132687Y14212D01*
X132924Y13857D01*
X133227Y13554D01*
X133582Y13317D01*
X133977Y13153D01*
X134396Y13070D01*
X134824D01*
X135243Y13153D01*
X135638Y13317D01*
X135993Y13554D01*
X136296Y13857D01*
X136533Y14212D01*
X136697Y14607D01*
X136780Y15026D01*
Y15454D01*
X136697Y15873D01*
X136533Y16268D01*
X136296Y16623D01*
X135993Y16926D01*
X135638Y17163D01*
X135635Y17165D01*
Y19660D01*
X135600Y19925D01*
X135497Y20172D01*
X135335Y20384D01*
X135335Y20384D01*
X125327Y30392D01*
X125115Y30555D01*
X124868Y30657D01*
X124602Y30692D01*
D02*
G37*
G36*
X124664Y17410D02*
X124236D01*
X123817Y17327D01*
X123422Y17163D01*
X123067Y16926D01*
X122764Y16623D01*
X122527Y16268D01*
X122363Y15873D01*
X122280Y15454D01*
Y15026D01*
X122363Y14607D01*
X122527Y14212D01*
X122764Y13857D01*
X123067Y13554D01*
X123422Y13317D01*
X123817Y13153D01*
X124236Y13070D01*
X124664D01*
X125083Y13153D01*
X125478Y13317D01*
X125833Y13554D01*
X126136Y13857D01*
X126373Y14212D01*
X126537Y14607D01*
X126620Y15026D01*
Y15454D01*
X126537Y15873D01*
X126373Y16268D01*
X126136Y16623D01*
X125833Y16926D01*
X125478Y17163D01*
X125083Y17327D01*
X124664Y17410D01*
D02*
G37*
G36*
X84024D02*
X83596D01*
X83177Y17327D01*
X82782Y17163D01*
X82427Y16926D01*
X82124Y16623D01*
X81887Y16268D01*
X81723Y15873D01*
X81640Y15454D01*
Y15026D01*
X81723Y14607D01*
X81887Y14212D01*
X82124Y13857D01*
X82427Y13554D01*
X82782Y13317D01*
X83177Y13153D01*
X83596Y13070D01*
X84024D01*
X84443Y13153D01*
X84838Y13317D01*
X85193Y13554D01*
X85496Y13857D01*
X85733Y14212D01*
X85897Y14607D01*
X85980Y15026D01*
Y15454D01*
X85897Y15873D01*
X85733Y16268D01*
X85496Y16623D01*
X85193Y16926D01*
X84838Y17163D01*
X84443Y17327D01*
X84024Y17410D01*
D02*
G37*
G36*
Y12330D02*
X83596D01*
X83177Y12247D01*
X82782Y12083D01*
X82427Y11846D01*
X82124Y11543D01*
X81887Y11188D01*
X81723Y10793D01*
X81640Y10374D01*
Y9946D01*
X81723Y9527D01*
X81887Y9132D01*
X82124Y8777D01*
X82427Y8474D01*
X82782Y8237D01*
X83177Y8073D01*
X83596Y7990D01*
X84024D01*
X84443Y8073D01*
X84838Y8237D01*
X85193Y8474D01*
X85496Y8777D01*
X85733Y9132D01*
X85897Y9527D01*
X85980Y9946D01*
Y10374D01*
X85897Y10793D01*
X85733Y11188D01*
X85496Y11543D01*
X85193Y11846D01*
X84838Y12083D01*
X84443Y12247D01*
X84024Y12330D01*
D02*
G37*
G36*
X13234Y45350D02*
X12806D01*
X12387Y45267D01*
X11992Y45103D01*
X11637Y44866D01*
X11334Y44563D01*
X11097Y44208D01*
X10933Y43813D01*
X10850Y43394D01*
Y42966D01*
X10933Y42547D01*
X11097Y42152D01*
X11334Y41797D01*
X11634Y41497D01*
X11106Y40968D01*
X11088Y40945D01*
X10580D01*
X10412Y40912D01*
X10269Y40817D01*
X10174Y40674D01*
X10141Y40506D01*
Y39606D01*
X10174Y39438D01*
X10229Y39356D01*
X10174Y39274D01*
X10141Y39106D01*
Y38792D01*
X9462D01*
X9179Y39075D01*
X9020Y39197D01*
X8835Y39274D01*
X8636Y39300D01*
X8437Y39274D01*
X8252Y39197D01*
X8093Y39075D01*
X7970Y38916D01*
X7894Y38731D01*
X7867Y38532D01*
X7894Y38333D01*
X7970Y38148D01*
X8093Y37988D01*
X8601Y37480D01*
X8760Y37358D01*
X8945Y37281D01*
X9144Y37255D01*
X9144Y37255D01*
X10648D01*
X10847Y37281D01*
X11032Y37358D01*
X11192Y37480D01*
X11478Y37766D01*
X11980D01*
X12148Y37800D01*
X12291Y37895D01*
X12386Y38038D01*
X12420Y38206D01*
Y39106D01*
X12386Y39274D01*
X12331Y39356D01*
X12386Y39438D01*
X12420Y39606D01*
Y40108D01*
X13088Y40776D01*
X13601D01*
X13669Y40649D01*
X13641Y40506D01*
Y39606D01*
X13674Y39438D01*
X13729Y39356D01*
X13674Y39274D01*
X13641Y39106D01*
Y38206D01*
X13674Y38038D01*
X13769Y37895D01*
X13912Y37800D01*
X14080Y37766D01*
X14421D01*
Y37387D01*
X14294Y37319D01*
X14048Y37483D01*
X13653Y37647D01*
X13234Y37730D01*
X12806D01*
X12387Y37647D01*
X11992Y37483D01*
X11637Y37246D01*
X11334Y36943D01*
X11097Y36588D01*
X10933Y36193D01*
X10850Y35774D01*
Y35346D01*
X10933Y34927D01*
X11097Y34532D01*
X11334Y34177D01*
X11637Y33874D01*
X11992Y33637D01*
X12387Y33473D01*
X12806Y33390D01*
X13234D01*
X13653Y33473D01*
X14048Y33637D01*
X14403Y33874D01*
X14706Y34177D01*
X14943Y34532D01*
X15107Y34927D01*
X15190Y35346D01*
Y35630D01*
X15388Y35656D01*
X15573Y35733D01*
X15733Y35855D01*
X15855Y36014D01*
X15932Y36199D01*
X15958Y36398D01*
Y38786D01*
X15932Y38985D01*
X15920Y39014D01*
Y39106D01*
X15886Y39274D01*
X15886Y39274D01*
X15954Y39401D01*
X18694D01*
X20415Y37680D01*
Y26035D01*
X20441Y25836D01*
X20518Y25651D01*
X20640Y25492D01*
X22113Y24018D01*
X22273Y23896D01*
X22458Y23819D01*
X22657Y23793D01*
X23774D01*
X23973Y23819D01*
X24159Y23896D01*
X24318Y24018D01*
X24440Y24178D01*
X24517Y24363D01*
X24543Y24562D01*
X24517Y24761D01*
X24440Y24946D01*
X24318Y25105D01*
X24159Y25227D01*
X23973Y25304D01*
X23774Y25330D01*
X22975D01*
X21952Y26353D01*
Y37998D01*
X21926Y38197D01*
X21849Y38383D01*
X21727Y38542D01*
X21727Y38542D01*
X19620Y40649D01*
X19672Y40776D01*
X25091D01*
X30550Y35318D01*
Y34265D01*
X30576Y34066D01*
X30653Y33880D01*
X30775Y33721D01*
X30934Y33599D01*
X31119Y33522D01*
X31318Y33496D01*
X31517Y33522D01*
X31702Y33599D01*
X31862Y33721D01*
X31984Y33880D01*
X32061Y34066D01*
X32087Y34265D01*
Y35636D01*
X32087Y35636D01*
X32061Y35835D01*
X31984Y36020D01*
X31862Y36180D01*
X31862Y36180D01*
X25953Y42088D01*
X25794Y42211D01*
X25608Y42287D01*
X25409Y42314D01*
X15124D01*
X15054Y42419D01*
X15107Y42547D01*
X15190Y42966D01*
Y43394D01*
X15107Y43813D01*
X14943Y44208D01*
X14706Y44563D01*
X14403Y44866D01*
X14048Y45103D01*
X13653Y45267D01*
X13234Y45350D01*
D02*
G37*
G36*
X38227Y34576D02*
X38028Y34550D01*
X37843Y34473D01*
X37684Y34351D01*
X36308Y32976D01*
X23851D01*
X23652Y32950D01*
X23466Y32873D01*
X23307Y32751D01*
X23185Y32591D01*
X23108Y32406D01*
X23082Y32207D01*
X23108Y32008D01*
X23185Y31823D01*
X23307Y31664D01*
X23466Y31542D01*
X23652Y31465D01*
X23851Y31439D01*
X36627D01*
X36826Y31465D01*
X37011Y31542D01*
X37170Y31664D01*
X38770Y33264D01*
X38893Y33423D01*
X38969Y33608D01*
X38996Y33807D01*
X38969Y34006D01*
X38893Y34192D01*
X38770Y34351D01*
X38611Y34473D01*
X38426Y34550D01*
X38227Y34576D01*
D02*
G37*
G36*
X44602Y30692D02*
X44602Y30692D01*
X23825D01*
X23560Y30657D01*
X23313Y30555D01*
X23101Y30392D01*
X22938Y30180D01*
X22835Y29932D01*
X22800Y29667D01*
X22835Y29402D01*
X22938Y29155D01*
X23101Y28943D01*
X23313Y28780D01*
X23560Y28677D01*
X23825Y28642D01*
X44178D01*
X53585Y19235D01*
Y17165D01*
X53582Y17163D01*
X53227Y16926D01*
X52924Y16623D01*
X52687Y16268D01*
X52523Y15873D01*
X52440Y15454D01*
Y15026D01*
X52523Y14607D01*
X52687Y14212D01*
X52924Y13857D01*
X53227Y13554D01*
X53582Y13317D01*
X53977Y13153D01*
X54396Y13070D01*
X54824D01*
X55243Y13153D01*
X55638Y13317D01*
X55993Y13554D01*
X56296Y13857D01*
X56533Y14212D01*
X56697Y14607D01*
X56780Y15026D01*
Y15454D01*
X56697Y15873D01*
X56533Y16268D01*
X56296Y16623D01*
X55993Y16926D01*
X55638Y17163D01*
X55635Y17165D01*
Y19660D01*
X55600Y19925D01*
X55497Y20172D01*
X55335Y20384D01*
X55335Y20384D01*
X45327Y30392D01*
X45115Y30555D01*
X44868Y30657D01*
X44602Y30692D01*
D02*
G37*
G36*
X44664Y17410D02*
X44236D01*
X43817Y17327D01*
X43422Y17163D01*
X43067Y16926D01*
X42764Y16623D01*
X42527Y16268D01*
X42363Y15873D01*
X42280Y15454D01*
Y15026D01*
X42363Y14607D01*
X42527Y14212D01*
X42764Y13857D01*
X43067Y13554D01*
X43422Y13317D01*
X43817Y13153D01*
X44236Y13070D01*
X44664D01*
X45083Y13153D01*
X45478Y13317D01*
X45833Y13554D01*
X46136Y13857D01*
X46373Y14212D01*
X46537Y14607D01*
X46620Y15026D01*
Y15454D01*
X46537Y15873D01*
X46373Y16268D01*
X46136Y16623D01*
X45833Y16926D01*
X45478Y17163D01*
X45083Y17327D01*
X44664Y17410D01*
D02*
G37*
G36*
X4024D02*
X3596D01*
X3177Y17327D01*
X2782Y17163D01*
X2427Y16926D01*
X2124Y16623D01*
X1887Y16268D01*
X1723Y15873D01*
X1640Y15454D01*
Y15026D01*
X1723Y14607D01*
X1887Y14212D01*
X2124Y13857D01*
X2427Y13554D01*
X2782Y13317D01*
X3177Y13153D01*
X3596Y13070D01*
X4024D01*
X4443Y13153D01*
X4838Y13317D01*
X5193Y13554D01*
X5496Y13857D01*
X5733Y14212D01*
X5897Y14607D01*
X5980Y15026D01*
Y15454D01*
X5897Y15873D01*
X5733Y16268D01*
X5496Y16623D01*
X5193Y16926D01*
X4838Y17163D01*
X4443Y17327D01*
X4024Y17410D01*
D02*
G37*
G36*
Y12330D02*
X3596D01*
X3177Y12247D01*
X2782Y12083D01*
X2427Y11846D01*
X2124Y11543D01*
X1887Y11188D01*
X1723Y10793D01*
X1640Y10374D01*
Y9946D01*
X1723Y9527D01*
X1887Y9132D01*
X2124Y8777D01*
X2427Y8474D01*
X2782Y8237D01*
X3177Y8073D01*
X3596Y7990D01*
X4024D01*
X4443Y8073D01*
X4838Y8237D01*
X5193Y8474D01*
X5496Y8777D01*
X5733Y9132D01*
X5897Y9527D01*
X5980Y9946D01*
Y10374D01*
X5897Y10793D01*
X5733Y11188D01*
X5496Y11543D01*
X5193Y11846D01*
X4838Y12083D01*
X4443Y12247D01*
X4024Y12330D01*
D02*
G37*
%LPD*%
D20*
X15189Y36398D02*
Y38786D01*
X8636Y38532D02*
X9144Y38024D01*
X10648D01*
X11280Y38656D01*
X31318Y34265D02*
Y35636D01*
X25409Y41545D02*
X31318Y35636D01*
X12769Y41545D02*
X25409D01*
X23851Y32207D02*
X36627D01*
X38227Y33807D01*
X11649Y40425D02*
X12769Y41545D01*
X11649Y40175D02*
Y40425D01*
X11530Y40056D02*
X11649Y40175D01*
X11280Y40056D02*
X11530D01*
X19012Y40170D02*
X21184Y37998D01*
X14894Y40170D02*
X19012D01*
X14780Y40056D02*
X14894Y40170D01*
X21184Y26035D02*
Y37998D01*
Y26035D02*
X22657Y24562D01*
X23774D01*
X95189Y36398D02*
Y38786D01*
X88636Y38532D02*
X89144Y38024D01*
X90648D01*
X91280Y38656D01*
X111318Y34265D02*
Y35636D01*
X105409Y41545D02*
X111318Y35636D01*
X92769Y41545D02*
X105409D01*
X103851Y32207D02*
X116627D01*
X118227Y33807D01*
X91649Y40425D02*
X92769Y41545D01*
X91649Y40175D02*
Y40425D01*
X91530Y40056D02*
X91649Y40175D01*
X91280Y40056D02*
X91530D01*
X99012Y40170D02*
X101184Y37998D01*
X94894Y40170D02*
X99012D01*
X94780Y40056D02*
X94894Y40170D01*
X101184Y26035D02*
Y37998D01*
Y26035D02*
X102657Y24562D01*
X103774D01*
X15189Y83398D02*
Y85786D01*
X8636Y85532D02*
X9144Y85024D01*
X10648D01*
X11280Y85656D01*
X31318Y81265D02*
Y82636D01*
X25409Y88545D02*
X31318Y82636D01*
X12769Y88545D02*
X25409D01*
X23851Y79207D02*
X36627D01*
X38227Y80807D01*
X11649Y87425D02*
X12769Y88545D01*
X11649Y87175D02*
Y87425D01*
X11530Y87056D02*
X11649Y87175D01*
X11280Y87056D02*
X11530D01*
X19012Y87170D02*
X21184Y84998D01*
X14894Y87170D02*
X19012D01*
X14780Y87056D02*
X14894Y87170D01*
X21184Y73035D02*
Y84998D01*
Y73035D02*
X22657Y71562D01*
X23774D01*
X95189Y83398D02*
Y85786D01*
X88636Y85532D02*
X89144Y85024D01*
X90648D01*
X91280Y85656D01*
X111318Y81265D02*
Y82636D01*
X105409Y88545D02*
X111318Y82636D01*
X92769Y88545D02*
X105409D01*
X103851Y79207D02*
X116627D01*
X118227Y80807D01*
X91649Y87425D02*
X92769Y88545D01*
X91649Y87175D02*
Y87425D01*
X91530Y87056D02*
X91649Y87175D01*
X91280Y87056D02*
X91530D01*
X99012Y87170D02*
X101184Y84998D01*
X94894Y87170D02*
X99012D01*
X94780Y87056D02*
X94894Y87170D01*
X101184Y73035D02*
Y84998D01*
Y73035D02*
X102657Y71562D01*
X103774D01*
X15189Y130398D02*
Y132786D01*
X8636Y132532D02*
X9144Y132024D01*
X10648D01*
X11280Y132656D01*
X31318Y128265D02*
Y129636D01*
X25409Y135545D02*
X31318Y129636D01*
X12769Y135545D02*
X25409D01*
X23851Y126207D02*
X36627D01*
X38227Y127807D01*
X11649Y134425D02*
X12769Y135545D01*
X11649Y134175D02*
Y134425D01*
X11530Y134056D02*
X11649Y134175D01*
X11280Y134056D02*
X11530D01*
X19012Y134170D02*
X21184Y131998D01*
X14894Y134170D02*
X19012D01*
X14780Y134056D02*
X14894Y134170D01*
X21184Y120035D02*
Y131998D01*
Y120035D02*
X22657Y118562D01*
X23774D01*
X95189Y130398D02*
Y132786D01*
X88636Y132532D02*
X89144Y132024D01*
X90648D01*
X91280Y132656D01*
X111318Y128265D02*
Y129636D01*
X105409Y135545D02*
X111318Y129636D01*
X92769Y135545D02*
X105409D01*
X103851Y126207D02*
X116627D01*
X118227Y127807D01*
X91649Y134425D02*
X92769Y135545D01*
X91649Y134175D02*
Y134425D01*
X91530Y134056D02*
X91649Y134175D01*
X91280Y134056D02*
X91530D01*
X99012Y134170D02*
X101184Y131998D01*
X94894Y134170D02*
X99012D01*
X94780Y134056D02*
X94894Y134170D01*
X101184Y120035D02*
Y131998D01*
Y120035D02*
X102657Y118562D01*
X103774D01*
X15189Y177398D02*
Y179786D01*
X8636Y179532D02*
X9144Y179024D01*
X10648D01*
X11280Y179656D01*
X31318Y175265D02*
Y176636D01*
X25409Y182545D02*
X31318Y176636D01*
X12769Y182545D02*
X25409D01*
X23851Y173207D02*
X36627D01*
X38227Y174807D01*
X11649Y181425D02*
X12769Y182545D01*
X11649Y181175D02*
Y181425D01*
X11530Y181056D02*
X11649Y181175D01*
X11280Y181056D02*
X11530D01*
X19012Y181170D02*
X21184Y178998D01*
X14894Y181170D02*
X19012D01*
X14780Y181056D02*
X14894Y181170D01*
X21184Y167035D02*
Y178998D01*
Y167035D02*
X22657Y165562D01*
X23774D01*
X95189Y177398D02*
Y179786D01*
X88636Y179532D02*
X89144Y179024D01*
X90648D01*
X91280Y179656D01*
X111318Y175265D02*
Y176636D01*
X105409Y182545D02*
X111318Y176636D01*
X92769Y182545D02*
X105409D01*
X103851Y173207D02*
X116627D01*
X118227Y174807D01*
X91649Y181425D02*
X92769Y182545D01*
X91649Y181175D02*
Y181425D01*
X91530Y181056D02*
X91649Y181175D01*
X91280Y181056D02*
X91530D01*
X99012Y181170D02*
X101184Y178998D01*
X94894Y181170D02*
X99012D01*
X94780Y181056D02*
X94894Y181170D01*
X101184Y167035D02*
Y178998D01*
Y167035D02*
X102657Y165562D01*
X103774D01*
X15189Y224398D02*
Y226786D01*
X8636Y226532D02*
X9144Y226024D01*
X10648D01*
X11280Y226656D01*
X31318Y222265D02*
Y223636D01*
X25409Y229545D02*
X31318Y223636D01*
X12769Y229545D02*
X25409D01*
X23851Y220207D02*
X36627D01*
X38227Y221807D01*
X11649Y228425D02*
X12769Y229545D01*
X11649Y228175D02*
Y228425D01*
X11530Y228056D02*
X11649Y228175D01*
X11280Y228056D02*
X11530D01*
X19012Y228170D02*
X21184Y225998D01*
X14894Y228170D02*
X19012D01*
X14780Y228056D02*
X14894Y228170D01*
X21184Y214035D02*
Y225998D01*
Y214035D02*
X22657Y212562D01*
X23774D01*
X95189Y224398D02*
Y226786D01*
X88636Y226532D02*
X89144Y226024D01*
X90648D01*
X91280Y226656D01*
X111318Y222265D02*
Y223636D01*
X105409Y229545D02*
X111318Y223636D01*
X92769Y229545D02*
X105409D01*
X103851Y220207D02*
X116627D01*
X118227Y221807D01*
X91649Y228425D02*
X92769Y229545D01*
X91649Y228175D02*
Y228425D01*
X91530Y228056D02*
X91649Y228175D01*
X91280Y228056D02*
X91530D01*
X99012Y228170D02*
X101184Y225998D01*
X94894Y228170D02*
X99012D01*
X94780Y228056D02*
X94894Y228170D01*
X101184Y214035D02*
Y225998D01*
Y214035D02*
X102657Y212562D01*
X103774D01*
D21*
X23825Y29667D02*
X44602D01*
X54610Y19660D01*
Y15240D02*
Y19660D01*
X19300Y4830D02*
X21920D01*
X3810Y20320D02*
X19300Y4830D01*
X21920D02*
X27479Y10389D01*
X44141D01*
X49700Y4830D01*
X54700Y3265D02*
Y4830D01*
X52756Y1321D02*
X54700Y3265D01*
X45136Y1321D02*
X52756D01*
X30429D02*
X45136D01*
X42080Y4377D02*
X45136Y1321D01*
X42080Y4377D02*
Y5080D01*
X26920Y4830D02*
X30429Y1321D01*
X103825Y29667D02*
X124602D01*
X134610Y19660D01*
Y15240D02*
Y19660D01*
X99300Y4830D02*
X101920D01*
X83810Y20320D02*
X99300Y4830D01*
X101920D02*
X107479Y10389D01*
X124141D01*
X129700Y4830D01*
X134700Y3265D02*
Y4830D01*
X132756Y1321D02*
X134700Y3265D01*
X125136Y1321D02*
X132756D01*
X110429D02*
X125136D01*
X122080Y4377D02*
X125136Y1321D01*
X122080Y4377D02*
Y5080D01*
X106920Y4830D02*
X110429Y1321D01*
X23825Y76667D02*
X44602D01*
X54610Y66660D01*
Y62240D02*
Y66660D01*
X19300Y51830D02*
X21920D01*
X3810Y67320D02*
X19300Y51830D01*
X21920D02*
X27479Y57389D01*
X44141D01*
X49700Y51830D01*
X54700Y50265D02*
Y51830D01*
X52756Y48321D02*
X54700Y50265D01*
X45136Y48321D02*
X52756D01*
X30429D02*
X45136D01*
X42080Y51377D02*
X45136Y48321D01*
X42080Y51377D02*
Y52080D01*
X26920Y51830D02*
X30429Y48321D01*
X103825Y76667D02*
X124602D01*
X134610Y66660D01*
Y62240D02*
Y66660D01*
X99300Y51830D02*
X101920D01*
X83810Y67320D02*
X99300Y51830D01*
X101920D02*
X107479Y57389D01*
X124141D01*
X129700Y51830D01*
X134700Y50265D02*
Y51830D01*
X132756Y48321D02*
X134700Y50265D01*
X125136Y48321D02*
X132756D01*
X110429D02*
X125136D01*
X122080Y51377D02*
X125136Y48321D01*
X122080Y51377D02*
Y52080D01*
X106920Y51830D02*
X110429Y48321D01*
X23825Y123667D02*
X44602D01*
X54610Y113660D01*
Y109240D02*
Y113660D01*
X19300Y98830D02*
X21920D01*
X3810Y114320D02*
X19300Y98830D01*
X21920D02*
X27479Y104389D01*
X44141D01*
X49700Y98830D01*
X54700Y97265D02*
Y98830D01*
X52756Y95321D02*
X54700Y97265D01*
X45136Y95321D02*
X52756D01*
X30429D02*
X45136D01*
X42080Y98377D02*
X45136Y95321D01*
X42080Y98377D02*
Y99080D01*
X26920Y98830D02*
X30429Y95321D01*
X103825Y123667D02*
X124602D01*
X134610Y113660D01*
Y109240D02*
Y113660D01*
X99300Y98830D02*
X101920D01*
X83810Y114320D02*
X99300Y98830D01*
X101920D02*
X107479Y104389D01*
X124141D01*
X129700Y98830D01*
X134700Y97265D02*
Y98830D01*
X132756Y95321D02*
X134700Y97265D01*
X125136Y95321D02*
X132756D01*
X110429D02*
X125136D01*
X122080Y98377D02*
X125136Y95321D01*
X122080Y98377D02*
Y99080D01*
X106920Y98830D02*
X110429Y95321D01*
X23825Y170667D02*
X44602D01*
X54610Y160660D01*
Y156240D02*
Y160660D01*
X19300Y145830D02*
X21920D01*
X3810Y161320D02*
X19300Y145830D01*
X21920D02*
X27479Y151389D01*
X44141D01*
X49700Y145830D01*
X54700Y144265D02*
Y145830D01*
X52756Y142321D02*
X54700Y144265D01*
X45136Y142321D02*
X52756D01*
X30429D02*
X45136D01*
X42080Y145377D02*
X45136Y142321D01*
X42080Y145377D02*
Y146080D01*
X26920Y145830D02*
X30429Y142321D01*
X103825Y170667D02*
X124602D01*
X134610Y160660D01*
Y156240D02*
Y160660D01*
X99300Y145830D02*
X101920D01*
X83810Y161320D02*
X99300Y145830D01*
X101920D02*
X107479Y151389D01*
X124141D01*
X129700Y145830D01*
X134700Y144265D02*
Y145830D01*
X132756Y142321D02*
X134700Y144265D01*
X125136Y142321D02*
X132756D01*
X110429D02*
X125136D01*
X122080Y145377D02*
X125136Y142321D01*
X122080Y145377D02*
Y146080D01*
X106920Y145830D02*
X110429Y142321D01*
X23825Y217667D02*
X44602D01*
X54610Y207660D01*
Y203240D02*
Y207660D01*
X19300Y192830D02*
X21920D01*
X3810Y208320D02*
X19300Y192830D01*
X21920D02*
X27479Y198389D01*
X44141D01*
X49700Y192830D01*
X54700Y191265D02*
Y192830D01*
X52756Y189321D02*
X54700Y191265D01*
X45136Y189321D02*
X52756D01*
X30429D02*
X45136D01*
X42080Y192377D02*
X45136Y189321D01*
X42080Y192377D02*
Y193080D01*
X26920Y192830D02*
X30429Y189321D01*
X103825Y217667D02*
X124602D01*
X134610Y207660D01*
Y203240D02*
Y207660D01*
X99300Y192830D02*
X101920D01*
X83810Y208320D02*
X99300Y192830D01*
X101920D02*
X107479Y198389D01*
X124141D01*
X129700Y192830D01*
X134700Y191265D02*
Y192830D01*
X132756Y189321D02*
X134700Y191265D01*
X125136Y189321D02*
X132756D01*
X110429D02*
X125136D01*
X122080Y192377D02*
X125136Y189321D01*
X122080Y192377D02*
Y193080D01*
X106920Y192830D02*
X110429Y189321D01*
D23*
X54610Y15240D02*
D03*
X49530D02*
D03*
X44450D02*
D03*
X3810Y10160D02*
D03*
Y15240D02*
D03*
Y20320D02*
D03*
X134610Y15240D02*
D03*
X129530D02*
D03*
X124450D02*
D03*
X83810Y10160D02*
D03*
Y15240D02*
D03*
Y20320D02*
D03*
X54610Y62240D02*
D03*
X49530D02*
D03*
X44450D02*
D03*
X3810Y57160D02*
D03*
Y62240D02*
D03*
Y67320D02*
D03*
X134610Y62240D02*
D03*
X129530D02*
D03*
X124450D02*
D03*
X83810Y57160D02*
D03*
Y62240D02*
D03*
Y67320D02*
D03*
X54610Y109240D02*
D03*
X49530D02*
D03*
X44450D02*
D03*
X3810Y104160D02*
D03*
Y109240D02*
D03*
Y114320D02*
D03*
X134610Y109240D02*
D03*
X129530D02*
D03*
X124450D02*
D03*
X83810Y104160D02*
D03*
Y109240D02*
D03*
Y114320D02*
D03*
X54610Y156240D02*
D03*
X49530D02*
D03*
X44450D02*
D03*
X3810Y151160D02*
D03*
Y156240D02*
D03*
Y161320D02*
D03*
X134610Y156240D02*
D03*
X129530D02*
D03*
X124450D02*
D03*
X83810Y151160D02*
D03*
Y156240D02*
D03*
Y161320D02*
D03*
X54610Y203240D02*
D03*
X49530D02*
D03*
X44450D02*
D03*
X3810Y198160D02*
D03*
Y203240D02*
D03*
Y208320D02*
D03*
X134610Y203240D02*
D03*
X129530D02*
D03*
X124450D02*
D03*
X83810Y198160D02*
D03*
Y203240D02*
D03*
Y208320D02*
D03*
D24*
X31920Y4830D02*
D03*
X21920D02*
D03*
X26920D02*
D03*
X59700D02*
D03*
X49700D02*
D03*
X54700D02*
D03*
X111920D02*
D03*
X101920D02*
D03*
X106920D02*
D03*
X139700D02*
D03*
X129700D02*
D03*
X134700D02*
D03*
X31920Y51830D02*
D03*
X21920D02*
D03*
X26920D02*
D03*
X59700D02*
D03*
X49700D02*
D03*
X54700D02*
D03*
X111920D02*
D03*
X101920D02*
D03*
X106920D02*
D03*
X139700D02*
D03*
X129700D02*
D03*
X134700D02*
D03*
X31920Y98830D02*
D03*
X21920D02*
D03*
X26920D02*
D03*
X59700D02*
D03*
X49700D02*
D03*
X54700D02*
D03*
X111920D02*
D03*
X101920D02*
D03*
X106920D02*
D03*
X139700D02*
D03*
X129700D02*
D03*
X134700D02*
D03*
X31920Y145830D02*
D03*
X21920D02*
D03*
X26920D02*
D03*
X59700D02*
D03*
X49700D02*
D03*
X54700D02*
D03*
X111920D02*
D03*
X101920D02*
D03*
X106920D02*
D03*
X139700D02*
D03*
X129700D02*
D03*
X134700D02*
D03*
X31920Y192830D02*
D03*
X21920D02*
D03*
X26920D02*
D03*
X59700D02*
D03*
X49700D02*
D03*
X54700D02*
D03*
X111920D02*
D03*
X101920D02*
D03*
X106920D02*
D03*
X139700D02*
D03*
X129700D02*
D03*
X134700D02*
D03*
D25*
X39540Y5080D02*
D03*
X42080D02*
D03*
X119540D02*
D03*
X122080D02*
D03*
X39540Y52080D02*
D03*
X42080D02*
D03*
X119540D02*
D03*
X122080D02*
D03*
X39540Y99080D02*
D03*
X42080D02*
D03*
X119540D02*
D03*
X122080D02*
D03*
X39540Y146080D02*
D03*
X42080D02*
D03*
X119540D02*
D03*
X122080D02*
D03*
X39540Y193080D02*
D03*
X42080D02*
D03*
X119540D02*
D03*
X122080D02*
D03*
D26*
X51816Y26670D02*
D03*
X55626Y33528D02*
D03*
X7366Y35306D02*
D03*
X13208Y26162D02*
D03*
X16764Y18034D02*
D03*
X8382Y11176D02*
D03*
X16002Y13208D02*
D03*
X9144Y1778D02*
D03*
X13970Y3048D02*
D03*
X67056Y9906D02*
D03*
X76708Y10160D02*
D03*
Y3302D02*
D03*
X66294Y2540D02*
D03*
X69088Y6858D02*
D03*
X77470Y35052D02*
D03*
X70358Y31496D02*
D03*
X69342Y37084D02*
D03*
X72136Y42164D02*
D03*
X62484Y31242D02*
D03*
X60452Y13462D02*
D03*
X54356Y22352D02*
D03*
X67056Y20320D02*
D03*
X47244Y30480D02*
D03*
X42672Y25908D02*
D03*
X46736Y25654D02*
D03*
X46228Y21590D02*
D03*
X36576Y24638D02*
D03*
X38100Y22860D02*
D03*
X32004Y23114D02*
D03*
X31496Y27178D02*
D03*
X24130Y26924D02*
D03*
X18034Y37592D02*
D03*
X6350Y43688D02*
D03*
X4826Y39878D02*
D03*
X3556Y36322D02*
D03*
X18542Y25400D02*
D03*
X9144Y21844D02*
D03*
X4826Y27686D02*
D03*
X5080Y32512D02*
D03*
X9652Y27940D02*
D03*
X20320Y19812D02*
D03*
X18542Y10160D02*
D03*
X6350Y6350D02*
D03*
X8636Y4826D02*
D03*
X15240Y5588D02*
D03*
X12192Y9652D02*
D03*
X13716Y22352D02*
D03*
X36068Y43942D02*
D03*
X47752Y43434D02*
D03*
X58928Y42926D02*
D03*
X50038Y33782D02*
D03*
X44958Y35052D02*
D03*
X50546Y37592D02*
D03*
X55372Y28956D02*
D03*
X60960Y23622D02*
D03*
X65786Y14732D02*
D03*
X72898Y8382D02*
D03*
X75692Y16002D02*
D03*
Y28194D02*
D03*
X73152Y36068D02*
D03*
X65024Y39116D02*
D03*
X59436Y37338D02*
D03*
X66040Y29718D02*
D03*
X71120Y25400D02*
D03*
X8636Y38532D02*
D03*
X15189Y36398D02*
D03*
X23851Y32207D02*
D03*
X38227Y33807D02*
D03*
X31318Y34265D02*
D03*
X23774Y24562D02*
D03*
X23825Y29667D02*
D03*
X131816Y26670D02*
D03*
X135626Y33528D02*
D03*
X87366Y35306D02*
D03*
X93208Y26162D02*
D03*
X96764Y18034D02*
D03*
X88382Y11176D02*
D03*
X96002Y13208D02*
D03*
X89144Y1778D02*
D03*
X93970Y3048D02*
D03*
X147056Y9906D02*
D03*
X156708Y10160D02*
D03*
Y3302D02*
D03*
X146294Y2540D02*
D03*
X149088Y6858D02*
D03*
X157470Y35052D02*
D03*
X150358Y31496D02*
D03*
X149342Y37084D02*
D03*
X152136Y42164D02*
D03*
X142484Y31242D02*
D03*
X140452Y13462D02*
D03*
X134356Y22352D02*
D03*
X147056Y20320D02*
D03*
X127244Y30480D02*
D03*
X122672Y25908D02*
D03*
X126736Y25654D02*
D03*
X126228Y21590D02*
D03*
X116576Y24638D02*
D03*
X118100Y22860D02*
D03*
X112004Y23114D02*
D03*
X111496Y27178D02*
D03*
X104130Y26924D02*
D03*
X98034Y37592D02*
D03*
X86350Y43688D02*
D03*
X84826Y39878D02*
D03*
X83556Y36322D02*
D03*
X98542Y25400D02*
D03*
X89144Y21844D02*
D03*
X84826Y27686D02*
D03*
X85080Y32512D02*
D03*
X89652Y27940D02*
D03*
X100320Y19812D02*
D03*
X98542Y10160D02*
D03*
X86350Y6350D02*
D03*
X88636Y4826D02*
D03*
X95240Y5588D02*
D03*
X92192Y9652D02*
D03*
X93716Y22352D02*
D03*
X116068Y43942D02*
D03*
X127752Y43434D02*
D03*
X138928Y42926D02*
D03*
X130038Y33782D02*
D03*
X124958Y35052D02*
D03*
X130546Y37592D02*
D03*
X135372Y28956D02*
D03*
X140960Y23622D02*
D03*
X145786Y14732D02*
D03*
X152898Y8382D02*
D03*
X155692Y16002D02*
D03*
Y28194D02*
D03*
X153152Y36068D02*
D03*
X145024Y39116D02*
D03*
X139436Y37338D02*
D03*
X146040Y29718D02*
D03*
X151120Y25400D02*
D03*
X88636Y38532D02*
D03*
X95189Y36398D02*
D03*
X103851Y32207D02*
D03*
X118227Y33807D02*
D03*
X111318Y34265D02*
D03*
X103774Y24562D02*
D03*
X103825Y29667D02*
D03*
X51816Y73670D02*
D03*
X55626Y80528D02*
D03*
X7366Y82306D02*
D03*
X13208Y73162D02*
D03*
X16764Y65034D02*
D03*
X8382Y58176D02*
D03*
X16002Y60208D02*
D03*
X9144Y48778D02*
D03*
X13970Y50048D02*
D03*
X67056Y56906D02*
D03*
X76708Y57160D02*
D03*
Y50302D02*
D03*
X66294Y49540D02*
D03*
X69088Y53858D02*
D03*
X77470Y82052D02*
D03*
X70358Y78496D02*
D03*
X69342Y84084D02*
D03*
X72136Y89164D02*
D03*
X62484Y78242D02*
D03*
X60452Y60462D02*
D03*
X54356Y69352D02*
D03*
X67056Y67320D02*
D03*
X47244Y77480D02*
D03*
X42672Y72908D02*
D03*
X46736Y72654D02*
D03*
X46228Y68590D02*
D03*
X36576Y71638D02*
D03*
X38100Y69860D02*
D03*
X32004Y70114D02*
D03*
X31496Y74178D02*
D03*
X24130Y73924D02*
D03*
X18034Y84592D02*
D03*
X6350Y90688D02*
D03*
X4826Y86878D02*
D03*
X3556Y83322D02*
D03*
X18542Y72400D02*
D03*
X9144Y68844D02*
D03*
X4826Y74686D02*
D03*
X5080Y79512D02*
D03*
X9652Y74940D02*
D03*
X20320Y66812D02*
D03*
X18542Y57160D02*
D03*
X6350Y53350D02*
D03*
X8636Y51826D02*
D03*
X15240Y52588D02*
D03*
X12192Y56652D02*
D03*
X13716Y69352D02*
D03*
X36068Y90942D02*
D03*
X47752Y90434D02*
D03*
X58928Y89926D02*
D03*
X50038Y80782D02*
D03*
X44958Y82052D02*
D03*
X50546Y84592D02*
D03*
X55372Y75956D02*
D03*
X60960Y70622D02*
D03*
X65786Y61732D02*
D03*
X72898Y55382D02*
D03*
X75692Y63002D02*
D03*
Y75194D02*
D03*
X73152Y83068D02*
D03*
X65024Y86116D02*
D03*
X59436Y84338D02*
D03*
X66040Y76718D02*
D03*
X71120Y72400D02*
D03*
X8636Y85532D02*
D03*
X15189Y83398D02*
D03*
X23851Y79207D02*
D03*
X38227Y80807D02*
D03*
X31318Y81265D02*
D03*
X23774Y71562D02*
D03*
X23825Y76667D02*
D03*
X131816Y73670D02*
D03*
X135626Y80528D02*
D03*
X87366Y82306D02*
D03*
X93208Y73162D02*
D03*
X96764Y65034D02*
D03*
X88382Y58176D02*
D03*
X96002Y60208D02*
D03*
X89144Y48778D02*
D03*
X93970Y50048D02*
D03*
X147056Y56906D02*
D03*
X156708Y57160D02*
D03*
Y50302D02*
D03*
X146294Y49540D02*
D03*
X149088Y53858D02*
D03*
X157470Y82052D02*
D03*
X150358Y78496D02*
D03*
X149342Y84084D02*
D03*
X152136Y89164D02*
D03*
X142484Y78242D02*
D03*
X140452Y60462D02*
D03*
X134356Y69352D02*
D03*
X147056Y67320D02*
D03*
X127244Y77480D02*
D03*
X122672Y72908D02*
D03*
X126736Y72654D02*
D03*
X126228Y68590D02*
D03*
X116576Y71638D02*
D03*
X118100Y69860D02*
D03*
X112004Y70114D02*
D03*
X111496Y74178D02*
D03*
X104130Y73924D02*
D03*
X98034Y84592D02*
D03*
X86350Y90688D02*
D03*
X84826Y86878D02*
D03*
X83556Y83322D02*
D03*
X98542Y72400D02*
D03*
X89144Y68844D02*
D03*
X84826Y74686D02*
D03*
X85080Y79512D02*
D03*
X89652Y74940D02*
D03*
X100320Y66812D02*
D03*
X98542Y57160D02*
D03*
X86350Y53350D02*
D03*
X88636Y51826D02*
D03*
X95240Y52588D02*
D03*
X92192Y56652D02*
D03*
X93716Y69352D02*
D03*
X116068Y90942D02*
D03*
X127752Y90434D02*
D03*
X138928Y89926D02*
D03*
X130038Y80782D02*
D03*
X124958Y82052D02*
D03*
X130546Y84592D02*
D03*
X135372Y75956D02*
D03*
X140960Y70622D02*
D03*
X145786Y61732D02*
D03*
X152898Y55382D02*
D03*
X155692Y63002D02*
D03*
Y75194D02*
D03*
X153152Y83068D02*
D03*
X145024Y86116D02*
D03*
X139436Y84338D02*
D03*
X146040Y76718D02*
D03*
X151120Y72400D02*
D03*
X88636Y85532D02*
D03*
X95189Y83398D02*
D03*
X103851Y79207D02*
D03*
X118227Y80807D02*
D03*
X111318Y81265D02*
D03*
X103774Y71562D02*
D03*
X103825Y76667D02*
D03*
X51816Y120670D02*
D03*
X55626Y127528D02*
D03*
X7366Y129306D02*
D03*
X13208Y120162D02*
D03*
X16764Y112034D02*
D03*
X8382Y105176D02*
D03*
X16002Y107208D02*
D03*
X9144Y95778D02*
D03*
X13970Y97048D02*
D03*
X67056Y103906D02*
D03*
X76708Y104160D02*
D03*
Y97302D02*
D03*
X66294Y96540D02*
D03*
X69088Y100858D02*
D03*
X77470Y129052D02*
D03*
X70358Y125496D02*
D03*
X69342Y131084D02*
D03*
X72136Y136164D02*
D03*
X62484Y125242D02*
D03*
X60452Y107462D02*
D03*
X54356Y116352D02*
D03*
X67056Y114320D02*
D03*
X47244Y124480D02*
D03*
X42672Y119908D02*
D03*
X46736Y119654D02*
D03*
X46228Y115590D02*
D03*
X36576Y118638D02*
D03*
X38100Y116860D02*
D03*
X32004Y117114D02*
D03*
X31496Y121178D02*
D03*
X24130Y120924D02*
D03*
X18034Y131592D02*
D03*
X6350Y137688D02*
D03*
X4826Y133878D02*
D03*
X3556Y130322D02*
D03*
X18542Y119400D02*
D03*
X9144Y115844D02*
D03*
X4826Y121686D02*
D03*
X5080Y126512D02*
D03*
X9652Y121940D02*
D03*
X20320Y113812D02*
D03*
X18542Y104160D02*
D03*
X6350Y100350D02*
D03*
X8636Y98826D02*
D03*
X15240Y99588D02*
D03*
X12192Y103652D02*
D03*
X13716Y116352D02*
D03*
X36068Y137942D02*
D03*
X47752Y137434D02*
D03*
X58928Y136926D02*
D03*
X50038Y127782D02*
D03*
X44958Y129052D02*
D03*
X50546Y131592D02*
D03*
X55372Y122956D02*
D03*
X60960Y117622D02*
D03*
X65786Y108732D02*
D03*
X72898Y102382D02*
D03*
X75692Y110002D02*
D03*
Y122194D02*
D03*
X73152Y130068D02*
D03*
X65024Y133116D02*
D03*
X59436Y131338D02*
D03*
X66040Y123718D02*
D03*
X71120Y119400D02*
D03*
X8636Y132532D02*
D03*
X15189Y130398D02*
D03*
X23851Y126207D02*
D03*
X38227Y127807D02*
D03*
X31318Y128265D02*
D03*
X23774Y118562D02*
D03*
X23825Y123667D02*
D03*
X131816Y120670D02*
D03*
X135626Y127528D02*
D03*
X87366Y129306D02*
D03*
X93208Y120162D02*
D03*
X96764Y112034D02*
D03*
X88382Y105176D02*
D03*
X96002Y107208D02*
D03*
X89144Y95778D02*
D03*
X93970Y97048D02*
D03*
X147056Y103906D02*
D03*
X156708Y104160D02*
D03*
Y97302D02*
D03*
X146294Y96540D02*
D03*
X149088Y100858D02*
D03*
X157470Y129052D02*
D03*
X150358Y125496D02*
D03*
X149342Y131084D02*
D03*
X152136Y136164D02*
D03*
X142484Y125242D02*
D03*
X140452Y107462D02*
D03*
X134356Y116352D02*
D03*
X147056Y114320D02*
D03*
X127244Y124480D02*
D03*
X122672Y119908D02*
D03*
X126736Y119654D02*
D03*
X126228Y115590D02*
D03*
X116576Y118638D02*
D03*
X118100Y116860D02*
D03*
X112004Y117114D02*
D03*
X111496Y121178D02*
D03*
X104130Y120924D02*
D03*
X98034Y131592D02*
D03*
X86350Y137688D02*
D03*
X84826Y133878D02*
D03*
X83556Y130322D02*
D03*
X98542Y119400D02*
D03*
X89144Y115844D02*
D03*
X84826Y121686D02*
D03*
X85080Y126512D02*
D03*
X89652Y121940D02*
D03*
X100320Y113812D02*
D03*
X98542Y104160D02*
D03*
X86350Y100350D02*
D03*
X88636Y98826D02*
D03*
X95240Y99588D02*
D03*
X92192Y103652D02*
D03*
X93716Y116352D02*
D03*
X116068Y137942D02*
D03*
X127752Y137434D02*
D03*
X138928Y136926D02*
D03*
X130038Y127782D02*
D03*
X124958Y129052D02*
D03*
X130546Y131592D02*
D03*
X135372Y122956D02*
D03*
X140960Y117622D02*
D03*
X145786Y108732D02*
D03*
X152898Y102382D02*
D03*
X155692Y110002D02*
D03*
Y122194D02*
D03*
X153152Y130068D02*
D03*
X145024Y133116D02*
D03*
X139436Y131338D02*
D03*
X146040Y123718D02*
D03*
X151120Y119400D02*
D03*
X88636Y132532D02*
D03*
X95189Y130398D02*
D03*
X103851Y126207D02*
D03*
X118227Y127807D02*
D03*
X111318Y128265D02*
D03*
X103774Y118562D02*
D03*
X103825Y123667D02*
D03*
X51816Y167670D02*
D03*
X55626Y174528D02*
D03*
X7366Y176306D02*
D03*
X13208Y167162D02*
D03*
X16764Y159034D02*
D03*
X8382Y152176D02*
D03*
X16002Y154208D02*
D03*
X9144Y142778D02*
D03*
X13970Y144048D02*
D03*
X67056Y150906D02*
D03*
X76708Y151160D02*
D03*
Y144302D02*
D03*
X66294Y143540D02*
D03*
X69088Y147858D02*
D03*
X77470Y176052D02*
D03*
X70358Y172496D02*
D03*
X69342Y178084D02*
D03*
X72136Y183164D02*
D03*
X62484Y172242D02*
D03*
X60452Y154462D02*
D03*
X54356Y163352D02*
D03*
X67056Y161320D02*
D03*
X47244Y171480D02*
D03*
X42672Y166908D02*
D03*
X46736Y166654D02*
D03*
X46228Y162590D02*
D03*
X36576Y165638D02*
D03*
X38100Y163860D02*
D03*
X32004Y164114D02*
D03*
X31496Y168178D02*
D03*
X24130Y167924D02*
D03*
X18034Y178592D02*
D03*
X6350Y184688D02*
D03*
X4826Y180878D02*
D03*
X3556Y177322D02*
D03*
X18542Y166400D02*
D03*
X9144Y162844D02*
D03*
X4826Y168686D02*
D03*
X5080Y173512D02*
D03*
X9652Y168940D02*
D03*
X20320Y160812D02*
D03*
X18542Y151160D02*
D03*
X6350Y147350D02*
D03*
X8636Y145826D02*
D03*
X15240Y146588D02*
D03*
X12192Y150652D02*
D03*
X13716Y163352D02*
D03*
X36068Y184942D02*
D03*
X47752Y184434D02*
D03*
X58928Y183926D02*
D03*
X50038Y174782D02*
D03*
X44958Y176052D02*
D03*
X50546Y178592D02*
D03*
X55372Y169956D02*
D03*
X60960Y164622D02*
D03*
X65786Y155732D02*
D03*
X72898Y149382D02*
D03*
X75692Y157002D02*
D03*
Y169194D02*
D03*
X73152Y177068D02*
D03*
X65024Y180116D02*
D03*
X59436Y178338D02*
D03*
X66040Y170718D02*
D03*
X71120Y166400D02*
D03*
X8636Y179532D02*
D03*
X15189Y177398D02*
D03*
X23851Y173207D02*
D03*
X38227Y174807D02*
D03*
X31318Y175265D02*
D03*
X23774Y165562D02*
D03*
X23825Y170667D02*
D03*
X131816Y167670D02*
D03*
X135626Y174528D02*
D03*
X87366Y176306D02*
D03*
X93208Y167162D02*
D03*
X96764Y159034D02*
D03*
X88382Y152176D02*
D03*
X96002Y154208D02*
D03*
X89144Y142778D02*
D03*
X93970Y144048D02*
D03*
X147056Y150906D02*
D03*
X156708Y151160D02*
D03*
Y144302D02*
D03*
X146294Y143540D02*
D03*
X149088Y147858D02*
D03*
X157470Y176052D02*
D03*
X150358Y172496D02*
D03*
X149342Y178084D02*
D03*
X152136Y183164D02*
D03*
X142484Y172242D02*
D03*
X140452Y154462D02*
D03*
X134356Y163352D02*
D03*
X147056Y161320D02*
D03*
X127244Y171480D02*
D03*
X122672Y166908D02*
D03*
X126736Y166654D02*
D03*
X126228Y162590D02*
D03*
X116576Y165638D02*
D03*
X118100Y163860D02*
D03*
X112004Y164114D02*
D03*
X111496Y168178D02*
D03*
X104130Y167924D02*
D03*
X98034Y178592D02*
D03*
X86350Y184688D02*
D03*
X84826Y180878D02*
D03*
X83556Y177322D02*
D03*
X98542Y166400D02*
D03*
X89144Y162844D02*
D03*
X84826Y168686D02*
D03*
X85080Y173512D02*
D03*
X89652Y168940D02*
D03*
X100320Y160812D02*
D03*
X98542Y151160D02*
D03*
X86350Y147350D02*
D03*
X88636Y145826D02*
D03*
X95240Y146588D02*
D03*
X92192Y150652D02*
D03*
X93716Y163352D02*
D03*
X116068Y184942D02*
D03*
X127752Y184434D02*
D03*
X138928Y183926D02*
D03*
X130038Y174782D02*
D03*
X124958Y176052D02*
D03*
X130546Y178592D02*
D03*
X135372Y169956D02*
D03*
X140960Y164622D02*
D03*
X145786Y155732D02*
D03*
X152898Y149382D02*
D03*
X155692Y157002D02*
D03*
Y169194D02*
D03*
X153152Y177068D02*
D03*
X145024Y180116D02*
D03*
X139436Y178338D02*
D03*
X146040Y170718D02*
D03*
X151120Y166400D02*
D03*
X88636Y179532D02*
D03*
X95189Y177398D02*
D03*
X103851Y173207D02*
D03*
X118227Y174807D02*
D03*
X111318Y175265D02*
D03*
X103774Y165562D02*
D03*
X103825Y170667D02*
D03*
X51816Y214670D02*
D03*
X55626Y221528D02*
D03*
X7366Y223306D02*
D03*
X13208Y214162D02*
D03*
X16764Y206034D02*
D03*
X8382Y199176D02*
D03*
X16002Y201208D02*
D03*
X9144Y189778D02*
D03*
X13970Y191048D02*
D03*
X67056Y197906D02*
D03*
X76708Y198160D02*
D03*
Y191302D02*
D03*
X66294Y190540D02*
D03*
X69088Y194858D02*
D03*
X77470Y223052D02*
D03*
X70358Y219496D02*
D03*
X69342Y225084D02*
D03*
X72136Y230164D02*
D03*
X62484Y219242D02*
D03*
X60452Y201462D02*
D03*
X54356Y210352D02*
D03*
X67056Y208320D02*
D03*
X47244Y218480D02*
D03*
X42672Y213908D02*
D03*
X46736Y213654D02*
D03*
X46228Y209590D02*
D03*
X36576Y212638D02*
D03*
X38100Y210860D02*
D03*
X32004Y211114D02*
D03*
X31496Y215178D02*
D03*
X24130Y214924D02*
D03*
X18034Y225592D02*
D03*
X6350Y231688D02*
D03*
X4826Y227878D02*
D03*
X3556Y224322D02*
D03*
X18542Y213400D02*
D03*
X9144Y209844D02*
D03*
X4826Y215686D02*
D03*
X5080Y220512D02*
D03*
X9652Y215940D02*
D03*
X20320Y207812D02*
D03*
X18542Y198160D02*
D03*
X6350Y194350D02*
D03*
X8636Y192826D02*
D03*
X15240Y193588D02*
D03*
X12192Y197652D02*
D03*
X13716Y210352D02*
D03*
X36068Y231942D02*
D03*
X47752Y231434D02*
D03*
X58928Y230926D02*
D03*
X50038Y221782D02*
D03*
X44958Y223052D02*
D03*
X50546Y225592D02*
D03*
X55372Y216956D02*
D03*
X60960Y211622D02*
D03*
X65786Y202732D02*
D03*
X72898Y196382D02*
D03*
X75692Y204002D02*
D03*
Y216194D02*
D03*
X73152Y224068D02*
D03*
X65024Y227116D02*
D03*
X59436Y225338D02*
D03*
X66040Y217718D02*
D03*
X71120Y213400D02*
D03*
X8636Y226532D02*
D03*
X15189Y224398D02*
D03*
X23851Y220207D02*
D03*
X38227Y221807D02*
D03*
X31318Y222265D02*
D03*
X23774Y212562D02*
D03*
X23825Y217667D02*
D03*
X131816Y214670D02*
D03*
X135626Y221528D02*
D03*
X87366Y223306D02*
D03*
X93208Y214162D02*
D03*
X96764Y206034D02*
D03*
X88382Y199176D02*
D03*
X96002Y201208D02*
D03*
X89144Y189778D02*
D03*
X93970Y191048D02*
D03*
X147056Y197906D02*
D03*
X156708Y198160D02*
D03*
Y191302D02*
D03*
X146294Y190540D02*
D03*
X149088Y194858D02*
D03*
X157470Y223052D02*
D03*
X150358Y219496D02*
D03*
X149342Y225084D02*
D03*
X152136Y230164D02*
D03*
X142484Y219242D02*
D03*
X140452Y201462D02*
D03*
X134356Y210352D02*
D03*
X147056Y208320D02*
D03*
X127244Y218480D02*
D03*
X122672Y213908D02*
D03*
X126736Y213654D02*
D03*
X126228Y209590D02*
D03*
X116576Y212638D02*
D03*
X118100Y210860D02*
D03*
X112004Y211114D02*
D03*
X111496Y215178D02*
D03*
X104130Y214924D02*
D03*
X98034Y225592D02*
D03*
X86350Y231688D02*
D03*
X84826Y227878D02*
D03*
X83556Y224322D02*
D03*
X98542Y213400D02*
D03*
X89144Y209844D02*
D03*
X84826Y215686D02*
D03*
X85080Y220512D02*
D03*
X89652Y215940D02*
D03*
X100320Y207812D02*
D03*
X98542Y198160D02*
D03*
X86350Y194350D02*
D03*
X88636Y192826D02*
D03*
X95240Y193588D02*
D03*
X92192Y197652D02*
D03*
X93716Y210352D02*
D03*
X116068Y231942D02*
D03*
X127752Y231434D02*
D03*
X138928Y230926D02*
D03*
X130038Y221782D02*
D03*
X124958Y223052D02*
D03*
X130546Y225592D02*
D03*
X135372Y216956D02*
D03*
X140960Y211622D02*
D03*
X145786Y202732D02*
D03*
X152898Y196382D02*
D03*
X155692Y204002D02*
D03*
Y216194D02*
D03*
X153152Y224068D02*
D03*
X145024Y227116D02*
D03*
X139436Y225338D02*
D03*
X146040Y217718D02*
D03*
X151120Y213400D02*
D03*
X88636Y226532D02*
D03*
X95189Y224398D02*
D03*
X103851Y220207D02*
D03*
X118227Y221807D02*
D03*
X111318Y222265D02*
D03*
X103774Y212562D02*
D03*
X103825Y217667D02*
D03*
D27*
X11280Y40056D02*
D03*
X14780D02*
D03*
X11280Y38656D02*
D03*
X14780D02*
D03*
X91280Y40056D02*
D03*
X94780D02*
D03*
X91280Y38656D02*
D03*
X94780D02*
D03*
X11280Y87056D02*
D03*
X14780D02*
D03*
X11280Y85656D02*
D03*
X14780D02*
D03*
X91280Y87056D02*
D03*
X94780D02*
D03*
X91280Y85656D02*
D03*
X94780D02*
D03*
X11280Y134056D02*
D03*
X14780D02*
D03*
X11280Y132656D02*
D03*
X14780D02*
D03*
X91280Y134056D02*
D03*
X94780D02*
D03*
X91280Y132656D02*
D03*
X94780D02*
D03*
X11280Y181056D02*
D03*
X14780D02*
D03*
X11280Y179656D02*
D03*
X14780D02*
D03*
X91280Y181056D02*
D03*
X94780D02*
D03*
X91280Y179656D02*
D03*
X94780D02*
D03*
X11280Y228056D02*
D03*
X14780D02*
D03*
X11280Y226656D02*
D03*
X14780D02*
D03*
X91280Y228056D02*
D03*
X94780D02*
D03*
X91280Y226656D02*
D03*
X94780D02*
D03*
M02*
