G04*
G04 #@! TF.GenerationSoftware,Altium Limited,Altium Designer,19.1.8 (144)*
G04*
G04 Layer_Color=128*
%FSLAX43Y43*%
%MOMM*%
G71*
G01*
G75*
G04:AMPARAMS|DCode=27|XSize=1.5mm|YSize=1mm|CornerRadius=0.05mm|HoleSize=0mm|Usage=FLASHONLY|Rotation=0.000|XOffset=0mm|YOffset=0mm|HoleType=Round|Shape=RoundedRectangle|*
%AMROUNDEDRECTD27*
21,1,1.500,0.900,0,0,0.0*
21,1,1.400,1.000,0,0,0.0*
1,1,0.100,0.700,-0.450*
1,1,0.100,-0.700,-0.450*
1,1,0.100,-0.700,0.450*
1,1,0.100,0.700,0.450*
%
%ADD27ROUNDEDRECTD27*%
D27*
X11280Y40056D02*
D03*
X14780D02*
D03*
X11280Y38656D02*
D03*
X14780D02*
D03*
X91280Y40056D02*
D03*
X94780D02*
D03*
X91280Y38656D02*
D03*
X94780D02*
D03*
X11280Y87056D02*
D03*
X14780D02*
D03*
X11280Y85656D02*
D03*
X14780D02*
D03*
X91280Y87056D02*
D03*
X94780D02*
D03*
X91280Y85656D02*
D03*
X94780D02*
D03*
X11280Y134056D02*
D03*
X14780D02*
D03*
X11280Y132656D02*
D03*
X14780D02*
D03*
X91280Y134056D02*
D03*
X94780D02*
D03*
X91280Y132656D02*
D03*
X94780D02*
D03*
X11280Y181056D02*
D03*
X14780D02*
D03*
X11280Y179656D02*
D03*
X14780D02*
D03*
X91280Y181056D02*
D03*
X94780D02*
D03*
X91280Y179656D02*
D03*
X94780D02*
D03*
X11280Y228056D02*
D03*
X14780D02*
D03*
X11280Y226656D02*
D03*
X14780D02*
D03*
X91280Y228056D02*
D03*
X94780D02*
D03*
X91280Y226656D02*
D03*
X94780D02*
D03*
M02*
