G04*
G04 #@! TF.GenerationSoftware,Altium Limited,Altium Designer,19.1.8 (144)*
G04*
G04 Layer_Color=16711935*
%FSLAX43Y43*%
%MOMM*%
G71*
G01*
G75*
%ADD48C,2.302*%
%ADD49C,3.003*%
%ADD50C,2.003*%
%ADD51C,0.203*%
G04:AMPARAMS|DCode=52|XSize=1.602mm|YSize=1.102mm|CornerRadius=0.101mm|HoleSize=0mm|Usage=FLASHONLY|Rotation=0.000|XOffset=0mm|YOffset=0mm|HoleType=Round|Shape=RoundedRectangle|*
%AMROUNDEDRECTD52*
21,1,1.602,0.900,0,0,0.0*
21,1,1.400,1.102,0,0,0.0*
1,1,0.202,0.700,-0.450*
1,1,0.202,-0.700,-0.450*
1,1,0.202,-0.700,0.450*
1,1,0.202,0.700,0.450*
%
%ADD52ROUNDEDRECTD52*%
D48*
X54610Y15240D02*
D03*
X49530D02*
D03*
X44450D02*
D03*
X3810Y10160D02*
D03*
Y15240D02*
D03*
Y20320D02*
D03*
X134610Y15240D02*
D03*
X129530D02*
D03*
X124450D02*
D03*
X83810Y10160D02*
D03*
Y15240D02*
D03*
Y20320D02*
D03*
X54610Y62240D02*
D03*
X49530D02*
D03*
X44450D02*
D03*
X3810Y57160D02*
D03*
Y62240D02*
D03*
Y67320D02*
D03*
X134610Y62240D02*
D03*
X129530D02*
D03*
X124450D02*
D03*
X83810Y57160D02*
D03*
Y62240D02*
D03*
Y67320D02*
D03*
X54610Y109240D02*
D03*
X49530D02*
D03*
X44450D02*
D03*
X3810Y104160D02*
D03*
Y109240D02*
D03*
Y114320D02*
D03*
X134610Y109240D02*
D03*
X129530D02*
D03*
X124450D02*
D03*
X83810Y104160D02*
D03*
Y109240D02*
D03*
Y114320D02*
D03*
X54610Y156240D02*
D03*
X49530D02*
D03*
X44450D02*
D03*
X3810Y151160D02*
D03*
Y156240D02*
D03*
Y161320D02*
D03*
X134610Y156240D02*
D03*
X129530D02*
D03*
X124450D02*
D03*
X83810Y151160D02*
D03*
Y156240D02*
D03*
Y161320D02*
D03*
X54610Y203240D02*
D03*
X49530D02*
D03*
X44450D02*
D03*
X3810Y198160D02*
D03*
Y203240D02*
D03*
Y208320D02*
D03*
X134610Y203240D02*
D03*
X129530D02*
D03*
X124450D02*
D03*
X83810Y198160D02*
D03*
Y203240D02*
D03*
Y208320D02*
D03*
D49*
X31920Y4830D02*
D03*
X21920D02*
D03*
X26920D02*
D03*
X59700D02*
D03*
X49700D02*
D03*
X54700D02*
D03*
X111920D02*
D03*
X101920D02*
D03*
X106920D02*
D03*
X139700D02*
D03*
X129700D02*
D03*
X134700D02*
D03*
X31920Y51830D02*
D03*
X21920D02*
D03*
X26920D02*
D03*
X59700D02*
D03*
X49700D02*
D03*
X54700D02*
D03*
X111920D02*
D03*
X101920D02*
D03*
X106920D02*
D03*
X139700D02*
D03*
X129700D02*
D03*
X134700D02*
D03*
X31920Y98830D02*
D03*
X21920D02*
D03*
X26920D02*
D03*
X59700D02*
D03*
X49700D02*
D03*
X54700D02*
D03*
X111920D02*
D03*
X101920D02*
D03*
X106920D02*
D03*
X139700D02*
D03*
X129700D02*
D03*
X134700D02*
D03*
X31920Y145830D02*
D03*
X21920D02*
D03*
X26920D02*
D03*
X59700D02*
D03*
X49700D02*
D03*
X54700D02*
D03*
X111920D02*
D03*
X101920D02*
D03*
X106920D02*
D03*
X139700D02*
D03*
X129700D02*
D03*
X134700D02*
D03*
X31920Y192830D02*
D03*
X21920D02*
D03*
X26920D02*
D03*
X59700D02*
D03*
X49700D02*
D03*
X54700D02*
D03*
X111920D02*
D03*
X101920D02*
D03*
X106920D02*
D03*
X139700D02*
D03*
X129700D02*
D03*
X134700D02*
D03*
D50*
X39540Y5080D02*
D03*
X42080D02*
D03*
X119540D02*
D03*
X122080D02*
D03*
X39540Y52080D02*
D03*
X42080D02*
D03*
X119540D02*
D03*
X122080D02*
D03*
X39540Y99080D02*
D03*
X42080D02*
D03*
X119540D02*
D03*
X122080D02*
D03*
X39540Y146080D02*
D03*
X42080D02*
D03*
X119540D02*
D03*
X122080D02*
D03*
X39540Y193080D02*
D03*
X42080D02*
D03*
X119540D02*
D03*
X122080D02*
D03*
D51*
X2540Y2540D02*
D03*
X77470Y44450D02*
D03*
X13020Y35560D02*
D03*
Y43180D02*
D03*
X82540Y2540D02*
D03*
X157470Y44450D02*
D03*
X93020Y35560D02*
D03*
Y43180D02*
D03*
X2540Y49540D02*
D03*
X77470Y91450D02*
D03*
X13020Y82560D02*
D03*
Y90180D02*
D03*
X82540Y49540D02*
D03*
X157470Y91450D02*
D03*
X93020Y82560D02*
D03*
Y90180D02*
D03*
X2540Y96540D02*
D03*
X77470Y138450D02*
D03*
X13020Y129560D02*
D03*
Y137180D02*
D03*
X82540Y96540D02*
D03*
X157470Y138450D02*
D03*
X93020Y129560D02*
D03*
Y137180D02*
D03*
X2540Y143540D02*
D03*
X77470Y185450D02*
D03*
X13020Y176560D02*
D03*
Y184180D02*
D03*
X82540Y143540D02*
D03*
X157470Y185450D02*
D03*
X93020Y176560D02*
D03*
Y184180D02*
D03*
X2540Y190540D02*
D03*
X77470Y232450D02*
D03*
X13020Y223560D02*
D03*
Y231180D02*
D03*
X82540Y190540D02*
D03*
X157470Y232450D02*
D03*
X93020Y223560D02*
D03*
Y231180D02*
D03*
D52*
X11280Y40056D02*
D03*
X14780D02*
D03*
X11280Y38656D02*
D03*
X14780D02*
D03*
X91280Y40056D02*
D03*
X94780D02*
D03*
X91280Y38656D02*
D03*
X94780D02*
D03*
X11280Y87056D02*
D03*
X14780D02*
D03*
X11280Y85656D02*
D03*
X14780D02*
D03*
X91280Y87056D02*
D03*
X94780D02*
D03*
X91280Y85656D02*
D03*
X94780D02*
D03*
X11280Y134056D02*
D03*
X14780D02*
D03*
X11280Y132656D02*
D03*
X14780D02*
D03*
X91280Y134056D02*
D03*
X94780D02*
D03*
X91280Y132656D02*
D03*
X94780D02*
D03*
X11280Y181056D02*
D03*
X14780D02*
D03*
X11280Y179656D02*
D03*
X14780D02*
D03*
X91280Y181056D02*
D03*
X94780D02*
D03*
X91280Y179656D02*
D03*
X94780D02*
D03*
X11280Y228056D02*
D03*
X14780D02*
D03*
X11280Y226656D02*
D03*
X14780D02*
D03*
X91280Y228056D02*
D03*
X94780D02*
D03*
X91280Y226656D02*
D03*
X94780D02*
D03*
M02*
