G04*
G04 #@! TF.GenerationSoftware,Altium Limited,Altium Designer,19.1.8 (144)*
G04*
G04 Layer_Color=8421504*
%FSLAX43Y43*%
%MOMM*%
G71*
G01*
G75*
G04:AMPARAMS|DCode=11|XSize=1.016mm|YSize=1.016mm|CornerRadius=0.051mm|HoleSize=0mm|Usage=FLASHONLY|Rotation=0.000|XOffset=0mm|YOffset=0mm|HoleType=Round|Shape=RoundedRectangle|*
%AMROUNDEDRECTD11*
21,1,1.016,0.914,0,0,0.0*
21,1,0.914,1.016,0,0,0.0*
1,1,0.102,0.457,-0.457*
1,1,0.102,-0.457,-0.457*
1,1,0.102,-0.457,0.457*
1,1,0.102,0.457,0.457*
%
%ADD11ROUNDEDRECTD11*%
G04:AMPARAMS|DCode=12|XSize=1.778mm|YSize=1.651mm|CornerRadius=0.083mm|HoleSize=0mm|Usage=FLASHONLY|Rotation=90.000|XOffset=0mm|YOffset=0mm|HoleType=Round|Shape=RoundedRectangle|*
%AMROUNDEDRECTD12*
21,1,1.778,1.486,0,0,90.0*
21,1,1.613,1.651,0,0,90.0*
1,1,0.165,0.743,0.806*
1,1,0.165,0.743,-0.806*
1,1,0.165,-0.743,-0.806*
1,1,0.165,-0.743,0.806*
%
%ADD12ROUNDEDRECTD12*%
G04:AMPARAMS|DCode=13|XSize=0.9mm|YSize=0.75mm|CornerRadius=0.038mm|HoleSize=0mm|Usage=FLASHONLY|Rotation=270.000|XOffset=0mm|YOffset=0mm|HoleType=Round|Shape=RoundedRectangle|*
%AMROUNDEDRECTD13*
21,1,0.900,0.675,0,0,270.0*
21,1,0.825,0.750,0,0,270.0*
1,1,0.075,-0.338,-0.413*
1,1,0.075,-0.338,0.413*
1,1,0.075,0.338,0.413*
1,1,0.075,0.338,-0.413*
%
%ADD13ROUNDEDRECTD13*%
G04:AMPARAMS|DCode=14|XSize=0.9mm|YSize=0.79mm|CornerRadius=0.04mm|HoleSize=0mm|Usage=FLASHONLY|Rotation=270.000|XOffset=0mm|YOffset=0mm|HoleType=Round|Shape=RoundedRectangle|*
%AMROUNDEDRECTD14*
21,1,0.900,0.711,0,0,270.0*
21,1,0.821,0.790,0,0,270.0*
1,1,0.079,-0.356,-0.410*
1,1,0.079,-0.356,0.410*
1,1,0.079,0.356,0.410*
1,1,0.079,0.356,-0.410*
%
%ADD14ROUNDEDRECTD14*%
G04:AMPARAMS|DCode=15|XSize=1.4mm|YSize=1.22mm|CornerRadius=0.061mm|HoleSize=0mm|Usage=FLASHONLY|Rotation=0.000|XOffset=0mm|YOffset=0mm|HoleType=Round|Shape=RoundedRectangle|*
%AMROUNDEDRECTD15*
21,1,1.400,1.098,0,0,0.0*
21,1,1.278,1.220,0,0,0.0*
1,1,0.122,0.639,-0.549*
1,1,0.122,-0.639,-0.549*
1,1,0.122,-0.639,0.549*
1,1,0.122,0.639,0.549*
%
%ADD15ROUNDEDRECTD15*%
G04:AMPARAMS|DCode=17|XSize=1mm|YSize=2mm|CornerRadius=0.05mm|HoleSize=0mm|Usage=FLASHONLY|Rotation=0.000|XOffset=0mm|YOffset=0mm|HoleType=Round|Shape=RoundedRectangle|*
%AMROUNDEDRECTD17*
21,1,1.000,1.900,0,0,0.0*
21,1,0.900,2.000,0,0,0.0*
1,1,0.100,0.450,-0.950*
1,1,0.100,-0.450,-0.950*
1,1,0.100,-0.450,0.950*
1,1,0.100,0.450,0.950*
%
%ADD17ROUNDEDRECTD17*%
G04:AMPARAMS|DCode=18|XSize=4.5mm|YSize=1.65mm|CornerRadius=0.083mm|HoleSize=0mm|Usage=FLASHONLY|Rotation=270.000|XOffset=0mm|YOffset=0mm|HoleType=Round|Shape=RoundedRectangle|*
%AMROUNDEDRECTD18*
21,1,4.500,1.485,0,0,270.0*
21,1,4.335,1.650,0,0,270.0*
1,1,0.165,-0.743,-2.168*
1,1,0.165,-0.743,2.168*
1,1,0.165,0.743,2.168*
1,1,0.165,0.743,-2.168*
%
%ADD18ROUNDEDRECTD18*%
G04:AMPARAMS|DCode=19|XSize=2.2mm|YSize=2.15mm|CornerRadius=0.108mm|HoleSize=0mm|Usage=FLASHONLY|Rotation=270.000|XOffset=0mm|YOffset=0mm|HoleType=Round|Shape=RoundedRectangle|*
%AMROUNDEDRECTD19*
21,1,2.200,1.935,0,0,270.0*
21,1,1.985,2.150,0,0,270.0*
1,1,0.215,-0.968,-0.992*
1,1,0.215,-0.968,0.992*
1,1,0.215,0.968,0.992*
1,1,0.215,0.968,-0.992*
%
%ADD19ROUNDEDRECTD19*%
G36*
X109362Y228623D02*
Y226015D01*
X109262Y225915D01*
X108180D01*
X108080Y226015D01*
Y226742D01*
X108180Y226842D01*
X108416D01*
X108516Y226942D01*
Y227697D01*
X108416Y227797D01*
X108180D01*
X108080Y227897D01*
Y228623D01*
X108180Y228723D01*
X109262D01*
X109362Y228623D01*
D02*
G37*
G36*
X106480D02*
Y227897D01*
X106380Y227797D01*
X106144D01*
X106044Y227697D01*
Y226942D01*
X106144Y226842D01*
X106380D01*
X106480Y226742D01*
Y226015D01*
X106380Y225915D01*
X105297D01*
X105197Y226015D01*
Y228623D01*
X105297Y228723D01*
X106380D01*
X106480Y228623D01*
D02*
G37*
G36*
X29362D02*
Y226015D01*
X29262Y225915D01*
X28180D01*
X28080Y226015D01*
Y226742D01*
X28180Y226842D01*
X28416D01*
X28516Y226942D01*
Y227697D01*
X28416Y227797D01*
X28180D01*
X28080Y227897D01*
Y228623D01*
X28180Y228723D01*
X29262D01*
X29362Y228623D01*
D02*
G37*
G36*
X26480D02*
Y227897D01*
X26380Y227797D01*
X26144D01*
X26044Y227697D01*
Y226942D01*
X26144Y226842D01*
X26380D01*
X26480Y226742D01*
Y226015D01*
X26380Y225915D01*
X25297D01*
X25197Y226015D01*
Y228623D01*
X25297Y228723D01*
X26380D01*
X26480Y228623D01*
D02*
G37*
G36*
X109343Y223670D02*
Y221062D01*
X109243Y220962D01*
X108161D01*
X108061Y221062D01*
Y221789D01*
X108161Y221889D01*
X108397D01*
X108497Y221989D01*
Y222744D01*
X108397Y222844D01*
X108161D01*
X108061Y222944D01*
Y223670D01*
X108161Y223770D01*
X109243D01*
X109343Y223670D01*
D02*
G37*
G36*
X106461D02*
Y222944D01*
X106361Y222844D01*
X106125D01*
X106025Y222744D01*
Y221989D01*
X106125Y221889D01*
X106361D01*
X106461Y221789D01*
Y221062D01*
X106361Y220962D01*
X105278D01*
X105178Y221062D01*
Y223670D01*
X105278Y223770D01*
X106361D01*
X106461Y223670D01*
D02*
G37*
G36*
X29343D02*
Y221062D01*
X29243Y220962D01*
X28161D01*
X28061Y221062D01*
Y221789D01*
X28161Y221889D01*
X28397D01*
X28497Y221989D01*
Y222744D01*
X28397Y222844D01*
X28161D01*
X28061Y222944D01*
Y223670D01*
X28161Y223770D01*
X29243D01*
X29343Y223670D01*
D02*
G37*
G36*
X26461D02*
Y222944D01*
X26361Y222844D01*
X26125D01*
X26025Y222744D01*
Y221989D01*
X26125Y221889D01*
X26361D01*
X26461Y221789D01*
Y221062D01*
X26361Y220962D01*
X25278D01*
X25178Y221062D01*
Y223670D01*
X25278Y223770D01*
X26361D01*
X26461Y223670D01*
D02*
G37*
G36*
X109343Y218768D02*
Y216160D01*
X109243Y216060D01*
X108161D01*
X108061Y216160D01*
Y216887D01*
X108161Y216987D01*
X108397D01*
X108497Y217087D01*
Y217841D01*
X108397Y217941D01*
X108161D01*
X108061Y218041D01*
Y218768D01*
X108161Y218868D01*
X109243D01*
X109343Y218768D01*
D02*
G37*
G36*
X106461D02*
Y218041D01*
X106361Y217941D01*
X106125D01*
X106025Y217841D01*
Y217087D01*
X106125Y216987D01*
X106361D01*
X106461Y216887D01*
Y216160D01*
X106361Y216060D01*
X105278D01*
X105178Y216160D01*
Y218768D01*
X105278Y218868D01*
X106361D01*
X106461Y218768D01*
D02*
G37*
G36*
X29343D02*
Y216160D01*
X29243Y216060D01*
X28161D01*
X28061Y216160D01*
Y216887D01*
X28161Y216987D01*
X28397D01*
X28497Y217087D01*
Y217841D01*
X28397Y217941D01*
X28161D01*
X28061Y218041D01*
Y218768D01*
X28161Y218868D01*
X29243D01*
X29343Y218768D01*
D02*
G37*
G36*
X26461D02*
Y218041D01*
X26361Y217941D01*
X26125D01*
X26025Y217841D01*
Y217087D01*
X26125Y216987D01*
X26361D01*
X26461Y216887D01*
Y216160D01*
X26361Y216060D01*
X25278D01*
X25178Y216160D01*
Y218768D01*
X25278Y218868D01*
X26361D01*
X26461Y218768D01*
D02*
G37*
G36*
X109343Y213866D02*
Y211258D01*
X109243Y211158D01*
X108161D01*
X108061Y211258D01*
Y211984D01*
X108161Y212084D01*
X108397D01*
X108497Y212184D01*
Y212939D01*
X108397Y213039D01*
X108161D01*
X108061Y213139D01*
Y213866D01*
X108161Y213966D01*
X109243D01*
X109343Y213866D01*
D02*
G37*
G36*
X106461D02*
Y213139D01*
X106361Y213039D01*
X106125D01*
X106025Y212939D01*
Y212184D01*
X106125Y212084D01*
X106361D01*
X106461Y211984D01*
Y211258D01*
X106361Y211158D01*
X105278D01*
X105178Y211258D01*
Y213866D01*
X105278Y213966D01*
X106361D01*
X106461Y213866D01*
D02*
G37*
G36*
X29343D02*
Y211258D01*
X29243Y211158D01*
X28161D01*
X28061Y211258D01*
Y211984D01*
X28161Y212084D01*
X28397D01*
X28497Y212184D01*
Y212939D01*
X28397Y213039D01*
X28161D01*
X28061Y213139D01*
Y213866D01*
X28161Y213966D01*
X29243D01*
X29343Y213866D01*
D02*
G37*
G36*
X26461D02*
Y213139D01*
X26361Y213039D01*
X26125D01*
X26025Y212939D01*
Y212184D01*
X26125Y212084D01*
X26361D01*
X26461Y211984D01*
Y211258D01*
X26361Y211158D01*
X25278D01*
X25178Y211258D01*
Y213866D01*
X25278Y213966D01*
X26361D01*
X26461Y213866D01*
D02*
G37*
G36*
X109362Y181623D02*
Y179015D01*
X109262Y178915D01*
X108180D01*
X108080Y179015D01*
Y179742D01*
X108180Y179842D01*
X108416D01*
X108516Y179942D01*
Y180697D01*
X108416Y180797D01*
X108180D01*
X108080Y180897D01*
Y181623D01*
X108180Y181723D01*
X109262D01*
X109362Y181623D01*
D02*
G37*
G36*
X106480D02*
Y180897D01*
X106380Y180797D01*
X106144D01*
X106044Y180697D01*
Y179942D01*
X106144Y179842D01*
X106380D01*
X106480Y179742D01*
Y179015D01*
X106380Y178915D01*
X105297D01*
X105197Y179015D01*
Y181623D01*
X105297Y181723D01*
X106380D01*
X106480Y181623D01*
D02*
G37*
G36*
X29362D02*
Y179015D01*
X29262Y178915D01*
X28180D01*
X28080Y179015D01*
Y179742D01*
X28180Y179842D01*
X28416D01*
X28516Y179942D01*
Y180697D01*
X28416Y180797D01*
X28180D01*
X28080Y180897D01*
Y181623D01*
X28180Y181723D01*
X29262D01*
X29362Y181623D01*
D02*
G37*
G36*
X26480D02*
Y180897D01*
X26380Y180797D01*
X26144D01*
X26044Y180697D01*
Y179942D01*
X26144Y179842D01*
X26380D01*
X26480Y179742D01*
Y179015D01*
X26380Y178915D01*
X25297D01*
X25197Y179015D01*
Y181623D01*
X25297Y181723D01*
X26380D01*
X26480Y181623D01*
D02*
G37*
G36*
X109343Y176670D02*
Y174062D01*
X109243Y173962D01*
X108161D01*
X108061Y174062D01*
Y174789D01*
X108161Y174889D01*
X108397D01*
X108497Y174989D01*
Y175744D01*
X108397Y175844D01*
X108161D01*
X108061Y175944D01*
Y176670D01*
X108161Y176770D01*
X109243D01*
X109343Y176670D01*
D02*
G37*
G36*
X106461D02*
Y175944D01*
X106361Y175844D01*
X106125D01*
X106025Y175744D01*
Y174989D01*
X106125Y174889D01*
X106361D01*
X106461Y174789D01*
Y174062D01*
X106361Y173962D01*
X105278D01*
X105178Y174062D01*
Y176670D01*
X105278Y176770D01*
X106361D01*
X106461Y176670D01*
D02*
G37*
G36*
X29343D02*
Y174062D01*
X29243Y173962D01*
X28161D01*
X28061Y174062D01*
Y174789D01*
X28161Y174889D01*
X28397D01*
X28497Y174989D01*
Y175744D01*
X28397Y175844D01*
X28161D01*
X28061Y175944D01*
Y176670D01*
X28161Y176770D01*
X29243D01*
X29343Y176670D01*
D02*
G37*
G36*
X26461D02*
Y175944D01*
X26361Y175844D01*
X26125D01*
X26025Y175744D01*
Y174989D01*
X26125Y174889D01*
X26361D01*
X26461Y174789D01*
Y174062D01*
X26361Y173962D01*
X25278D01*
X25178Y174062D01*
Y176670D01*
X25278Y176770D01*
X26361D01*
X26461Y176670D01*
D02*
G37*
G36*
X109343Y171768D02*
Y169160D01*
X109243Y169060D01*
X108161D01*
X108061Y169160D01*
Y169887D01*
X108161Y169987D01*
X108397D01*
X108497Y170087D01*
Y170841D01*
X108397Y170941D01*
X108161D01*
X108061Y171041D01*
Y171768D01*
X108161Y171868D01*
X109243D01*
X109343Y171768D01*
D02*
G37*
G36*
X106461D02*
Y171041D01*
X106361Y170941D01*
X106125D01*
X106025Y170841D01*
Y170087D01*
X106125Y169987D01*
X106361D01*
X106461Y169887D01*
Y169160D01*
X106361Y169060D01*
X105278D01*
X105178Y169160D01*
Y171768D01*
X105278Y171868D01*
X106361D01*
X106461Y171768D01*
D02*
G37*
G36*
X29343D02*
Y169160D01*
X29243Y169060D01*
X28161D01*
X28061Y169160D01*
Y169887D01*
X28161Y169987D01*
X28397D01*
X28497Y170087D01*
Y170841D01*
X28397Y170941D01*
X28161D01*
X28061Y171041D01*
Y171768D01*
X28161Y171868D01*
X29243D01*
X29343Y171768D01*
D02*
G37*
G36*
X26461D02*
Y171041D01*
X26361Y170941D01*
X26125D01*
X26025Y170841D01*
Y170087D01*
X26125Y169987D01*
X26361D01*
X26461Y169887D01*
Y169160D01*
X26361Y169060D01*
X25278D01*
X25178Y169160D01*
Y171768D01*
X25278Y171868D01*
X26361D01*
X26461Y171768D01*
D02*
G37*
G36*
X109343Y166866D02*
Y164258D01*
X109243Y164158D01*
X108161D01*
X108061Y164258D01*
Y164984D01*
X108161Y165084D01*
X108397D01*
X108497Y165184D01*
Y165939D01*
X108397Y166039D01*
X108161D01*
X108061Y166139D01*
Y166866D01*
X108161Y166966D01*
X109243D01*
X109343Y166866D01*
D02*
G37*
G36*
X106461D02*
Y166139D01*
X106361Y166039D01*
X106125D01*
X106025Y165939D01*
Y165184D01*
X106125Y165084D01*
X106361D01*
X106461Y164984D01*
Y164258D01*
X106361Y164158D01*
X105278D01*
X105178Y164258D01*
Y166866D01*
X105278Y166966D01*
X106361D01*
X106461Y166866D01*
D02*
G37*
G36*
X29343D02*
Y164258D01*
X29243Y164158D01*
X28161D01*
X28061Y164258D01*
Y164984D01*
X28161Y165084D01*
X28397D01*
X28497Y165184D01*
Y165939D01*
X28397Y166039D01*
X28161D01*
X28061Y166139D01*
Y166866D01*
X28161Y166966D01*
X29243D01*
X29343Y166866D01*
D02*
G37*
G36*
X26461D02*
Y166139D01*
X26361Y166039D01*
X26125D01*
X26025Y165939D01*
Y165184D01*
X26125Y165084D01*
X26361D01*
X26461Y164984D01*
Y164258D01*
X26361Y164158D01*
X25278D01*
X25178Y164258D01*
Y166866D01*
X25278Y166966D01*
X26361D01*
X26461Y166866D01*
D02*
G37*
G36*
X109362Y134623D02*
Y132015D01*
X109262Y131915D01*
X108180D01*
X108080Y132015D01*
Y132742D01*
X108180Y132842D01*
X108416D01*
X108516Y132942D01*
Y133697D01*
X108416Y133797D01*
X108180D01*
X108080Y133897D01*
Y134623D01*
X108180Y134723D01*
X109262D01*
X109362Y134623D01*
D02*
G37*
G36*
X106480D02*
Y133897D01*
X106380Y133797D01*
X106144D01*
X106044Y133697D01*
Y132942D01*
X106144Y132842D01*
X106380D01*
X106480Y132742D01*
Y132015D01*
X106380Y131915D01*
X105297D01*
X105197Y132015D01*
Y134623D01*
X105297Y134723D01*
X106380D01*
X106480Y134623D01*
D02*
G37*
G36*
X29362D02*
Y132015D01*
X29262Y131915D01*
X28180D01*
X28080Y132015D01*
Y132742D01*
X28180Y132842D01*
X28416D01*
X28516Y132942D01*
Y133697D01*
X28416Y133797D01*
X28180D01*
X28080Y133897D01*
Y134623D01*
X28180Y134723D01*
X29262D01*
X29362Y134623D01*
D02*
G37*
G36*
X26480D02*
Y133897D01*
X26380Y133797D01*
X26144D01*
X26044Y133697D01*
Y132942D01*
X26144Y132842D01*
X26380D01*
X26480Y132742D01*
Y132015D01*
X26380Y131915D01*
X25297D01*
X25197Y132015D01*
Y134623D01*
X25297Y134723D01*
X26380D01*
X26480Y134623D01*
D02*
G37*
G36*
X109343Y129670D02*
Y127062D01*
X109243Y126962D01*
X108161D01*
X108061Y127062D01*
Y127789D01*
X108161Y127889D01*
X108397D01*
X108497Y127989D01*
Y128744D01*
X108397Y128844D01*
X108161D01*
X108061Y128944D01*
Y129670D01*
X108161Y129770D01*
X109243D01*
X109343Y129670D01*
D02*
G37*
G36*
X106461D02*
Y128944D01*
X106361Y128844D01*
X106125D01*
X106025Y128744D01*
Y127989D01*
X106125Y127889D01*
X106361D01*
X106461Y127789D01*
Y127062D01*
X106361Y126962D01*
X105278D01*
X105178Y127062D01*
Y129670D01*
X105278Y129770D01*
X106361D01*
X106461Y129670D01*
D02*
G37*
G36*
X29343D02*
Y127062D01*
X29243Y126962D01*
X28161D01*
X28061Y127062D01*
Y127789D01*
X28161Y127889D01*
X28397D01*
X28497Y127989D01*
Y128744D01*
X28397Y128844D01*
X28161D01*
X28061Y128944D01*
Y129670D01*
X28161Y129770D01*
X29243D01*
X29343Y129670D01*
D02*
G37*
G36*
X26461D02*
Y128944D01*
X26361Y128844D01*
X26125D01*
X26025Y128744D01*
Y127989D01*
X26125Y127889D01*
X26361D01*
X26461Y127789D01*
Y127062D01*
X26361Y126962D01*
X25278D01*
X25178Y127062D01*
Y129670D01*
X25278Y129770D01*
X26361D01*
X26461Y129670D01*
D02*
G37*
G36*
X109343Y124768D02*
Y122160D01*
X109243Y122060D01*
X108161D01*
X108061Y122160D01*
Y122887D01*
X108161Y122987D01*
X108397D01*
X108497Y123087D01*
Y123841D01*
X108397Y123941D01*
X108161D01*
X108061Y124041D01*
Y124768D01*
X108161Y124868D01*
X109243D01*
X109343Y124768D01*
D02*
G37*
G36*
X106461D02*
Y124041D01*
X106361Y123941D01*
X106125D01*
X106025Y123841D01*
Y123087D01*
X106125Y122987D01*
X106361D01*
X106461Y122887D01*
Y122160D01*
X106361Y122060D01*
X105278D01*
X105178Y122160D01*
Y124768D01*
X105278Y124868D01*
X106361D01*
X106461Y124768D01*
D02*
G37*
G36*
X29343D02*
Y122160D01*
X29243Y122060D01*
X28161D01*
X28061Y122160D01*
Y122887D01*
X28161Y122987D01*
X28397D01*
X28497Y123087D01*
Y123841D01*
X28397Y123941D01*
X28161D01*
X28061Y124041D01*
Y124768D01*
X28161Y124868D01*
X29243D01*
X29343Y124768D01*
D02*
G37*
G36*
X26461D02*
Y124041D01*
X26361Y123941D01*
X26125D01*
X26025Y123841D01*
Y123087D01*
X26125Y122987D01*
X26361D01*
X26461Y122887D01*
Y122160D01*
X26361Y122060D01*
X25278D01*
X25178Y122160D01*
Y124768D01*
X25278Y124868D01*
X26361D01*
X26461Y124768D01*
D02*
G37*
G36*
X109343Y119866D02*
Y117258D01*
X109243Y117158D01*
X108161D01*
X108061Y117258D01*
Y117984D01*
X108161Y118084D01*
X108397D01*
X108497Y118184D01*
Y118939D01*
X108397Y119039D01*
X108161D01*
X108061Y119139D01*
Y119866D01*
X108161Y119966D01*
X109243D01*
X109343Y119866D01*
D02*
G37*
G36*
X106461D02*
Y119139D01*
X106361Y119039D01*
X106125D01*
X106025Y118939D01*
Y118184D01*
X106125Y118084D01*
X106361D01*
X106461Y117984D01*
Y117258D01*
X106361Y117158D01*
X105278D01*
X105178Y117258D01*
Y119866D01*
X105278Y119966D01*
X106361D01*
X106461Y119866D01*
D02*
G37*
G36*
X29343D02*
Y117258D01*
X29243Y117158D01*
X28161D01*
X28061Y117258D01*
Y117984D01*
X28161Y118084D01*
X28397D01*
X28497Y118184D01*
Y118939D01*
X28397Y119039D01*
X28161D01*
X28061Y119139D01*
Y119866D01*
X28161Y119966D01*
X29243D01*
X29343Y119866D01*
D02*
G37*
G36*
X26461D02*
Y119139D01*
X26361Y119039D01*
X26125D01*
X26025Y118939D01*
Y118184D01*
X26125Y118084D01*
X26361D01*
X26461Y117984D01*
Y117258D01*
X26361Y117158D01*
X25278D01*
X25178Y117258D01*
Y119866D01*
X25278Y119966D01*
X26361D01*
X26461Y119866D01*
D02*
G37*
G36*
X109362Y87623D02*
Y85015D01*
X109262Y84915D01*
X108180D01*
X108080Y85015D01*
Y85742D01*
X108180Y85842D01*
X108416D01*
X108516Y85942D01*
Y86697D01*
X108416Y86797D01*
X108180D01*
X108080Y86897D01*
Y87623D01*
X108180Y87723D01*
X109262D01*
X109362Y87623D01*
D02*
G37*
G36*
X106480D02*
Y86897D01*
X106380Y86797D01*
X106144D01*
X106044Y86697D01*
Y85942D01*
X106144Y85842D01*
X106380D01*
X106480Y85742D01*
Y85015D01*
X106380Y84915D01*
X105297D01*
X105197Y85015D01*
Y87623D01*
X105297Y87723D01*
X106380D01*
X106480Y87623D01*
D02*
G37*
G36*
X29362D02*
Y85015D01*
X29262Y84915D01*
X28180D01*
X28080Y85015D01*
Y85742D01*
X28180Y85842D01*
X28416D01*
X28516Y85942D01*
Y86697D01*
X28416Y86797D01*
X28180D01*
X28080Y86897D01*
Y87623D01*
X28180Y87723D01*
X29262D01*
X29362Y87623D01*
D02*
G37*
G36*
X26480D02*
Y86897D01*
X26380Y86797D01*
X26144D01*
X26044Y86697D01*
Y85942D01*
X26144Y85842D01*
X26380D01*
X26480Y85742D01*
Y85015D01*
X26380Y84915D01*
X25297D01*
X25197Y85015D01*
Y87623D01*
X25297Y87723D01*
X26380D01*
X26480Y87623D01*
D02*
G37*
G36*
X109343Y82670D02*
Y80062D01*
X109243Y79962D01*
X108161D01*
X108061Y80062D01*
Y80789D01*
X108161Y80889D01*
X108397D01*
X108497Y80989D01*
Y81744D01*
X108397Y81844D01*
X108161D01*
X108061Y81944D01*
Y82670D01*
X108161Y82770D01*
X109243D01*
X109343Y82670D01*
D02*
G37*
G36*
X106461D02*
Y81944D01*
X106361Y81844D01*
X106125D01*
X106025Y81744D01*
Y80989D01*
X106125Y80889D01*
X106361D01*
X106461Y80789D01*
Y80062D01*
X106361Y79962D01*
X105278D01*
X105178Y80062D01*
Y82670D01*
X105278Y82770D01*
X106361D01*
X106461Y82670D01*
D02*
G37*
G36*
X29343D02*
Y80062D01*
X29243Y79962D01*
X28161D01*
X28061Y80062D01*
Y80789D01*
X28161Y80889D01*
X28397D01*
X28497Y80989D01*
Y81744D01*
X28397Y81844D01*
X28161D01*
X28061Y81944D01*
Y82670D01*
X28161Y82770D01*
X29243D01*
X29343Y82670D01*
D02*
G37*
G36*
X26461D02*
Y81944D01*
X26361Y81844D01*
X26125D01*
X26025Y81744D01*
Y80989D01*
X26125Y80889D01*
X26361D01*
X26461Y80789D01*
Y80062D01*
X26361Y79962D01*
X25278D01*
X25178Y80062D01*
Y82670D01*
X25278Y82770D01*
X26361D01*
X26461Y82670D01*
D02*
G37*
G36*
X109343Y77768D02*
Y75160D01*
X109243Y75060D01*
X108161D01*
X108061Y75160D01*
Y75887D01*
X108161Y75987D01*
X108397D01*
X108497Y76087D01*
Y76841D01*
X108397Y76941D01*
X108161D01*
X108061Y77041D01*
Y77768D01*
X108161Y77868D01*
X109243D01*
X109343Y77768D01*
D02*
G37*
G36*
X106461D02*
Y77041D01*
X106361Y76941D01*
X106125D01*
X106025Y76841D01*
Y76087D01*
X106125Y75987D01*
X106361D01*
X106461Y75887D01*
Y75160D01*
X106361Y75060D01*
X105278D01*
X105178Y75160D01*
Y77768D01*
X105278Y77868D01*
X106361D01*
X106461Y77768D01*
D02*
G37*
G36*
X29343D02*
Y75160D01*
X29243Y75060D01*
X28161D01*
X28061Y75160D01*
Y75887D01*
X28161Y75987D01*
X28397D01*
X28497Y76087D01*
Y76841D01*
X28397Y76941D01*
X28161D01*
X28061Y77041D01*
Y77768D01*
X28161Y77868D01*
X29243D01*
X29343Y77768D01*
D02*
G37*
G36*
X26461D02*
Y77041D01*
X26361Y76941D01*
X26125D01*
X26025Y76841D01*
Y76087D01*
X26125Y75987D01*
X26361D01*
X26461Y75887D01*
Y75160D01*
X26361Y75060D01*
X25278D01*
X25178Y75160D01*
Y77768D01*
X25278Y77868D01*
X26361D01*
X26461Y77768D01*
D02*
G37*
G36*
X109343Y72866D02*
Y70258D01*
X109243Y70158D01*
X108161D01*
X108061Y70258D01*
Y70984D01*
X108161Y71084D01*
X108397D01*
X108497Y71184D01*
Y71939D01*
X108397Y72039D01*
X108161D01*
X108061Y72139D01*
Y72866D01*
X108161Y72966D01*
X109243D01*
X109343Y72866D01*
D02*
G37*
G36*
X106461D02*
Y72139D01*
X106361Y72039D01*
X106125D01*
X106025Y71939D01*
Y71184D01*
X106125Y71084D01*
X106361D01*
X106461Y70984D01*
Y70258D01*
X106361Y70158D01*
X105278D01*
X105178Y70258D01*
Y72866D01*
X105278Y72966D01*
X106361D01*
X106461Y72866D01*
D02*
G37*
G36*
X29343D02*
Y70258D01*
X29243Y70158D01*
X28161D01*
X28061Y70258D01*
Y70984D01*
X28161Y71084D01*
X28397D01*
X28497Y71184D01*
Y71939D01*
X28397Y72039D01*
X28161D01*
X28061Y72139D01*
Y72866D01*
X28161Y72966D01*
X29243D01*
X29343Y72866D01*
D02*
G37*
G36*
X26461D02*
Y72139D01*
X26361Y72039D01*
X26125D01*
X26025Y71939D01*
Y71184D01*
X26125Y71084D01*
X26361D01*
X26461Y70984D01*
Y70258D01*
X26361Y70158D01*
X25278D01*
X25178Y70258D01*
Y72866D01*
X25278Y72966D01*
X26361D01*
X26461Y72866D01*
D02*
G37*
G36*
X109362Y40623D02*
Y38015D01*
X109262Y37915D01*
X108180D01*
X108080Y38015D01*
Y38742D01*
X108180Y38842D01*
X108416D01*
X108516Y38942D01*
Y39697D01*
X108416Y39797D01*
X108180D01*
X108080Y39897D01*
Y40623D01*
X108180Y40723D01*
X109262D01*
X109362Y40623D01*
D02*
G37*
G36*
X106480D02*
Y39897D01*
X106380Y39797D01*
X106144D01*
X106044Y39697D01*
Y38942D01*
X106144Y38842D01*
X106380D01*
X106480Y38742D01*
Y38015D01*
X106380Y37915D01*
X105297D01*
X105197Y38015D01*
Y40623D01*
X105297Y40723D01*
X106380D01*
X106480Y40623D01*
D02*
G37*
G36*
X29362D02*
Y38015D01*
X29262Y37915D01*
X28180D01*
X28080Y38015D01*
Y38742D01*
X28180Y38842D01*
X28416D01*
X28516Y38942D01*
Y39697D01*
X28416Y39797D01*
X28180D01*
X28080Y39897D01*
Y40623D01*
X28180Y40723D01*
X29262D01*
X29362Y40623D01*
D02*
G37*
G36*
X26480D02*
Y39897D01*
X26380Y39797D01*
X26144D01*
X26044Y39697D01*
Y38942D01*
X26144Y38842D01*
X26380D01*
X26480Y38742D01*
Y38015D01*
X26380Y37915D01*
X25297D01*
X25197Y38015D01*
Y40623D01*
X25297Y40723D01*
X26380D01*
X26480Y40623D01*
D02*
G37*
G36*
X109343Y35670D02*
Y33062D01*
X109243Y32962D01*
X108161D01*
X108061Y33062D01*
Y33789D01*
X108161Y33889D01*
X108397D01*
X108497Y33989D01*
Y34744D01*
X108397Y34844D01*
X108161D01*
X108061Y34944D01*
Y35670D01*
X108161Y35770D01*
X109243D01*
X109343Y35670D01*
D02*
G37*
G36*
X106461D02*
Y34944D01*
X106361Y34844D01*
X106125D01*
X106025Y34744D01*
Y33989D01*
X106125Y33889D01*
X106361D01*
X106461Y33789D01*
Y33062D01*
X106361Y32962D01*
X105278D01*
X105178Y33062D01*
Y35670D01*
X105278Y35770D01*
X106361D01*
X106461Y35670D01*
D02*
G37*
G36*
X29343D02*
Y33062D01*
X29243Y32962D01*
X28161D01*
X28061Y33062D01*
Y33789D01*
X28161Y33889D01*
X28397D01*
X28497Y33989D01*
Y34744D01*
X28397Y34844D01*
X28161D01*
X28061Y34944D01*
Y35670D01*
X28161Y35770D01*
X29243D01*
X29343Y35670D01*
D02*
G37*
G36*
X26461D02*
Y34944D01*
X26361Y34844D01*
X26125D01*
X26025Y34744D01*
Y33989D01*
X26125Y33889D01*
X26361D01*
X26461Y33789D01*
Y33062D01*
X26361Y32962D01*
X25278D01*
X25178Y33062D01*
Y35670D01*
X25278Y35770D01*
X26361D01*
X26461Y35670D01*
D02*
G37*
G36*
X109343Y30768D02*
Y28160D01*
X109243Y28060D01*
X108161D01*
X108061Y28160D01*
Y28887D01*
X108161Y28987D01*
X108397D01*
X108497Y29087D01*
Y29841D01*
X108397Y29941D01*
X108161D01*
X108061Y30041D01*
Y30768D01*
X108161Y30868D01*
X109243D01*
X109343Y30768D01*
D02*
G37*
G36*
X106461D02*
Y30041D01*
X106361Y29941D01*
X106125D01*
X106025Y29841D01*
Y29087D01*
X106125Y28987D01*
X106361D01*
X106461Y28887D01*
Y28160D01*
X106361Y28060D01*
X105278D01*
X105178Y28160D01*
Y30768D01*
X105278Y30868D01*
X106361D01*
X106461Y30768D01*
D02*
G37*
G36*
X29343D02*
Y28160D01*
X29243Y28060D01*
X28161D01*
X28061Y28160D01*
Y28887D01*
X28161Y28987D01*
X28397D01*
X28497Y29087D01*
Y29841D01*
X28397Y29941D01*
X28161D01*
X28061Y30041D01*
Y30768D01*
X28161Y30868D01*
X29243D01*
X29343Y30768D01*
D02*
G37*
G36*
X26461D02*
Y30041D01*
X26361Y29941D01*
X26125D01*
X26025Y29841D01*
Y29087D01*
X26125Y28987D01*
X26361D01*
X26461Y28887D01*
Y28160D01*
X26361Y28060D01*
X25278D01*
X25178Y28160D01*
Y30768D01*
X25278Y30868D01*
X26361D01*
X26461Y30768D01*
D02*
G37*
G36*
X109343Y25866D02*
Y23258D01*
X109243Y23158D01*
X108161D01*
X108061Y23258D01*
Y23984D01*
X108161Y24084D01*
X108397D01*
X108497Y24184D01*
Y24939D01*
X108397Y25039D01*
X108161D01*
X108061Y25139D01*
Y25866D01*
X108161Y25966D01*
X109243D01*
X109343Y25866D01*
D02*
G37*
G36*
X106461D02*
Y25139D01*
X106361Y25039D01*
X106125D01*
X106025Y24939D01*
Y24184D01*
X106125Y24084D01*
X106361D01*
X106461Y23984D01*
Y23258D01*
X106361Y23158D01*
X105278D01*
X105178Y23258D01*
Y25866D01*
X105278Y25966D01*
X106361D01*
X106461Y25866D01*
D02*
G37*
G36*
X29343D02*
Y23258D01*
X29243Y23158D01*
X28161D01*
X28061Y23258D01*
Y23984D01*
X28161Y24084D01*
X28397D01*
X28497Y24184D01*
Y24939D01*
X28397Y25039D01*
X28161D01*
X28061Y25139D01*
Y25866D01*
X28161Y25966D01*
X29243D01*
X29343Y25866D01*
D02*
G37*
G36*
X26461D02*
Y25139D01*
X26361Y25039D01*
X26125D01*
X26025Y24939D01*
Y24184D01*
X26125Y24084D01*
X26361D01*
X26461Y23984D01*
Y23258D01*
X26361Y23158D01*
X25278D01*
X25178Y23258D01*
Y25866D01*
X25278Y25966D01*
X26361D01*
X26461Y25866D01*
D02*
G37*
D11*
X36043Y32106D02*
D03*
X35027Y34519D02*
D03*
X34011Y32106D02*
D03*
Y26467D02*
D03*
X35027Y28880D02*
D03*
X36043Y26467D02*
D03*
X34011Y37694D02*
D03*
X35027Y40107D02*
D03*
X36043Y37694D02*
D03*
X116043Y32106D02*
D03*
X115027Y34519D02*
D03*
X114011Y32106D02*
D03*
Y26467D02*
D03*
X115027Y28880D02*
D03*
X116043Y26467D02*
D03*
X114011Y37694D02*
D03*
X115027Y40107D02*
D03*
X116043Y37694D02*
D03*
X36043Y79106D02*
D03*
X35027Y81519D02*
D03*
X34011Y79106D02*
D03*
Y73467D02*
D03*
X35027Y75880D02*
D03*
X36043Y73467D02*
D03*
X34011Y84694D02*
D03*
X35027Y87107D02*
D03*
X36043Y84694D02*
D03*
X116043Y79106D02*
D03*
X115027Y81519D02*
D03*
X114011Y79106D02*
D03*
Y73467D02*
D03*
X115027Y75880D02*
D03*
X116043Y73467D02*
D03*
X114011Y84694D02*
D03*
X115027Y87107D02*
D03*
X116043Y84694D02*
D03*
X36043Y126106D02*
D03*
X35027Y128519D02*
D03*
X34011Y126106D02*
D03*
Y120467D02*
D03*
X35027Y122880D02*
D03*
X36043Y120467D02*
D03*
X34011Y131694D02*
D03*
X35027Y134107D02*
D03*
X36043Y131694D02*
D03*
X116043Y126106D02*
D03*
X115027Y128519D02*
D03*
X114011Y126106D02*
D03*
Y120467D02*
D03*
X115027Y122880D02*
D03*
X116043Y120467D02*
D03*
X114011Y131694D02*
D03*
X115027Y134107D02*
D03*
X116043Y131694D02*
D03*
X36043Y173106D02*
D03*
X35027Y175519D02*
D03*
X34011Y173106D02*
D03*
Y167467D02*
D03*
X35027Y169880D02*
D03*
X36043Y167467D02*
D03*
X34011Y178694D02*
D03*
X35027Y181107D02*
D03*
X36043Y178694D02*
D03*
X116043Y173106D02*
D03*
X115027Y175519D02*
D03*
X114011Y173106D02*
D03*
Y167467D02*
D03*
X115027Y169880D02*
D03*
X116043Y167467D02*
D03*
X114011Y178694D02*
D03*
X115027Y181107D02*
D03*
X116043Y178694D02*
D03*
X36043Y220106D02*
D03*
X35027Y222519D02*
D03*
X34011Y220106D02*
D03*
Y214467D02*
D03*
X35027Y216880D02*
D03*
X36043Y214467D02*
D03*
X34011Y225694D02*
D03*
X35027Y228107D02*
D03*
X36043Y225694D02*
D03*
X116043Y220106D02*
D03*
X115027Y222519D02*
D03*
X114011Y220106D02*
D03*
Y214467D02*
D03*
X115027Y216880D02*
D03*
X116043Y214467D02*
D03*
X114011Y225694D02*
D03*
X115027Y228107D02*
D03*
X116043Y225694D02*
D03*
D12*
X41885Y8560D02*
D03*
Y11862D02*
D03*
X121885Y8560D02*
D03*
Y11862D02*
D03*
X41885Y55560D02*
D03*
Y58862D02*
D03*
X121885Y55560D02*
D03*
Y58862D02*
D03*
X41885Y102560D02*
D03*
Y105862D02*
D03*
X121885Y102560D02*
D03*
Y105862D02*
D03*
X41885Y149560D02*
D03*
Y152862D02*
D03*
X121885Y149560D02*
D03*
Y152862D02*
D03*
X41885Y196560D02*
D03*
Y199862D02*
D03*
X121885Y196560D02*
D03*
Y199862D02*
D03*
D13*
X39180Y29210D02*
D03*
Y31953D02*
D03*
X16726Y34493D02*
D03*
X119180Y29210D02*
D03*
Y31953D02*
D03*
X96726Y34493D02*
D03*
X39180Y76210D02*
D03*
Y78953D02*
D03*
X16726Y81493D02*
D03*
X119180Y76210D02*
D03*
Y78953D02*
D03*
X96726Y81493D02*
D03*
X39180Y123210D02*
D03*
Y125953D02*
D03*
X16726Y128493D02*
D03*
X119180Y123210D02*
D03*
Y125953D02*
D03*
X96726Y128493D02*
D03*
X39180Y170210D02*
D03*
Y172953D02*
D03*
X16726Y175493D02*
D03*
X119180Y170210D02*
D03*
Y172953D02*
D03*
X96726Y175493D02*
D03*
X39180Y217210D02*
D03*
Y219953D02*
D03*
X16726Y222493D02*
D03*
X119180Y217210D02*
D03*
Y219953D02*
D03*
X96726Y222493D02*
D03*
D14*
X40780Y29210D02*
D03*
Y31953D02*
D03*
X15126Y34493D02*
D03*
X120780Y29210D02*
D03*
Y31953D02*
D03*
X95126Y34493D02*
D03*
X40780Y76210D02*
D03*
Y78953D02*
D03*
X15126Y81493D02*
D03*
X120780Y76210D02*
D03*
Y78953D02*
D03*
X95126Y81493D02*
D03*
X40780Y123210D02*
D03*
Y125953D02*
D03*
X15126Y128493D02*
D03*
X120780Y123210D02*
D03*
Y125953D02*
D03*
X95126Y128493D02*
D03*
X40780Y170210D02*
D03*
Y172953D02*
D03*
X15126Y175493D02*
D03*
X120780Y170210D02*
D03*
Y172953D02*
D03*
X95126Y175493D02*
D03*
X40780Y217210D02*
D03*
Y219953D02*
D03*
X15126Y222493D02*
D03*
X120780Y217210D02*
D03*
Y219953D02*
D03*
X95126Y222493D02*
D03*
D15*
X42212Y35535D02*
D03*
X38712D02*
D03*
X122212D02*
D03*
X118712D02*
D03*
X42212Y82535D02*
D03*
X38712D02*
D03*
X122212D02*
D03*
X118712D02*
D03*
X42212Y129535D02*
D03*
X38712D02*
D03*
X122212D02*
D03*
X118712D02*
D03*
X42212Y176535D02*
D03*
X38712D02*
D03*
X122212D02*
D03*
X118712D02*
D03*
X42212Y223535D02*
D03*
X38712D02*
D03*
X122212D02*
D03*
X118712D02*
D03*
D17*
X25761Y19934D02*
D03*
X23261D02*
D03*
Y12934D02*
D03*
X25761D02*
D03*
X105761Y19934D02*
D03*
X103261D02*
D03*
Y12934D02*
D03*
X105761D02*
D03*
X25761Y66934D02*
D03*
X23261D02*
D03*
Y59934D02*
D03*
X25761D02*
D03*
X105761Y66934D02*
D03*
X103261D02*
D03*
Y59934D02*
D03*
X105761D02*
D03*
X25761Y113934D02*
D03*
X23261D02*
D03*
Y106934D02*
D03*
X25761D02*
D03*
X105761Y113934D02*
D03*
X103261D02*
D03*
Y106934D02*
D03*
X105761D02*
D03*
X25761Y160934D02*
D03*
X23261D02*
D03*
Y153934D02*
D03*
X25761D02*
D03*
X105761Y160934D02*
D03*
X103261D02*
D03*
Y153934D02*
D03*
X105761D02*
D03*
X25761Y207934D02*
D03*
X23261D02*
D03*
Y200934D02*
D03*
X25761D02*
D03*
X105761Y207934D02*
D03*
X103261D02*
D03*
Y200934D02*
D03*
X105761D02*
D03*
D18*
X15215Y30332D02*
D03*
Y21332D02*
D03*
X95215Y30332D02*
D03*
Y21332D02*
D03*
X15215Y77332D02*
D03*
Y68332D02*
D03*
X95215Y77332D02*
D03*
Y68332D02*
D03*
X15215Y124332D02*
D03*
Y115332D02*
D03*
X95215Y124332D02*
D03*
Y115332D02*
D03*
X15215Y171332D02*
D03*
Y162332D02*
D03*
X95215Y171332D02*
D03*
Y162332D02*
D03*
X15215Y218332D02*
D03*
Y209332D02*
D03*
X95215Y218332D02*
D03*
Y209332D02*
D03*
D19*
X31877Y12710D02*
D03*
Y17110D02*
D03*
X37623Y12710D02*
D03*
Y17110D02*
D03*
X111877Y12710D02*
D03*
Y17110D02*
D03*
X117623Y12710D02*
D03*
Y17110D02*
D03*
X31877Y59710D02*
D03*
Y64110D02*
D03*
X37623Y59710D02*
D03*
Y64110D02*
D03*
X111877Y59710D02*
D03*
Y64110D02*
D03*
X117623Y59710D02*
D03*
Y64110D02*
D03*
X31877Y106710D02*
D03*
Y111110D02*
D03*
X37623Y106710D02*
D03*
Y111110D02*
D03*
X111877Y106710D02*
D03*
Y111110D02*
D03*
X117623Y106710D02*
D03*
Y111110D02*
D03*
X31877Y153710D02*
D03*
Y158110D02*
D03*
X37623Y153710D02*
D03*
Y158110D02*
D03*
X111877Y153710D02*
D03*
Y158110D02*
D03*
X117623Y153710D02*
D03*
Y158110D02*
D03*
X31877Y200710D02*
D03*
Y205110D02*
D03*
X37623Y200710D02*
D03*
Y205110D02*
D03*
X111877Y200710D02*
D03*
Y205110D02*
D03*
X117623Y200710D02*
D03*
Y205110D02*
D03*
M02*
