G04*
G04 #@! TF.GenerationSoftware,Altium Limited,Altium Designer,19.1.8 (144)*
G04*
G04 Layer_Color=255*
%FSLAX43Y43*%
%MOMM*%
G71*
G01*
G75*
%ADD10C,1.016*%
G04:AMPARAMS|DCode=11|XSize=1.016mm|YSize=1.016mm|CornerRadius=0.051mm|HoleSize=0mm|Usage=FLASHONLY|Rotation=0.000|XOffset=0mm|YOffset=0mm|HoleType=Round|Shape=RoundedRectangle|*
%AMROUNDEDRECTD11*
21,1,1.016,0.914,0,0,0.0*
21,1,0.914,1.016,0,0,0.0*
1,1,0.102,0.457,-0.457*
1,1,0.102,-0.457,-0.457*
1,1,0.102,-0.457,0.457*
1,1,0.102,0.457,0.457*
%
%ADD11ROUNDEDRECTD11*%
G04:AMPARAMS|DCode=12|XSize=1.778mm|YSize=1.651mm|CornerRadius=0.083mm|HoleSize=0mm|Usage=FLASHONLY|Rotation=90.000|XOffset=0mm|YOffset=0mm|HoleType=Round|Shape=RoundedRectangle|*
%AMROUNDEDRECTD12*
21,1,1.778,1.486,0,0,90.0*
21,1,1.613,1.651,0,0,90.0*
1,1,0.165,0.743,0.806*
1,1,0.165,0.743,-0.806*
1,1,0.165,-0.743,-0.806*
1,1,0.165,-0.743,0.806*
%
%ADD12ROUNDEDRECTD12*%
G04:AMPARAMS|DCode=13|XSize=0.9mm|YSize=0.75mm|CornerRadius=0.038mm|HoleSize=0mm|Usage=FLASHONLY|Rotation=270.000|XOffset=0mm|YOffset=0mm|HoleType=Round|Shape=RoundedRectangle|*
%AMROUNDEDRECTD13*
21,1,0.900,0.675,0,0,270.0*
21,1,0.825,0.750,0,0,270.0*
1,1,0.075,-0.338,-0.413*
1,1,0.075,-0.338,0.413*
1,1,0.075,0.338,0.413*
1,1,0.075,0.338,-0.413*
%
%ADD13ROUNDEDRECTD13*%
G04:AMPARAMS|DCode=14|XSize=0.9mm|YSize=0.79mm|CornerRadius=0.04mm|HoleSize=0mm|Usage=FLASHONLY|Rotation=270.000|XOffset=0mm|YOffset=0mm|HoleType=Round|Shape=RoundedRectangle|*
%AMROUNDEDRECTD14*
21,1,0.900,0.711,0,0,270.0*
21,1,0.821,0.790,0,0,270.0*
1,1,0.079,-0.356,-0.410*
1,1,0.079,-0.356,0.410*
1,1,0.079,0.356,0.410*
1,1,0.079,0.356,-0.410*
%
%ADD14ROUNDEDRECTD14*%
G04:AMPARAMS|DCode=15|XSize=1.4mm|YSize=1.22mm|CornerRadius=0.061mm|HoleSize=0mm|Usage=FLASHONLY|Rotation=0.000|XOffset=0mm|YOffset=0mm|HoleType=Round|Shape=RoundedRectangle|*
%AMROUNDEDRECTD15*
21,1,1.400,1.098,0,0,0.0*
21,1,1.278,1.220,0,0,0.0*
1,1,0.122,0.639,-0.549*
1,1,0.122,-0.639,-0.549*
1,1,0.122,-0.639,0.549*
1,1,0.122,0.639,0.549*
%
%ADD15ROUNDEDRECTD15*%
G04:AMPARAMS|DCode=16|XSize=1.283mm|YSize=2.808mm|CornerRadius=0.064mm|HoleSize=0mm|Usage=FLASHONLY|Rotation=0.000|XOffset=0mm|YOffset=0mm|HoleType=Round|Shape=RoundedRectangle|*
%AMROUNDEDRECTD16*
21,1,1.283,2.680,0,0,0.0*
21,1,1.154,2.808,0,0,0.0*
1,1,0.128,0.577,-1.340*
1,1,0.128,-0.577,-1.340*
1,1,0.128,-0.577,1.340*
1,1,0.128,0.577,1.340*
%
%ADD16ROUNDEDRECTD16*%
G04:AMPARAMS|DCode=17|XSize=1mm|YSize=2mm|CornerRadius=0.05mm|HoleSize=0mm|Usage=FLASHONLY|Rotation=0.000|XOffset=0mm|YOffset=0mm|HoleType=Round|Shape=RoundedRectangle|*
%AMROUNDEDRECTD17*
21,1,1.000,1.900,0,0,0.0*
21,1,0.900,2.000,0,0,0.0*
1,1,0.100,0.450,-0.950*
1,1,0.100,-0.450,-0.950*
1,1,0.100,-0.450,0.950*
1,1,0.100,0.450,0.950*
%
%ADD17ROUNDEDRECTD17*%
G04:AMPARAMS|DCode=18|XSize=4.5mm|YSize=1.65mm|CornerRadius=0.083mm|HoleSize=0mm|Usage=FLASHONLY|Rotation=270.000|XOffset=0mm|YOffset=0mm|HoleType=Round|Shape=RoundedRectangle|*
%AMROUNDEDRECTD18*
21,1,4.500,1.485,0,0,270.0*
21,1,4.335,1.650,0,0,270.0*
1,1,0.165,-0.743,-2.168*
1,1,0.165,-0.743,2.168*
1,1,0.165,0.743,2.168*
1,1,0.165,0.743,-2.168*
%
%ADD18ROUNDEDRECTD18*%
G04:AMPARAMS|DCode=19|XSize=2.2mm|YSize=2.15mm|CornerRadius=0.108mm|HoleSize=0mm|Usage=FLASHONLY|Rotation=270.000|XOffset=0mm|YOffset=0mm|HoleType=Round|Shape=RoundedRectangle|*
%AMROUNDEDRECTD19*
21,1,2.200,1.935,0,0,270.0*
21,1,1.985,2.150,0,0,270.0*
1,1,0.215,-0.968,-0.992*
1,1,0.215,-0.968,0.992*
1,1,0.215,0.968,0.992*
1,1,0.215,0.968,-0.992*
%
%ADD19ROUNDEDRECTD19*%
%ADD23C,2.200*%
%ADD24C,2.800*%
%ADD25C,1.800*%
D10*
X67056Y42672D02*
D03*
X147056D02*
D03*
X67056Y89672D02*
D03*
X147056D02*
D03*
X67056Y136672D02*
D03*
X147056D02*
D03*
X67056Y183672D02*
D03*
X147056D02*
D03*
X67056Y230672D02*
D03*
X147056D02*
D03*
D11*
X36043Y32106D02*
D03*
X35027Y34519D02*
D03*
X34011Y32106D02*
D03*
Y26467D02*
D03*
X35027Y28880D02*
D03*
X36043Y26467D02*
D03*
X34011Y37694D02*
D03*
X35027Y40107D02*
D03*
X36043Y37694D02*
D03*
X116043Y32106D02*
D03*
X115027Y34519D02*
D03*
X114011Y32106D02*
D03*
Y26467D02*
D03*
X115027Y28880D02*
D03*
X116043Y26467D02*
D03*
X114011Y37694D02*
D03*
X115027Y40107D02*
D03*
X116043Y37694D02*
D03*
X36043Y79106D02*
D03*
X35027Y81519D02*
D03*
X34011Y79106D02*
D03*
Y73467D02*
D03*
X35027Y75880D02*
D03*
X36043Y73467D02*
D03*
X34011Y84694D02*
D03*
X35027Y87107D02*
D03*
X36043Y84694D02*
D03*
X116043Y79106D02*
D03*
X115027Y81519D02*
D03*
X114011Y79106D02*
D03*
Y73467D02*
D03*
X115027Y75880D02*
D03*
X116043Y73467D02*
D03*
X114011Y84694D02*
D03*
X115027Y87107D02*
D03*
X116043Y84694D02*
D03*
X36043Y126106D02*
D03*
X35027Y128519D02*
D03*
X34011Y126106D02*
D03*
Y120467D02*
D03*
X35027Y122880D02*
D03*
X36043Y120467D02*
D03*
X34011Y131694D02*
D03*
X35027Y134107D02*
D03*
X36043Y131694D02*
D03*
X116043Y126106D02*
D03*
X115027Y128519D02*
D03*
X114011Y126106D02*
D03*
Y120467D02*
D03*
X115027Y122880D02*
D03*
X116043Y120467D02*
D03*
X114011Y131694D02*
D03*
X115027Y134107D02*
D03*
X116043Y131694D02*
D03*
X36043Y173106D02*
D03*
X35027Y175519D02*
D03*
X34011Y173106D02*
D03*
Y167467D02*
D03*
X35027Y169880D02*
D03*
X36043Y167467D02*
D03*
X34011Y178694D02*
D03*
X35027Y181107D02*
D03*
X36043Y178694D02*
D03*
X116043Y173106D02*
D03*
X115027Y175519D02*
D03*
X114011Y173106D02*
D03*
Y167467D02*
D03*
X115027Y169880D02*
D03*
X116043Y167467D02*
D03*
X114011Y178694D02*
D03*
X115027Y181107D02*
D03*
X116043Y178694D02*
D03*
X36043Y220106D02*
D03*
X35027Y222519D02*
D03*
X34011Y220106D02*
D03*
Y214467D02*
D03*
X35027Y216880D02*
D03*
X36043Y214467D02*
D03*
X34011Y225694D02*
D03*
X35027Y228107D02*
D03*
X36043Y225694D02*
D03*
X116043Y220106D02*
D03*
X115027Y222519D02*
D03*
X114011Y220106D02*
D03*
Y214467D02*
D03*
X115027Y216880D02*
D03*
X116043Y214467D02*
D03*
X114011Y225694D02*
D03*
X115027Y228107D02*
D03*
X116043Y225694D02*
D03*
D12*
X41885Y8560D02*
D03*
Y11862D02*
D03*
X121885Y8560D02*
D03*
Y11862D02*
D03*
X41885Y55560D02*
D03*
Y58862D02*
D03*
X121885Y55560D02*
D03*
Y58862D02*
D03*
X41885Y102560D02*
D03*
Y105862D02*
D03*
X121885Y102560D02*
D03*
Y105862D02*
D03*
X41885Y149560D02*
D03*
Y152862D02*
D03*
X121885Y149560D02*
D03*
Y152862D02*
D03*
X41885Y196560D02*
D03*
Y199862D02*
D03*
X121885Y196560D02*
D03*
Y199862D02*
D03*
D13*
X39180Y29210D02*
D03*
Y31953D02*
D03*
X16726Y34493D02*
D03*
X119180Y29210D02*
D03*
Y31953D02*
D03*
X96726Y34493D02*
D03*
X39180Y76210D02*
D03*
Y78953D02*
D03*
X16726Y81493D02*
D03*
X119180Y76210D02*
D03*
Y78953D02*
D03*
X96726Y81493D02*
D03*
X39180Y123210D02*
D03*
Y125953D02*
D03*
X16726Y128493D02*
D03*
X119180Y123210D02*
D03*
Y125953D02*
D03*
X96726Y128493D02*
D03*
X39180Y170210D02*
D03*
Y172953D02*
D03*
X16726Y175493D02*
D03*
X119180Y170210D02*
D03*
Y172953D02*
D03*
X96726Y175493D02*
D03*
X39180Y217210D02*
D03*
Y219953D02*
D03*
X16726Y222493D02*
D03*
X119180Y217210D02*
D03*
Y219953D02*
D03*
X96726Y222493D02*
D03*
D14*
X40780Y29210D02*
D03*
Y31953D02*
D03*
X15126Y34493D02*
D03*
X120780Y29210D02*
D03*
Y31953D02*
D03*
X95126Y34493D02*
D03*
X40780Y76210D02*
D03*
Y78953D02*
D03*
X15126Y81493D02*
D03*
X120780Y76210D02*
D03*
Y78953D02*
D03*
X95126Y81493D02*
D03*
X40780Y123210D02*
D03*
Y125953D02*
D03*
X15126Y128493D02*
D03*
X120780Y123210D02*
D03*
Y125953D02*
D03*
X95126Y128493D02*
D03*
X40780Y170210D02*
D03*
Y172953D02*
D03*
X15126Y175493D02*
D03*
X120780Y170210D02*
D03*
Y172953D02*
D03*
X95126Y175493D02*
D03*
X40780Y217210D02*
D03*
Y219953D02*
D03*
X15126Y222493D02*
D03*
X120780Y217210D02*
D03*
Y219953D02*
D03*
X95126Y222493D02*
D03*
D15*
X42212Y35535D02*
D03*
X38712D02*
D03*
X122212D02*
D03*
X118712D02*
D03*
X42212Y82535D02*
D03*
X38712D02*
D03*
X122212D02*
D03*
X118712D02*
D03*
X42212Y129535D02*
D03*
X38712D02*
D03*
X122212D02*
D03*
X118712D02*
D03*
X42212Y176535D02*
D03*
X38712D02*
D03*
X122212D02*
D03*
X118712D02*
D03*
X42212Y223535D02*
D03*
X38712D02*
D03*
X122212D02*
D03*
X118712D02*
D03*
D16*
X25838Y39319D02*
D03*
X28721D02*
D03*
X28702Y34366D02*
D03*
X25819D02*
D03*
X28702Y29464D02*
D03*
X25819D02*
D03*
Y24562D02*
D03*
X28702D02*
D03*
X105838Y39319D02*
D03*
X108721D02*
D03*
X108702Y34366D02*
D03*
X105819D02*
D03*
X108702Y29464D02*
D03*
X105819D02*
D03*
Y24562D02*
D03*
X108702D02*
D03*
X25838Y86319D02*
D03*
X28721D02*
D03*
X28702Y81366D02*
D03*
X25819D02*
D03*
X28702Y76464D02*
D03*
X25819D02*
D03*
Y71562D02*
D03*
X28702D02*
D03*
X105838Y86319D02*
D03*
X108721D02*
D03*
X108702Y81366D02*
D03*
X105819D02*
D03*
X108702Y76464D02*
D03*
X105819D02*
D03*
Y71562D02*
D03*
X108702D02*
D03*
X25838Y133319D02*
D03*
X28721D02*
D03*
X28702Y128366D02*
D03*
X25819D02*
D03*
X28702Y123464D02*
D03*
X25819D02*
D03*
Y118562D02*
D03*
X28702D02*
D03*
X105838Y133319D02*
D03*
X108721D02*
D03*
X108702Y128366D02*
D03*
X105819D02*
D03*
X108702Y123464D02*
D03*
X105819D02*
D03*
Y118562D02*
D03*
X108702D02*
D03*
X25838Y180319D02*
D03*
X28721D02*
D03*
X28702Y175366D02*
D03*
X25819D02*
D03*
X28702Y170464D02*
D03*
X25819D02*
D03*
Y165562D02*
D03*
X28702D02*
D03*
X105838Y180319D02*
D03*
X108721D02*
D03*
X108702Y175366D02*
D03*
X105819D02*
D03*
X108702Y170464D02*
D03*
X105819D02*
D03*
Y165562D02*
D03*
X108702D02*
D03*
X25838Y227319D02*
D03*
X28721D02*
D03*
X28702Y222366D02*
D03*
X25819D02*
D03*
X28702Y217464D02*
D03*
X25819D02*
D03*
Y212562D02*
D03*
X28702D02*
D03*
X105838Y227319D02*
D03*
X108721D02*
D03*
X108702Y222366D02*
D03*
X105819D02*
D03*
X108702Y217464D02*
D03*
X105819D02*
D03*
Y212562D02*
D03*
X108702D02*
D03*
D17*
X25761Y19934D02*
D03*
X23261D02*
D03*
Y12934D02*
D03*
X25761D02*
D03*
X105761Y19934D02*
D03*
X103261D02*
D03*
Y12934D02*
D03*
X105761D02*
D03*
X25761Y66934D02*
D03*
X23261D02*
D03*
Y59934D02*
D03*
X25761D02*
D03*
X105761Y66934D02*
D03*
X103261D02*
D03*
Y59934D02*
D03*
X105761D02*
D03*
X25761Y113934D02*
D03*
X23261D02*
D03*
Y106934D02*
D03*
X25761D02*
D03*
X105761Y113934D02*
D03*
X103261D02*
D03*
Y106934D02*
D03*
X105761D02*
D03*
X25761Y160934D02*
D03*
X23261D02*
D03*
Y153934D02*
D03*
X25761D02*
D03*
X105761Y160934D02*
D03*
X103261D02*
D03*
Y153934D02*
D03*
X105761D02*
D03*
X25761Y207934D02*
D03*
X23261D02*
D03*
Y200934D02*
D03*
X25761D02*
D03*
X105761Y207934D02*
D03*
X103261D02*
D03*
Y200934D02*
D03*
X105761D02*
D03*
D18*
X15215Y30332D02*
D03*
Y21332D02*
D03*
X95215Y30332D02*
D03*
Y21332D02*
D03*
X15215Y77332D02*
D03*
Y68332D02*
D03*
X95215Y77332D02*
D03*
Y68332D02*
D03*
X15215Y124332D02*
D03*
Y115332D02*
D03*
X95215Y124332D02*
D03*
Y115332D02*
D03*
X15215Y171332D02*
D03*
Y162332D02*
D03*
X95215Y171332D02*
D03*
Y162332D02*
D03*
X15215Y218332D02*
D03*
Y209332D02*
D03*
X95215Y218332D02*
D03*
Y209332D02*
D03*
D19*
X31877Y12710D02*
D03*
Y17110D02*
D03*
X37623Y12710D02*
D03*
Y17110D02*
D03*
X111877Y12710D02*
D03*
Y17110D02*
D03*
X117623Y12710D02*
D03*
Y17110D02*
D03*
X31877Y59710D02*
D03*
Y64110D02*
D03*
X37623Y59710D02*
D03*
Y64110D02*
D03*
X111877Y59710D02*
D03*
Y64110D02*
D03*
X117623Y59710D02*
D03*
Y64110D02*
D03*
X31877Y106710D02*
D03*
Y111110D02*
D03*
X37623Y106710D02*
D03*
Y111110D02*
D03*
X111877Y106710D02*
D03*
Y111110D02*
D03*
X117623Y106710D02*
D03*
Y111110D02*
D03*
X31877Y153710D02*
D03*
Y158110D02*
D03*
X37623Y153710D02*
D03*
Y158110D02*
D03*
X111877Y153710D02*
D03*
Y158110D02*
D03*
X117623Y153710D02*
D03*
Y158110D02*
D03*
X31877Y200710D02*
D03*
Y205110D02*
D03*
X37623Y200710D02*
D03*
Y205110D02*
D03*
X111877Y200710D02*
D03*
Y205110D02*
D03*
X117623Y200710D02*
D03*
Y205110D02*
D03*
D23*
X54610Y15240D02*
D03*
X49530D02*
D03*
X44450D02*
D03*
X3810Y10160D02*
D03*
Y15240D02*
D03*
Y20320D02*
D03*
X134610Y15240D02*
D03*
X129530D02*
D03*
X124450D02*
D03*
X83810Y10160D02*
D03*
Y15240D02*
D03*
Y20320D02*
D03*
X54610Y62240D02*
D03*
X49530D02*
D03*
X44450D02*
D03*
X3810Y57160D02*
D03*
Y62240D02*
D03*
Y67320D02*
D03*
X134610Y62240D02*
D03*
X129530D02*
D03*
X124450D02*
D03*
X83810Y57160D02*
D03*
Y62240D02*
D03*
Y67320D02*
D03*
X54610Y109240D02*
D03*
X49530D02*
D03*
X44450D02*
D03*
X3810Y104160D02*
D03*
Y109240D02*
D03*
Y114320D02*
D03*
X134610Y109240D02*
D03*
X129530D02*
D03*
X124450D02*
D03*
X83810Y104160D02*
D03*
Y109240D02*
D03*
Y114320D02*
D03*
X54610Y156240D02*
D03*
X49530D02*
D03*
X44450D02*
D03*
X3810Y151160D02*
D03*
Y156240D02*
D03*
Y161320D02*
D03*
X134610Y156240D02*
D03*
X129530D02*
D03*
X124450D02*
D03*
X83810Y151160D02*
D03*
Y156240D02*
D03*
Y161320D02*
D03*
X54610Y203240D02*
D03*
X49530D02*
D03*
X44450D02*
D03*
X3810Y198160D02*
D03*
Y203240D02*
D03*
Y208320D02*
D03*
X134610Y203240D02*
D03*
X129530D02*
D03*
X124450D02*
D03*
X83810Y198160D02*
D03*
Y203240D02*
D03*
Y208320D02*
D03*
D24*
X31920Y4830D02*
D03*
X21920D02*
D03*
X26920D02*
D03*
X59700D02*
D03*
X49700D02*
D03*
X54700D02*
D03*
X111920D02*
D03*
X101920D02*
D03*
X106920D02*
D03*
X139700D02*
D03*
X129700D02*
D03*
X134700D02*
D03*
X31920Y51830D02*
D03*
X21920D02*
D03*
X26920D02*
D03*
X59700D02*
D03*
X49700D02*
D03*
X54700D02*
D03*
X111920D02*
D03*
X101920D02*
D03*
X106920D02*
D03*
X139700D02*
D03*
X129700D02*
D03*
X134700D02*
D03*
X31920Y98830D02*
D03*
X21920D02*
D03*
X26920D02*
D03*
X59700D02*
D03*
X49700D02*
D03*
X54700D02*
D03*
X111920D02*
D03*
X101920D02*
D03*
X106920D02*
D03*
X139700D02*
D03*
X129700D02*
D03*
X134700D02*
D03*
X31920Y145830D02*
D03*
X21920D02*
D03*
X26920D02*
D03*
X59700D02*
D03*
X49700D02*
D03*
X54700D02*
D03*
X111920D02*
D03*
X101920D02*
D03*
X106920D02*
D03*
X139700D02*
D03*
X129700D02*
D03*
X134700D02*
D03*
X31920Y192830D02*
D03*
X21920D02*
D03*
X26920D02*
D03*
X59700D02*
D03*
X49700D02*
D03*
X54700D02*
D03*
X111920D02*
D03*
X101920D02*
D03*
X106920D02*
D03*
X139700D02*
D03*
X129700D02*
D03*
X134700D02*
D03*
D25*
X39540Y5080D02*
D03*
X42080D02*
D03*
X119540D02*
D03*
X122080D02*
D03*
X39540Y52080D02*
D03*
X42080D02*
D03*
X119540D02*
D03*
X122080D02*
D03*
X39540Y99080D02*
D03*
X42080D02*
D03*
X119540D02*
D03*
X122080D02*
D03*
X39540Y146080D02*
D03*
X42080D02*
D03*
X119540D02*
D03*
X122080D02*
D03*
X39540Y193080D02*
D03*
X42080D02*
D03*
X119540D02*
D03*
X122080D02*
D03*
M02*
