M48
;Layer_Color=9474304
;FILE_FORMAT=4:3
METRIC,LZ
;TYPE=PLATED
T1F00S00C0.457
T2F00S00C1.100
T3F00S00C1.168
T4F00S00C1.400
%
T01
X0146294Y000254
X0149088Y0006858
X0156708Y0003302
X009397Y0003048
X009524Y0005588
X0088636Y0004826
X0089144Y0001778
X008635Y000635
X0076708Y0003302
X0066294Y000254
X0069088Y0006858
X001524Y0005588
X001397Y0003048
X0009144Y0001778
X0008636Y0004826
X000635Y000635
X0008382Y0011176
X0012192Y0009652
X0018542Y001016
X0016002Y0013208
X0016764Y0018034
X002032Y0019812
X0018542Y00254
X0023774Y0024562
X002413Y0026924
X0023825Y0029667
X0023851Y0032207
X0031318Y0034265
X0031496Y0027178
X0032004Y0023114
X0036576Y0024638
X00381Y002286
X0038227Y0033807
X0036068Y0043942
X0018034Y0037592
X0015189Y0036398
X0008636Y0038532
X0007366Y0035306
X0003556Y0036322
X0004826Y0039878
X000635Y0043688
X000508Y0032512
X0004826Y0027686
X0009652Y002794
X0013208Y0026162
X0013716Y0022352
X0009144Y0021844
X0046228Y002159
X0046736Y0025654
X0042672Y0025908
X0047244Y003048
X0050038Y0033782
X0050546Y0037592
X0044958Y0035052
X0047752Y0043434
X0058928Y0042926
X0059436Y0037338
X0065024Y0039116
X0069342Y0037084
X0073152Y0036068
X007747Y0035052
X0075692Y0028194
X007112Y00254
X0070358Y0031496
X006604Y0029718
X0062484Y0031242
X0055626Y0033528
X0055372Y0028956
X0051816Y002667
X0054356Y0022352
X006096Y0023622
X0067056Y002032
X0065786Y0014732
X0067056Y0009906
X0072898Y0008382
X0076708Y001016
X0075692Y0016002
X0060452Y0013462
X0072136Y0042164
X0084826Y0039878
X0083556Y0036322
X0087366Y0035306
X0088636Y0038532
X008635Y0043688
X008508Y0032512
X0084826Y0027686
X0089652Y002794
X0093208Y0026162
X0093716Y0022352
X0089144Y0021844
X0096764Y0018034
X010032Y0019812
X0098542Y00254
X0103774Y0024562
X010413Y0026924
X0103825Y0029667
X0103851Y0032207
X0111318Y0034265
X0111496Y0027178
X0112004Y0023114
X0116576Y0024638
X0116068Y0043942
X0098034Y0037592
X0095189Y0036398
X0096002Y0013208
X0098542Y001016
X0092192Y0009652
X0088382Y0011176
X01181Y002286
X0122672Y0025908
X0126736Y0025654
X0126228Y002159
X0134356Y0022352
X0131816Y002667
X0135372Y0028956
X0135626Y0033528
X0130038Y0033782
X0130546Y0037592
X0124958Y0035052
X0127244Y003048
X0118227Y0033807
X0127752Y0043434
X0138928Y0042926
X0139436Y0037338
X0145024Y0039116
X0149342Y0037084
X0153152Y0036068
X015747Y0035052
X0155692Y0028194
X015112Y00254
X0150358Y0031496
X014604Y0029718
X0142484Y0031242
X014096Y0023622
X0147056Y002032
X0145786Y0014732
X0147056Y0009906
X0152898Y0008382
X0156708Y001016
X0155692Y0016002
X0140452Y0013462
X0152136Y0042164
X0156708Y0050302
Y005716
X0152898Y0055382
X0149088Y0053858
X0147056Y0056906
X0145786Y0061732
X0140452Y0060462
X014096Y0070622
X0134356Y0069352
X0131816Y007367
X0135372Y0075956
X0135626Y0080528
X0130038Y0080782
X0130546Y0084592
X0124958Y0082052
X0127244Y007748
X0126736Y0072654
X0122672Y0072908
X01181Y006986
X0126228Y006859
X0118227Y0080807
X0139436Y0084338
X0145024Y0086116
X0149342Y0084084
X0153152Y0083068
X015747Y0082052
X0155692Y0075194
X015112Y00724
X0150358Y0078496
X014604Y0076718
X0142484Y0078242
X0147056Y006732
X0155692Y0063002
X0146294Y004954
X0116576Y0071638
X0112004Y0070114
X0111496Y0074178
X0111318Y0081265
X0103851Y0079207
X0103825Y0076667
X010413Y0073924
X0103774Y0071562
X0098542Y00724
X0093208Y0073162
X0093716Y0069352
X0089144Y0068844
X0089652Y007494
X0084826Y0074686
X008508Y0079512
X0087366Y0082306
X0088636Y0085532
X0083556Y0083322
X0095189Y0083398
X0098034Y0084592
X010032Y0066812
X0096764Y0065034
X0096002Y0060208
X0098542Y005716
X0092192Y0056652
X0088382Y0058176
X0088636Y0051826
X0089144Y0048778
X009397Y0050048
X009524Y0052588
X008635Y005335
X0076708Y0050302
Y005716
X0072898Y0055382
X0069088Y0053858
X0067056Y0056906
X0065786Y0061732
X0060452Y0060462
X006096Y0070622
X0054356Y0069352
X0051816Y007367
X0055372Y0075956
X0055626Y0080528
X0050038Y0080782
X0050546Y0084592
X0044958Y0082052
X0047244Y007748
X0046736Y0072654
X0042672Y0072908
X0046228Y006859
X0067056Y006732
X007112Y00724
X0070358Y0078496
X006604Y0076718
X0062484Y0078242
X0059436Y0084338
X0065024Y0086116
X0069342Y0084084
X0073152Y0083068
X007747Y0082052
X0075692Y0075194
Y0063002
X0066294Y004954
X00381Y006986
X0036576Y0071638
X0032004Y0070114
X0031496Y0074178
X0031318Y0081265
X0038227Y0080807
X0023851Y0079207
X0023825Y0076667
X002413Y0073924
X0023774Y0071562
X0018542Y00724
X0013208Y0073162
X0013716Y0069352
X0009144Y0068844
X0009652Y007494
X0004826Y0074686
X000508Y0079512
X0007366Y0082306
X0008636Y0085532
X0003556Y0083322
X0015189Y0083398
X0018034Y0084592
X002032Y0066812
X0016764Y0065034
X0016002Y0060208
X0018542Y005716
X0012192Y0056652
X0008382Y0058176
X0008636Y0051826
X0009144Y0048778
X001397Y0050048
X001524Y0052588
X000635Y005335
X0004826Y0086878
X000635Y0090688
X0009144Y0095778
X0008636Y0098826
X000635Y010035
X0008382Y0105176
X0012192Y0103652
X0018542Y010416
X0016002Y0107208
X0016764Y0112034
X002032Y0113812
X0018542Y01194
X0023774Y0118562
X002413Y0120924
X0023825Y0123667
X0031496Y0121178
X0032004Y0117114
X0036576Y0118638
X00381Y011686
X0013716Y0116352
X0013208Y0120162
X0009652Y012194
X0004826Y0121686
X0009144Y0115844
X001524Y0099588
X001397Y0097048
X0036068Y0090942
X0047752Y0090434
X0058928Y0089926
X0072136Y0089164
X0076708Y0097302
Y010416
X0072898Y0102382
X0069088Y0100858
X0067056Y0103906
X0065786Y0108732
X0060452Y0107462
X006096Y0117622
X0054356Y0116352
X0051816Y012067
X0055372Y0122956
X0062484Y0125242
X006604Y0123718
X0070358Y0125496
X007112Y01194
X0075692Y0122194
Y0110002
X0067056Y011432
X0066294Y009654
X0046228Y011559
X0046736Y0119654
X0042672Y0119908
X0047244Y012448
X0084826Y0121686
X0089652Y012194
X0093208Y0120162
X0093716Y0116352
X0089144Y0115844
X0096764Y0112034
X010032Y0113812
X0098542Y01194
X0103774Y0118562
X010413Y0120924
X0103825Y0123667
X0111496Y0121178
X0112004Y0117114
X0116576Y0118638
X0116068Y0090942
X009397Y0097048
X009524Y0099588
X0092192Y0103652
X0088382Y0105176
X0088636Y0098826
X0089144Y0095778
X008635Y010035
Y0090688
X0084826Y0086878
X0098542Y010416
X0096002Y0107208
X01181Y011686
X0122672Y0119908
X0126736Y0119654
X0126228Y011559
X0134356Y0116352
X0131816Y012067
X0135372Y0122956
X0142484Y0125242
X014604Y0123718
X0150358Y0125496
X015112Y01194
X0155692Y0122194
Y0110002
X0156708Y010416
X0152898Y0102382
X0149088Y0100858
X0147056Y0103906
X0145786Y0108732
X0140452Y0107462
X014096Y0117622
X0147056Y011432
X0146294Y009654
X0156708Y0097302
X0152136Y0089164
X0138928Y0089926
X0127752Y0090434
X0127244Y012448
X0130038Y0127782
X0130546Y0131592
X0124958Y0129052
X0118227Y0127807
X0135626Y0127528
X0139436Y0131338
X0138928Y0136926
X0145024Y0133116
X0149342Y0131084
X0153152Y0130068
X015747Y0129052
X0152136Y0136164
X0156708Y0144302
Y015116
X0152898Y0149382
X0149088Y0147858
X0147056Y0150906
X0145786Y0155732
X0140452Y0154462
X014096Y0164622
X0134356Y0163352
X0126228Y016259
X01181Y016386
X0147056Y016132
X0155692Y0157002
X0146294Y014354
X0127752Y0137434
X0116068Y0137942
X0111318Y0128265
X0103851Y0126207
X0098034Y0131592
X0095189Y0130398
X0088636Y0132532
X0087366Y0129306
X0083556Y0130322
X0084826Y0133878
X008635Y0137688
X0089144Y0142778
X0088636Y0145826
X008635Y014735
X0088382Y0152176
X0092192Y0150652
X0098542Y015116
X0096002Y0154208
X0096764Y0159034
X010032Y0160812
X0103774Y0165562
X0112004Y0164114
X0116576Y0165638
X0093716Y0163352
X0089144Y0162844
X009524Y0146588
X009397Y0144048
X008508Y0126512
X007747Y0129052
X0073152Y0130068
X0069342Y0131084
X0065024Y0133116
X0059436Y0131338
X0058928Y0136926
X0047752Y0137434
X0050546Y0131592
X0050038Y0127782
X0055626Y0127528
X0044958Y0129052
X0072136Y0136164
X0076708Y0144302
Y015116
X0072898Y0149382
X0069088Y0147858
X0067056Y0150906
X0065786Y0155732
X0060452Y0154462
X006096Y0164622
X0054356Y0163352
X0046228Y016259
X0067056Y016132
X0075692Y0157002
X0066294Y014354
X0036068Y0137942
X0038227Y0127807
X0031318Y0128265
X0023851Y0126207
X0018034Y0131592
X0015189Y0130398
X0008636Y0132532
X0007366Y0129306
X0003556Y0130322
X0004826Y0133878
X000635Y0137688
X0009144Y0142778
X0008636Y0145826
X000635Y014735
X0008382Y0152176
X0012192Y0150652
X0018542Y015116
X0016002Y0154208
X0016764Y0159034
X002032Y0160812
X0023774Y0165562
X0032004Y0164114
X0036576Y0165638
X00381Y016386
X0013716Y0163352
X0009144Y0162844
X001524Y0146588
X001397Y0144048
X000508Y0126512
X0004826Y0168686
X000508Y0173512
X0007366Y0176306
X0008636Y0179532
X0004826Y0180878
X0003556Y0177322
X000635Y0184688
X0009144Y0189778
X0008636Y0192826
X000635Y019435
X0008382Y0199176
X0012192Y0197652
X0018542Y019816
X0016002Y0201208
X001524Y0193588
X001397Y0191048
X0015189Y0177398
X0018034Y0178592
X0023851Y0173207
X0023825Y0170667
X002413Y0167924
X0018542Y01664
X0013208Y0167162
X0009652Y016894
X0031496Y0168178
X0031318Y0175265
X0038227Y0174807
X0036068Y0184942
X0047752Y0184434
X0050546Y0178592
X0050038Y0174782
X0055626Y0174528
X0055372Y0169956
X0051816Y016767
X0046736Y0166654
X0042672Y0166908
X0047244Y017148
X0044958Y0176052
X0059436Y0178338
X0058928Y0183926
X0065024Y0180116
X0069342Y0178084
X0073152Y0177068
X007747Y0176052
X0075692Y0169194
X007112Y01664
X0070358Y0172496
X006604Y0170718
X0062484Y0172242
X0072136Y0183164
X0076708Y0191302
Y019816
X0072898Y0196382
X0069088Y0194858
X0067056Y0197906
X0065786Y0202732
X0060452Y0201462
X0066294Y019054
X0075692Y0204002
X0088382Y0199176
X0092192Y0197652
X0098542Y019816
X0096002Y0201208
X009524Y0193588
X009397Y0191048
X0089144Y0189778
X0088636Y0192826
X008635Y019435
Y0184688
X0084826Y0180878
X0083556Y0177322
X0087366Y0176306
X0088636Y0179532
X0095189Y0177398
X0098034Y0178592
X0103851Y0173207
X0103825Y0170667
X010413Y0167924
X0098542Y01664
X0093208Y0167162
X0089652Y016894
X0084826Y0168686
X008508Y0173512
X0111318Y0175265
X0111496Y0168178
X0116068Y0184942
X0127752Y0184434
X0130546Y0178592
X0130038Y0174782
X0135626Y0174528
X0135372Y0169956
X0131816Y016767
X0126736Y0166654
X0122672Y0166908
X0127244Y017148
X0124958Y0176052
X0118227Y0174807
X0139436Y0178338
X0138928Y0183926
X0145024Y0180116
X0149342Y0178084
X0153152Y0177068
X015747Y0176052
X0155692Y0169194
X015112Y01664
X0150358Y0172496
X014604Y0170718
X0142484Y0172242
X0152136Y0183164
X0156708Y0191302
Y019816
X0152898Y0196382
X0149088Y0194858
X0147056Y0197906
X0145786Y0202732
X0140452Y0201462
X0146294Y019054
X0155692Y0204002
Y0216194
X015112Y02134
X0150358Y0219496
X014604Y0217718
X0142484Y0219242
X0135626Y0221528
X0135372Y0216956
X0131816Y021467
X0126736Y0213654
X0122672Y0213908
X01181Y021086
X0126228Y020959
X0134356Y0210352
X014096Y0211622
X0147056Y020832
X0149342Y0225084
X0153152Y0224068
X015747Y0223052
X0152136Y0230164
X0145024Y0227116
X0139436Y0225338
X0138928Y0230926
X0127752Y0231434
X0130546Y0225592
X0130038Y0221782
X0127244Y021848
X0124958Y0223052
X0118227Y0221807
X0111318Y0222265
X0111496Y0215178
X0112004Y0211114
X0116576Y0212638
X0103774Y0212562
X010413Y0214924
X0103825Y0217667
X0103851Y0220207
X0098034Y0225592
X0095189Y0224398
X0088636Y0226532
X0087366Y0223306
X0083556Y0224322
X0084826Y0227878
X008635Y0231688
X008508Y0220512
X0084826Y0215686
X0089652Y021594
X0093208Y0214162
X0093716Y0210352
X0089144Y0209844
X0096764Y0206034
X010032Y0207812
X0098542Y02134
X0116068Y0231942
X0072136Y0230164
X0073152Y0224068
X0069342Y0225084
X0065024Y0227116
X0059436Y0225338
X0058928Y0230926
X0047752Y0231434
X0050546Y0225592
X0050038Y0221782
X0055626Y0221528
X0055372Y0216956
X0051816Y021467
X0046736Y0213654
X0042672Y0213908
X0046228Y020959
X0054356Y0210352
X006096Y0211622
X0062484Y0219242
X006604Y0217718
X0070358Y0219496
X007112Y02134
X0075692Y0216194
X007747Y0223052
X0067056Y020832
X0047244Y021848
X0044958Y0223052
X0038227Y0221807
X0031318Y0222265
X0031496Y0215178
X0032004Y0211114
X0036576Y0212638
X00381Y021086
X0023774Y0212562
X002413Y0214924
X0023825Y0217667
X0023851Y0220207
X0018034Y0225592
X0015189Y0224398
X0008636Y0226532
X0007366Y0223306
X0003556Y0224322
X0004826Y0227878
X000635Y0231688
X000508Y0220512
X0004826Y0215686
X0009652Y021594
X0013208Y0214162
X0013716Y0210352
X0009144Y0209844
X0016764Y0206034
X002032Y0207812
X0018542Y02134
X0036068Y0231942
T02
X011954Y000508
X012208
X004208
X003954
X011954Y005208
X012208
X004208
X003954
Y009908
X004208
X011954
X012208
Y014608
X011954
X004208
X003954
Y019308
X004208
X011954
X012208
T03
X01297Y000483
X01347
X01397
X011192
X010692
X010192
X00597
X00547
X00497
X003192
X002692
X002192
X01297Y005183
X01347
X01397
X011192
X010692
X010192
X00597
X00547
X00497
X003192
X002692
X002192
Y009883
X002692
X003192
X00497
X00547
X00597
X010192
X010692
X011192
X01297
X01347
X01397
Y014583
X01347
X01297
X011192
X010692
X010192
X00597
X00547
X00497
X003192
X002692
X002192
Y019283
X002692
X003192
X00497
X00547
X00597
X010192
X010692
X011192
X01297
X01347
X01397
T04
X000381Y001016
Y001524
Y002032
X004445Y001524
X004953
X005461
X008381
Y001016
Y002032
X012445Y001524
X012953
X013461
Y006224
X012953
X012445
X008381
Y005716
Y006732
X005461Y006224
X004953
X004445
X000381
Y005716
Y006732
Y010416
Y010924
Y011432
X004445Y010924
X004953
X005461
X008381
Y010416
Y011432
X012445Y010924
X012953
X013461
Y015624
X012953
X012445
X008381
Y015116
Y016132
X005461Y015624
X004953
X004445
X000381
Y015116
Y016132
Y019816
Y020324
X004445
X004953
X005461
X008381
Y019816
X012445Y020324
X012953
X013461
X008381Y020832
X000381
M30
