M48
;Layer_Color=9474304
;FILE_FORMAT=4:3
METRIC,LZ
;TYPE=NON_PLATED
T5F00S00C2.000
%
T05
X008254Y000254
X000254
X001302Y003556
Y004318
X007747Y004445
X009302Y004318
Y003556
X015747Y004445
X008254Y004954
X009302Y008256
X001302
X000254Y004954
Y009654
X001302Y009018
X007747Y009145
X008254Y009654
X009302Y009018
X015747Y009145
Y013845
X009302Y013718
Y012956
X008254Y014354
X007747Y013845
X001302Y013718
Y012956
X000254Y014354
X001302Y017656
Y018418
X000254Y019054
X007747Y018545
X008254Y019054
X009302Y018418
Y017656
X015747Y018545
Y023245
X009302Y023118
Y022356
X007747Y023245
X001302Y023118
Y022356
M30
