G04*
G04 #@! TF.GenerationSoftware,Altium Limited,Altium Designer,19.1.8 (144)*
G04*
G04 Layer_Color=65535*
%FSLAX43Y43*%
%MOMM*%
G71*
G01*
G75*
%ADD28C,0.127*%
%ADD29C,0.400*%
%ADD30C,0.152*%
%ADD31C,0.076*%
%ADD32C,0.100*%
%ADD33C,0.254*%
%ADD34C,0.152*%
%ADD35C,0.200*%
%ADD36C,0.203*%
%ADD37R,1.060X0.400*%
D28*
X23358Y15247D02*
G03*
X23765Y15247I203J0D01*
G01*
X23358Y15234D02*
G03*
X22952Y15234I-203J0D01*
G01*
X25924D02*
G03*
X25517Y15234I-203J0D01*
G01*
X25924Y15247D02*
G03*
X26330Y15247I203J0D01*
G01*
X25527Y17704D02*
X26289D01*
X25908Y17323D02*
Y18085D01*
X22860Y17704D02*
X23622D01*
X103358Y15247D02*
G03*
X103765Y15247I203J0D01*
G01*
X103358Y15234D02*
G03*
X102952Y15234I-203J0D01*
G01*
X105924D02*
G03*
X105517Y15234I-203J0D01*
G01*
X105924Y15247D02*
G03*
X106330Y15247I203J0D01*
G01*
X105527Y17704D02*
X106289D01*
X105908Y17323D02*
Y18085D01*
X102860Y17704D02*
X103622D01*
X23358Y62246D02*
G03*
X23765Y62246I203J0D01*
G01*
X23358Y62234D02*
G03*
X22952Y62234I-203J0D01*
G01*
X25924D02*
G03*
X25517Y62234I-203J0D01*
G01*
X25924Y62246D02*
G03*
X26330Y62246I203J0D01*
G01*
X25527Y64704D02*
X26289D01*
X25908Y64323D02*
Y65085D01*
X22860Y64704D02*
X23622D01*
X103358Y62246D02*
G03*
X103765Y62246I203J0D01*
G01*
X103358Y62234D02*
G03*
X102952Y62234I-203J0D01*
G01*
X105924D02*
G03*
X105517Y62234I-203J0D01*
G01*
X105924Y62246D02*
G03*
X106330Y62246I203J0D01*
G01*
X105527Y64704D02*
X106289D01*
X105908Y64323D02*
Y65085D01*
X102860Y64704D02*
X103622D01*
X23358Y109246D02*
G03*
X23765Y109246I203J0D01*
G01*
X23358Y109234D02*
G03*
X22952Y109234I-203J0D01*
G01*
X25924D02*
G03*
X25517Y109234I-203J0D01*
G01*
X25924Y109246D02*
G03*
X26330Y109246I203J0D01*
G01*
X25527Y111704D02*
X26289D01*
X25908Y111323D02*
Y112085D01*
X22860Y111704D02*
X23622D01*
X103358Y109246D02*
G03*
X103765Y109246I203J0D01*
G01*
X103358Y109234D02*
G03*
X102952Y109234I-203J0D01*
G01*
X105924D02*
G03*
X105517Y109234I-203J0D01*
G01*
X105924Y109246D02*
G03*
X106330Y109246I203J0D01*
G01*
X105527Y111704D02*
X106289D01*
X105908Y111323D02*
Y112085D01*
X102860Y111704D02*
X103622D01*
X23358Y156247D02*
G03*
X23765Y156247I203J0D01*
G01*
X23358Y156234D02*
G03*
X22952Y156234I-203J0D01*
G01*
X25924D02*
G03*
X25517Y156234I-203J0D01*
G01*
X25924Y156247D02*
G03*
X26330Y156247I203J0D01*
G01*
X25527Y158704D02*
X26289D01*
X25908Y158323D02*
Y159085D01*
X22860Y158704D02*
X23622D01*
X103358Y156247D02*
G03*
X103765Y156247I203J0D01*
G01*
X103358Y156234D02*
G03*
X102952Y156234I-203J0D01*
G01*
X105924D02*
G03*
X105517Y156234I-203J0D01*
G01*
X105924Y156247D02*
G03*
X106330Y156247I203J0D01*
G01*
X105527Y158704D02*
X106289D01*
X105908Y158323D02*
Y159085D01*
X102860Y158704D02*
X103622D01*
X23358Y203247D02*
G03*
X23765Y203247I203J0D01*
G01*
X23358Y203234D02*
G03*
X22952Y203234I-203J0D01*
G01*
X25924D02*
G03*
X25517Y203234I-203J0D01*
G01*
X25924Y203247D02*
G03*
X26330Y203247I203J0D01*
G01*
X25527Y205704D02*
X26289D01*
X25908Y205323D02*
Y206085D01*
X22860Y205704D02*
X23622D01*
X103358Y203247D02*
G03*
X103765Y203247I203J0D01*
G01*
X103358Y203234D02*
G03*
X102952Y203234I-203J0D01*
G01*
X105924D02*
G03*
X105517Y203234I-203J0D01*
G01*
X105924Y203247D02*
G03*
X106330Y203247I203J0D01*
G01*
X105527Y205704D02*
X106289D01*
X105908Y205323D02*
Y206085D01*
X102860Y205704D02*
X103622D01*
D29*
X27251Y19355D02*
G03*
X27251Y19355I-200J0D01*
G01*
X107251D02*
G03*
X107251Y19355I-200J0D01*
G01*
X27251Y66355D02*
G03*
X27251Y66355I-200J0D01*
G01*
X107251D02*
G03*
X107251Y66355I-200J0D01*
G01*
X27251Y113355D02*
G03*
X27251Y113355I-200J0D01*
G01*
X107251D02*
G03*
X107251Y113355I-200J0D01*
G01*
X27251Y160355D02*
G03*
X27251Y160355I-200J0D01*
G01*
X107251D02*
G03*
X107251Y160355I-200J0D01*
G01*
X27251Y207355D02*
G03*
X27251Y207355I-200J0D01*
G01*
X107251D02*
G03*
X107251Y207355I-200J0D01*
G01*
D30*
X33490Y33896D02*
X36538D01*
X33490Y32753D02*
Y33896D01*
Y32753D02*
X36538D01*
Y33896D01*
X29420Y10130D02*
X29420Y7830D01*
X19420Y10130D02*
X34420D01*
X29420Y230D02*
Y1830D01*
X19420Y7830D02*
X34420D01*
X19420Y1830D02*
X34420D01*
X19420Y230D02*
X34420D01*
Y-180D02*
Y10130D01*
X19420Y-180D02*
Y10130D01*
Y-180D02*
X34420D01*
X24420Y7830D02*
X24420Y10130D01*
X24420Y230D02*
Y1830D01*
X38270Y6350D02*
X43350D01*
Y3810D02*
Y6350D01*
X38905Y3810D02*
X43350D01*
X38270Y4445D02*
X38905Y3810D01*
X38270Y4445D02*
Y6350D01*
X57200Y10130D02*
X57200Y7830D01*
X47200Y10130D02*
X62200D01*
X57200Y230D02*
Y1830D01*
X47200Y7830D02*
X62200D01*
X47200Y1830D02*
X62200D01*
X47200Y230D02*
X62200D01*
Y-180D02*
Y10130D01*
X47200Y-180D02*
Y10130D01*
Y-180D02*
X62200D01*
X52200Y7830D02*
X52200Y10130D01*
X52200Y230D02*
Y1830D01*
X36538Y27115D02*
Y28257D01*
X33490Y27115D02*
X36538D01*
X33490D02*
Y28257D01*
X36538D01*
Y38341D02*
Y39484D01*
X33490Y38341D02*
X36538D01*
X33490D02*
Y39484D01*
X36538D01*
X24968Y40952D02*
X26403D01*
X24968Y37687D02*
Y40952D01*
Y37687D02*
X26403D01*
X28156Y40952D02*
X29591D01*
Y37687D02*
Y40952D01*
X28156Y37687D02*
X29591D01*
X28137Y32734D02*
X29572D01*
Y35999D01*
X28137D02*
X29572D01*
X24950Y32734D02*
X26385D01*
X24950D02*
Y35999D01*
X26385D01*
X28137Y27831D02*
X29572D01*
Y31097D01*
X28137D02*
X29572D01*
X24950Y27831D02*
X26385D01*
X24950D02*
Y31097D01*
X26385D01*
X24950Y26194D02*
X26385D01*
X24950Y22929D02*
Y26194D01*
Y22929D02*
X26385D01*
X28137Y26194D02*
X29572D01*
Y22929D02*
Y26194D01*
X28137Y22929D02*
X29572D01*
X9779Y29235D02*
X11963Y31420D01*
X9779Y20606D02*
Y29235D01*
X18263Y31420D02*
X20726Y28956D01*
Y20606D02*
Y28956D01*
X113490Y33896D02*
X116538D01*
X113490Y32753D02*
Y33896D01*
Y32753D02*
X116538D01*
Y33896D01*
X109420Y10130D02*
X109420Y7830D01*
X99420Y10130D02*
X114420D01*
X109420Y230D02*
Y1830D01*
X99420Y7830D02*
X114420D01*
X99420Y1830D02*
X114420D01*
X99420Y230D02*
X114420D01*
Y-180D02*
Y10130D01*
X99420Y-180D02*
Y10130D01*
Y-180D02*
X114420D01*
X104420Y7830D02*
X104420Y10130D01*
X104420Y230D02*
Y1830D01*
X118270Y6350D02*
X123350D01*
Y3810D02*
Y6350D01*
X118905Y3810D02*
X123350D01*
X118270Y4445D02*
X118905Y3810D01*
X118270Y4445D02*
Y6350D01*
X137200Y10130D02*
X137200Y7830D01*
X127200Y10130D02*
X142200D01*
X137200Y230D02*
Y1830D01*
X127200Y7830D02*
X142200D01*
X127200Y1830D02*
X142200D01*
X127200Y230D02*
X142200D01*
Y-180D02*
Y10130D01*
X127200Y-180D02*
Y10130D01*
Y-180D02*
X142200D01*
X132200Y7830D02*
X132200Y10130D01*
X132200Y230D02*
Y1830D01*
X116538Y27115D02*
Y28257D01*
X113490Y27115D02*
X116538D01*
X113490D02*
Y28257D01*
X116538D01*
Y38341D02*
Y39484D01*
X113490Y38341D02*
X116538D01*
X113490D02*
Y39484D01*
X116538D01*
X104968Y40952D02*
X106403D01*
X104968Y37687D02*
Y40952D01*
Y37687D02*
X106403D01*
X108156Y40952D02*
X109591D01*
Y37687D02*
Y40952D01*
X108156Y37687D02*
X109591D01*
X108137Y32734D02*
X109572D01*
Y35999D01*
X108137D02*
X109572D01*
X104950Y32734D02*
X106385D01*
X104950D02*
Y35999D01*
X106385D01*
X108137Y27831D02*
X109572D01*
Y31097D01*
X108137D02*
X109572D01*
X104950Y27831D02*
X106385D01*
X104950D02*
Y31097D01*
X106385D01*
X104950Y26194D02*
X106385D01*
X104950Y22929D02*
Y26194D01*
Y22929D02*
X106385D01*
X108137Y26194D02*
X109572D01*
Y22929D02*
Y26194D01*
X108137Y22929D02*
X109572D01*
X89779Y29235D02*
X91963Y31420D01*
X89779Y20606D02*
Y29235D01*
X98263Y31420D02*
X100726Y28956D01*
Y20606D02*
Y28956D01*
X33490Y80896D02*
X36538D01*
X33490Y79753D02*
Y80896D01*
Y79753D02*
X36538D01*
Y80896D01*
X29420Y57130D02*
X29420Y54830D01*
X19420Y57130D02*
X34420D01*
X29420Y47230D02*
Y48830D01*
X19420Y54830D02*
X34420D01*
X19420Y48830D02*
X34420D01*
X19420Y47230D02*
X34420D01*
Y46820D02*
Y57130D01*
X19420Y46820D02*
Y57130D01*
Y46820D02*
X34420D01*
X24420Y54830D02*
X24420Y57130D01*
X24420Y47230D02*
Y48830D01*
X38270Y53350D02*
X43350D01*
Y50810D02*
Y53350D01*
X38905Y50810D02*
X43350D01*
X38270Y51445D02*
X38905Y50810D01*
X38270Y51445D02*
Y53350D01*
X57200Y57130D02*
X57200Y54830D01*
X47200Y57130D02*
X62200D01*
X57200Y47230D02*
Y48830D01*
X47200Y54830D02*
X62200D01*
X47200Y48830D02*
X62200D01*
X47200Y47230D02*
X62200D01*
Y46820D02*
Y57130D01*
X47200Y46820D02*
Y57130D01*
Y46820D02*
X62200D01*
X52200Y54830D02*
X52200Y57130D01*
X52200Y47230D02*
Y48830D01*
X36538Y74115D02*
Y75257D01*
X33490Y74115D02*
X36538D01*
X33490D02*
Y75257D01*
X36538D01*
Y85341D02*
Y86484D01*
X33490Y85341D02*
X36538D01*
X33490D02*
Y86484D01*
X36538D01*
X24968Y87952D02*
X26403D01*
X24968Y84687D02*
Y87952D01*
Y84687D02*
X26403D01*
X28156Y87952D02*
X29591D01*
Y84687D02*
Y87952D01*
X28156Y84687D02*
X29591D01*
X28137Y79734D02*
X29572D01*
Y82999D01*
X28137D02*
X29572D01*
X24950Y79734D02*
X26385D01*
X24950D02*
Y82999D01*
X26385D01*
X28137Y74831D02*
X29572D01*
Y78097D01*
X28137D02*
X29572D01*
X24950Y74831D02*
X26385D01*
X24950D02*
Y78097D01*
X26385D01*
X24950Y73194D02*
X26385D01*
X24950Y69929D02*
Y73194D01*
Y69929D02*
X26385D01*
X28137Y73194D02*
X29572D01*
Y69929D02*
Y73194D01*
X28137Y69929D02*
X29572D01*
X9779Y76235D02*
X11963Y78420D01*
X9779Y67606D02*
Y76235D01*
X18263Y78420D02*
X20726Y75956D01*
Y67606D02*
Y75956D01*
X113490Y80896D02*
X116538D01*
X113490Y79753D02*
Y80896D01*
Y79753D02*
X116538D01*
Y80896D01*
X109420Y57130D02*
X109420Y54830D01*
X99420Y57130D02*
X114420D01*
X109420Y47230D02*
Y48830D01*
X99420Y54830D02*
X114420D01*
X99420Y48830D02*
X114420D01*
X99420Y47230D02*
X114420D01*
Y46820D02*
Y57130D01*
X99420Y46820D02*
Y57130D01*
Y46820D02*
X114420D01*
X104420Y54830D02*
X104420Y57130D01*
X104420Y47230D02*
Y48830D01*
X118270Y53350D02*
X123350D01*
Y50810D02*
Y53350D01*
X118905Y50810D02*
X123350D01*
X118270Y51445D02*
X118905Y50810D01*
X118270Y51445D02*
Y53350D01*
X137200Y57130D02*
X137200Y54830D01*
X127200Y57130D02*
X142200D01*
X137200Y47230D02*
Y48830D01*
X127200Y54830D02*
X142200D01*
X127200Y48830D02*
X142200D01*
X127200Y47230D02*
X142200D01*
Y46820D02*
Y57130D01*
X127200Y46820D02*
Y57130D01*
Y46820D02*
X142200D01*
X132200Y54830D02*
X132200Y57130D01*
X132200Y47230D02*
Y48830D01*
X116538Y74115D02*
Y75257D01*
X113490Y74115D02*
X116538D01*
X113490D02*
Y75257D01*
X116538D01*
Y85341D02*
Y86484D01*
X113490Y85341D02*
X116538D01*
X113490D02*
Y86484D01*
X116538D01*
X104968Y87952D02*
X106403D01*
X104968Y84687D02*
Y87952D01*
Y84687D02*
X106403D01*
X108156Y87952D02*
X109591D01*
Y84687D02*
Y87952D01*
X108156Y84687D02*
X109591D01*
X108137Y79734D02*
X109572D01*
Y82999D01*
X108137D02*
X109572D01*
X104950Y79734D02*
X106385D01*
X104950D02*
Y82999D01*
X106385D01*
X108137Y74831D02*
X109572D01*
Y78097D01*
X108137D02*
X109572D01*
X104950Y74831D02*
X106385D01*
X104950D02*
Y78097D01*
X106385D01*
X104950Y73194D02*
X106385D01*
X104950Y69929D02*
Y73194D01*
Y69929D02*
X106385D01*
X108137Y73194D02*
X109572D01*
Y69929D02*
Y73194D01*
X108137Y69929D02*
X109572D01*
X89779Y76235D02*
X91963Y78420D01*
X89779Y67606D02*
Y76235D01*
X98263Y78420D02*
X100726Y75956D01*
Y67606D02*
Y75956D01*
X33490Y127896D02*
X36538D01*
X33490Y126753D02*
Y127896D01*
Y126753D02*
X36538D01*
Y127896D01*
X29420Y104130D02*
X29420Y101830D01*
X19420Y104130D02*
X34420D01*
X29420Y94230D02*
Y95830D01*
X19420Y101830D02*
X34420D01*
X19420Y95830D02*
X34420D01*
X19420Y94230D02*
X34420D01*
Y93820D02*
Y104130D01*
X19420Y93820D02*
Y104130D01*
Y93820D02*
X34420D01*
X24420Y101830D02*
X24420Y104130D01*
X24420Y94230D02*
Y95830D01*
X38270Y100350D02*
X43350D01*
Y97810D02*
Y100350D01*
X38905Y97810D02*
X43350D01*
X38270Y98445D02*
X38905Y97810D01*
X38270Y98445D02*
Y100350D01*
X57200Y104130D02*
X57200Y101830D01*
X47200Y104130D02*
X62200D01*
X57200Y94230D02*
Y95830D01*
X47200Y101830D02*
X62200D01*
X47200Y95830D02*
X62200D01*
X47200Y94230D02*
X62200D01*
Y93820D02*
Y104130D01*
X47200Y93820D02*
Y104130D01*
Y93820D02*
X62200D01*
X52200Y101830D02*
X52200Y104130D01*
X52200Y94230D02*
Y95830D01*
X36538Y121115D02*
Y122257D01*
X33490Y121115D02*
X36538D01*
X33490D02*
Y122257D01*
X36538D01*
Y132341D02*
Y133484D01*
X33490Y132341D02*
X36538D01*
X33490D02*
Y133484D01*
X36538D01*
X24968Y134952D02*
X26403D01*
X24968Y131687D02*
Y134952D01*
Y131687D02*
X26403D01*
X28156Y134952D02*
X29591D01*
Y131687D02*
Y134952D01*
X28156Y131687D02*
X29591D01*
X28137Y126734D02*
X29572D01*
Y129999D01*
X28137D02*
X29572D01*
X24950Y126734D02*
X26385D01*
X24950D02*
Y129999D01*
X26385D01*
X28137Y121831D02*
X29572D01*
Y125097D01*
X28137D02*
X29572D01*
X24950Y121831D02*
X26385D01*
X24950D02*
Y125097D01*
X26385D01*
X24950Y120194D02*
X26385D01*
X24950Y116929D02*
Y120194D01*
Y116929D02*
X26385D01*
X28137Y120194D02*
X29572D01*
Y116929D02*
Y120194D01*
X28137Y116929D02*
X29572D01*
X9779Y123235D02*
X11963Y125420D01*
X9779Y114606D02*
Y123235D01*
X18263Y125420D02*
X20726Y122956D01*
Y114606D02*
Y122956D01*
X113490Y127896D02*
X116538D01*
X113490Y126753D02*
Y127896D01*
Y126753D02*
X116538D01*
Y127896D01*
X109420Y104130D02*
X109420Y101830D01*
X99420Y104130D02*
X114420D01*
X109420Y94230D02*
Y95830D01*
X99420Y101830D02*
X114420D01*
X99420Y95830D02*
X114420D01*
X99420Y94230D02*
X114420D01*
Y93820D02*
Y104130D01*
X99420Y93820D02*
Y104130D01*
Y93820D02*
X114420D01*
X104420Y101830D02*
X104420Y104130D01*
X104420Y94230D02*
Y95830D01*
X118270Y100350D02*
X123350D01*
Y97810D02*
Y100350D01*
X118905Y97810D02*
X123350D01*
X118270Y98445D02*
X118905Y97810D01*
X118270Y98445D02*
Y100350D01*
X137200Y104130D02*
X137200Y101830D01*
X127200Y104130D02*
X142200D01*
X137200Y94230D02*
Y95830D01*
X127200Y101830D02*
X142200D01*
X127200Y95830D02*
X142200D01*
X127200Y94230D02*
X142200D01*
Y93820D02*
Y104130D01*
X127200Y93820D02*
Y104130D01*
Y93820D02*
X142200D01*
X132200Y101830D02*
X132200Y104130D01*
X132200Y94230D02*
Y95830D01*
X116538Y121115D02*
Y122257D01*
X113490Y121115D02*
X116538D01*
X113490D02*
Y122257D01*
X116538D01*
Y132341D02*
Y133484D01*
X113490Y132341D02*
X116538D01*
X113490D02*
Y133484D01*
X116538D01*
X104968Y134952D02*
X106403D01*
X104968Y131687D02*
Y134952D01*
Y131687D02*
X106403D01*
X108156Y134952D02*
X109591D01*
Y131687D02*
Y134952D01*
X108156Y131687D02*
X109591D01*
X108137Y126734D02*
X109572D01*
Y129999D01*
X108137D02*
X109572D01*
X104950Y126734D02*
X106385D01*
X104950D02*
Y129999D01*
X106385D01*
X108137Y121831D02*
X109572D01*
Y125097D01*
X108137D02*
X109572D01*
X104950Y121831D02*
X106385D01*
X104950D02*
Y125097D01*
X106385D01*
X104950Y120194D02*
X106385D01*
X104950Y116929D02*
Y120194D01*
Y116929D02*
X106385D01*
X108137Y120194D02*
X109572D01*
Y116929D02*
Y120194D01*
X108137Y116929D02*
X109572D01*
X89779Y123235D02*
X91963Y125420D01*
X89779Y114606D02*
Y123235D01*
X98263Y125420D02*
X100726Y122956D01*
Y114606D02*
Y122956D01*
X33490Y174896D02*
X36538D01*
X33490Y173753D02*
Y174896D01*
Y173753D02*
X36538D01*
Y174896D01*
X29420Y151130D02*
X29420Y148830D01*
X19420Y151130D02*
X34420D01*
X29420Y141230D02*
Y142830D01*
X19420Y148830D02*
X34420D01*
X19420Y142830D02*
X34420D01*
X19420Y141230D02*
X34420D01*
Y140820D02*
Y151130D01*
X19420Y140820D02*
Y151130D01*
Y140820D02*
X34420D01*
X24420Y148830D02*
X24420Y151130D01*
X24420Y141230D02*
Y142830D01*
X38270Y147350D02*
X43350D01*
Y144810D02*
Y147350D01*
X38905Y144810D02*
X43350D01*
X38270Y145445D02*
X38905Y144810D01*
X38270Y145445D02*
Y147350D01*
X57200Y151130D02*
X57200Y148830D01*
X47200Y151130D02*
X62200D01*
X57200Y141230D02*
Y142830D01*
X47200Y148830D02*
X62200D01*
X47200Y142830D02*
X62200D01*
X47200Y141230D02*
X62200D01*
Y140820D02*
Y151130D01*
X47200Y140820D02*
Y151130D01*
Y140820D02*
X62200D01*
X52200Y148830D02*
X52200Y151130D01*
X52200Y141230D02*
Y142830D01*
X36538Y168115D02*
Y169258D01*
X33490Y168115D02*
X36538D01*
X33490D02*
Y169258D01*
X36538D01*
Y179341D02*
Y180484D01*
X33490Y179341D02*
X36538D01*
X33490D02*
Y180484D01*
X36538D01*
X24968Y181952D02*
X26403D01*
X24968Y178687D02*
Y181952D01*
Y178687D02*
X26403D01*
X28156Y181952D02*
X29591D01*
Y178687D02*
Y181952D01*
X28156Y178687D02*
X29591D01*
X28137Y173734D02*
X29572D01*
Y176999D01*
X28137D02*
X29572D01*
X24950Y173734D02*
X26385D01*
X24950D02*
Y176999D01*
X26385D01*
X28137Y168831D02*
X29572D01*
Y172097D01*
X28137D02*
X29572D01*
X24950Y168831D02*
X26385D01*
X24950D02*
Y172097D01*
X26385D01*
X24950Y167194D02*
X26385D01*
X24950Y163929D02*
Y167194D01*
Y163929D02*
X26385D01*
X28137Y167194D02*
X29572D01*
Y163929D02*
Y167194D01*
X28137Y163929D02*
X29572D01*
X9779Y170235D02*
X11963Y172420D01*
X9779Y161606D02*
Y170235D01*
X18263Y172420D02*
X20726Y169956D01*
Y161606D02*
Y169956D01*
X113490Y174896D02*
X116538D01*
X113490Y173753D02*
Y174896D01*
Y173753D02*
X116538D01*
Y174896D01*
X109420Y151130D02*
X109420Y148830D01*
X99420Y151130D02*
X114420D01*
X109420Y141230D02*
Y142830D01*
X99420Y148830D02*
X114420D01*
X99420Y142830D02*
X114420D01*
X99420Y141230D02*
X114420D01*
Y140820D02*
Y151130D01*
X99420Y140820D02*
Y151130D01*
Y140820D02*
X114420D01*
X104420Y148830D02*
X104420Y151130D01*
X104420Y141230D02*
Y142830D01*
X118270Y147350D02*
X123350D01*
Y144810D02*
Y147350D01*
X118905Y144810D02*
X123350D01*
X118270Y145445D02*
X118905Y144810D01*
X118270Y145445D02*
Y147350D01*
X137200Y151130D02*
X137200Y148830D01*
X127200Y151130D02*
X142200D01*
X137200Y141230D02*
Y142830D01*
X127200Y148830D02*
X142200D01*
X127200Y142830D02*
X142200D01*
X127200Y141230D02*
X142200D01*
Y140820D02*
Y151130D01*
X127200Y140820D02*
Y151130D01*
Y140820D02*
X142200D01*
X132200Y148830D02*
X132200Y151130D01*
X132200Y141230D02*
Y142830D01*
X116538Y168115D02*
Y169258D01*
X113490Y168115D02*
X116538D01*
X113490D02*
Y169258D01*
X116538D01*
Y179341D02*
Y180484D01*
X113490Y179341D02*
X116538D01*
X113490D02*
Y180484D01*
X116538D01*
X104968Y181952D02*
X106403D01*
X104968Y178687D02*
Y181952D01*
Y178687D02*
X106403D01*
X108156Y181952D02*
X109591D01*
Y178687D02*
Y181952D01*
X108156Y178687D02*
X109591D01*
X108137Y173734D02*
X109572D01*
Y176999D01*
X108137D02*
X109572D01*
X104950Y173734D02*
X106385D01*
X104950D02*
Y176999D01*
X106385D01*
X108137Y168831D02*
X109572D01*
Y172097D01*
X108137D02*
X109572D01*
X104950Y168831D02*
X106385D01*
X104950D02*
Y172097D01*
X106385D01*
X104950Y167194D02*
X106385D01*
X104950Y163929D02*
Y167194D01*
Y163929D02*
X106385D01*
X108137Y167194D02*
X109572D01*
Y163929D02*
Y167194D01*
X108137Y163929D02*
X109572D01*
X89779Y170235D02*
X91963Y172420D01*
X89779Y161606D02*
Y170235D01*
X98263Y172420D02*
X100726Y169956D01*
Y161606D02*
Y169956D01*
X33490Y221896D02*
X36538D01*
X33490Y220753D02*
Y221896D01*
Y220753D02*
X36538D01*
Y221896D01*
X29420Y198130D02*
X29420Y195830D01*
X19420Y198130D02*
X34420D01*
X29420Y188230D02*
Y189830D01*
X19420Y195830D02*
X34420D01*
X19420Y189830D02*
X34420D01*
X19420Y188230D02*
X34420D01*
Y187820D02*
Y198130D01*
X19420Y187820D02*
Y198130D01*
Y187820D02*
X34420D01*
X24420Y195830D02*
X24420Y198130D01*
X24420Y188230D02*
Y189830D01*
X38270Y194350D02*
X43350D01*
Y191810D02*
Y194350D01*
X38905Y191810D02*
X43350D01*
X38270Y192445D02*
X38905Y191810D01*
X38270Y192445D02*
Y194350D01*
X57200Y198130D02*
X57200Y195830D01*
X47200Y198130D02*
X62200D01*
X57200Y188230D02*
Y189830D01*
X47200Y195830D02*
X62200D01*
X47200Y189830D02*
X62200D01*
X47200Y188230D02*
X62200D01*
Y187820D02*
Y198130D01*
X47200Y187820D02*
Y198130D01*
Y187820D02*
X62200D01*
X52200Y195830D02*
X52200Y198130D01*
X52200Y188230D02*
Y189830D01*
X36538Y215115D02*
Y216258D01*
X33490Y215115D02*
X36538D01*
X33490D02*
Y216258D01*
X36538D01*
Y226341D02*
Y227484D01*
X33490Y226341D02*
X36538D01*
X33490D02*
Y227484D01*
X36538D01*
X24968Y228952D02*
X26403D01*
X24968Y225687D02*
Y228952D01*
Y225687D02*
X26403D01*
X28156Y228952D02*
X29591D01*
Y225687D02*
Y228952D01*
X28156Y225687D02*
X29591D01*
X28137Y220734D02*
X29572D01*
Y223999D01*
X28137D02*
X29572D01*
X24950Y220734D02*
X26385D01*
X24950D02*
Y223999D01*
X26385D01*
X28137Y215831D02*
X29572D01*
Y219097D01*
X28137D02*
X29572D01*
X24950Y215831D02*
X26385D01*
X24950D02*
Y219097D01*
X26385D01*
X24950Y214194D02*
X26385D01*
X24950Y210929D02*
Y214194D01*
Y210929D02*
X26385D01*
X28137Y214194D02*
X29572D01*
Y210929D02*
Y214194D01*
X28137Y210929D02*
X29572D01*
X9779Y217235D02*
X11963Y219420D01*
X9779Y208606D02*
Y217235D01*
X18263Y219420D02*
X20726Y216956D01*
Y208606D02*
Y216956D01*
X113490Y221896D02*
X116538D01*
X113490Y220753D02*
Y221896D01*
Y220753D02*
X116538D01*
Y221896D01*
X109420Y198130D02*
X109420Y195830D01*
X99420Y198130D02*
X114420D01*
X109420Y188230D02*
Y189830D01*
X99420Y195830D02*
X114420D01*
X99420Y189830D02*
X114420D01*
X99420Y188230D02*
X114420D01*
Y187820D02*
Y198130D01*
X99420Y187820D02*
Y198130D01*
Y187820D02*
X114420D01*
X104420Y195830D02*
X104420Y198130D01*
X104420Y188230D02*
Y189830D01*
X118270Y194350D02*
X123350D01*
Y191810D02*
Y194350D01*
X118905Y191810D02*
X123350D01*
X118270Y192445D02*
X118905Y191810D01*
X118270Y192445D02*
Y194350D01*
X137200Y198130D02*
X137200Y195830D01*
X127200Y198130D02*
X142200D01*
X137200Y188230D02*
Y189830D01*
X127200Y195830D02*
X142200D01*
X127200Y189830D02*
X142200D01*
X127200Y188230D02*
X142200D01*
Y187820D02*
Y198130D01*
X127200Y187820D02*
Y198130D01*
Y187820D02*
X142200D01*
X132200Y195830D02*
X132200Y198130D01*
X132200Y188230D02*
Y189830D01*
X116538Y215115D02*
Y216258D01*
X113490Y215115D02*
X116538D01*
X113490D02*
Y216258D01*
X116538D01*
Y226341D02*
Y227484D01*
X113490Y226341D02*
X116538D01*
X113490D02*
Y227484D01*
X116538D01*
X104968Y228952D02*
X106403D01*
X104968Y225687D02*
Y228952D01*
Y225687D02*
X106403D01*
X108156Y228952D02*
X109591D01*
Y225687D02*
Y228952D01*
X108156Y225687D02*
X109591D01*
X108137Y220734D02*
X109572D01*
Y223999D01*
X108137D02*
X109572D01*
X104950Y220734D02*
X106385D01*
X104950D02*
Y223999D01*
X106385D01*
X108137Y215831D02*
X109572D01*
Y219097D01*
X108137D02*
X109572D01*
X104950Y215831D02*
X106385D01*
X104950D02*
Y219097D01*
X106385D01*
X104950Y214194D02*
X106385D01*
X104950Y210929D02*
Y214194D01*
Y210929D02*
X106385D01*
X108137Y214194D02*
X109572D01*
Y210929D02*
Y214194D01*
X108137Y210929D02*
X109572D01*
X89779Y217235D02*
X91963Y219420D01*
X89779Y208606D02*
Y217235D01*
X98263Y219420D02*
X100726Y216956D01*
Y208606D02*
Y216956D01*
D31*
X40869Y10211D02*
X41885D01*
X40869D02*
Y11481D01*
Y8941D02*
Y10211D01*
X41885D02*
X42901D01*
Y11481D01*
Y8941D02*
Y10211D01*
X39380Y28610D02*
X40580D01*
X39980D02*
Y29210D01*
Y29810D01*
X39280D02*
X40580D01*
X39380Y31353D02*
X40580D01*
X39980D02*
Y31953D01*
Y32553D01*
X39280D02*
X40580D01*
X15326Y35093D02*
X16526D01*
X15926Y34493D02*
Y35093D01*
Y33893D02*
Y34493D01*
X15326Y33893D02*
X16626D01*
X120869Y10211D02*
X121885D01*
X120869D02*
Y11481D01*
Y8941D02*
Y10211D01*
X121885D02*
X122901D01*
Y11481D01*
Y8941D02*
Y10211D01*
X119380Y28610D02*
X120580D01*
X119980D02*
Y29210D01*
Y29810D01*
X119280D02*
X120580D01*
X119380Y31353D02*
X120580D01*
X119980D02*
Y31953D01*
Y32553D01*
X119280D02*
X120580D01*
X95326Y35093D02*
X96526D01*
X95926Y34493D02*
Y35093D01*
Y33893D02*
Y34493D01*
X95326Y33893D02*
X96626D01*
X40869Y57211D02*
X41885D01*
X40869D02*
Y58481D01*
Y55941D02*
Y57211D01*
X41885D02*
X42901D01*
Y58481D01*
Y55941D02*
Y57211D01*
X39380Y75610D02*
X40580D01*
X39980D02*
Y76210D01*
Y76810D01*
X39280D02*
X40580D01*
X39380Y78353D02*
X40580D01*
X39980D02*
Y78953D01*
Y79553D01*
X39280D02*
X40580D01*
X15326Y82093D02*
X16526D01*
X15926Y81493D02*
Y82093D01*
Y80893D02*
Y81493D01*
X15326Y80893D02*
X16626D01*
X120869Y57211D02*
X121885D01*
X120869D02*
Y58481D01*
Y55941D02*
Y57211D01*
X121885D02*
X122901D01*
Y58481D01*
Y55941D02*
Y57211D01*
X119380Y75610D02*
X120580D01*
X119980D02*
Y76210D01*
Y76810D01*
X119280D02*
X120580D01*
X119380Y78353D02*
X120580D01*
X119980D02*
Y78953D01*
Y79553D01*
X119280D02*
X120580D01*
X95326Y82093D02*
X96526D01*
X95926Y81493D02*
Y82093D01*
Y80893D02*
Y81493D01*
X95326Y80893D02*
X96626D01*
X40869Y104211D02*
X41885D01*
X40869D02*
Y105481D01*
Y102941D02*
Y104211D01*
X41885D02*
X42901D01*
Y105481D01*
Y102941D02*
Y104211D01*
X39380Y122610D02*
X40580D01*
X39980D02*
Y123210D01*
Y123810D01*
X39280D02*
X40580D01*
X39380Y125353D02*
X40580D01*
X39980D02*
Y125953D01*
Y126553D01*
X39280D02*
X40580D01*
X15326Y129093D02*
X16526D01*
X15926Y128493D02*
Y129093D01*
Y127893D02*
Y128493D01*
X15326Y127893D02*
X16626D01*
X120869Y104211D02*
X121885D01*
X120869D02*
Y105481D01*
Y102941D02*
Y104211D01*
X121885D02*
X122901D01*
Y105481D01*
Y102941D02*
Y104211D01*
X119380Y122610D02*
X120580D01*
X119980D02*
Y123210D01*
Y123810D01*
X119280D02*
X120580D01*
X119380Y125353D02*
X120580D01*
X119980D02*
Y125953D01*
Y126553D01*
X119280D02*
X120580D01*
X95326Y129093D02*
X96526D01*
X95926Y128493D02*
Y129093D01*
Y127893D02*
Y128493D01*
X95326Y127893D02*
X96626D01*
X40869Y151211D02*
X41885D01*
X40869D02*
Y152481D01*
Y149941D02*
Y151211D01*
X41885D02*
X42901D01*
Y152481D01*
Y149941D02*
Y151211D01*
X39380Y169610D02*
X40580D01*
X39980D02*
Y170210D01*
Y170810D01*
X39280D02*
X40580D01*
X39380Y172353D02*
X40580D01*
X39980D02*
Y172953D01*
Y173553D01*
X39280D02*
X40580D01*
X15326Y176093D02*
X16526D01*
X15926Y175493D02*
Y176093D01*
Y174893D02*
Y175493D01*
X15326Y174893D02*
X16626D01*
X120869Y151211D02*
X121885D01*
X120869D02*
Y152481D01*
Y149941D02*
Y151211D01*
X121885D02*
X122901D01*
Y152481D01*
Y149941D02*
Y151211D01*
X119380Y169610D02*
X120580D01*
X119980D02*
Y170210D01*
Y170810D01*
X119280D02*
X120580D01*
X119380Y172353D02*
X120580D01*
X119980D02*
Y172953D01*
Y173553D01*
X119280D02*
X120580D01*
X95326Y176093D02*
X96526D01*
X95926Y175493D02*
Y176093D01*
Y174893D02*
Y175493D01*
X95326Y174893D02*
X96626D01*
X40869Y198211D02*
X41885D01*
X40869D02*
Y199481D01*
Y196941D02*
Y198211D01*
X41885D02*
X42901D01*
Y199481D01*
Y196941D02*
Y198211D01*
X39380Y216610D02*
X40580D01*
X39980D02*
Y217210D01*
Y217810D01*
X39280D02*
X40580D01*
X39380Y219353D02*
X40580D01*
X39980D02*
Y219953D01*
Y220553D01*
X39280D02*
X40580D01*
X15326Y223093D02*
X16526D01*
X15926Y222493D02*
Y223093D01*
Y221893D02*
Y222493D01*
X15326Y221893D02*
X16626D01*
X120869Y198211D02*
X121885D01*
X120869D02*
Y199481D01*
Y196941D02*
Y198211D01*
X121885D02*
X122901D01*
Y199481D01*
Y196941D02*
Y198211D01*
X119380Y216610D02*
X120580D01*
X119980D02*
Y217210D01*
Y217810D01*
X119280D02*
X120580D01*
X119380Y219353D02*
X120580D01*
X119980D02*
Y219953D01*
Y220553D01*
X119280D02*
X120580D01*
X95326Y223093D02*
X96526D01*
X95926Y222493D02*
Y223093D01*
Y221893D02*
Y222493D01*
X95326Y221893D02*
X96626D01*
D32*
X39789Y34646D02*
Y36424D01*
X39875Y34646D02*
Y36424D01*
X39700Y34646D02*
Y36424D01*
X38811Y34646D02*
X42113D01*
X38811Y36424D02*
X42113D01*
X119789Y34646D02*
Y36424D01*
X119875Y34646D02*
Y36424D01*
X119700Y34646D02*
Y36424D01*
X118811Y34646D02*
X122113D01*
X118811Y36424D02*
X122113D01*
X39789Y81646D02*
Y83424D01*
X39875Y81646D02*
Y83424D01*
X39700Y81646D02*
Y83424D01*
X38811Y81646D02*
X42113D01*
X38811Y83424D02*
X42113D01*
X119789Y81646D02*
Y83424D01*
X119875Y81646D02*
Y83424D01*
X119700Y81646D02*
Y83424D01*
X118811Y81646D02*
X122113D01*
X118811Y83424D02*
X122113D01*
X39789Y128646D02*
Y130424D01*
X39875Y128646D02*
Y130424D01*
X39700Y128646D02*
Y130424D01*
X38811Y128646D02*
X42113D01*
X38811Y130424D02*
X42113D01*
X119789Y128646D02*
Y130424D01*
X119875Y128646D02*
Y130424D01*
X119700Y128646D02*
Y130424D01*
X118811Y128646D02*
X122113D01*
X118811Y130424D02*
X122113D01*
X39789Y175646D02*
Y177424D01*
X39875Y175646D02*
Y177424D01*
X39700Y175646D02*
Y177424D01*
X38811Y175646D02*
X42113D01*
X38811Y177424D02*
X42113D01*
X119789Y175646D02*
Y177424D01*
X119875Y175646D02*
Y177424D01*
X119700Y175646D02*
Y177424D01*
X118811Y175646D02*
X122113D01*
X118811Y177424D02*
X122113D01*
X39789Y222646D02*
Y224424D01*
X39875Y222646D02*
Y224424D01*
X39700Y222646D02*
Y224424D01*
X38811Y222646D02*
X42113D01*
X38811Y224424D02*
X42113D01*
X119789Y222646D02*
Y224424D01*
X119875Y222646D02*
Y224424D01*
X119700Y222646D02*
Y224424D01*
X118811Y222646D02*
X122113D01*
X118811Y224424D02*
X122113D01*
D33*
X22061Y14334D02*
Y18534D01*
X26961D01*
X22061Y14334D02*
X26961D01*
Y18534D01*
X910Y8840D02*
X1778D01*
X5842D02*
X6710D01*
X5842Y7366D02*
Y20320D01*
X1778Y7366D02*
X5842D01*
X1778D02*
Y20320D01*
X2479D01*
X5141D02*
X5842D01*
X2032D02*
Y21590D01*
X5588Y20320D02*
Y21590D01*
X910Y21640D02*
X6710D01*
X910D02*
X910Y8840D01*
X6710Y21640D02*
X6710Y8840D01*
X102061Y14334D02*
Y18534D01*
X106961D01*
X102061Y14334D02*
X106961D01*
Y18534D01*
X80910Y8840D02*
X81778D01*
X85842D02*
X86710D01*
X85842Y7366D02*
Y20320D01*
X81778Y7366D02*
X85842D01*
X81778D02*
Y20320D01*
X82479D01*
X85141D02*
X85842D01*
X82032D02*
Y21590D01*
X85588Y20320D02*
Y21590D01*
X80910Y21640D02*
X86710D01*
X80910D02*
X80910Y8840D01*
X86710Y21640D02*
X86710Y8840D01*
X22061Y61334D02*
Y65534D01*
X26961D01*
X22061Y61334D02*
X26961D01*
Y65534D01*
X910Y55840D02*
X1778D01*
X5842D02*
X6710D01*
X5842Y54366D02*
Y67320D01*
X1778Y54366D02*
X5842D01*
X1778D02*
Y67320D01*
X2479D01*
X5141D02*
X5842D01*
X2032D02*
Y68590D01*
X5588Y67320D02*
Y68590D01*
X910Y68640D02*
X6710D01*
X910D02*
X910Y55840D01*
X6710Y68640D02*
X6710Y55840D01*
X102061Y61334D02*
Y65534D01*
X106961D01*
X102061Y61334D02*
X106961D01*
Y65534D01*
X80910Y55840D02*
X81778D01*
X85842D02*
X86710D01*
X85842Y54366D02*
Y67320D01*
X81778Y54366D02*
X85842D01*
X81778D02*
Y67320D01*
X82479D01*
X85141D02*
X85842D01*
X82032D02*
Y68590D01*
X85588Y67320D02*
Y68590D01*
X80910Y68640D02*
X86710D01*
X80910D02*
X80910Y55840D01*
X86710Y68640D02*
X86710Y55840D01*
X22061Y108334D02*
Y112534D01*
X26961D01*
X22061Y108334D02*
X26961D01*
Y112534D01*
X910Y102840D02*
X1778D01*
X5842D02*
X6710D01*
X5842Y101366D02*
Y114320D01*
X1778Y101366D02*
X5842D01*
X1778D02*
Y114320D01*
X2479D01*
X5141D02*
X5842D01*
X2032D02*
Y115590D01*
X5588Y114320D02*
Y115590D01*
X910Y115640D02*
X6710D01*
X910D02*
X910Y102840D01*
X6710Y115640D02*
X6710Y102840D01*
X102061Y108334D02*
Y112534D01*
X106961D01*
X102061Y108334D02*
X106961D01*
Y112534D01*
X80910Y102840D02*
X81778D01*
X85842D02*
X86710D01*
X85842Y101366D02*
Y114320D01*
X81778Y101366D02*
X85842D01*
X81778D02*
Y114320D01*
X82479D01*
X85141D02*
X85842D01*
X82032D02*
Y115590D01*
X85588Y114320D02*
Y115590D01*
X80910Y115640D02*
X86710D01*
X80910D02*
X80910Y102840D01*
X86710Y115640D02*
X86710Y102840D01*
X22061Y155334D02*
Y159534D01*
X26961D01*
X22061Y155334D02*
X26961D01*
Y159534D01*
X910Y149840D02*
X1778D01*
X5842D02*
X6710D01*
X5842Y148366D02*
Y161320D01*
X1778Y148366D02*
X5842D01*
X1778D02*
Y161320D01*
X2479D01*
X5141D02*
X5842D01*
X2032D02*
Y162590D01*
X5588Y161320D02*
Y162590D01*
X910Y162640D02*
X6710D01*
X910D02*
X910Y149840D01*
X6710Y162640D02*
X6710Y149840D01*
X102061Y155334D02*
Y159534D01*
X106961D01*
X102061Y155334D02*
X106961D01*
Y159534D01*
X80910Y149840D02*
X81778D01*
X85842D02*
X86710D01*
X85842Y148366D02*
Y161320D01*
X81778Y148366D02*
X85842D01*
X81778D02*
Y161320D01*
X82479D01*
X85141D02*
X85842D01*
X82032D02*
Y162590D01*
X85588Y161320D02*
Y162590D01*
X80910Y162640D02*
X86710D01*
X80910D02*
X80910Y149840D01*
X86710Y162640D02*
X86710Y149840D01*
X22061Y202334D02*
Y206534D01*
X26961D01*
X22061Y202334D02*
X26961D01*
Y206534D01*
X910Y196840D02*
X1778D01*
X5842D02*
X6710D01*
X5842Y195366D02*
Y208320D01*
X1778Y195366D02*
X5842D01*
X1778D02*
Y208320D01*
X2479D01*
X5141D02*
X5842D01*
X2032D02*
Y209590D01*
X5588Y208320D02*
Y209590D01*
X910Y209640D02*
X6710D01*
X910D02*
X910Y196840D01*
X6710Y209640D02*
X6710Y196840D01*
X102061Y202334D02*
Y206534D01*
X106961D01*
X102061Y202334D02*
X106961D01*
Y206534D01*
X80910Y196840D02*
X81778D01*
X85842D02*
X86710D01*
X85842Y195366D02*
Y208320D01*
X81778Y195366D02*
X85842D01*
X81778D02*
Y208320D01*
X82479D01*
X85141D02*
X85842D01*
X82032D02*
Y209590D01*
X85588Y208320D02*
Y209590D01*
X80910Y209640D02*
X86710D01*
X80910D02*
X80910Y196840D01*
X86710Y209640D02*
X86710Y196840D01*
D34*
X16220Y31420D02*
X18263D01*
X11963D02*
X14209D01*
X9779Y20606D02*
X14209D01*
X16220D02*
X20726D01*
X96220Y31420D02*
X98263D01*
X91963D02*
X94209D01*
X89779Y20606D02*
X94209D01*
X96220D02*
X100726D01*
X16220Y78420D02*
X18263D01*
X11963D02*
X14209D01*
X9779Y67606D02*
X14209D01*
X16220D02*
X20726D01*
X96220Y78420D02*
X98263D01*
X91963D02*
X94209D01*
X89779Y67606D02*
X94209D01*
X96220D02*
X100726D01*
X16220Y125420D02*
X18263D01*
X11963D02*
X14209D01*
X9779Y114606D02*
X14209D01*
X16220D02*
X20726D01*
X96220Y125420D02*
X98263D01*
X91963D02*
X94209D01*
X89779Y114606D02*
X94209D01*
X96220D02*
X100726D01*
X16220Y172420D02*
X18263D01*
X11963D02*
X14209D01*
X9779Y161606D02*
X14209D01*
X16220D02*
X20726D01*
X96220Y172420D02*
X98263D01*
X91963D02*
X94209D01*
X89779Y161606D02*
X94209D01*
X96220D02*
X100726D01*
X16220Y219420D02*
X18263D01*
X11963D02*
X14209D01*
X9779Y208606D02*
X14209D01*
X16220D02*
X20726D01*
X96220Y219420D02*
X98263D01*
X91963D02*
X94209D01*
X89779Y208606D02*
X94209D01*
X96220D02*
X100726D01*
D35*
X33689Y12235D02*
Y17585D01*
X30065Y12235D02*
Y17585D01*
X39435Y12235D02*
Y17585D01*
X35811Y12235D02*
Y17585D01*
X113689Y12235D02*
Y17585D01*
X110065Y12235D02*
Y17585D01*
X119435Y12235D02*
Y17585D01*
X115811Y12235D02*
Y17585D01*
X33689Y59235D02*
Y64585D01*
X30065Y59235D02*
Y64585D01*
X39435Y59235D02*
Y64585D01*
X35811Y59235D02*
Y64585D01*
X113689Y59235D02*
Y64585D01*
X110065Y59235D02*
Y64585D01*
X119435Y59235D02*
Y64585D01*
X115811Y59235D02*
Y64585D01*
X33689Y106235D02*
Y111585D01*
X30065Y106235D02*
Y111585D01*
X39435Y106235D02*
Y111585D01*
X35811Y106235D02*
Y111585D01*
X113689Y106235D02*
Y111585D01*
X110065Y106235D02*
Y111585D01*
X119435Y106235D02*
Y111585D01*
X115811Y106235D02*
Y111585D01*
X33689Y153235D02*
Y158585D01*
X30065Y153235D02*
Y158585D01*
X39435Y153235D02*
Y158585D01*
X35811Y153235D02*
Y158585D01*
X113689Y153235D02*
Y158585D01*
X110065Y153235D02*
Y158585D01*
X119435Y153235D02*
Y158585D01*
X115811Y153235D02*
Y158585D01*
X33689Y200235D02*
Y205585D01*
X30065Y200235D02*
Y205585D01*
X39435Y200235D02*
Y205585D01*
X35811Y200235D02*
Y205585D01*
X113689Y200235D02*
Y205585D01*
X110065Y200235D02*
Y205585D01*
X119435Y200235D02*
Y205585D01*
X115811Y200235D02*
Y205585D01*
D36*
X32802Y36576D02*
X32705Y36527D01*
X32609Y36431D01*
X32560Y36334D01*
X32512Y36189D01*
Y35947D01*
X32560Y35802D01*
X32609Y35705D01*
X32705Y35608D01*
X32802Y35560D01*
X32996D01*
X33092Y35608D01*
X33189Y35705D01*
X33238Y35802D01*
X33286Y35947D01*
Y36189D01*
X33238Y36334D01*
X33189Y36431D01*
X33092Y36527D01*
X32996Y36576D01*
X32802D01*
X32947Y35753D02*
X33238Y35463D01*
X33571Y36334D02*
Y36382D01*
X33620Y36479D01*
X33668Y36527D01*
X33765Y36576D01*
X33958D01*
X34055Y36527D01*
X34103Y36479D01*
X34152Y36382D01*
Y36286D01*
X34103Y36189D01*
X34007Y36044D01*
X33523Y35560D01*
X34200D01*
X38838Y7874D02*
Y7100D01*
X38789Y6955D01*
X38741Y6906D01*
X38644Y6858D01*
X38547D01*
X38451Y6906D01*
X38402Y6955D01*
X38354Y7100D01*
Y7197D01*
X39099Y7342D02*
X39534D01*
X39679Y7390D01*
X39728Y7438D01*
X39776Y7535D01*
Y7680D01*
X39728Y7777D01*
X39679Y7825D01*
X39534Y7874D01*
X39099D01*
Y6858D01*
X40003Y7680D02*
X40100Y7729D01*
X40245Y7874D01*
Y6858D01*
X8043Y20175D02*
X7946Y20271D01*
X7801Y20320D01*
X7608D01*
X7463Y20271D01*
X7366Y20175D01*
Y20078D01*
X7414Y19981D01*
X7463Y19933D01*
X7559Y19884D01*
X7850Y19788D01*
X7946Y19739D01*
X7995Y19691D01*
X8043Y19594D01*
Y19449D01*
X7946Y19352D01*
X7801Y19304D01*
X7608D01*
X7463Y19352D01*
X7366Y19449D01*
X8319Y20078D02*
Y20126D01*
X8367Y20223D01*
X8416Y20271D01*
X8512Y20320D01*
X8706D01*
X8803Y20271D01*
X8851Y20223D01*
X8899Y20126D01*
Y20030D01*
X8851Y19933D01*
X8754Y19788D01*
X8271Y19304D01*
X8948D01*
X41148Y14224D02*
Y13208D01*
Y14224D02*
X41583D01*
X41728Y14175D01*
X41777Y14127D01*
X41825Y14030D01*
Y13934D01*
X41777Y13837D01*
X41728Y13788D01*
X41583Y13740D01*
X41148D01*
X41487D02*
X41825Y13208D01*
X42294Y14224D02*
X42149Y14175D01*
X42101Y14079D01*
Y13982D01*
X42149Y13885D01*
X42246Y13837D01*
X42439Y13788D01*
X42585Y13740D01*
X42681Y13643D01*
X42730Y13547D01*
Y13401D01*
X42681Y13305D01*
X42633Y13256D01*
X42488Y13208D01*
X42294D01*
X42149Y13256D01*
X42101Y13305D01*
X42053Y13401D01*
Y13547D01*
X42101Y13643D01*
X42198Y13740D01*
X42343Y13788D01*
X42536Y13837D01*
X42633Y13885D01*
X42681Y13982D01*
Y14079D01*
X42633Y14175D01*
X42488Y14224D01*
X42294D01*
X41656Y29718D02*
Y28702D01*
Y29718D02*
X42091D01*
X42236Y29669D01*
X42285Y29621D01*
X42333Y29524D01*
Y29428D01*
X42285Y29331D01*
X42236Y29282D01*
X42091Y29234D01*
X41656D01*
X41995D02*
X42333Y28702D01*
X43238Y29718D02*
X42754Y28702D01*
X42561Y29718D02*
X43238D01*
X41910Y32512D02*
Y31496D01*
Y32512D02*
X42345D01*
X42490Y32463D01*
X42539Y32415D01*
X42587Y32318D01*
Y32222D01*
X42539Y32125D01*
X42490Y32076D01*
X42345Y32028D01*
X41910D01*
X42249D02*
X42587Y31496D01*
X43395Y32367D02*
X43347Y32463D01*
X43201Y32512D01*
X43105D01*
X42960Y32463D01*
X42863Y32318D01*
X42815Y32076D01*
Y31835D01*
X42863Y31641D01*
X42960Y31544D01*
X43105Y31496D01*
X43153D01*
X43298Y31544D01*
X43395Y31641D01*
X43443Y31786D01*
Y31835D01*
X43395Y31980D01*
X43298Y32076D01*
X43153Y32125D01*
X43105D01*
X42960Y32076D01*
X42863Y31980D01*
X42815Y31835D01*
X17272Y33528D02*
Y32512D01*
Y33528D02*
X17707D01*
X17852Y33479D01*
X17901Y33431D01*
X17949Y33334D01*
Y33238D01*
X17901Y33141D01*
X17852Y33092D01*
X17707Y33044D01*
X17272D01*
X17611D02*
X17949Y32512D01*
X18757Y33528D02*
X18273D01*
X18225Y33092D01*
X18273Y33141D01*
X18418Y33189D01*
X18563D01*
X18709Y33141D01*
X18805Y33044D01*
X18854Y32899D01*
Y32802D01*
X18805Y32657D01*
X18709Y32560D01*
X18563Y32512D01*
X18418D01*
X18273Y32560D01*
X18225Y32609D01*
X18177Y32705D01*
X22606Y39878D02*
Y38862D01*
Y39878D02*
X23041D01*
X23186Y39829D01*
X23235Y39781D01*
X23283Y39684D01*
Y39588D01*
X23235Y39491D01*
X23186Y39442D01*
X23041Y39394D01*
X22606D01*
X22945D02*
X23283Y38862D01*
X23994Y39878D02*
X23511Y39201D01*
X24236D01*
X23994Y39878D02*
Y38862D01*
X22630Y34798D02*
Y33782D01*
Y34798D02*
X23066D01*
X23211Y34749D01*
X23259Y34701D01*
X23307Y34604D01*
Y34508D01*
X23259Y34411D01*
X23211Y34362D01*
X23066Y34314D01*
X22630D01*
X22969D02*
X23307Y33782D01*
X23631Y34798D02*
X24164D01*
X23873Y34411D01*
X24018D01*
X24115Y34362D01*
X24164Y34314D01*
X24212Y34169D01*
Y34072D01*
X24164Y33927D01*
X24067Y33830D01*
X23922Y33782D01*
X23777D01*
X23631Y33830D01*
X23583Y33879D01*
X23535Y33975D01*
X30226Y25146D02*
Y24130D01*
Y25146D02*
X30661D01*
X30806Y25097D01*
X30855Y25049D01*
X30903Y24952D01*
Y24856D01*
X30855Y24759D01*
X30806Y24710D01*
X30661Y24662D01*
X30226D01*
X30565D02*
X30903Y24130D01*
X31179Y24904D02*
Y24952D01*
X31227Y25049D01*
X31276Y25097D01*
X31372Y25146D01*
X31566D01*
X31663Y25097D01*
X31711Y25049D01*
X31759Y24952D01*
Y24856D01*
X31711Y24759D01*
X31614Y24614D01*
X31131Y24130D01*
X31808D01*
X30480Y29972D02*
Y28956D01*
Y29972D02*
X30915D01*
X31060Y29923D01*
X31109Y29875D01*
X31157Y29778D01*
Y29682D01*
X31109Y29585D01*
X31060Y29536D01*
X30915Y29488D01*
X30480D01*
X30819D02*
X31157Y28956D01*
X31385Y29778D02*
X31481Y29827D01*
X31626Y29972D01*
Y28956D01*
X36866Y41148D02*
X36769Y41099D01*
X36673Y41003D01*
X36624Y40906D01*
X36576Y40761D01*
Y40519D01*
X36624Y40374D01*
X36673Y40277D01*
X36769Y40180D01*
X36866Y40132D01*
X37060D01*
X37156Y40180D01*
X37253Y40277D01*
X37302Y40374D01*
X37350Y40519D01*
Y40761D01*
X37302Y40906D01*
X37253Y41003D01*
X37156Y41099D01*
X37060Y41148D01*
X36866D01*
X37011Y40325D02*
X37302Y40035D01*
X37684Y41148D02*
X38216D01*
X37926Y40761D01*
X38071D01*
X38167Y40712D01*
X38216Y40664D01*
X38264Y40519D01*
Y40422D01*
X38216Y40277D01*
X38119Y40180D01*
X37974Y40132D01*
X37829D01*
X37684Y40180D01*
X37635Y40229D01*
X37587Y40325D01*
X36612Y29718D02*
X36515Y29669D01*
X36419Y29573D01*
X36370Y29476D01*
X36322Y29331D01*
Y29089D01*
X36370Y28944D01*
X36419Y28847D01*
X36515Y28750D01*
X36612Y28702D01*
X36806D01*
X36902Y28750D01*
X36999Y28847D01*
X37048Y28944D01*
X37096Y29089D01*
Y29331D01*
X37048Y29476D01*
X36999Y29573D01*
X36902Y29669D01*
X36806Y29718D01*
X36612D01*
X36757Y28895D02*
X37048Y28605D01*
X37333Y29524D02*
X37430Y29573D01*
X37575Y29718D01*
Y28702D01*
X20042Y11430D02*
Y10656D01*
X19993Y10511D01*
X19945Y10462D01*
X19848Y10414D01*
X19751D01*
X19655Y10462D01*
X19606Y10511D01*
X19558Y10656D01*
Y10753D01*
X20351Y11188D02*
Y11236D01*
X20400Y11333D01*
X20448Y11381D01*
X20545Y11430D01*
X20738D01*
X20835Y11381D01*
X20883Y11333D01*
X20932Y11236D01*
Y11140D01*
X20883Y11043D01*
X20787Y10898D01*
X20303Y10414D01*
X20980D01*
X47728Y11430D02*
Y10656D01*
X47679Y10511D01*
X47631Y10462D01*
X47534Y10414D01*
X47437D01*
X47341Y10462D01*
X47292Y10511D01*
X47244Y10656D01*
Y10753D01*
X47989Y11236D02*
X48086Y11285D01*
X48231Y11430D01*
Y10414D01*
X39624Y37846D02*
Y36830D01*
Y37846D02*
X39963D01*
X40108Y37797D01*
X40204Y37701D01*
X40253Y37604D01*
X40301Y37459D01*
Y37217D01*
X40253Y37072D01*
X40204Y36975D01*
X40108Y36878D01*
X39963Y36830D01*
X39624D01*
X41012Y37846D02*
X40529Y37169D01*
X41254D01*
X41012Y37846D02*
Y36830D01*
X30170Y19990D02*
Y18974D01*
Y19990D02*
X30508D01*
X30653Y19941D01*
X30750Y19844D01*
X30798Y19748D01*
X30847Y19603D01*
Y19361D01*
X30798Y19216D01*
X30750Y19119D01*
X30653Y19022D01*
X30508Y18974D01*
X30170D01*
X31122Y19748D02*
Y19796D01*
X31171Y19893D01*
X31219Y19941D01*
X31316Y19990D01*
X31509D01*
X31606Y19941D01*
X31655Y19893D01*
X31703Y19796D01*
Y19699D01*
X31655Y19603D01*
X31558Y19458D01*
X31074Y18974D01*
X31751D01*
X35910Y19990D02*
Y18974D01*
Y19990D02*
X36249D01*
X36394Y19941D01*
X36490Y19844D01*
X36539Y19748D01*
X36587Y19603D01*
Y19361D01*
X36539Y19216D01*
X36490Y19119D01*
X36394Y19022D01*
X36249Y18974D01*
X35910D01*
X36815Y19796D02*
X36911Y19844D01*
X37056Y19990D01*
Y18974D01*
X9870Y32016D02*
X9821Y32113D01*
X9724Y32209D01*
X9628Y32258D01*
X9434D01*
X9337Y32209D01*
X9241Y32113D01*
X9192Y32016D01*
X9144Y31871D01*
Y31629D01*
X9192Y31484D01*
X9241Y31387D01*
X9337Y31290D01*
X9434Y31242D01*
X9628D01*
X9724Y31290D01*
X9821Y31387D01*
X9870Y31484D01*
X10155Y32064D02*
X10252Y32113D01*
X10397Y32258D01*
Y31242D01*
X22098Y22606D02*
Y21590D01*
Y22606D02*
X22533D01*
X22678Y22557D01*
X22727Y22509D01*
X22775Y22412D01*
Y22316D01*
X22727Y22219D01*
X22678Y22170D01*
X22533Y22122D01*
X22098D02*
X22533D01*
X22678Y22074D01*
X22727Y22025D01*
X22775Y21929D01*
Y21783D01*
X22727Y21687D01*
X22678Y21638D01*
X22533Y21590D01*
X22098D01*
X23003Y22606D02*
Y21590D01*
Y22606D02*
X23341D01*
X23486Y22557D01*
X23583Y22461D01*
X23631Y22364D01*
X23680Y22219D01*
Y21977D01*
X23631Y21832D01*
X23583Y21735D01*
X23486Y21638D01*
X23341Y21590D01*
X23003D01*
X23907Y22412D02*
X24004Y22461D01*
X24149Y22606D01*
Y21590D01*
X112802Y36576D02*
X112705Y36527D01*
X112609Y36431D01*
X112560Y36334D01*
X112512Y36189D01*
Y35947D01*
X112560Y35802D01*
X112609Y35705D01*
X112705Y35608D01*
X112802Y35560D01*
X112996D01*
X113092Y35608D01*
X113189Y35705D01*
X113238Y35802D01*
X113286Y35947D01*
Y36189D01*
X113238Y36334D01*
X113189Y36431D01*
X113092Y36527D01*
X112996Y36576D01*
X112802D01*
X112947Y35753D02*
X113238Y35463D01*
X113571Y36334D02*
Y36382D01*
X113620Y36479D01*
X113668Y36527D01*
X113765Y36576D01*
X113958D01*
X114055Y36527D01*
X114103Y36479D01*
X114152Y36382D01*
Y36286D01*
X114103Y36189D01*
X114007Y36044D01*
X113523Y35560D01*
X114200D01*
X118838Y7874D02*
Y7100D01*
X118789Y6955D01*
X118741Y6906D01*
X118644Y6858D01*
X118547D01*
X118451Y6906D01*
X118402Y6955D01*
X118354Y7100D01*
Y7197D01*
X119099Y7342D02*
X119534D01*
X119679Y7390D01*
X119728Y7438D01*
X119776Y7535D01*
Y7680D01*
X119728Y7777D01*
X119679Y7825D01*
X119534Y7874D01*
X119099D01*
Y6858D01*
X120003Y7680D02*
X120100Y7729D01*
X120245Y7874D01*
Y6858D01*
X88043Y20175D02*
X87946Y20271D01*
X87801Y20320D01*
X87608D01*
X87463Y20271D01*
X87366Y20175D01*
Y20078D01*
X87414Y19981D01*
X87463Y19933D01*
X87559Y19884D01*
X87850Y19788D01*
X87946Y19739D01*
X87995Y19691D01*
X88043Y19594D01*
Y19449D01*
X87946Y19352D01*
X87801Y19304D01*
X87608D01*
X87463Y19352D01*
X87366Y19449D01*
X88319Y20078D02*
Y20126D01*
X88367Y20223D01*
X88416Y20271D01*
X88512Y20320D01*
X88706D01*
X88803Y20271D01*
X88851Y20223D01*
X88899Y20126D01*
Y20030D01*
X88851Y19933D01*
X88754Y19788D01*
X88271Y19304D01*
X88948D01*
X121148Y14224D02*
Y13208D01*
Y14224D02*
X121583D01*
X121728Y14175D01*
X121777Y14127D01*
X121825Y14030D01*
Y13934D01*
X121777Y13837D01*
X121728Y13788D01*
X121583Y13740D01*
X121148D01*
X121487D02*
X121825Y13208D01*
X122294Y14224D02*
X122149Y14175D01*
X122101Y14079D01*
Y13982D01*
X122149Y13885D01*
X122246Y13837D01*
X122439Y13788D01*
X122585Y13740D01*
X122681Y13643D01*
X122730Y13547D01*
Y13401D01*
X122681Y13305D01*
X122633Y13256D01*
X122488Y13208D01*
X122294D01*
X122149Y13256D01*
X122101Y13305D01*
X122053Y13401D01*
Y13547D01*
X122101Y13643D01*
X122198Y13740D01*
X122343Y13788D01*
X122536Y13837D01*
X122633Y13885D01*
X122681Y13982D01*
Y14079D01*
X122633Y14175D01*
X122488Y14224D01*
X122294D01*
X121656Y29718D02*
Y28702D01*
Y29718D02*
X122091D01*
X122236Y29669D01*
X122285Y29621D01*
X122333Y29524D01*
Y29428D01*
X122285Y29331D01*
X122236Y29282D01*
X122091Y29234D01*
X121656D01*
X121995D02*
X122333Y28702D01*
X123238Y29718D02*
X122754Y28702D01*
X122561Y29718D02*
X123238D01*
X121910Y32512D02*
Y31496D01*
Y32512D02*
X122345D01*
X122490Y32463D01*
X122539Y32415D01*
X122587Y32318D01*
Y32222D01*
X122539Y32125D01*
X122490Y32076D01*
X122345Y32028D01*
X121910D01*
X122249D02*
X122587Y31496D01*
X123395Y32367D02*
X123347Y32463D01*
X123201Y32512D01*
X123105D01*
X122960Y32463D01*
X122863Y32318D01*
X122815Y32076D01*
Y31835D01*
X122863Y31641D01*
X122960Y31544D01*
X123105Y31496D01*
X123153D01*
X123298Y31544D01*
X123395Y31641D01*
X123443Y31786D01*
Y31835D01*
X123395Y31980D01*
X123298Y32076D01*
X123153Y32125D01*
X123105D01*
X122960Y32076D01*
X122863Y31980D01*
X122815Y31835D01*
X97272Y33528D02*
Y32512D01*
Y33528D02*
X97707D01*
X97852Y33479D01*
X97901Y33431D01*
X97949Y33334D01*
Y33238D01*
X97901Y33141D01*
X97852Y33092D01*
X97707Y33044D01*
X97272D01*
X97611D02*
X97949Y32512D01*
X98757Y33528D02*
X98273D01*
X98225Y33092D01*
X98273Y33141D01*
X98418Y33189D01*
X98563D01*
X98709Y33141D01*
X98805Y33044D01*
X98854Y32899D01*
Y32802D01*
X98805Y32657D01*
X98709Y32560D01*
X98563Y32512D01*
X98418D01*
X98273Y32560D01*
X98225Y32609D01*
X98177Y32705D01*
X102606Y39878D02*
Y38862D01*
Y39878D02*
X103041D01*
X103186Y39829D01*
X103235Y39781D01*
X103283Y39684D01*
Y39588D01*
X103235Y39491D01*
X103186Y39442D01*
X103041Y39394D01*
X102606D01*
X102945D02*
X103283Y38862D01*
X103994Y39878D02*
X103511Y39201D01*
X104236D01*
X103994Y39878D02*
Y38862D01*
X102630Y34798D02*
Y33782D01*
Y34798D02*
X103066D01*
X103211Y34749D01*
X103259Y34701D01*
X103307Y34604D01*
Y34508D01*
X103259Y34411D01*
X103211Y34362D01*
X103066Y34314D01*
X102630D01*
X102969D02*
X103307Y33782D01*
X103631Y34798D02*
X104164D01*
X103873Y34411D01*
X104018D01*
X104115Y34362D01*
X104164Y34314D01*
X104212Y34169D01*
Y34072D01*
X104164Y33927D01*
X104067Y33830D01*
X103922Y33782D01*
X103777D01*
X103631Y33830D01*
X103583Y33879D01*
X103535Y33975D01*
X110226Y25146D02*
Y24130D01*
Y25146D02*
X110661D01*
X110806Y25097D01*
X110855Y25049D01*
X110903Y24952D01*
Y24856D01*
X110855Y24759D01*
X110806Y24710D01*
X110661Y24662D01*
X110226D01*
X110565D02*
X110903Y24130D01*
X111179Y24904D02*
Y24952D01*
X111227Y25049D01*
X111276Y25097D01*
X111372Y25146D01*
X111566D01*
X111663Y25097D01*
X111711Y25049D01*
X111759Y24952D01*
Y24856D01*
X111711Y24759D01*
X111614Y24614D01*
X111131Y24130D01*
X111808D01*
X110480Y29972D02*
Y28956D01*
Y29972D02*
X110915D01*
X111060Y29923D01*
X111109Y29875D01*
X111157Y29778D01*
Y29682D01*
X111109Y29585D01*
X111060Y29536D01*
X110915Y29488D01*
X110480D01*
X110819D02*
X111157Y28956D01*
X111385Y29778D02*
X111481Y29827D01*
X111626Y29972D01*
Y28956D01*
X116866Y41148D02*
X116769Y41099D01*
X116673Y41003D01*
X116624Y40906D01*
X116576Y40761D01*
Y40519D01*
X116624Y40374D01*
X116673Y40277D01*
X116769Y40180D01*
X116866Y40132D01*
X117060D01*
X117156Y40180D01*
X117253Y40277D01*
X117302Y40374D01*
X117350Y40519D01*
Y40761D01*
X117302Y40906D01*
X117253Y41003D01*
X117156Y41099D01*
X117060Y41148D01*
X116866D01*
X117011Y40325D02*
X117302Y40035D01*
X117684Y41148D02*
X118216D01*
X117926Y40761D01*
X118071D01*
X118167Y40712D01*
X118216Y40664D01*
X118264Y40519D01*
Y40422D01*
X118216Y40277D01*
X118119Y40180D01*
X117974Y40132D01*
X117829D01*
X117684Y40180D01*
X117635Y40229D01*
X117587Y40325D01*
X116612Y29718D02*
X116515Y29669D01*
X116419Y29573D01*
X116370Y29476D01*
X116322Y29331D01*
Y29089D01*
X116370Y28944D01*
X116419Y28847D01*
X116515Y28750D01*
X116612Y28702D01*
X116806D01*
X116902Y28750D01*
X116999Y28847D01*
X117048Y28944D01*
X117096Y29089D01*
Y29331D01*
X117048Y29476D01*
X116999Y29573D01*
X116902Y29669D01*
X116806Y29718D01*
X116612D01*
X116757Y28895D02*
X117048Y28605D01*
X117333Y29524D02*
X117430Y29573D01*
X117575Y29718D01*
Y28702D01*
X100042Y11430D02*
Y10656D01*
X99993Y10511D01*
X99945Y10462D01*
X99848Y10414D01*
X99751D01*
X99655Y10462D01*
X99606Y10511D01*
X99558Y10656D01*
Y10753D01*
X100351Y11188D02*
Y11236D01*
X100400Y11333D01*
X100448Y11381D01*
X100545Y11430D01*
X100738D01*
X100835Y11381D01*
X100883Y11333D01*
X100932Y11236D01*
Y11140D01*
X100883Y11043D01*
X100787Y10898D01*
X100303Y10414D01*
X100980D01*
X127728Y11430D02*
Y10656D01*
X127679Y10511D01*
X127631Y10462D01*
X127534Y10414D01*
X127437D01*
X127341Y10462D01*
X127292Y10511D01*
X127244Y10656D01*
Y10753D01*
X127989Y11236D02*
X128086Y11285D01*
X128231Y11430D01*
Y10414D01*
X119624Y37846D02*
Y36830D01*
Y37846D02*
X119963D01*
X120108Y37797D01*
X120204Y37701D01*
X120253Y37604D01*
X120301Y37459D01*
Y37217D01*
X120253Y37072D01*
X120204Y36975D01*
X120108Y36878D01*
X119963Y36830D01*
X119624D01*
X121012Y37846D02*
X120529Y37169D01*
X121254D01*
X121012Y37846D02*
Y36830D01*
X110170Y19990D02*
Y18974D01*
Y19990D02*
X110508D01*
X110653Y19941D01*
X110750Y19844D01*
X110798Y19748D01*
X110847Y19603D01*
Y19361D01*
X110798Y19216D01*
X110750Y19119D01*
X110653Y19022D01*
X110508Y18974D01*
X110170D01*
X111122Y19748D02*
Y19796D01*
X111171Y19893D01*
X111219Y19941D01*
X111316Y19990D01*
X111509D01*
X111606Y19941D01*
X111655Y19893D01*
X111703Y19796D01*
Y19699D01*
X111655Y19603D01*
X111558Y19458D01*
X111074Y18974D01*
X111751D01*
X115910Y19990D02*
Y18974D01*
Y19990D02*
X116249D01*
X116394Y19941D01*
X116490Y19844D01*
X116539Y19748D01*
X116587Y19603D01*
Y19361D01*
X116539Y19216D01*
X116490Y19119D01*
X116394Y19022D01*
X116249Y18974D01*
X115910D01*
X116815Y19796D02*
X116911Y19844D01*
X117056Y19990D01*
Y18974D01*
X89870Y32016D02*
X89821Y32113D01*
X89724Y32209D01*
X89628Y32258D01*
X89434D01*
X89337Y32209D01*
X89241Y32113D01*
X89192Y32016D01*
X89144Y31871D01*
Y31629D01*
X89192Y31484D01*
X89241Y31387D01*
X89337Y31290D01*
X89434Y31242D01*
X89628D01*
X89724Y31290D01*
X89821Y31387D01*
X89870Y31484D01*
X90155Y32064D02*
X90252Y32113D01*
X90397Y32258D01*
Y31242D01*
X102098Y22606D02*
Y21590D01*
Y22606D02*
X102533D01*
X102678Y22557D01*
X102727Y22509D01*
X102775Y22412D01*
Y22316D01*
X102727Y22219D01*
X102678Y22170D01*
X102533Y22122D01*
X102098D02*
X102533D01*
X102678Y22074D01*
X102727Y22025D01*
X102775Y21929D01*
Y21783D01*
X102727Y21687D01*
X102678Y21638D01*
X102533Y21590D01*
X102098D01*
X103003Y22606D02*
Y21590D01*
Y22606D02*
X103341D01*
X103486Y22557D01*
X103583Y22461D01*
X103631Y22364D01*
X103680Y22219D01*
Y21977D01*
X103631Y21832D01*
X103583Y21735D01*
X103486Y21638D01*
X103341Y21590D01*
X103003D01*
X103907Y22412D02*
X104004Y22461D01*
X104149Y22606D01*
Y21590D01*
X32802Y83576D02*
X32705Y83527D01*
X32609Y83431D01*
X32560Y83334D01*
X32512Y83189D01*
Y82947D01*
X32560Y82802D01*
X32609Y82705D01*
X32705Y82608D01*
X32802Y82560D01*
X32996D01*
X33092Y82608D01*
X33189Y82705D01*
X33238Y82802D01*
X33286Y82947D01*
Y83189D01*
X33238Y83334D01*
X33189Y83431D01*
X33092Y83527D01*
X32996Y83576D01*
X32802D01*
X32947Y82753D02*
X33238Y82463D01*
X33571Y83334D02*
Y83382D01*
X33620Y83479D01*
X33668Y83527D01*
X33765Y83576D01*
X33958D01*
X34055Y83527D01*
X34103Y83479D01*
X34152Y83382D01*
Y83286D01*
X34103Y83189D01*
X34007Y83044D01*
X33523Y82560D01*
X34200D01*
X38838Y54874D02*
Y54100D01*
X38789Y53955D01*
X38741Y53906D01*
X38644Y53858D01*
X38547D01*
X38451Y53906D01*
X38402Y53955D01*
X38354Y54100D01*
Y54197D01*
X39099Y54342D02*
X39534D01*
X39679Y54390D01*
X39728Y54438D01*
X39776Y54535D01*
Y54680D01*
X39728Y54777D01*
X39679Y54825D01*
X39534Y54874D01*
X39099D01*
Y53858D01*
X40003Y54680D02*
X40100Y54729D01*
X40245Y54874D01*
Y53858D01*
X8043Y67175D02*
X7946Y67271D01*
X7801Y67320D01*
X7608D01*
X7463Y67271D01*
X7366Y67175D01*
Y67078D01*
X7414Y66981D01*
X7463Y66933D01*
X7559Y66884D01*
X7850Y66788D01*
X7946Y66739D01*
X7995Y66691D01*
X8043Y66594D01*
Y66449D01*
X7946Y66352D01*
X7801Y66304D01*
X7608D01*
X7463Y66352D01*
X7366Y66449D01*
X8319Y67078D02*
Y67126D01*
X8367Y67223D01*
X8416Y67271D01*
X8512Y67320D01*
X8706D01*
X8803Y67271D01*
X8851Y67223D01*
X8899Y67126D01*
Y67030D01*
X8851Y66933D01*
X8754Y66788D01*
X8271Y66304D01*
X8948D01*
X41148Y61224D02*
Y60208D01*
Y61224D02*
X41583D01*
X41728Y61175D01*
X41777Y61127D01*
X41825Y61030D01*
Y60934D01*
X41777Y60837D01*
X41728Y60788D01*
X41583Y60740D01*
X41148D01*
X41487D02*
X41825Y60208D01*
X42294Y61224D02*
X42149Y61175D01*
X42101Y61079D01*
Y60982D01*
X42149Y60885D01*
X42246Y60837D01*
X42439Y60788D01*
X42585Y60740D01*
X42681Y60643D01*
X42730Y60547D01*
Y60401D01*
X42681Y60305D01*
X42633Y60256D01*
X42488Y60208D01*
X42294D01*
X42149Y60256D01*
X42101Y60305D01*
X42053Y60401D01*
Y60547D01*
X42101Y60643D01*
X42198Y60740D01*
X42343Y60788D01*
X42536Y60837D01*
X42633Y60885D01*
X42681Y60982D01*
Y61079D01*
X42633Y61175D01*
X42488Y61224D01*
X42294D01*
X41656Y76718D02*
Y75702D01*
Y76718D02*
X42091D01*
X42236Y76669D01*
X42285Y76621D01*
X42333Y76524D01*
Y76428D01*
X42285Y76331D01*
X42236Y76282D01*
X42091Y76234D01*
X41656D01*
X41995D02*
X42333Y75702D01*
X43238Y76718D02*
X42754Y75702D01*
X42561Y76718D02*
X43238D01*
X41910Y79512D02*
Y78496D01*
Y79512D02*
X42345D01*
X42490Y79463D01*
X42539Y79415D01*
X42587Y79318D01*
Y79222D01*
X42539Y79125D01*
X42490Y79076D01*
X42345Y79028D01*
X41910D01*
X42249D02*
X42587Y78496D01*
X43395Y79367D02*
X43347Y79463D01*
X43201Y79512D01*
X43105D01*
X42960Y79463D01*
X42863Y79318D01*
X42815Y79076D01*
Y78835D01*
X42863Y78641D01*
X42960Y78544D01*
X43105Y78496D01*
X43153D01*
X43298Y78544D01*
X43395Y78641D01*
X43443Y78786D01*
Y78835D01*
X43395Y78980D01*
X43298Y79076D01*
X43153Y79125D01*
X43105D01*
X42960Y79076D01*
X42863Y78980D01*
X42815Y78835D01*
X17272Y80528D02*
Y79512D01*
Y80528D02*
X17707D01*
X17852Y80479D01*
X17901Y80431D01*
X17949Y80334D01*
Y80238D01*
X17901Y80141D01*
X17852Y80092D01*
X17707Y80044D01*
X17272D01*
X17611D02*
X17949Y79512D01*
X18757Y80528D02*
X18273D01*
X18225Y80092D01*
X18273Y80141D01*
X18418Y80189D01*
X18563D01*
X18709Y80141D01*
X18805Y80044D01*
X18854Y79899D01*
Y79802D01*
X18805Y79657D01*
X18709Y79560D01*
X18563Y79512D01*
X18418D01*
X18273Y79560D01*
X18225Y79609D01*
X18177Y79705D01*
X22606Y86878D02*
Y85862D01*
Y86878D02*
X23041D01*
X23186Y86829D01*
X23235Y86781D01*
X23283Y86684D01*
Y86588D01*
X23235Y86491D01*
X23186Y86442D01*
X23041Y86394D01*
X22606D01*
X22945D02*
X23283Y85862D01*
X23994Y86878D02*
X23511Y86201D01*
X24236D01*
X23994Y86878D02*
Y85862D01*
X22630Y81798D02*
Y80782D01*
Y81798D02*
X23066D01*
X23211Y81749D01*
X23259Y81701D01*
X23307Y81604D01*
Y81508D01*
X23259Y81411D01*
X23211Y81362D01*
X23066Y81314D01*
X22630D01*
X22969D02*
X23307Y80782D01*
X23631Y81798D02*
X24164D01*
X23873Y81411D01*
X24018D01*
X24115Y81362D01*
X24164Y81314D01*
X24212Y81169D01*
Y81072D01*
X24164Y80927D01*
X24067Y80830D01*
X23922Y80782D01*
X23777D01*
X23631Y80830D01*
X23583Y80879D01*
X23535Y80975D01*
X30226Y72146D02*
Y71130D01*
Y72146D02*
X30661D01*
X30806Y72097D01*
X30855Y72049D01*
X30903Y71952D01*
Y71856D01*
X30855Y71759D01*
X30806Y71710D01*
X30661Y71662D01*
X30226D01*
X30565D02*
X30903Y71130D01*
X31179Y71904D02*
Y71952D01*
X31227Y72049D01*
X31276Y72097D01*
X31372Y72146D01*
X31566D01*
X31663Y72097D01*
X31711Y72049D01*
X31759Y71952D01*
Y71856D01*
X31711Y71759D01*
X31614Y71614D01*
X31131Y71130D01*
X31808D01*
X30480Y76972D02*
Y75956D01*
Y76972D02*
X30915D01*
X31060Y76923D01*
X31109Y76875D01*
X31157Y76778D01*
Y76682D01*
X31109Y76585D01*
X31060Y76536D01*
X30915Y76488D01*
X30480D01*
X30819D02*
X31157Y75956D01*
X31385Y76778D02*
X31481Y76827D01*
X31626Y76972D01*
Y75956D01*
X36866Y88148D02*
X36769Y88099D01*
X36673Y88003D01*
X36624Y87906D01*
X36576Y87761D01*
Y87519D01*
X36624Y87374D01*
X36673Y87277D01*
X36769Y87180D01*
X36866Y87132D01*
X37060D01*
X37156Y87180D01*
X37253Y87277D01*
X37302Y87374D01*
X37350Y87519D01*
Y87761D01*
X37302Y87906D01*
X37253Y88003D01*
X37156Y88099D01*
X37060Y88148D01*
X36866D01*
X37011Y87325D02*
X37302Y87035D01*
X37684Y88148D02*
X38216D01*
X37926Y87761D01*
X38071D01*
X38167Y87712D01*
X38216Y87664D01*
X38264Y87519D01*
Y87422D01*
X38216Y87277D01*
X38119Y87180D01*
X37974Y87132D01*
X37829D01*
X37684Y87180D01*
X37635Y87229D01*
X37587Y87325D01*
X36612Y76718D02*
X36515Y76669D01*
X36419Y76573D01*
X36370Y76476D01*
X36322Y76331D01*
Y76089D01*
X36370Y75944D01*
X36419Y75847D01*
X36515Y75750D01*
X36612Y75702D01*
X36806D01*
X36902Y75750D01*
X36999Y75847D01*
X37048Y75944D01*
X37096Y76089D01*
Y76331D01*
X37048Y76476D01*
X36999Y76573D01*
X36902Y76669D01*
X36806Y76718D01*
X36612D01*
X36757Y75895D02*
X37048Y75605D01*
X37333Y76524D02*
X37430Y76573D01*
X37575Y76718D01*
Y75702D01*
X20042Y58430D02*
Y57656D01*
X19993Y57511D01*
X19945Y57462D01*
X19848Y57414D01*
X19751D01*
X19655Y57462D01*
X19606Y57511D01*
X19558Y57656D01*
Y57753D01*
X20351Y58188D02*
Y58236D01*
X20400Y58333D01*
X20448Y58381D01*
X20545Y58430D01*
X20738D01*
X20835Y58381D01*
X20883Y58333D01*
X20932Y58236D01*
Y58140D01*
X20883Y58043D01*
X20787Y57898D01*
X20303Y57414D01*
X20980D01*
X47728Y58430D02*
Y57656D01*
X47679Y57511D01*
X47631Y57462D01*
X47534Y57414D01*
X47437D01*
X47341Y57462D01*
X47292Y57511D01*
X47244Y57656D01*
Y57753D01*
X47989Y58236D02*
X48086Y58285D01*
X48231Y58430D01*
Y57414D01*
X39624Y84846D02*
Y83830D01*
Y84846D02*
X39963D01*
X40108Y84797D01*
X40204Y84701D01*
X40253Y84604D01*
X40301Y84459D01*
Y84217D01*
X40253Y84072D01*
X40204Y83975D01*
X40108Y83878D01*
X39963Y83830D01*
X39624D01*
X41012Y84846D02*
X40529Y84169D01*
X41254D01*
X41012Y84846D02*
Y83830D01*
X30170Y66990D02*
Y65974D01*
Y66990D02*
X30508D01*
X30653Y66941D01*
X30750Y66844D01*
X30798Y66748D01*
X30847Y66603D01*
Y66361D01*
X30798Y66216D01*
X30750Y66119D01*
X30653Y66022D01*
X30508Y65974D01*
X30170D01*
X31122Y66748D02*
Y66796D01*
X31171Y66893D01*
X31219Y66941D01*
X31316Y66990D01*
X31509D01*
X31606Y66941D01*
X31655Y66893D01*
X31703Y66796D01*
Y66699D01*
X31655Y66603D01*
X31558Y66457D01*
X31074Y65974D01*
X31751D01*
X35910Y66990D02*
Y65974D01*
Y66990D02*
X36249D01*
X36394Y66941D01*
X36490Y66844D01*
X36539Y66748D01*
X36587Y66603D01*
Y66361D01*
X36539Y66216D01*
X36490Y66119D01*
X36394Y66022D01*
X36249Y65974D01*
X35910D01*
X36815Y66796D02*
X36911Y66844D01*
X37056Y66990D01*
Y65974D01*
X9870Y79016D02*
X9821Y79113D01*
X9724Y79209D01*
X9628Y79258D01*
X9434D01*
X9337Y79209D01*
X9241Y79113D01*
X9192Y79016D01*
X9144Y78871D01*
Y78629D01*
X9192Y78484D01*
X9241Y78387D01*
X9337Y78290D01*
X9434Y78242D01*
X9628D01*
X9724Y78290D01*
X9821Y78387D01*
X9870Y78484D01*
X10155Y79064D02*
X10252Y79113D01*
X10397Y79258D01*
Y78242D01*
X22098Y69606D02*
Y68590D01*
Y69606D02*
X22533D01*
X22678Y69557D01*
X22727Y69509D01*
X22775Y69412D01*
Y69316D01*
X22727Y69219D01*
X22678Y69170D01*
X22533Y69122D01*
X22098D02*
X22533D01*
X22678Y69074D01*
X22727Y69025D01*
X22775Y68929D01*
Y68783D01*
X22727Y68687D01*
X22678Y68638D01*
X22533Y68590D01*
X22098D01*
X23003Y69606D02*
Y68590D01*
Y69606D02*
X23341D01*
X23486Y69557D01*
X23583Y69461D01*
X23631Y69364D01*
X23680Y69219D01*
Y68977D01*
X23631Y68832D01*
X23583Y68735D01*
X23486Y68638D01*
X23341Y68590D01*
X23003D01*
X23907Y69412D02*
X24004Y69461D01*
X24149Y69606D01*
Y68590D01*
X112802Y83576D02*
X112705Y83527D01*
X112609Y83431D01*
X112560Y83334D01*
X112512Y83189D01*
Y82947D01*
X112560Y82802D01*
X112609Y82705D01*
X112705Y82608D01*
X112802Y82560D01*
X112996D01*
X113092Y82608D01*
X113189Y82705D01*
X113238Y82802D01*
X113286Y82947D01*
Y83189D01*
X113238Y83334D01*
X113189Y83431D01*
X113092Y83527D01*
X112996Y83576D01*
X112802D01*
X112947Y82753D02*
X113238Y82463D01*
X113571Y83334D02*
Y83382D01*
X113620Y83479D01*
X113668Y83527D01*
X113765Y83576D01*
X113958D01*
X114055Y83527D01*
X114103Y83479D01*
X114152Y83382D01*
Y83286D01*
X114103Y83189D01*
X114007Y83044D01*
X113523Y82560D01*
X114200D01*
X118838Y54874D02*
Y54100D01*
X118789Y53955D01*
X118741Y53906D01*
X118644Y53858D01*
X118547D01*
X118451Y53906D01*
X118402Y53955D01*
X118354Y54100D01*
Y54197D01*
X119099Y54342D02*
X119534D01*
X119679Y54390D01*
X119728Y54438D01*
X119776Y54535D01*
Y54680D01*
X119728Y54777D01*
X119679Y54825D01*
X119534Y54874D01*
X119099D01*
Y53858D01*
X120003Y54680D02*
X120100Y54729D01*
X120245Y54874D01*
Y53858D01*
X88043Y67175D02*
X87946Y67271D01*
X87801Y67320D01*
X87608D01*
X87463Y67271D01*
X87366Y67175D01*
Y67078D01*
X87414Y66981D01*
X87463Y66933D01*
X87559Y66884D01*
X87850Y66788D01*
X87946Y66739D01*
X87995Y66691D01*
X88043Y66594D01*
Y66449D01*
X87946Y66352D01*
X87801Y66304D01*
X87608D01*
X87463Y66352D01*
X87366Y66449D01*
X88319Y67078D02*
Y67126D01*
X88367Y67223D01*
X88416Y67271D01*
X88512Y67320D01*
X88706D01*
X88803Y67271D01*
X88851Y67223D01*
X88899Y67126D01*
Y67030D01*
X88851Y66933D01*
X88754Y66788D01*
X88271Y66304D01*
X88948D01*
X121148Y61224D02*
Y60208D01*
Y61224D02*
X121583D01*
X121728Y61175D01*
X121777Y61127D01*
X121825Y61030D01*
Y60934D01*
X121777Y60837D01*
X121728Y60788D01*
X121583Y60740D01*
X121148D01*
X121487D02*
X121825Y60208D01*
X122294Y61224D02*
X122149Y61175D01*
X122101Y61079D01*
Y60982D01*
X122149Y60885D01*
X122246Y60837D01*
X122439Y60788D01*
X122585Y60740D01*
X122681Y60643D01*
X122730Y60547D01*
Y60401D01*
X122681Y60305D01*
X122633Y60256D01*
X122488Y60208D01*
X122294D01*
X122149Y60256D01*
X122101Y60305D01*
X122053Y60401D01*
Y60547D01*
X122101Y60643D01*
X122198Y60740D01*
X122343Y60788D01*
X122536Y60837D01*
X122633Y60885D01*
X122681Y60982D01*
Y61079D01*
X122633Y61175D01*
X122488Y61224D01*
X122294D01*
X121656Y76718D02*
Y75702D01*
Y76718D02*
X122091D01*
X122236Y76669D01*
X122285Y76621D01*
X122333Y76524D01*
Y76428D01*
X122285Y76331D01*
X122236Y76282D01*
X122091Y76234D01*
X121656D01*
X121995D02*
X122333Y75702D01*
X123238Y76718D02*
X122754Y75702D01*
X122561Y76718D02*
X123238D01*
X121910Y79512D02*
Y78496D01*
Y79512D02*
X122345D01*
X122490Y79463D01*
X122539Y79415D01*
X122587Y79318D01*
Y79222D01*
X122539Y79125D01*
X122490Y79076D01*
X122345Y79028D01*
X121910D01*
X122249D02*
X122587Y78496D01*
X123395Y79367D02*
X123347Y79463D01*
X123201Y79512D01*
X123105D01*
X122960Y79463D01*
X122863Y79318D01*
X122815Y79076D01*
Y78835D01*
X122863Y78641D01*
X122960Y78544D01*
X123105Y78496D01*
X123153D01*
X123298Y78544D01*
X123395Y78641D01*
X123443Y78786D01*
Y78835D01*
X123395Y78980D01*
X123298Y79076D01*
X123153Y79125D01*
X123105D01*
X122960Y79076D01*
X122863Y78980D01*
X122815Y78835D01*
X97272Y80528D02*
Y79512D01*
Y80528D02*
X97707D01*
X97852Y80479D01*
X97901Y80431D01*
X97949Y80334D01*
Y80238D01*
X97901Y80141D01*
X97852Y80092D01*
X97707Y80044D01*
X97272D01*
X97611D02*
X97949Y79512D01*
X98757Y80528D02*
X98273D01*
X98225Y80092D01*
X98273Y80141D01*
X98418Y80189D01*
X98563D01*
X98709Y80141D01*
X98805Y80044D01*
X98854Y79899D01*
Y79802D01*
X98805Y79657D01*
X98709Y79560D01*
X98563Y79512D01*
X98418D01*
X98273Y79560D01*
X98225Y79609D01*
X98177Y79705D01*
X102606Y86878D02*
Y85862D01*
Y86878D02*
X103041D01*
X103186Y86829D01*
X103235Y86781D01*
X103283Y86684D01*
Y86588D01*
X103235Y86491D01*
X103186Y86442D01*
X103041Y86394D01*
X102606D01*
X102945D02*
X103283Y85862D01*
X103994Y86878D02*
X103511Y86201D01*
X104236D01*
X103994Y86878D02*
Y85862D01*
X102630Y81798D02*
Y80782D01*
Y81798D02*
X103066D01*
X103211Y81749D01*
X103259Y81701D01*
X103307Y81604D01*
Y81508D01*
X103259Y81411D01*
X103211Y81362D01*
X103066Y81314D01*
X102630D01*
X102969D02*
X103307Y80782D01*
X103631Y81798D02*
X104164D01*
X103873Y81411D01*
X104018D01*
X104115Y81362D01*
X104164Y81314D01*
X104212Y81169D01*
Y81072D01*
X104164Y80927D01*
X104067Y80830D01*
X103922Y80782D01*
X103777D01*
X103631Y80830D01*
X103583Y80879D01*
X103535Y80975D01*
X110226Y72146D02*
Y71130D01*
Y72146D02*
X110661D01*
X110806Y72097D01*
X110855Y72049D01*
X110903Y71952D01*
Y71856D01*
X110855Y71759D01*
X110806Y71710D01*
X110661Y71662D01*
X110226D01*
X110565D02*
X110903Y71130D01*
X111179Y71904D02*
Y71952D01*
X111227Y72049D01*
X111276Y72097D01*
X111372Y72146D01*
X111566D01*
X111663Y72097D01*
X111711Y72049D01*
X111759Y71952D01*
Y71856D01*
X111711Y71759D01*
X111614Y71614D01*
X111131Y71130D01*
X111808D01*
X110480Y76972D02*
Y75956D01*
Y76972D02*
X110915D01*
X111060Y76923D01*
X111109Y76875D01*
X111157Y76778D01*
Y76682D01*
X111109Y76585D01*
X111060Y76536D01*
X110915Y76488D01*
X110480D01*
X110819D02*
X111157Y75956D01*
X111385Y76778D02*
X111481Y76827D01*
X111626Y76972D01*
Y75956D01*
X116866Y88148D02*
X116769Y88099D01*
X116673Y88003D01*
X116624Y87906D01*
X116576Y87761D01*
Y87519D01*
X116624Y87374D01*
X116673Y87277D01*
X116769Y87180D01*
X116866Y87132D01*
X117060D01*
X117156Y87180D01*
X117253Y87277D01*
X117302Y87374D01*
X117350Y87519D01*
Y87761D01*
X117302Y87906D01*
X117253Y88003D01*
X117156Y88099D01*
X117060Y88148D01*
X116866D01*
X117011Y87325D02*
X117302Y87035D01*
X117684Y88148D02*
X118216D01*
X117926Y87761D01*
X118071D01*
X118167Y87712D01*
X118216Y87664D01*
X118264Y87519D01*
Y87422D01*
X118216Y87277D01*
X118119Y87180D01*
X117974Y87132D01*
X117829D01*
X117684Y87180D01*
X117635Y87229D01*
X117587Y87325D01*
X116612Y76718D02*
X116515Y76669D01*
X116419Y76573D01*
X116370Y76476D01*
X116322Y76331D01*
Y76089D01*
X116370Y75944D01*
X116419Y75847D01*
X116515Y75750D01*
X116612Y75702D01*
X116806D01*
X116902Y75750D01*
X116999Y75847D01*
X117048Y75944D01*
X117096Y76089D01*
Y76331D01*
X117048Y76476D01*
X116999Y76573D01*
X116902Y76669D01*
X116806Y76718D01*
X116612D01*
X116757Y75895D02*
X117048Y75605D01*
X117333Y76524D02*
X117430Y76573D01*
X117575Y76718D01*
Y75702D01*
X100042Y58430D02*
Y57656D01*
X99993Y57511D01*
X99945Y57462D01*
X99848Y57414D01*
X99751D01*
X99655Y57462D01*
X99606Y57511D01*
X99558Y57656D01*
Y57753D01*
X100351Y58188D02*
Y58236D01*
X100400Y58333D01*
X100448Y58381D01*
X100545Y58430D01*
X100738D01*
X100835Y58381D01*
X100883Y58333D01*
X100932Y58236D01*
Y58140D01*
X100883Y58043D01*
X100787Y57898D01*
X100303Y57414D01*
X100980D01*
X127728Y58430D02*
Y57656D01*
X127679Y57511D01*
X127631Y57462D01*
X127534Y57414D01*
X127437D01*
X127341Y57462D01*
X127292Y57511D01*
X127244Y57656D01*
Y57753D01*
X127989Y58236D02*
X128086Y58285D01*
X128231Y58430D01*
Y57414D01*
X119624Y84846D02*
Y83830D01*
Y84846D02*
X119963D01*
X120108Y84797D01*
X120204Y84701D01*
X120253Y84604D01*
X120301Y84459D01*
Y84217D01*
X120253Y84072D01*
X120204Y83975D01*
X120108Y83878D01*
X119963Y83830D01*
X119624D01*
X121012Y84846D02*
X120529Y84169D01*
X121254D01*
X121012Y84846D02*
Y83830D01*
X110170Y66990D02*
Y65974D01*
Y66990D02*
X110508D01*
X110653Y66941D01*
X110750Y66844D01*
X110798Y66748D01*
X110847Y66603D01*
Y66361D01*
X110798Y66216D01*
X110750Y66119D01*
X110653Y66022D01*
X110508Y65974D01*
X110170D01*
X111122Y66748D02*
Y66796D01*
X111171Y66893D01*
X111219Y66941D01*
X111316Y66990D01*
X111509D01*
X111606Y66941D01*
X111655Y66893D01*
X111703Y66796D01*
Y66699D01*
X111655Y66603D01*
X111558Y66457D01*
X111074Y65974D01*
X111751D01*
X115910Y66990D02*
Y65974D01*
Y66990D02*
X116249D01*
X116394Y66941D01*
X116490Y66844D01*
X116539Y66748D01*
X116587Y66603D01*
Y66361D01*
X116539Y66216D01*
X116490Y66119D01*
X116394Y66022D01*
X116249Y65974D01*
X115910D01*
X116815Y66796D02*
X116911Y66844D01*
X117056Y66990D01*
Y65974D01*
X89870Y79016D02*
X89821Y79113D01*
X89724Y79209D01*
X89628Y79258D01*
X89434D01*
X89337Y79209D01*
X89241Y79113D01*
X89192Y79016D01*
X89144Y78871D01*
Y78629D01*
X89192Y78484D01*
X89241Y78387D01*
X89337Y78290D01*
X89434Y78242D01*
X89628D01*
X89724Y78290D01*
X89821Y78387D01*
X89870Y78484D01*
X90155Y79064D02*
X90252Y79113D01*
X90397Y79258D01*
Y78242D01*
X102098Y69606D02*
Y68590D01*
Y69606D02*
X102533D01*
X102678Y69557D01*
X102727Y69509D01*
X102775Y69412D01*
Y69316D01*
X102727Y69219D01*
X102678Y69170D01*
X102533Y69122D01*
X102098D02*
X102533D01*
X102678Y69074D01*
X102727Y69025D01*
X102775Y68929D01*
Y68783D01*
X102727Y68687D01*
X102678Y68638D01*
X102533Y68590D01*
X102098D01*
X103003Y69606D02*
Y68590D01*
Y69606D02*
X103341D01*
X103486Y69557D01*
X103583Y69461D01*
X103631Y69364D01*
X103680Y69219D01*
Y68977D01*
X103631Y68832D01*
X103583Y68735D01*
X103486Y68638D01*
X103341Y68590D01*
X103003D01*
X103907Y69412D02*
X104004Y69461D01*
X104149Y69606D01*
Y68590D01*
X32802Y130576D02*
X32705Y130527D01*
X32609Y130431D01*
X32560Y130334D01*
X32512Y130189D01*
Y129947D01*
X32560Y129802D01*
X32609Y129705D01*
X32705Y129608D01*
X32802Y129560D01*
X32996D01*
X33092Y129608D01*
X33189Y129705D01*
X33238Y129802D01*
X33286Y129947D01*
Y130189D01*
X33238Y130334D01*
X33189Y130431D01*
X33092Y130527D01*
X32996Y130576D01*
X32802D01*
X32947Y129753D02*
X33238Y129463D01*
X33571Y130334D02*
Y130382D01*
X33620Y130479D01*
X33668Y130527D01*
X33765Y130576D01*
X33958D01*
X34055Y130527D01*
X34103Y130479D01*
X34152Y130382D01*
Y130286D01*
X34103Y130189D01*
X34007Y130044D01*
X33523Y129560D01*
X34200D01*
X38838Y101874D02*
Y101100D01*
X38789Y100955D01*
X38741Y100906D01*
X38644Y100858D01*
X38547D01*
X38451Y100906D01*
X38402Y100955D01*
X38354Y101100D01*
Y101197D01*
X39099Y101342D02*
X39534D01*
X39679Y101390D01*
X39728Y101438D01*
X39776Y101535D01*
Y101680D01*
X39728Y101777D01*
X39679Y101825D01*
X39534Y101874D01*
X39099D01*
Y100858D01*
X40003Y101680D02*
X40100Y101729D01*
X40245Y101874D01*
Y100858D01*
X8043Y114175D02*
X7946Y114271D01*
X7801Y114320D01*
X7608D01*
X7463Y114271D01*
X7366Y114175D01*
Y114078D01*
X7414Y113981D01*
X7463Y113933D01*
X7559Y113884D01*
X7850Y113788D01*
X7946Y113739D01*
X7995Y113691D01*
X8043Y113594D01*
Y113449D01*
X7946Y113352D01*
X7801Y113304D01*
X7608D01*
X7463Y113352D01*
X7366Y113449D01*
X8319Y114078D02*
Y114126D01*
X8367Y114223D01*
X8416Y114271D01*
X8512Y114320D01*
X8706D01*
X8803Y114271D01*
X8851Y114223D01*
X8899Y114126D01*
Y114030D01*
X8851Y113933D01*
X8754Y113788D01*
X8271Y113304D01*
X8948D01*
X41148Y108224D02*
Y107208D01*
Y108224D02*
X41583D01*
X41728Y108175D01*
X41777Y108127D01*
X41825Y108030D01*
Y107934D01*
X41777Y107837D01*
X41728Y107788D01*
X41583Y107740D01*
X41148D01*
X41487D02*
X41825Y107208D01*
X42294Y108224D02*
X42149Y108175D01*
X42101Y108079D01*
Y107982D01*
X42149Y107885D01*
X42246Y107837D01*
X42439Y107788D01*
X42585Y107740D01*
X42681Y107643D01*
X42730Y107547D01*
Y107401D01*
X42681Y107305D01*
X42633Y107256D01*
X42488Y107208D01*
X42294D01*
X42149Y107256D01*
X42101Y107305D01*
X42053Y107401D01*
Y107547D01*
X42101Y107643D01*
X42198Y107740D01*
X42343Y107788D01*
X42536Y107837D01*
X42633Y107885D01*
X42681Y107982D01*
Y108079D01*
X42633Y108175D01*
X42488Y108224D01*
X42294D01*
X41656Y123718D02*
Y122702D01*
Y123718D02*
X42091D01*
X42236Y123669D01*
X42285Y123621D01*
X42333Y123524D01*
Y123428D01*
X42285Y123331D01*
X42236Y123282D01*
X42091Y123234D01*
X41656D01*
X41995D02*
X42333Y122702D01*
X43238Y123718D02*
X42754Y122702D01*
X42561Y123718D02*
X43238D01*
X41910Y126512D02*
Y125496D01*
Y126512D02*
X42345D01*
X42490Y126463D01*
X42539Y126415D01*
X42587Y126318D01*
Y126222D01*
X42539Y126125D01*
X42490Y126076D01*
X42345Y126028D01*
X41910D01*
X42249D02*
X42587Y125496D01*
X43395Y126367D02*
X43347Y126463D01*
X43201Y126512D01*
X43105D01*
X42960Y126463D01*
X42863Y126318D01*
X42815Y126076D01*
Y125835D01*
X42863Y125641D01*
X42960Y125544D01*
X43105Y125496D01*
X43153D01*
X43298Y125544D01*
X43395Y125641D01*
X43443Y125786D01*
Y125835D01*
X43395Y125980D01*
X43298Y126076D01*
X43153Y126125D01*
X43105D01*
X42960Y126076D01*
X42863Y125980D01*
X42815Y125835D01*
X17272Y127528D02*
Y126512D01*
Y127528D02*
X17707D01*
X17852Y127479D01*
X17901Y127431D01*
X17949Y127334D01*
Y127238D01*
X17901Y127141D01*
X17852Y127092D01*
X17707Y127044D01*
X17272D01*
X17611D02*
X17949Y126512D01*
X18757Y127528D02*
X18273D01*
X18225Y127092D01*
X18273Y127141D01*
X18418Y127189D01*
X18563D01*
X18709Y127141D01*
X18805Y127044D01*
X18854Y126899D01*
Y126802D01*
X18805Y126657D01*
X18709Y126560D01*
X18563Y126512D01*
X18418D01*
X18273Y126560D01*
X18225Y126609D01*
X18177Y126705D01*
X22606Y133878D02*
Y132862D01*
Y133878D02*
X23041D01*
X23186Y133829D01*
X23235Y133781D01*
X23283Y133684D01*
Y133588D01*
X23235Y133491D01*
X23186Y133442D01*
X23041Y133394D01*
X22606D01*
X22945D02*
X23283Y132862D01*
X23994Y133878D02*
X23511Y133201D01*
X24236D01*
X23994Y133878D02*
Y132862D01*
X22630Y128798D02*
Y127782D01*
Y128798D02*
X23066D01*
X23211Y128749D01*
X23259Y128701D01*
X23307Y128604D01*
Y128508D01*
X23259Y128411D01*
X23211Y128362D01*
X23066Y128314D01*
X22630D01*
X22969D02*
X23307Y127782D01*
X23631Y128798D02*
X24164D01*
X23873Y128411D01*
X24018D01*
X24115Y128362D01*
X24164Y128314D01*
X24212Y128169D01*
Y128072D01*
X24164Y127927D01*
X24067Y127830D01*
X23922Y127782D01*
X23777D01*
X23631Y127830D01*
X23583Y127879D01*
X23535Y127975D01*
X30226Y119146D02*
Y118130D01*
Y119146D02*
X30661D01*
X30806Y119097D01*
X30855Y119049D01*
X30903Y118952D01*
Y118856D01*
X30855Y118759D01*
X30806Y118710D01*
X30661Y118662D01*
X30226D01*
X30565D02*
X30903Y118130D01*
X31179Y118904D02*
Y118952D01*
X31227Y119049D01*
X31276Y119097D01*
X31372Y119146D01*
X31566D01*
X31663Y119097D01*
X31711Y119049D01*
X31759Y118952D01*
Y118856D01*
X31711Y118759D01*
X31614Y118614D01*
X31131Y118130D01*
X31808D01*
X30480Y123972D02*
Y122956D01*
Y123972D02*
X30915D01*
X31060Y123923D01*
X31109Y123875D01*
X31157Y123778D01*
Y123682D01*
X31109Y123585D01*
X31060Y123536D01*
X30915Y123488D01*
X30480D01*
X30819D02*
X31157Y122956D01*
X31385Y123778D02*
X31481Y123827D01*
X31626Y123972D01*
Y122956D01*
X36866Y135148D02*
X36769Y135099D01*
X36673Y135003D01*
X36624Y134906D01*
X36576Y134761D01*
Y134519D01*
X36624Y134374D01*
X36673Y134277D01*
X36769Y134180D01*
X36866Y134132D01*
X37060D01*
X37156Y134180D01*
X37253Y134277D01*
X37302Y134374D01*
X37350Y134519D01*
Y134761D01*
X37302Y134906D01*
X37253Y135003D01*
X37156Y135099D01*
X37060Y135148D01*
X36866D01*
X37011Y134325D02*
X37302Y134035D01*
X37684Y135148D02*
X38216D01*
X37926Y134761D01*
X38071D01*
X38167Y134712D01*
X38216Y134664D01*
X38264Y134519D01*
Y134422D01*
X38216Y134277D01*
X38119Y134180D01*
X37974Y134132D01*
X37829D01*
X37684Y134180D01*
X37635Y134229D01*
X37587Y134325D01*
X36612Y123718D02*
X36515Y123669D01*
X36419Y123573D01*
X36370Y123476D01*
X36322Y123331D01*
Y123089D01*
X36370Y122944D01*
X36419Y122847D01*
X36515Y122750D01*
X36612Y122702D01*
X36806D01*
X36902Y122750D01*
X36999Y122847D01*
X37048Y122944D01*
X37096Y123089D01*
Y123331D01*
X37048Y123476D01*
X36999Y123573D01*
X36902Y123669D01*
X36806Y123718D01*
X36612D01*
X36757Y122895D02*
X37048Y122605D01*
X37333Y123524D02*
X37430Y123573D01*
X37575Y123718D01*
Y122702D01*
X20042Y105430D02*
Y104656D01*
X19993Y104511D01*
X19945Y104462D01*
X19848Y104414D01*
X19751D01*
X19655Y104462D01*
X19606Y104511D01*
X19558Y104656D01*
Y104753D01*
X20351Y105188D02*
Y105236D01*
X20400Y105333D01*
X20448Y105381D01*
X20545Y105430D01*
X20738D01*
X20835Y105381D01*
X20883Y105333D01*
X20932Y105236D01*
Y105140D01*
X20883Y105043D01*
X20787Y104898D01*
X20303Y104414D01*
X20980D01*
X47728Y105430D02*
Y104656D01*
X47679Y104511D01*
X47631Y104462D01*
X47534Y104414D01*
X47437D01*
X47341Y104462D01*
X47292Y104511D01*
X47244Y104656D01*
Y104753D01*
X47989Y105236D02*
X48086Y105285D01*
X48231Y105430D01*
Y104414D01*
X39624Y131846D02*
Y130830D01*
Y131846D02*
X39963D01*
X40108Y131797D01*
X40204Y131701D01*
X40253Y131604D01*
X40301Y131459D01*
Y131217D01*
X40253Y131072D01*
X40204Y130975D01*
X40108Y130878D01*
X39963Y130830D01*
X39624D01*
X41012Y131846D02*
X40529Y131169D01*
X41254D01*
X41012Y131846D02*
Y130830D01*
X30170Y113990D02*
Y112974D01*
Y113990D02*
X30508D01*
X30653Y113941D01*
X30750Y113844D01*
X30798Y113748D01*
X30847Y113603D01*
Y113361D01*
X30798Y113216D01*
X30750Y113119D01*
X30653Y113022D01*
X30508Y112974D01*
X30170D01*
X31122Y113748D02*
Y113796D01*
X31171Y113893D01*
X31219Y113941D01*
X31316Y113990D01*
X31509D01*
X31606Y113941D01*
X31655Y113893D01*
X31703Y113796D01*
Y113699D01*
X31655Y113603D01*
X31558Y113457D01*
X31074Y112974D01*
X31751D01*
X35910Y113990D02*
Y112974D01*
Y113990D02*
X36249D01*
X36394Y113941D01*
X36490Y113844D01*
X36539Y113748D01*
X36587Y113603D01*
Y113361D01*
X36539Y113216D01*
X36490Y113119D01*
X36394Y113022D01*
X36249Y112974D01*
X35910D01*
X36815Y113796D02*
X36911Y113844D01*
X37056Y113990D01*
Y112974D01*
X9870Y126016D02*
X9821Y126113D01*
X9724Y126209D01*
X9628Y126258D01*
X9434D01*
X9337Y126209D01*
X9241Y126113D01*
X9192Y126016D01*
X9144Y125871D01*
Y125629D01*
X9192Y125484D01*
X9241Y125387D01*
X9337Y125290D01*
X9434Y125242D01*
X9628D01*
X9724Y125290D01*
X9821Y125387D01*
X9870Y125484D01*
X10155Y126064D02*
X10252Y126113D01*
X10397Y126258D01*
Y125242D01*
X22098Y116606D02*
Y115590D01*
Y116606D02*
X22533D01*
X22678Y116557D01*
X22727Y116509D01*
X22775Y116412D01*
Y116316D01*
X22727Y116219D01*
X22678Y116170D01*
X22533Y116122D01*
X22098D02*
X22533D01*
X22678Y116074D01*
X22727Y116025D01*
X22775Y115929D01*
Y115783D01*
X22727Y115687D01*
X22678Y115638D01*
X22533Y115590D01*
X22098D01*
X23003Y116606D02*
Y115590D01*
Y116606D02*
X23341D01*
X23486Y116557D01*
X23583Y116461D01*
X23631Y116364D01*
X23680Y116219D01*
Y115977D01*
X23631Y115832D01*
X23583Y115735D01*
X23486Y115638D01*
X23341Y115590D01*
X23003D01*
X23907Y116412D02*
X24004Y116461D01*
X24149Y116606D01*
Y115590D01*
X112802Y130576D02*
X112705Y130527D01*
X112609Y130431D01*
X112560Y130334D01*
X112512Y130189D01*
Y129947D01*
X112560Y129802D01*
X112609Y129705D01*
X112705Y129608D01*
X112802Y129560D01*
X112996D01*
X113092Y129608D01*
X113189Y129705D01*
X113238Y129802D01*
X113286Y129947D01*
Y130189D01*
X113238Y130334D01*
X113189Y130431D01*
X113092Y130527D01*
X112996Y130576D01*
X112802D01*
X112947Y129753D02*
X113238Y129463D01*
X113571Y130334D02*
Y130382D01*
X113620Y130479D01*
X113668Y130527D01*
X113765Y130576D01*
X113958D01*
X114055Y130527D01*
X114103Y130479D01*
X114152Y130382D01*
Y130286D01*
X114103Y130189D01*
X114007Y130044D01*
X113523Y129560D01*
X114200D01*
X118838Y101874D02*
Y101100D01*
X118789Y100955D01*
X118741Y100906D01*
X118644Y100858D01*
X118547D01*
X118451Y100906D01*
X118402Y100955D01*
X118354Y101100D01*
Y101197D01*
X119099Y101342D02*
X119534D01*
X119679Y101390D01*
X119728Y101438D01*
X119776Y101535D01*
Y101680D01*
X119728Y101777D01*
X119679Y101825D01*
X119534Y101874D01*
X119099D01*
Y100858D01*
X120003Y101680D02*
X120100Y101729D01*
X120245Y101874D01*
Y100858D01*
X88043Y114175D02*
X87946Y114271D01*
X87801Y114320D01*
X87608D01*
X87463Y114271D01*
X87366Y114175D01*
Y114078D01*
X87414Y113981D01*
X87463Y113933D01*
X87559Y113884D01*
X87850Y113788D01*
X87946Y113739D01*
X87995Y113691D01*
X88043Y113594D01*
Y113449D01*
X87946Y113352D01*
X87801Y113304D01*
X87608D01*
X87463Y113352D01*
X87366Y113449D01*
X88319Y114078D02*
Y114126D01*
X88367Y114223D01*
X88416Y114271D01*
X88512Y114320D01*
X88706D01*
X88803Y114271D01*
X88851Y114223D01*
X88899Y114126D01*
Y114030D01*
X88851Y113933D01*
X88754Y113788D01*
X88271Y113304D01*
X88948D01*
X121148Y108224D02*
Y107208D01*
Y108224D02*
X121583D01*
X121728Y108175D01*
X121777Y108127D01*
X121825Y108030D01*
Y107934D01*
X121777Y107837D01*
X121728Y107788D01*
X121583Y107740D01*
X121148D01*
X121487D02*
X121825Y107208D01*
X122294Y108224D02*
X122149Y108175D01*
X122101Y108079D01*
Y107982D01*
X122149Y107885D01*
X122246Y107837D01*
X122439Y107788D01*
X122585Y107740D01*
X122681Y107643D01*
X122730Y107547D01*
Y107401D01*
X122681Y107305D01*
X122633Y107256D01*
X122488Y107208D01*
X122294D01*
X122149Y107256D01*
X122101Y107305D01*
X122053Y107401D01*
Y107547D01*
X122101Y107643D01*
X122198Y107740D01*
X122343Y107788D01*
X122536Y107837D01*
X122633Y107885D01*
X122681Y107982D01*
Y108079D01*
X122633Y108175D01*
X122488Y108224D01*
X122294D01*
X121656Y123718D02*
Y122702D01*
Y123718D02*
X122091D01*
X122236Y123669D01*
X122285Y123621D01*
X122333Y123524D01*
Y123428D01*
X122285Y123331D01*
X122236Y123282D01*
X122091Y123234D01*
X121656D01*
X121995D02*
X122333Y122702D01*
X123238Y123718D02*
X122754Y122702D01*
X122561Y123718D02*
X123238D01*
X121910Y126512D02*
Y125496D01*
Y126512D02*
X122345D01*
X122490Y126463D01*
X122539Y126415D01*
X122587Y126318D01*
Y126222D01*
X122539Y126125D01*
X122490Y126076D01*
X122345Y126028D01*
X121910D01*
X122249D02*
X122587Y125496D01*
X123395Y126367D02*
X123347Y126463D01*
X123201Y126512D01*
X123105D01*
X122960Y126463D01*
X122863Y126318D01*
X122815Y126076D01*
Y125835D01*
X122863Y125641D01*
X122960Y125544D01*
X123105Y125496D01*
X123153D01*
X123298Y125544D01*
X123395Y125641D01*
X123443Y125786D01*
Y125835D01*
X123395Y125980D01*
X123298Y126076D01*
X123153Y126125D01*
X123105D01*
X122960Y126076D01*
X122863Y125980D01*
X122815Y125835D01*
X97272Y127528D02*
Y126512D01*
Y127528D02*
X97707D01*
X97852Y127479D01*
X97901Y127431D01*
X97949Y127334D01*
Y127238D01*
X97901Y127141D01*
X97852Y127092D01*
X97707Y127044D01*
X97272D01*
X97611D02*
X97949Y126512D01*
X98757Y127528D02*
X98273D01*
X98225Y127092D01*
X98273Y127141D01*
X98418Y127189D01*
X98563D01*
X98709Y127141D01*
X98805Y127044D01*
X98854Y126899D01*
Y126802D01*
X98805Y126657D01*
X98709Y126560D01*
X98563Y126512D01*
X98418D01*
X98273Y126560D01*
X98225Y126609D01*
X98177Y126705D01*
X102606Y133878D02*
Y132862D01*
Y133878D02*
X103041D01*
X103186Y133829D01*
X103235Y133781D01*
X103283Y133684D01*
Y133588D01*
X103235Y133491D01*
X103186Y133442D01*
X103041Y133394D01*
X102606D01*
X102945D02*
X103283Y132862D01*
X103994Y133878D02*
X103511Y133201D01*
X104236D01*
X103994Y133878D02*
Y132862D01*
X102630Y128798D02*
Y127782D01*
Y128798D02*
X103066D01*
X103211Y128749D01*
X103259Y128701D01*
X103307Y128604D01*
Y128508D01*
X103259Y128411D01*
X103211Y128362D01*
X103066Y128314D01*
X102630D01*
X102969D02*
X103307Y127782D01*
X103631Y128798D02*
X104164D01*
X103873Y128411D01*
X104018D01*
X104115Y128362D01*
X104164Y128314D01*
X104212Y128169D01*
Y128072D01*
X104164Y127927D01*
X104067Y127830D01*
X103922Y127782D01*
X103777D01*
X103631Y127830D01*
X103583Y127879D01*
X103535Y127975D01*
X110226Y119146D02*
Y118130D01*
Y119146D02*
X110661D01*
X110806Y119097D01*
X110855Y119049D01*
X110903Y118952D01*
Y118856D01*
X110855Y118759D01*
X110806Y118710D01*
X110661Y118662D01*
X110226D01*
X110565D02*
X110903Y118130D01*
X111179Y118904D02*
Y118952D01*
X111227Y119049D01*
X111276Y119097D01*
X111372Y119146D01*
X111566D01*
X111663Y119097D01*
X111711Y119049D01*
X111759Y118952D01*
Y118856D01*
X111711Y118759D01*
X111614Y118614D01*
X111131Y118130D01*
X111808D01*
X110480Y123972D02*
Y122956D01*
Y123972D02*
X110915D01*
X111060Y123923D01*
X111109Y123875D01*
X111157Y123778D01*
Y123682D01*
X111109Y123585D01*
X111060Y123536D01*
X110915Y123488D01*
X110480D01*
X110819D02*
X111157Y122956D01*
X111385Y123778D02*
X111481Y123827D01*
X111626Y123972D01*
Y122956D01*
X116866Y135148D02*
X116769Y135099D01*
X116673Y135003D01*
X116624Y134906D01*
X116576Y134761D01*
Y134519D01*
X116624Y134374D01*
X116673Y134277D01*
X116769Y134180D01*
X116866Y134132D01*
X117060D01*
X117156Y134180D01*
X117253Y134277D01*
X117302Y134374D01*
X117350Y134519D01*
Y134761D01*
X117302Y134906D01*
X117253Y135003D01*
X117156Y135099D01*
X117060Y135148D01*
X116866D01*
X117011Y134325D02*
X117302Y134035D01*
X117684Y135148D02*
X118216D01*
X117926Y134761D01*
X118071D01*
X118167Y134712D01*
X118216Y134664D01*
X118264Y134519D01*
Y134422D01*
X118216Y134277D01*
X118119Y134180D01*
X117974Y134132D01*
X117829D01*
X117684Y134180D01*
X117635Y134229D01*
X117587Y134325D01*
X116612Y123718D02*
X116515Y123669D01*
X116419Y123573D01*
X116370Y123476D01*
X116322Y123331D01*
Y123089D01*
X116370Y122944D01*
X116419Y122847D01*
X116515Y122750D01*
X116612Y122702D01*
X116806D01*
X116902Y122750D01*
X116999Y122847D01*
X117048Y122944D01*
X117096Y123089D01*
Y123331D01*
X117048Y123476D01*
X116999Y123573D01*
X116902Y123669D01*
X116806Y123718D01*
X116612D01*
X116757Y122895D02*
X117048Y122605D01*
X117333Y123524D02*
X117430Y123573D01*
X117575Y123718D01*
Y122702D01*
X100042Y105430D02*
Y104656D01*
X99993Y104511D01*
X99945Y104462D01*
X99848Y104414D01*
X99751D01*
X99655Y104462D01*
X99606Y104511D01*
X99558Y104656D01*
Y104753D01*
X100351Y105188D02*
Y105236D01*
X100400Y105333D01*
X100448Y105381D01*
X100545Y105430D01*
X100738D01*
X100835Y105381D01*
X100883Y105333D01*
X100932Y105236D01*
Y105140D01*
X100883Y105043D01*
X100787Y104898D01*
X100303Y104414D01*
X100980D01*
X127728Y105430D02*
Y104656D01*
X127679Y104511D01*
X127631Y104462D01*
X127534Y104414D01*
X127437D01*
X127341Y104462D01*
X127292Y104511D01*
X127244Y104656D01*
Y104753D01*
X127989Y105236D02*
X128086Y105285D01*
X128231Y105430D01*
Y104414D01*
X119624Y131846D02*
Y130830D01*
Y131846D02*
X119963D01*
X120108Y131797D01*
X120204Y131701D01*
X120253Y131604D01*
X120301Y131459D01*
Y131217D01*
X120253Y131072D01*
X120204Y130975D01*
X120108Y130878D01*
X119963Y130830D01*
X119624D01*
X121012Y131846D02*
X120529Y131169D01*
X121254D01*
X121012Y131846D02*
Y130830D01*
X110170Y113990D02*
Y112974D01*
Y113990D02*
X110508D01*
X110653Y113941D01*
X110750Y113844D01*
X110798Y113748D01*
X110847Y113603D01*
Y113361D01*
X110798Y113216D01*
X110750Y113119D01*
X110653Y113022D01*
X110508Y112974D01*
X110170D01*
X111122Y113748D02*
Y113796D01*
X111171Y113893D01*
X111219Y113941D01*
X111316Y113990D01*
X111509D01*
X111606Y113941D01*
X111655Y113893D01*
X111703Y113796D01*
Y113699D01*
X111655Y113603D01*
X111558Y113457D01*
X111074Y112974D01*
X111751D01*
X115910Y113990D02*
Y112974D01*
Y113990D02*
X116249D01*
X116394Y113941D01*
X116490Y113844D01*
X116539Y113748D01*
X116587Y113603D01*
Y113361D01*
X116539Y113216D01*
X116490Y113119D01*
X116394Y113022D01*
X116249Y112974D01*
X115910D01*
X116815Y113796D02*
X116911Y113844D01*
X117056Y113990D01*
Y112974D01*
X89870Y126016D02*
X89821Y126113D01*
X89724Y126209D01*
X89628Y126258D01*
X89434D01*
X89337Y126209D01*
X89241Y126113D01*
X89192Y126016D01*
X89144Y125871D01*
Y125629D01*
X89192Y125484D01*
X89241Y125387D01*
X89337Y125290D01*
X89434Y125242D01*
X89628D01*
X89724Y125290D01*
X89821Y125387D01*
X89870Y125484D01*
X90155Y126064D02*
X90252Y126113D01*
X90397Y126258D01*
Y125242D01*
X102098Y116606D02*
Y115590D01*
Y116606D02*
X102533D01*
X102678Y116557D01*
X102727Y116509D01*
X102775Y116412D01*
Y116316D01*
X102727Y116219D01*
X102678Y116170D01*
X102533Y116122D01*
X102098D02*
X102533D01*
X102678Y116074D01*
X102727Y116025D01*
X102775Y115929D01*
Y115783D01*
X102727Y115687D01*
X102678Y115638D01*
X102533Y115590D01*
X102098D01*
X103003Y116606D02*
Y115590D01*
Y116606D02*
X103341D01*
X103486Y116557D01*
X103583Y116461D01*
X103631Y116364D01*
X103680Y116219D01*
Y115977D01*
X103631Y115832D01*
X103583Y115735D01*
X103486Y115638D01*
X103341Y115590D01*
X103003D01*
X103907Y116412D02*
X104004Y116461D01*
X104149Y116606D01*
Y115590D01*
X32802Y177576D02*
X32705Y177527D01*
X32609Y177431D01*
X32560Y177334D01*
X32512Y177189D01*
Y176947D01*
X32560Y176802D01*
X32609Y176705D01*
X32705Y176608D01*
X32802Y176560D01*
X32996D01*
X33092Y176608D01*
X33189Y176705D01*
X33238Y176802D01*
X33286Y176947D01*
Y177189D01*
X33238Y177334D01*
X33189Y177431D01*
X33092Y177527D01*
X32996Y177576D01*
X32802D01*
X32947Y176753D02*
X33238Y176463D01*
X33571Y177334D02*
Y177382D01*
X33620Y177479D01*
X33668Y177527D01*
X33765Y177576D01*
X33958D01*
X34055Y177527D01*
X34103Y177479D01*
X34152Y177382D01*
Y177286D01*
X34103Y177189D01*
X34007Y177044D01*
X33523Y176560D01*
X34200D01*
X38838Y148874D02*
Y148100D01*
X38789Y147955D01*
X38741Y147906D01*
X38644Y147858D01*
X38547D01*
X38451Y147906D01*
X38402Y147955D01*
X38354Y148100D01*
Y148197D01*
X39099Y148342D02*
X39534D01*
X39679Y148390D01*
X39728Y148438D01*
X39776Y148535D01*
Y148680D01*
X39728Y148777D01*
X39679Y148825D01*
X39534Y148874D01*
X39099D01*
Y147858D01*
X40003Y148680D02*
X40100Y148729D01*
X40245Y148874D01*
Y147858D01*
X8043Y161175D02*
X7946Y161271D01*
X7801Y161320D01*
X7608D01*
X7463Y161271D01*
X7366Y161175D01*
Y161078D01*
X7414Y160981D01*
X7463Y160933D01*
X7559Y160884D01*
X7850Y160788D01*
X7946Y160739D01*
X7995Y160691D01*
X8043Y160594D01*
Y160449D01*
X7946Y160352D01*
X7801Y160304D01*
X7608D01*
X7463Y160352D01*
X7366Y160449D01*
X8319Y161078D02*
Y161126D01*
X8367Y161223D01*
X8416Y161271D01*
X8512Y161320D01*
X8706D01*
X8803Y161271D01*
X8851Y161223D01*
X8899Y161126D01*
Y161030D01*
X8851Y160933D01*
X8754Y160788D01*
X8271Y160304D01*
X8948D01*
X41148Y155224D02*
Y154208D01*
Y155224D02*
X41583D01*
X41728Y155175D01*
X41777Y155127D01*
X41825Y155030D01*
Y154934D01*
X41777Y154837D01*
X41728Y154788D01*
X41583Y154740D01*
X41148D01*
X41487D02*
X41825Y154208D01*
X42294Y155224D02*
X42149Y155175D01*
X42101Y155079D01*
Y154982D01*
X42149Y154885D01*
X42246Y154837D01*
X42439Y154788D01*
X42585Y154740D01*
X42681Y154643D01*
X42730Y154547D01*
Y154401D01*
X42681Y154305D01*
X42633Y154256D01*
X42488Y154208D01*
X42294D01*
X42149Y154256D01*
X42101Y154305D01*
X42053Y154401D01*
Y154547D01*
X42101Y154643D01*
X42198Y154740D01*
X42343Y154788D01*
X42536Y154837D01*
X42633Y154885D01*
X42681Y154982D01*
Y155079D01*
X42633Y155175D01*
X42488Y155224D01*
X42294D01*
X41656Y170718D02*
Y169702D01*
Y170718D02*
X42091D01*
X42236Y170669D01*
X42285Y170621D01*
X42333Y170524D01*
Y170428D01*
X42285Y170331D01*
X42236Y170282D01*
X42091Y170234D01*
X41656D01*
X41995D02*
X42333Y169702D01*
X43238Y170718D02*
X42754Y169702D01*
X42561Y170718D02*
X43238D01*
X41910Y173512D02*
Y172496D01*
Y173512D02*
X42345D01*
X42490Y173463D01*
X42539Y173415D01*
X42587Y173318D01*
Y173222D01*
X42539Y173125D01*
X42490Y173076D01*
X42345Y173028D01*
X41910D01*
X42249D02*
X42587Y172496D01*
X43395Y173367D02*
X43347Y173463D01*
X43201Y173512D01*
X43105D01*
X42960Y173463D01*
X42863Y173318D01*
X42815Y173076D01*
Y172835D01*
X42863Y172641D01*
X42960Y172544D01*
X43105Y172496D01*
X43153D01*
X43298Y172544D01*
X43395Y172641D01*
X43443Y172786D01*
Y172835D01*
X43395Y172980D01*
X43298Y173076D01*
X43153Y173125D01*
X43105D01*
X42960Y173076D01*
X42863Y172980D01*
X42815Y172835D01*
X17272Y174528D02*
Y173512D01*
Y174528D02*
X17707D01*
X17852Y174479D01*
X17901Y174431D01*
X17949Y174334D01*
Y174238D01*
X17901Y174141D01*
X17852Y174092D01*
X17707Y174044D01*
X17272D01*
X17611D02*
X17949Y173512D01*
X18757Y174528D02*
X18273D01*
X18225Y174092D01*
X18273Y174141D01*
X18418Y174189D01*
X18563D01*
X18709Y174141D01*
X18805Y174044D01*
X18854Y173899D01*
Y173802D01*
X18805Y173657D01*
X18709Y173560D01*
X18563Y173512D01*
X18418D01*
X18273Y173560D01*
X18225Y173609D01*
X18177Y173705D01*
X22606Y180878D02*
Y179862D01*
Y180878D02*
X23041D01*
X23186Y180829D01*
X23235Y180781D01*
X23283Y180684D01*
Y180588D01*
X23235Y180491D01*
X23186Y180442D01*
X23041Y180394D01*
X22606D01*
X22945D02*
X23283Y179862D01*
X23994Y180878D02*
X23511Y180201D01*
X24236D01*
X23994Y180878D02*
Y179862D01*
X22630Y175798D02*
Y174782D01*
Y175798D02*
X23066D01*
X23211Y175749D01*
X23259Y175701D01*
X23307Y175604D01*
Y175508D01*
X23259Y175411D01*
X23211Y175362D01*
X23066Y175314D01*
X22630D01*
X22969D02*
X23307Y174782D01*
X23631Y175798D02*
X24164D01*
X23873Y175411D01*
X24018D01*
X24115Y175362D01*
X24164Y175314D01*
X24212Y175169D01*
Y175072D01*
X24164Y174927D01*
X24067Y174830D01*
X23922Y174782D01*
X23777D01*
X23631Y174830D01*
X23583Y174879D01*
X23535Y174975D01*
X30226Y166146D02*
Y165130D01*
Y166146D02*
X30661D01*
X30806Y166097D01*
X30855Y166049D01*
X30903Y165952D01*
Y165856D01*
X30855Y165759D01*
X30806Y165710D01*
X30661Y165662D01*
X30226D01*
X30565D02*
X30903Y165130D01*
X31179Y165904D02*
Y165952D01*
X31227Y166049D01*
X31276Y166097D01*
X31372Y166146D01*
X31566D01*
X31663Y166097D01*
X31711Y166049D01*
X31759Y165952D01*
Y165856D01*
X31711Y165759D01*
X31614Y165614D01*
X31131Y165130D01*
X31808D01*
X30480Y170972D02*
Y169956D01*
Y170972D02*
X30915D01*
X31060Y170923D01*
X31109Y170875D01*
X31157Y170778D01*
Y170682D01*
X31109Y170585D01*
X31060Y170536D01*
X30915Y170488D01*
X30480D01*
X30819D02*
X31157Y169956D01*
X31385Y170778D02*
X31481Y170827D01*
X31626Y170972D01*
Y169956D01*
X36866Y182148D02*
X36769Y182099D01*
X36673Y182003D01*
X36624Y181906D01*
X36576Y181761D01*
Y181519D01*
X36624Y181374D01*
X36673Y181277D01*
X36769Y181180D01*
X36866Y181132D01*
X37060D01*
X37156Y181180D01*
X37253Y181277D01*
X37302Y181374D01*
X37350Y181519D01*
Y181761D01*
X37302Y181906D01*
X37253Y182003D01*
X37156Y182099D01*
X37060Y182148D01*
X36866D01*
X37011Y181325D02*
X37302Y181035D01*
X37684Y182148D02*
X38216D01*
X37926Y181761D01*
X38071D01*
X38167Y181712D01*
X38216Y181664D01*
X38264Y181519D01*
Y181422D01*
X38216Y181277D01*
X38119Y181180D01*
X37974Y181132D01*
X37829D01*
X37684Y181180D01*
X37635Y181229D01*
X37587Y181325D01*
X36612Y170718D02*
X36515Y170669D01*
X36419Y170573D01*
X36370Y170476D01*
X36322Y170331D01*
Y170089D01*
X36370Y169944D01*
X36419Y169847D01*
X36515Y169750D01*
X36612Y169702D01*
X36806D01*
X36902Y169750D01*
X36999Y169847D01*
X37048Y169944D01*
X37096Y170089D01*
Y170331D01*
X37048Y170476D01*
X36999Y170573D01*
X36902Y170669D01*
X36806Y170718D01*
X36612D01*
X36757Y169895D02*
X37048Y169605D01*
X37333Y170524D02*
X37430Y170573D01*
X37575Y170718D01*
Y169702D01*
X20042Y152430D02*
Y151656D01*
X19993Y151511D01*
X19945Y151462D01*
X19848Y151414D01*
X19751D01*
X19655Y151462D01*
X19606Y151511D01*
X19558Y151656D01*
Y151753D01*
X20351Y152188D02*
Y152236D01*
X20400Y152333D01*
X20448Y152381D01*
X20545Y152430D01*
X20738D01*
X20835Y152381D01*
X20883Y152333D01*
X20932Y152236D01*
Y152140D01*
X20883Y152043D01*
X20787Y151898D01*
X20303Y151414D01*
X20980D01*
X47728Y152430D02*
Y151656D01*
X47679Y151511D01*
X47631Y151462D01*
X47534Y151414D01*
X47437D01*
X47341Y151462D01*
X47292Y151511D01*
X47244Y151656D01*
Y151753D01*
X47989Y152236D02*
X48086Y152285D01*
X48231Y152430D01*
Y151414D01*
X39624Y178846D02*
Y177830D01*
Y178846D02*
X39963D01*
X40108Y178797D01*
X40204Y178701D01*
X40253Y178604D01*
X40301Y178459D01*
Y178217D01*
X40253Y178072D01*
X40204Y177975D01*
X40108Y177878D01*
X39963Y177830D01*
X39624D01*
X41012Y178846D02*
X40529Y178169D01*
X41254D01*
X41012Y178846D02*
Y177830D01*
X30170Y160990D02*
Y159974D01*
Y160990D02*
X30508D01*
X30653Y160941D01*
X30750Y160844D01*
X30798Y160748D01*
X30847Y160603D01*
Y160361D01*
X30798Y160216D01*
X30750Y160119D01*
X30653Y160022D01*
X30508Y159974D01*
X30170D01*
X31122Y160748D02*
Y160796D01*
X31171Y160893D01*
X31219Y160941D01*
X31316Y160990D01*
X31509D01*
X31606Y160941D01*
X31655Y160893D01*
X31703Y160796D01*
Y160699D01*
X31655Y160603D01*
X31558Y160458D01*
X31074Y159974D01*
X31751D01*
X35910Y160990D02*
Y159974D01*
Y160990D02*
X36249D01*
X36394Y160941D01*
X36490Y160844D01*
X36539Y160748D01*
X36587Y160603D01*
Y160361D01*
X36539Y160216D01*
X36490Y160119D01*
X36394Y160022D01*
X36249Y159974D01*
X35910D01*
X36815Y160796D02*
X36911Y160844D01*
X37056Y160990D01*
Y159974D01*
X9870Y173016D02*
X9821Y173113D01*
X9724Y173209D01*
X9628Y173258D01*
X9434D01*
X9337Y173209D01*
X9241Y173113D01*
X9192Y173016D01*
X9144Y172871D01*
Y172629D01*
X9192Y172484D01*
X9241Y172387D01*
X9337Y172290D01*
X9434Y172242D01*
X9628D01*
X9724Y172290D01*
X9821Y172387D01*
X9870Y172484D01*
X10155Y173064D02*
X10252Y173113D01*
X10397Y173258D01*
Y172242D01*
X22098Y163606D02*
Y162590D01*
Y163606D02*
X22533D01*
X22678Y163557D01*
X22727Y163509D01*
X22775Y163412D01*
Y163316D01*
X22727Y163219D01*
X22678Y163170D01*
X22533Y163122D01*
X22098D02*
X22533D01*
X22678Y163074D01*
X22727Y163025D01*
X22775Y162929D01*
Y162783D01*
X22727Y162687D01*
X22678Y162638D01*
X22533Y162590D01*
X22098D01*
X23003Y163606D02*
Y162590D01*
Y163606D02*
X23341D01*
X23486Y163557D01*
X23583Y163461D01*
X23631Y163364D01*
X23680Y163219D01*
Y162977D01*
X23631Y162832D01*
X23583Y162735D01*
X23486Y162638D01*
X23341Y162590D01*
X23003D01*
X23907Y163412D02*
X24004Y163461D01*
X24149Y163606D01*
Y162590D01*
X112802Y177576D02*
X112705Y177527D01*
X112609Y177431D01*
X112560Y177334D01*
X112512Y177189D01*
Y176947D01*
X112560Y176802D01*
X112609Y176705D01*
X112705Y176608D01*
X112802Y176560D01*
X112996D01*
X113092Y176608D01*
X113189Y176705D01*
X113238Y176802D01*
X113286Y176947D01*
Y177189D01*
X113238Y177334D01*
X113189Y177431D01*
X113092Y177527D01*
X112996Y177576D01*
X112802D01*
X112947Y176753D02*
X113238Y176463D01*
X113571Y177334D02*
Y177382D01*
X113620Y177479D01*
X113668Y177527D01*
X113765Y177576D01*
X113958D01*
X114055Y177527D01*
X114103Y177479D01*
X114152Y177382D01*
Y177286D01*
X114103Y177189D01*
X114007Y177044D01*
X113523Y176560D01*
X114200D01*
X118838Y148874D02*
Y148100D01*
X118789Y147955D01*
X118741Y147906D01*
X118644Y147858D01*
X118547D01*
X118451Y147906D01*
X118402Y147955D01*
X118354Y148100D01*
Y148197D01*
X119099Y148342D02*
X119534D01*
X119679Y148390D01*
X119728Y148438D01*
X119776Y148535D01*
Y148680D01*
X119728Y148777D01*
X119679Y148825D01*
X119534Y148874D01*
X119099D01*
Y147858D01*
X120003Y148680D02*
X120100Y148729D01*
X120245Y148874D01*
Y147858D01*
X88043Y161175D02*
X87946Y161271D01*
X87801Y161320D01*
X87608D01*
X87463Y161271D01*
X87366Y161175D01*
Y161078D01*
X87414Y160981D01*
X87463Y160933D01*
X87559Y160884D01*
X87850Y160788D01*
X87946Y160739D01*
X87995Y160691D01*
X88043Y160594D01*
Y160449D01*
X87946Y160352D01*
X87801Y160304D01*
X87608D01*
X87463Y160352D01*
X87366Y160449D01*
X88319Y161078D02*
Y161126D01*
X88367Y161223D01*
X88416Y161271D01*
X88512Y161320D01*
X88706D01*
X88803Y161271D01*
X88851Y161223D01*
X88899Y161126D01*
Y161030D01*
X88851Y160933D01*
X88754Y160788D01*
X88271Y160304D01*
X88948D01*
X121148Y155224D02*
Y154208D01*
Y155224D02*
X121583D01*
X121728Y155175D01*
X121777Y155127D01*
X121825Y155030D01*
Y154934D01*
X121777Y154837D01*
X121728Y154788D01*
X121583Y154740D01*
X121148D01*
X121487D02*
X121825Y154208D01*
X122294Y155224D02*
X122149Y155175D01*
X122101Y155079D01*
Y154982D01*
X122149Y154885D01*
X122246Y154837D01*
X122439Y154788D01*
X122585Y154740D01*
X122681Y154643D01*
X122730Y154547D01*
Y154401D01*
X122681Y154305D01*
X122633Y154256D01*
X122488Y154208D01*
X122294D01*
X122149Y154256D01*
X122101Y154305D01*
X122053Y154401D01*
Y154547D01*
X122101Y154643D01*
X122198Y154740D01*
X122343Y154788D01*
X122536Y154837D01*
X122633Y154885D01*
X122681Y154982D01*
Y155079D01*
X122633Y155175D01*
X122488Y155224D01*
X122294D01*
X121656Y170718D02*
Y169702D01*
Y170718D02*
X122091D01*
X122236Y170669D01*
X122285Y170621D01*
X122333Y170524D01*
Y170428D01*
X122285Y170331D01*
X122236Y170282D01*
X122091Y170234D01*
X121656D01*
X121995D02*
X122333Y169702D01*
X123238Y170718D02*
X122754Y169702D01*
X122561Y170718D02*
X123238D01*
X121910Y173512D02*
Y172496D01*
Y173512D02*
X122345D01*
X122490Y173463D01*
X122539Y173415D01*
X122587Y173318D01*
Y173222D01*
X122539Y173125D01*
X122490Y173076D01*
X122345Y173028D01*
X121910D01*
X122249D02*
X122587Y172496D01*
X123395Y173367D02*
X123347Y173463D01*
X123201Y173512D01*
X123105D01*
X122960Y173463D01*
X122863Y173318D01*
X122815Y173076D01*
Y172835D01*
X122863Y172641D01*
X122960Y172544D01*
X123105Y172496D01*
X123153D01*
X123298Y172544D01*
X123395Y172641D01*
X123443Y172786D01*
Y172835D01*
X123395Y172980D01*
X123298Y173076D01*
X123153Y173125D01*
X123105D01*
X122960Y173076D01*
X122863Y172980D01*
X122815Y172835D01*
X97272Y174528D02*
Y173512D01*
Y174528D02*
X97707D01*
X97852Y174479D01*
X97901Y174431D01*
X97949Y174334D01*
Y174238D01*
X97901Y174141D01*
X97852Y174092D01*
X97707Y174044D01*
X97272D01*
X97611D02*
X97949Y173512D01*
X98757Y174528D02*
X98273D01*
X98225Y174092D01*
X98273Y174141D01*
X98418Y174189D01*
X98563D01*
X98709Y174141D01*
X98805Y174044D01*
X98854Y173899D01*
Y173802D01*
X98805Y173657D01*
X98709Y173560D01*
X98563Y173512D01*
X98418D01*
X98273Y173560D01*
X98225Y173609D01*
X98177Y173705D01*
X102606Y180878D02*
Y179862D01*
Y180878D02*
X103041D01*
X103186Y180829D01*
X103235Y180781D01*
X103283Y180684D01*
Y180588D01*
X103235Y180491D01*
X103186Y180442D01*
X103041Y180394D01*
X102606D01*
X102945D02*
X103283Y179862D01*
X103994Y180878D02*
X103511Y180201D01*
X104236D01*
X103994Y180878D02*
Y179862D01*
X102630Y175798D02*
Y174782D01*
Y175798D02*
X103066D01*
X103211Y175749D01*
X103259Y175701D01*
X103307Y175604D01*
Y175508D01*
X103259Y175411D01*
X103211Y175362D01*
X103066Y175314D01*
X102630D01*
X102969D02*
X103307Y174782D01*
X103631Y175798D02*
X104164D01*
X103873Y175411D01*
X104018D01*
X104115Y175362D01*
X104164Y175314D01*
X104212Y175169D01*
Y175072D01*
X104164Y174927D01*
X104067Y174830D01*
X103922Y174782D01*
X103777D01*
X103631Y174830D01*
X103583Y174879D01*
X103535Y174975D01*
X110226Y166146D02*
Y165130D01*
Y166146D02*
X110661D01*
X110806Y166097D01*
X110855Y166049D01*
X110903Y165952D01*
Y165856D01*
X110855Y165759D01*
X110806Y165710D01*
X110661Y165662D01*
X110226D01*
X110565D02*
X110903Y165130D01*
X111179Y165904D02*
Y165952D01*
X111227Y166049D01*
X111276Y166097D01*
X111372Y166146D01*
X111566D01*
X111663Y166097D01*
X111711Y166049D01*
X111759Y165952D01*
Y165856D01*
X111711Y165759D01*
X111614Y165614D01*
X111131Y165130D01*
X111808D01*
X110480Y170972D02*
Y169956D01*
Y170972D02*
X110915D01*
X111060Y170923D01*
X111109Y170875D01*
X111157Y170778D01*
Y170682D01*
X111109Y170585D01*
X111060Y170536D01*
X110915Y170488D01*
X110480D01*
X110819D02*
X111157Y169956D01*
X111385Y170778D02*
X111481Y170827D01*
X111626Y170972D01*
Y169956D01*
X116866Y182148D02*
X116769Y182099D01*
X116673Y182003D01*
X116624Y181906D01*
X116576Y181761D01*
Y181519D01*
X116624Y181374D01*
X116673Y181277D01*
X116769Y181180D01*
X116866Y181132D01*
X117060D01*
X117156Y181180D01*
X117253Y181277D01*
X117302Y181374D01*
X117350Y181519D01*
Y181761D01*
X117302Y181906D01*
X117253Y182003D01*
X117156Y182099D01*
X117060Y182148D01*
X116866D01*
X117011Y181325D02*
X117302Y181035D01*
X117684Y182148D02*
X118216D01*
X117926Y181761D01*
X118071D01*
X118167Y181712D01*
X118216Y181664D01*
X118264Y181519D01*
Y181422D01*
X118216Y181277D01*
X118119Y181180D01*
X117974Y181132D01*
X117829D01*
X117684Y181180D01*
X117635Y181229D01*
X117587Y181325D01*
X116612Y170718D02*
X116515Y170669D01*
X116419Y170573D01*
X116370Y170476D01*
X116322Y170331D01*
Y170089D01*
X116370Y169944D01*
X116419Y169847D01*
X116515Y169750D01*
X116612Y169702D01*
X116806D01*
X116902Y169750D01*
X116999Y169847D01*
X117048Y169944D01*
X117096Y170089D01*
Y170331D01*
X117048Y170476D01*
X116999Y170573D01*
X116902Y170669D01*
X116806Y170718D01*
X116612D01*
X116757Y169895D02*
X117048Y169605D01*
X117333Y170524D02*
X117430Y170573D01*
X117575Y170718D01*
Y169702D01*
X100042Y152430D02*
Y151656D01*
X99993Y151511D01*
X99945Y151462D01*
X99848Y151414D01*
X99751D01*
X99655Y151462D01*
X99606Y151511D01*
X99558Y151656D01*
Y151753D01*
X100351Y152188D02*
Y152236D01*
X100400Y152333D01*
X100448Y152381D01*
X100545Y152430D01*
X100738D01*
X100835Y152381D01*
X100883Y152333D01*
X100932Y152236D01*
Y152140D01*
X100883Y152043D01*
X100787Y151898D01*
X100303Y151414D01*
X100980D01*
X127728Y152430D02*
Y151656D01*
X127679Y151511D01*
X127631Y151462D01*
X127534Y151414D01*
X127437D01*
X127341Y151462D01*
X127292Y151511D01*
X127244Y151656D01*
Y151753D01*
X127989Y152236D02*
X128086Y152285D01*
X128231Y152430D01*
Y151414D01*
X119624Y178846D02*
Y177830D01*
Y178846D02*
X119963D01*
X120108Y178797D01*
X120204Y178701D01*
X120253Y178604D01*
X120301Y178459D01*
Y178217D01*
X120253Y178072D01*
X120204Y177975D01*
X120108Y177878D01*
X119963Y177830D01*
X119624D01*
X121012Y178846D02*
X120529Y178169D01*
X121254D01*
X121012Y178846D02*
Y177830D01*
X110170Y160990D02*
Y159974D01*
Y160990D02*
X110508D01*
X110653Y160941D01*
X110750Y160844D01*
X110798Y160748D01*
X110847Y160603D01*
Y160361D01*
X110798Y160216D01*
X110750Y160119D01*
X110653Y160022D01*
X110508Y159974D01*
X110170D01*
X111122Y160748D02*
Y160796D01*
X111171Y160893D01*
X111219Y160941D01*
X111316Y160990D01*
X111509D01*
X111606Y160941D01*
X111655Y160893D01*
X111703Y160796D01*
Y160699D01*
X111655Y160603D01*
X111558Y160458D01*
X111074Y159974D01*
X111751D01*
X115910Y160990D02*
Y159974D01*
Y160990D02*
X116249D01*
X116394Y160941D01*
X116490Y160844D01*
X116539Y160748D01*
X116587Y160603D01*
Y160361D01*
X116539Y160216D01*
X116490Y160119D01*
X116394Y160022D01*
X116249Y159974D01*
X115910D01*
X116815Y160796D02*
X116911Y160844D01*
X117056Y160990D01*
Y159974D01*
X89870Y173016D02*
X89821Y173113D01*
X89724Y173209D01*
X89628Y173258D01*
X89434D01*
X89337Y173209D01*
X89241Y173113D01*
X89192Y173016D01*
X89144Y172871D01*
Y172629D01*
X89192Y172484D01*
X89241Y172387D01*
X89337Y172290D01*
X89434Y172242D01*
X89628D01*
X89724Y172290D01*
X89821Y172387D01*
X89870Y172484D01*
X90155Y173064D02*
X90252Y173113D01*
X90397Y173258D01*
Y172242D01*
X102098Y163606D02*
Y162590D01*
Y163606D02*
X102533D01*
X102678Y163557D01*
X102727Y163509D01*
X102775Y163412D01*
Y163316D01*
X102727Y163219D01*
X102678Y163170D01*
X102533Y163122D01*
X102098D02*
X102533D01*
X102678Y163074D01*
X102727Y163025D01*
X102775Y162929D01*
Y162783D01*
X102727Y162687D01*
X102678Y162638D01*
X102533Y162590D01*
X102098D01*
X103003Y163606D02*
Y162590D01*
Y163606D02*
X103341D01*
X103486Y163557D01*
X103583Y163461D01*
X103631Y163364D01*
X103680Y163219D01*
Y162977D01*
X103631Y162832D01*
X103583Y162735D01*
X103486Y162638D01*
X103341Y162590D01*
X103003D01*
X103907Y163412D02*
X104004Y163461D01*
X104149Y163606D01*
Y162590D01*
X32802Y224576D02*
X32705Y224527D01*
X32609Y224431D01*
X32560Y224334D01*
X32512Y224189D01*
Y223947D01*
X32560Y223802D01*
X32609Y223705D01*
X32705Y223608D01*
X32802Y223560D01*
X32996D01*
X33092Y223608D01*
X33189Y223705D01*
X33238Y223802D01*
X33286Y223947D01*
Y224189D01*
X33238Y224334D01*
X33189Y224431D01*
X33092Y224527D01*
X32996Y224576D01*
X32802D01*
X32947Y223753D02*
X33238Y223463D01*
X33571Y224334D02*
Y224382D01*
X33620Y224479D01*
X33668Y224527D01*
X33765Y224576D01*
X33958D01*
X34055Y224527D01*
X34103Y224479D01*
X34152Y224382D01*
Y224286D01*
X34103Y224189D01*
X34007Y224044D01*
X33523Y223560D01*
X34200D01*
X38838Y195874D02*
Y195100D01*
X38789Y194955D01*
X38741Y194906D01*
X38644Y194858D01*
X38547D01*
X38451Y194906D01*
X38402Y194955D01*
X38354Y195100D01*
Y195197D01*
X39099Y195342D02*
X39534D01*
X39679Y195390D01*
X39728Y195438D01*
X39776Y195535D01*
Y195680D01*
X39728Y195777D01*
X39679Y195825D01*
X39534Y195874D01*
X39099D01*
Y194858D01*
X40003Y195680D02*
X40100Y195729D01*
X40245Y195874D01*
Y194858D01*
X8043Y208175D02*
X7946Y208271D01*
X7801Y208320D01*
X7608D01*
X7463Y208271D01*
X7366Y208175D01*
Y208078D01*
X7414Y207981D01*
X7463Y207933D01*
X7559Y207884D01*
X7850Y207788D01*
X7946Y207739D01*
X7995Y207691D01*
X8043Y207594D01*
Y207449D01*
X7946Y207352D01*
X7801Y207304D01*
X7608D01*
X7463Y207352D01*
X7366Y207449D01*
X8319Y208078D02*
Y208126D01*
X8367Y208223D01*
X8416Y208271D01*
X8512Y208320D01*
X8706D01*
X8803Y208271D01*
X8851Y208223D01*
X8899Y208126D01*
Y208030D01*
X8851Y207933D01*
X8754Y207788D01*
X8271Y207304D01*
X8948D01*
X41148Y202224D02*
Y201208D01*
Y202224D02*
X41583D01*
X41728Y202175D01*
X41777Y202127D01*
X41825Y202030D01*
Y201934D01*
X41777Y201837D01*
X41728Y201788D01*
X41583Y201740D01*
X41148D01*
X41487D02*
X41825Y201208D01*
X42294Y202224D02*
X42149Y202175D01*
X42101Y202079D01*
Y201982D01*
X42149Y201885D01*
X42246Y201837D01*
X42439Y201788D01*
X42585Y201740D01*
X42681Y201643D01*
X42730Y201547D01*
Y201401D01*
X42681Y201305D01*
X42633Y201256D01*
X42488Y201208D01*
X42294D01*
X42149Y201256D01*
X42101Y201305D01*
X42053Y201401D01*
Y201547D01*
X42101Y201643D01*
X42198Y201740D01*
X42343Y201788D01*
X42536Y201837D01*
X42633Y201885D01*
X42681Y201982D01*
Y202079D01*
X42633Y202175D01*
X42488Y202224D01*
X42294D01*
X41656Y217718D02*
Y216702D01*
Y217718D02*
X42091D01*
X42236Y217669D01*
X42285Y217621D01*
X42333Y217524D01*
Y217428D01*
X42285Y217331D01*
X42236Y217282D01*
X42091Y217234D01*
X41656D01*
X41995D02*
X42333Y216702D01*
X43238Y217718D02*
X42754Y216702D01*
X42561Y217718D02*
X43238D01*
X41910Y220512D02*
Y219496D01*
Y220512D02*
X42345D01*
X42490Y220463D01*
X42539Y220415D01*
X42587Y220318D01*
Y220222D01*
X42539Y220125D01*
X42490Y220076D01*
X42345Y220028D01*
X41910D01*
X42249D02*
X42587Y219496D01*
X43395Y220367D02*
X43347Y220463D01*
X43201Y220512D01*
X43105D01*
X42960Y220463D01*
X42863Y220318D01*
X42815Y220076D01*
Y219835D01*
X42863Y219641D01*
X42960Y219544D01*
X43105Y219496D01*
X43153D01*
X43298Y219544D01*
X43395Y219641D01*
X43443Y219786D01*
Y219835D01*
X43395Y219980D01*
X43298Y220076D01*
X43153Y220125D01*
X43105D01*
X42960Y220076D01*
X42863Y219980D01*
X42815Y219835D01*
X17272Y221528D02*
Y220512D01*
Y221528D02*
X17707D01*
X17852Y221479D01*
X17901Y221431D01*
X17949Y221334D01*
Y221238D01*
X17901Y221141D01*
X17852Y221092D01*
X17707Y221044D01*
X17272D01*
X17611D02*
X17949Y220512D01*
X18757Y221528D02*
X18273D01*
X18225Y221092D01*
X18273Y221141D01*
X18418Y221189D01*
X18563D01*
X18709Y221141D01*
X18805Y221044D01*
X18854Y220899D01*
Y220802D01*
X18805Y220657D01*
X18709Y220560D01*
X18563Y220512D01*
X18418D01*
X18273Y220560D01*
X18225Y220609D01*
X18177Y220705D01*
X22606Y227878D02*
Y226862D01*
Y227878D02*
X23041D01*
X23186Y227829D01*
X23235Y227781D01*
X23283Y227684D01*
Y227588D01*
X23235Y227491D01*
X23186Y227442D01*
X23041Y227394D01*
X22606D01*
X22945D02*
X23283Y226862D01*
X23994Y227878D02*
X23511Y227201D01*
X24236D01*
X23994Y227878D02*
Y226862D01*
X22630Y222798D02*
Y221782D01*
Y222798D02*
X23066D01*
X23211Y222749D01*
X23259Y222701D01*
X23307Y222604D01*
Y222508D01*
X23259Y222411D01*
X23211Y222362D01*
X23066Y222314D01*
X22630D01*
X22969D02*
X23307Y221782D01*
X23631Y222798D02*
X24164D01*
X23873Y222411D01*
X24018D01*
X24115Y222362D01*
X24164Y222314D01*
X24212Y222169D01*
Y222072D01*
X24164Y221927D01*
X24067Y221830D01*
X23922Y221782D01*
X23777D01*
X23631Y221830D01*
X23583Y221879D01*
X23535Y221975D01*
X30226Y213146D02*
Y212130D01*
Y213146D02*
X30661D01*
X30806Y213097D01*
X30855Y213049D01*
X30903Y212952D01*
Y212856D01*
X30855Y212759D01*
X30806Y212710D01*
X30661Y212662D01*
X30226D01*
X30565D02*
X30903Y212130D01*
X31179Y212904D02*
Y212952D01*
X31227Y213049D01*
X31276Y213097D01*
X31372Y213146D01*
X31566D01*
X31663Y213097D01*
X31711Y213049D01*
X31759Y212952D01*
Y212856D01*
X31711Y212759D01*
X31614Y212614D01*
X31131Y212130D01*
X31808D01*
X30480Y217972D02*
Y216956D01*
Y217972D02*
X30915D01*
X31060Y217923D01*
X31109Y217875D01*
X31157Y217778D01*
Y217682D01*
X31109Y217585D01*
X31060Y217536D01*
X30915Y217488D01*
X30480D01*
X30819D02*
X31157Y216956D01*
X31385Y217778D02*
X31481Y217827D01*
X31626Y217972D01*
Y216956D01*
X36866Y229148D02*
X36769Y229099D01*
X36673Y229003D01*
X36624Y228906D01*
X36576Y228761D01*
Y228519D01*
X36624Y228374D01*
X36673Y228277D01*
X36769Y228180D01*
X36866Y228132D01*
X37060D01*
X37156Y228180D01*
X37253Y228277D01*
X37302Y228374D01*
X37350Y228519D01*
Y228761D01*
X37302Y228906D01*
X37253Y229003D01*
X37156Y229099D01*
X37060Y229148D01*
X36866D01*
X37011Y228325D02*
X37302Y228035D01*
X37684Y229148D02*
X38216D01*
X37926Y228761D01*
X38071D01*
X38167Y228712D01*
X38216Y228664D01*
X38264Y228519D01*
Y228422D01*
X38216Y228277D01*
X38119Y228180D01*
X37974Y228132D01*
X37829D01*
X37684Y228180D01*
X37635Y228229D01*
X37587Y228325D01*
X36612Y217718D02*
X36515Y217669D01*
X36419Y217573D01*
X36370Y217476D01*
X36322Y217331D01*
Y217089D01*
X36370Y216944D01*
X36419Y216847D01*
X36515Y216750D01*
X36612Y216702D01*
X36806D01*
X36902Y216750D01*
X36999Y216847D01*
X37048Y216944D01*
X37096Y217089D01*
Y217331D01*
X37048Y217476D01*
X36999Y217573D01*
X36902Y217669D01*
X36806Y217718D01*
X36612D01*
X36757Y216895D02*
X37048Y216605D01*
X37333Y217524D02*
X37430Y217573D01*
X37575Y217718D01*
Y216702D01*
X20042Y199430D02*
Y198656D01*
X19993Y198511D01*
X19945Y198462D01*
X19848Y198414D01*
X19751D01*
X19655Y198462D01*
X19606Y198511D01*
X19558Y198656D01*
Y198753D01*
X20351Y199188D02*
Y199236D01*
X20400Y199333D01*
X20448Y199381D01*
X20545Y199430D01*
X20738D01*
X20835Y199381D01*
X20883Y199333D01*
X20932Y199236D01*
Y199140D01*
X20883Y199043D01*
X20787Y198898D01*
X20303Y198414D01*
X20980D01*
X47728Y199430D02*
Y198656D01*
X47679Y198511D01*
X47631Y198462D01*
X47534Y198414D01*
X47437D01*
X47341Y198462D01*
X47292Y198511D01*
X47244Y198656D01*
Y198753D01*
X47989Y199236D02*
X48086Y199285D01*
X48231Y199430D01*
Y198414D01*
X39624Y225846D02*
Y224830D01*
Y225846D02*
X39963D01*
X40108Y225797D01*
X40204Y225701D01*
X40253Y225604D01*
X40301Y225459D01*
Y225217D01*
X40253Y225072D01*
X40204Y224975D01*
X40108Y224878D01*
X39963Y224830D01*
X39624D01*
X41012Y225846D02*
X40529Y225169D01*
X41254D01*
X41012Y225846D02*
Y224830D01*
X30170Y207990D02*
Y206974D01*
Y207990D02*
X30508D01*
X30653Y207941D01*
X30750Y207844D01*
X30798Y207748D01*
X30847Y207603D01*
Y207361D01*
X30798Y207216D01*
X30750Y207119D01*
X30653Y207022D01*
X30508Y206974D01*
X30170D01*
X31122Y207748D02*
Y207796D01*
X31171Y207893D01*
X31219Y207941D01*
X31316Y207990D01*
X31509D01*
X31606Y207941D01*
X31655Y207893D01*
X31703Y207796D01*
Y207699D01*
X31655Y207603D01*
X31558Y207458D01*
X31074Y206974D01*
X31751D01*
X35910Y207990D02*
Y206974D01*
Y207990D02*
X36249D01*
X36394Y207941D01*
X36490Y207844D01*
X36539Y207748D01*
X36587Y207603D01*
Y207361D01*
X36539Y207216D01*
X36490Y207119D01*
X36394Y207022D01*
X36249Y206974D01*
X35910D01*
X36815Y207796D02*
X36911Y207844D01*
X37056Y207990D01*
Y206974D01*
X9870Y220016D02*
X9821Y220113D01*
X9724Y220209D01*
X9628Y220258D01*
X9434D01*
X9337Y220209D01*
X9241Y220113D01*
X9192Y220016D01*
X9144Y219871D01*
Y219629D01*
X9192Y219484D01*
X9241Y219387D01*
X9337Y219290D01*
X9434Y219242D01*
X9628D01*
X9724Y219290D01*
X9821Y219387D01*
X9870Y219484D01*
X10155Y220064D02*
X10252Y220113D01*
X10397Y220258D01*
Y219242D01*
X22098Y210606D02*
Y209590D01*
Y210606D02*
X22533D01*
X22678Y210557D01*
X22727Y210509D01*
X22775Y210412D01*
Y210316D01*
X22727Y210219D01*
X22678Y210170D01*
X22533Y210122D01*
X22098D02*
X22533D01*
X22678Y210074D01*
X22727Y210025D01*
X22775Y209929D01*
Y209783D01*
X22727Y209687D01*
X22678Y209638D01*
X22533Y209590D01*
X22098D01*
X23003Y210606D02*
Y209590D01*
Y210606D02*
X23341D01*
X23486Y210557D01*
X23583Y210461D01*
X23631Y210364D01*
X23680Y210219D01*
Y209977D01*
X23631Y209832D01*
X23583Y209735D01*
X23486Y209638D01*
X23341Y209590D01*
X23003D01*
X23907Y210412D02*
X24004Y210461D01*
X24149Y210606D01*
Y209590D01*
X112802Y224576D02*
X112705Y224527D01*
X112609Y224431D01*
X112560Y224334D01*
X112512Y224189D01*
Y223947D01*
X112560Y223802D01*
X112609Y223705D01*
X112705Y223608D01*
X112802Y223560D01*
X112996D01*
X113092Y223608D01*
X113189Y223705D01*
X113238Y223802D01*
X113286Y223947D01*
Y224189D01*
X113238Y224334D01*
X113189Y224431D01*
X113092Y224527D01*
X112996Y224576D01*
X112802D01*
X112947Y223753D02*
X113238Y223463D01*
X113571Y224334D02*
Y224382D01*
X113620Y224479D01*
X113668Y224527D01*
X113765Y224576D01*
X113958D01*
X114055Y224527D01*
X114103Y224479D01*
X114152Y224382D01*
Y224286D01*
X114103Y224189D01*
X114007Y224044D01*
X113523Y223560D01*
X114200D01*
X118838Y195874D02*
Y195100D01*
X118789Y194955D01*
X118741Y194906D01*
X118644Y194858D01*
X118547D01*
X118451Y194906D01*
X118402Y194955D01*
X118354Y195100D01*
Y195197D01*
X119099Y195342D02*
X119534D01*
X119679Y195390D01*
X119728Y195438D01*
X119776Y195535D01*
Y195680D01*
X119728Y195777D01*
X119679Y195825D01*
X119534Y195874D01*
X119099D01*
Y194858D01*
X120003Y195680D02*
X120100Y195729D01*
X120245Y195874D01*
Y194858D01*
X88043Y208175D02*
X87946Y208271D01*
X87801Y208320D01*
X87608D01*
X87463Y208271D01*
X87366Y208175D01*
Y208078D01*
X87414Y207981D01*
X87463Y207933D01*
X87559Y207884D01*
X87850Y207788D01*
X87946Y207739D01*
X87995Y207691D01*
X88043Y207594D01*
Y207449D01*
X87946Y207352D01*
X87801Y207304D01*
X87608D01*
X87463Y207352D01*
X87366Y207449D01*
X88319Y208078D02*
Y208126D01*
X88367Y208223D01*
X88416Y208271D01*
X88512Y208320D01*
X88706D01*
X88803Y208271D01*
X88851Y208223D01*
X88899Y208126D01*
Y208030D01*
X88851Y207933D01*
X88754Y207788D01*
X88271Y207304D01*
X88948D01*
X121148Y202224D02*
Y201208D01*
Y202224D02*
X121583D01*
X121728Y202175D01*
X121777Y202127D01*
X121825Y202030D01*
Y201934D01*
X121777Y201837D01*
X121728Y201788D01*
X121583Y201740D01*
X121148D01*
X121487D02*
X121825Y201208D01*
X122294Y202224D02*
X122149Y202175D01*
X122101Y202079D01*
Y201982D01*
X122149Y201885D01*
X122246Y201837D01*
X122439Y201788D01*
X122585Y201740D01*
X122681Y201643D01*
X122730Y201547D01*
Y201401D01*
X122681Y201305D01*
X122633Y201256D01*
X122488Y201208D01*
X122294D01*
X122149Y201256D01*
X122101Y201305D01*
X122053Y201401D01*
Y201547D01*
X122101Y201643D01*
X122198Y201740D01*
X122343Y201788D01*
X122536Y201837D01*
X122633Y201885D01*
X122681Y201982D01*
Y202079D01*
X122633Y202175D01*
X122488Y202224D01*
X122294D01*
X121656Y217718D02*
Y216702D01*
Y217718D02*
X122091D01*
X122236Y217669D01*
X122285Y217621D01*
X122333Y217524D01*
Y217428D01*
X122285Y217331D01*
X122236Y217282D01*
X122091Y217234D01*
X121656D01*
X121995D02*
X122333Y216702D01*
X123238Y217718D02*
X122754Y216702D01*
X122561Y217718D02*
X123238D01*
X121910Y220512D02*
Y219496D01*
Y220512D02*
X122345D01*
X122490Y220463D01*
X122539Y220415D01*
X122587Y220318D01*
Y220222D01*
X122539Y220125D01*
X122490Y220076D01*
X122345Y220028D01*
X121910D01*
X122249D02*
X122587Y219496D01*
X123395Y220367D02*
X123347Y220463D01*
X123201Y220512D01*
X123105D01*
X122960Y220463D01*
X122863Y220318D01*
X122815Y220076D01*
Y219835D01*
X122863Y219641D01*
X122960Y219544D01*
X123105Y219496D01*
X123153D01*
X123298Y219544D01*
X123395Y219641D01*
X123443Y219786D01*
Y219835D01*
X123395Y219980D01*
X123298Y220076D01*
X123153Y220125D01*
X123105D01*
X122960Y220076D01*
X122863Y219980D01*
X122815Y219835D01*
X97272Y221528D02*
Y220512D01*
Y221528D02*
X97707D01*
X97852Y221479D01*
X97901Y221431D01*
X97949Y221334D01*
Y221238D01*
X97901Y221141D01*
X97852Y221092D01*
X97707Y221044D01*
X97272D01*
X97611D02*
X97949Y220512D01*
X98757Y221528D02*
X98273D01*
X98225Y221092D01*
X98273Y221141D01*
X98418Y221189D01*
X98563D01*
X98709Y221141D01*
X98805Y221044D01*
X98854Y220899D01*
Y220802D01*
X98805Y220657D01*
X98709Y220560D01*
X98563Y220512D01*
X98418D01*
X98273Y220560D01*
X98225Y220609D01*
X98177Y220705D01*
X102606Y227878D02*
Y226862D01*
Y227878D02*
X103041D01*
X103186Y227829D01*
X103235Y227781D01*
X103283Y227684D01*
Y227588D01*
X103235Y227491D01*
X103186Y227442D01*
X103041Y227394D01*
X102606D01*
X102945D02*
X103283Y226862D01*
X103994Y227878D02*
X103511Y227201D01*
X104236D01*
X103994Y227878D02*
Y226862D01*
X102630Y222798D02*
Y221782D01*
Y222798D02*
X103066D01*
X103211Y222749D01*
X103259Y222701D01*
X103307Y222604D01*
Y222508D01*
X103259Y222411D01*
X103211Y222362D01*
X103066Y222314D01*
X102630D01*
X102969D02*
X103307Y221782D01*
X103631Y222798D02*
X104164D01*
X103873Y222411D01*
X104018D01*
X104115Y222362D01*
X104164Y222314D01*
X104212Y222169D01*
Y222072D01*
X104164Y221927D01*
X104067Y221830D01*
X103922Y221782D01*
X103777D01*
X103631Y221830D01*
X103583Y221879D01*
X103535Y221975D01*
X110226Y213146D02*
Y212130D01*
Y213146D02*
X110661D01*
X110806Y213097D01*
X110855Y213049D01*
X110903Y212952D01*
Y212856D01*
X110855Y212759D01*
X110806Y212710D01*
X110661Y212662D01*
X110226D01*
X110565D02*
X110903Y212130D01*
X111179Y212904D02*
Y212952D01*
X111227Y213049D01*
X111276Y213097D01*
X111372Y213146D01*
X111566D01*
X111663Y213097D01*
X111711Y213049D01*
X111759Y212952D01*
Y212856D01*
X111711Y212759D01*
X111614Y212614D01*
X111131Y212130D01*
X111808D01*
X110480Y217972D02*
Y216956D01*
Y217972D02*
X110915D01*
X111060Y217923D01*
X111109Y217875D01*
X111157Y217778D01*
Y217682D01*
X111109Y217585D01*
X111060Y217536D01*
X110915Y217488D01*
X110480D01*
X110819D02*
X111157Y216956D01*
X111385Y217778D02*
X111481Y217827D01*
X111626Y217972D01*
Y216956D01*
X116866Y229148D02*
X116769Y229099D01*
X116673Y229003D01*
X116624Y228906D01*
X116576Y228761D01*
Y228519D01*
X116624Y228374D01*
X116673Y228277D01*
X116769Y228180D01*
X116866Y228132D01*
X117060D01*
X117156Y228180D01*
X117253Y228277D01*
X117302Y228374D01*
X117350Y228519D01*
Y228761D01*
X117302Y228906D01*
X117253Y229003D01*
X117156Y229099D01*
X117060Y229148D01*
X116866D01*
X117011Y228325D02*
X117302Y228035D01*
X117684Y229148D02*
X118216D01*
X117926Y228761D01*
X118071D01*
X118167Y228712D01*
X118216Y228664D01*
X118264Y228519D01*
Y228422D01*
X118216Y228277D01*
X118119Y228180D01*
X117974Y228132D01*
X117829D01*
X117684Y228180D01*
X117635Y228229D01*
X117587Y228325D01*
X116612Y217718D02*
X116515Y217669D01*
X116419Y217573D01*
X116370Y217476D01*
X116322Y217331D01*
Y217089D01*
X116370Y216944D01*
X116419Y216847D01*
X116515Y216750D01*
X116612Y216702D01*
X116806D01*
X116902Y216750D01*
X116999Y216847D01*
X117048Y216944D01*
X117096Y217089D01*
Y217331D01*
X117048Y217476D01*
X116999Y217573D01*
X116902Y217669D01*
X116806Y217718D01*
X116612D01*
X116757Y216895D02*
X117048Y216605D01*
X117333Y217524D02*
X117430Y217573D01*
X117575Y217718D01*
Y216702D01*
X100042Y199430D02*
Y198656D01*
X99993Y198511D01*
X99945Y198462D01*
X99848Y198414D01*
X99751D01*
X99655Y198462D01*
X99606Y198511D01*
X99558Y198656D01*
Y198753D01*
X100351Y199188D02*
Y199236D01*
X100400Y199333D01*
X100448Y199381D01*
X100545Y199430D01*
X100738D01*
X100835Y199381D01*
X100883Y199333D01*
X100932Y199236D01*
Y199140D01*
X100883Y199043D01*
X100787Y198898D01*
X100303Y198414D01*
X100980D01*
X127728Y199430D02*
Y198656D01*
X127679Y198511D01*
X127631Y198462D01*
X127534Y198414D01*
X127437D01*
X127341Y198462D01*
X127292Y198511D01*
X127244Y198656D01*
Y198753D01*
X127989Y199236D02*
X128086Y199285D01*
X128231Y199430D01*
Y198414D01*
X119624Y225846D02*
Y224830D01*
Y225846D02*
X119963D01*
X120108Y225797D01*
X120204Y225701D01*
X120253Y225604D01*
X120301Y225459D01*
Y225217D01*
X120253Y225072D01*
X120204Y224975D01*
X120108Y224878D01*
X119963Y224830D01*
X119624D01*
X121012Y225846D02*
X120529Y225169D01*
X121254D01*
X121012Y225846D02*
Y224830D01*
X110170Y207990D02*
Y206974D01*
Y207990D02*
X110508D01*
X110653Y207941D01*
X110750Y207844D01*
X110798Y207748D01*
X110847Y207603D01*
Y207361D01*
X110798Y207216D01*
X110750Y207119D01*
X110653Y207022D01*
X110508Y206974D01*
X110170D01*
X111122Y207748D02*
Y207796D01*
X111171Y207893D01*
X111219Y207941D01*
X111316Y207990D01*
X111509D01*
X111606Y207941D01*
X111655Y207893D01*
X111703Y207796D01*
Y207699D01*
X111655Y207603D01*
X111558Y207458D01*
X111074Y206974D01*
X111751D01*
X115910Y207990D02*
Y206974D01*
Y207990D02*
X116249D01*
X116394Y207941D01*
X116490Y207844D01*
X116539Y207748D01*
X116587Y207603D01*
Y207361D01*
X116539Y207216D01*
X116490Y207119D01*
X116394Y207022D01*
X116249Y206974D01*
X115910D01*
X116815Y207796D02*
X116911Y207844D01*
X117056Y207990D01*
Y206974D01*
X89870Y220016D02*
X89821Y220113D01*
X89724Y220209D01*
X89628Y220258D01*
X89434D01*
X89337Y220209D01*
X89241Y220113D01*
X89192Y220016D01*
X89144Y219871D01*
Y219629D01*
X89192Y219484D01*
X89241Y219387D01*
X89337Y219290D01*
X89434Y219242D01*
X89628D01*
X89724Y219290D01*
X89821Y219387D01*
X89870Y219484D01*
X90155Y220064D02*
X90252Y220113D01*
X90397Y220258D01*
Y219242D01*
X102098Y210606D02*
Y209590D01*
Y210606D02*
X102533D01*
X102678Y210557D01*
X102727Y210509D01*
X102775Y210412D01*
Y210316D01*
X102727Y210219D01*
X102678Y210170D01*
X102533Y210122D01*
X102098D02*
X102533D01*
X102678Y210074D01*
X102727Y210025D01*
X102775Y209929D01*
Y209783D01*
X102727Y209687D01*
X102678Y209638D01*
X102533Y209590D01*
X102098D01*
X103003Y210606D02*
Y209590D01*
Y210606D02*
X103341D01*
X103486Y210557D01*
X103583Y210461D01*
X103631Y210364D01*
X103680Y210219D01*
Y209977D01*
X103631Y209832D01*
X103583Y209735D01*
X103486Y209638D01*
X103341Y209590D01*
X103003D01*
X103907Y210412D02*
X104004Y210461D01*
X104149Y210606D01*
Y209590D01*
D37*
X31970Y0D02*
D03*
X21860Y50D02*
D03*
X26970Y0D02*
D03*
X59750Y0D02*
D03*
X49640Y50D02*
D03*
X54750Y0D02*
D03*
X111970Y0D02*
D03*
X101860Y50D02*
D03*
X106970Y0D02*
D03*
X139750Y0D02*
D03*
X129640Y50D02*
D03*
X134750Y0D02*
D03*
X31970Y47000D02*
D03*
X21860Y47050D02*
D03*
X26970Y47000D02*
D03*
X59750Y47000D02*
D03*
X49640Y47050D02*
D03*
X54750Y47000D02*
D03*
X111970Y47000D02*
D03*
X101860Y47050D02*
D03*
X106970Y47000D02*
D03*
X139750Y47000D02*
D03*
X129640Y47050D02*
D03*
X134750Y47000D02*
D03*
X31970Y94000D02*
D03*
X21860Y94050D02*
D03*
X26970Y94000D02*
D03*
X59750Y94000D02*
D03*
X49640Y94050D02*
D03*
X54750Y94000D02*
D03*
X111970Y94000D02*
D03*
X101860Y94050D02*
D03*
X106970Y94000D02*
D03*
X139750Y94000D02*
D03*
X129640Y94050D02*
D03*
X134750Y94000D02*
D03*
X31970Y141000D02*
D03*
X21860Y141050D02*
D03*
X26970Y141000D02*
D03*
X59750Y141000D02*
D03*
X49640Y141050D02*
D03*
X54750Y141000D02*
D03*
X111970Y141000D02*
D03*
X101860Y141050D02*
D03*
X106970Y141000D02*
D03*
X139750Y141000D02*
D03*
X129640Y141050D02*
D03*
X134750Y141000D02*
D03*
X31970Y188000D02*
D03*
X21860Y188050D02*
D03*
X26970Y188000D02*
D03*
X59750Y188000D02*
D03*
X49640Y188050D02*
D03*
X54750Y188000D02*
D03*
X111970Y188000D02*
D03*
X101860Y188050D02*
D03*
X106970Y188000D02*
D03*
X139750Y188000D02*
D03*
X129640Y188050D02*
D03*
X134750Y188000D02*
D03*
M02*
