G04*
G04 #@! TF.GenerationSoftware,Altium Limited,Altium Designer,19.1.8 (144)*
G04*
G04 Layer_Color=32896*
%FSLAX43Y43*%
%MOMM*%
G71*
G01*
G75*
%ADD31C,0.076*%
%ADD33C,0.254*%
%ADD36C,0.203*%
D31*
X10340Y39345D02*
X15700D01*
X13007Y38049D02*
Y40691D01*
X90340Y39345D02*
X95700D01*
X93007Y38049D02*
Y40691D01*
X10340Y86345D02*
X15700D01*
X13007Y85049D02*
Y87691D01*
X90340Y86345D02*
X95700D01*
X93007Y85049D02*
Y87691D01*
X10340Y133345D02*
X15700D01*
X13007Y132049D02*
Y134691D01*
X90340Y133345D02*
X95700D01*
X93007Y132049D02*
Y134691D01*
X10340Y180345D02*
X15700D01*
X13007Y179049D02*
Y181691D01*
X90340Y180345D02*
X95700D01*
X93007Y179049D02*
Y181691D01*
X10340Y227345D02*
X15700D01*
X13007Y226049D02*
Y228691D01*
X90340Y227345D02*
X95700D01*
X93007Y226049D02*
Y228691D01*
D33*
X43130Y18140D02*
X55930Y18140D01*
X43130Y12340D02*
X55930Y12340D01*
Y12340D02*
Y18140D01*
X54610Y17018D02*
X55880D01*
X54610Y13462D02*
X55880D01*
X54610Y16571D02*
Y17272D01*
Y13208D02*
Y13909D01*
X41656Y13208D02*
X54610D01*
X41656D02*
Y17272D01*
X54610D01*
X43130D02*
Y18140D01*
Y12340D02*
Y13208D01*
X123130Y18140D02*
X135930Y18140D01*
X123130Y12340D02*
X135930Y12340D01*
Y12340D02*
Y18140D01*
X134610Y17018D02*
X135880D01*
X134610Y13462D02*
X135880D01*
X134610Y16571D02*
Y17272D01*
Y13208D02*
Y13909D01*
X121656Y13208D02*
X134610D01*
X121656D02*
Y17272D01*
X134610D01*
X123130D02*
Y18140D01*
Y12340D02*
Y13208D01*
X43130Y65140D02*
X55930Y65140D01*
X43130Y59340D02*
X55930Y59340D01*
Y59340D02*
Y65140D01*
X54610Y64018D02*
X55880D01*
X54610Y60462D02*
X55880D01*
X54610Y63571D02*
Y64272D01*
Y60208D02*
Y60909D01*
X41656Y60208D02*
X54610D01*
X41656D02*
Y64272D01*
X54610D01*
X43130D02*
Y65140D01*
Y59340D02*
Y60208D01*
X123130Y65140D02*
X135930Y65140D01*
X123130Y59340D02*
X135930Y59340D01*
Y59340D02*
Y65140D01*
X134610Y64018D02*
X135880D01*
X134610Y60462D02*
X135880D01*
X134610Y63571D02*
Y64272D01*
Y60208D02*
Y60909D01*
X121656Y60208D02*
X134610D01*
X121656D02*
Y64272D01*
X134610D01*
X123130D02*
Y65140D01*
Y59340D02*
Y60208D01*
X43130Y112140D02*
X55930Y112140D01*
X43130Y106340D02*
X55930Y106340D01*
Y106340D02*
Y112140D01*
X54610Y111018D02*
X55880D01*
X54610Y107462D02*
X55880D01*
X54610Y110571D02*
Y111272D01*
Y107208D02*
Y107909D01*
X41656Y107208D02*
X54610D01*
X41656D02*
Y111272D01*
X54610D01*
X43130D02*
Y112140D01*
Y106340D02*
Y107208D01*
X123130Y112140D02*
X135930Y112140D01*
X123130Y106340D02*
X135930Y106340D01*
Y106340D02*
Y112140D01*
X134610Y111018D02*
X135880D01*
X134610Y107462D02*
X135880D01*
X134610Y110571D02*
Y111272D01*
Y107208D02*
Y107909D01*
X121656Y107208D02*
X134610D01*
X121656D02*
Y111272D01*
X134610D01*
X123130D02*
Y112140D01*
Y106340D02*
Y107208D01*
X43130Y159140D02*
X55930Y159140D01*
X43130Y153340D02*
X55930Y153340D01*
Y153340D02*
Y159140D01*
X54610Y158018D02*
X55880D01*
X54610Y154462D02*
X55880D01*
X54610Y157571D02*
Y158272D01*
Y154208D02*
Y154909D01*
X41656Y154208D02*
X54610D01*
X41656D02*
Y158272D01*
X54610D01*
X43130D02*
Y159140D01*
Y153340D02*
Y154208D01*
X123130Y159140D02*
X135930Y159140D01*
X123130Y153340D02*
X135930Y153340D01*
Y153340D02*
Y159140D01*
X134610Y158018D02*
X135880D01*
X134610Y154462D02*
X135880D01*
X134610Y157571D02*
Y158272D01*
Y154208D02*
Y154909D01*
X121656Y154208D02*
X134610D01*
X121656D02*
Y158272D01*
X134610D01*
X123130D02*
Y159140D01*
Y153340D02*
Y154208D01*
X43130Y206140D02*
X55930Y206140D01*
X43130Y200340D02*
X55930Y200340D01*
Y200340D02*
Y206140D01*
X54610Y205018D02*
X55880D01*
X54610Y201462D02*
X55880D01*
X54610Y204571D02*
Y205272D01*
Y201208D02*
Y201909D01*
X41656Y201208D02*
X54610D01*
X41656D02*
Y205272D01*
X54610D01*
X43130D02*
Y206140D01*
Y200340D02*
Y201208D01*
X123130Y206140D02*
X135930Y206140D01*
X123130Y200340D02*
X135930Y200340D01*
Y200340D02*
Y206140D01*
X134610Y205018D02*
X135880D01*
X134610Y201462D02*
X135880D01*
X134610Y204571D02*
Y205272D01*
Y201208D02*
Y201909D01*
X121656Y201208D02*
X134610D01*
X121656D02*
Y205272D01*
X134610D01*
X123130D02*
Y206140D01*
Y200340D02*
Y201208D01*
D36*
X12085Y42443D02*
Y41427D01*
Y42443D02*
X11746D01*
X11601Y42395D01*
X11504Y42298D01*
X11456Y42201D01*
X11408Y42056D01*
Y41814D01*
X11456Y41669D01*
X11504Y41573D01*
X11601Y41476D01*
X11746Y41427D01*
X12085D01*
X11084Y42443D02*
X10551D01*
X10842Y42056D01*
X10697D01*
X10600Y42008D01*
X10551Y41959D01*
X10503Y41814D01*
Y41718D01*
X10551Y41573D01*
X10648Y41476D01*
X10793Y41427D01*
X10938D01*
X11084Y41476D01*
X11132Y41524D01*
X11180Y41621D01*
X40471Y17127D02*
X40568Y17223D01*
X40713Y17272D01*
X40906D01*
X41051Y17223D01*
X41148Y17127D01*
Y17030D01*
X41100Y16933D01*
X41051Y16885D01*
X40955Y16836D01*
X40664Y16740D01*
X40568Y16691D01*
X40519Y16643D01*
X40471Y16546D01*
Y16401D01*
X40568Y16304D01*
X40713Y16256D01*
X40906D01*
X41051Y16304D01*
X41148Y16401D01*
X40243Y17078D02*
X40147Y17127D01*
X40002Y17272D01*
Y16256D01*
X92085Y42443D02*
Y41427D01*
Y42443D02*
X91746D01*
X91601Y42395D01*
X91504Y42298D01*
X91456Y42201D01*
X91408Y42056D01*
Y41814D01*
X91456Y41669D01*
X91504Y41573D01*
X91601Y41476D01*
X91746Y41427D01*
X92085D01*
X91084Y42443D02*
X90551D01*
X90842Y42056D01*
X90697D01*
X90600Y42008D01*
X90551Y41959D01*
X90503Y41814D01*
Y41718D01*
X90551Y41573D01*
X90648Y41476D01*
X90793Y41427D01*
X90938D01*
X91084Y41476D01*
X91132Y41524D01*
X91180Y41621D01*
X120471Y17127D02*
X120568Y17223D01*
X120713Y17272D01*
X120906D01*
X121051Y17223D01*
X121148Y17127D01*
Y17030D01*
X121100Y16933D01*
X121051Y16885D01*
X120955Y16836D01*
X120664Y16740D01*
X120568Y16691D01*
X120519Y16643D01*
X120471Y16546D01*
Y16401D01*
X120568Y16304D01*
X120713Y16256D01*
X120906D01*
X121051Y16304D01*
X121148Y16401D01*
X120243Y17078D02*
X120147Y17127D01*
X120002Y17272D01*
Y16256D01*
X12085Y89443D02*
Y88427D01*
Y89443D02*
X11746D01*
X11601Y89395D01*
X11504Y89298D01*
X11456Y89201D01*
X11408Y89056D01*
Y88814D01*
X11456Y88669D01*
X11504Y88573D01*
X11601Y88476D01*
X11746Y88427D01*
X12085D01*
X11084Y89443D02*
X10551D01*
X10842Y89056D01*
X10697D01*
X10600Y89008D01*
X10551Y88959D01*
X10503Y88814D01*
Y88718D01*
X10551Y88573D01*
X10648Y88476D01*
X10793Y88427D01*
X10938D01*
X11084Y88476D01*
X11132Y88524D01*
X11180Y88621D01*
X40471Y64127D02*
X40568Y64223D01*
X40713Y64272D01*
X40906D01*
X41051Y64223D01*
X41148Y64127D01*
Y64030D01*
X41100Y63933D01*
X41051Y63885D01*
X40955Y63836D01*
X40664Y63740D01*
X40568Y63691D01*
X40519Y63643D01*
X40471Y63546D01*
Y63401D01*
X40568Y63304D01*
X40713Y63256D01*
X40906D01*
X41051Y63304D01*
X41148Y63401D01*
X40243Y64078D02*
X40147Y64127D01*
X40002Y64272D01*
Y63256D01*
X92085Y89443D02*
Y88427D01*
Y89443D02*
X91746D01*
X91601Y89395D01*
X91504Y89298D01*
X91456Y89201D01*
X91408Y89056D01*
Y88814D01*
X91456Y88669D01*
X91504Y88573D01*
X91601Y88476D01*
X91746Y88427D01*
X92085D01*
X91084Y89443D02*
X90551D01*
X90842Y89056D01*
X90697D01*
X90600Y89008D01*
X90551Y88959D01*
X90503Y88814D01*
Y88718D01*
X90551Y88573D01*
X90648Y88476D01*
X90793Y88427D01*
X90938D01*
X91084Y88476D01*
X91132Y88524D01*
X91180Y88621D01*
X120471Y64127D02*
X120568Y64223D01*
X120713Y64272D01*
X120906D01*
X121051Y64223D01*
X121148Y64127D01*
Y64030D01*
X121100Y63933D01*
X121051Y63885D01*
X120955Y63836D01*
X120664Y63740D01*
X120568Y63691D01*
X120519Y63643D01*
X120471Y63546D01*
Y63401D01*
X120568Y63304D01*
X120713Y63256D01*
X120906D01*
X121051Y63304D01*
X121148Y63401D01*
X120243Y64078D02*
X120147Y64127D01*
X120002Y64272D01*
Y63256D01*
X12085Y136443D02*
Y135427D01*
Y136443D02*
X11746D01*
X11601Y136395D01*
X11504Y136298D01*
X11456Y136201D01*
X11408Y136056D01*
Y135814D01*
X11456Y135669D01*
X11504Y135573D01*
X11601Y135476D01*
X11746Y135427D01*
X12085D01*
X11084Y136443D02*
X10551D01*
X10842Y136056D01*
X10697D01*
X10600Y136008D01*
X10551Y135959D01*
X10503Y135814D01*
Y135718D01*
X10551Y135573D01*
X10648Y135476D01*
X10793Y135427D01*
X10938D01*
X11084Y135476D01*
X11132Y135524D01*
X11180Y135621D01*
X40471Y111127D02*
X40568Y111223D01*
X40713Y111272D01*
X40906D01*
X41051Y111223D01*
X41148Y111127D01*
Y111030D01*
X41100Y110933D01*
X41051Y110885D01*
X40955Y110836D01*
X40664Y110740D01*
X40568Y110691D01*
X40519Y110643D01*
X40471Y110546D01*
Y110401D01*
X40568Y110304D01*
X40713Y110256D01*
X40906D01*
X41051Y110304D01*
X41148Y110401D01*
X40243Y111078D02*
X40147Y111127D01*
X40002Y111272D01*
Y110256D01*
X92085Y136443D02*
Y135427D01*
Y136443D02*
X91746D01*
X91601Y136395D01*
X91504Y136298D01*
X91456Y136201D01*
X91408Y136056D01*
Y135814D01*
X91456Y135669D01*
X91504Y135573D01*
X91601Y135476D01*
X91746Y135427D01*
X92085D01*
X91084Y136443D02*
X90551D01*
X90842Y136056D01*
X90697D01*
X90600Y136008D01*
X90551Y135959D01*
X90503Y135814D01*
Y135718D01*
X90551Y135573D01*
X90648Y135476D01*
X90793Y135427D01*
X90938D01*
X91084Y135476D01*
X91132Y135524D01*
X91180Y135621D01*
X120471Y111127D02*
X120568Y111223D01*
X120713Y111272D01*
X120906D01*
X121051Y111223D01*
X121148Y111127D01*
Y111030D01*
X121100Y110933D01*
X121051Y110885D01*
X120955Y110836D01*
X120664Y110740D01*
X120568Y110691D01*
X120519Y110643D01*
X120471Y110546D01*
Y110401D01*
X120568Y110304D01*
X120713Y110256D01*
X120906D01*
X121051Y110304D01*
X121148Y110401D01*
X120243Y111078D02*
X120147Y111127D01*
X120002Y111272D01*
Y110256D01*
X12085Y183443D02*
Y182427D01*
Y183443D02*
X11746D01*
X11601Y183395D01*
X11504Y183298D01*
X11456Y183201D01*
X11408Y183056D01*
Y182814D01*
X11456Y182669D01*
X11504Y182573D01*
X11601Y182476D01*
X11746Y182427D01*
X12085D01*
X11084Y183443D02*
X10551D01*
X10842Y183056D01*
X10697D01*
X10600Y183008D01*
X10551Y182959D01*
X10503Y182814D01*
Y182718D01*
X10551Y182573D01*
X10648Y182476D01*
X10793Y182427D01*
X10938D01*
X11084Y182476D01*
X11132Y182524D01*
X11180Y182621D01*
X40471Y158127D02*
X40568Y158223D01*
X40713Y158272D01*
X40906D01*
X41051Y158223D01*
X41148Y158127D01*
Y158030D01*
X41100Y157933D01*
X41051Y157885D01*
X40955Y157836D01*
X40664Y157740D01*
X40568Y157691D01*
X40519Y157643D01*
X40471Y157546D01*
Y157401D01*
X40568Y157304D01*
X40713Y157256D01*
X40906D01*
X41051Y157304D01*
X41148Y157401D01*
X40243Y158078D02*
X40147Y158127D01*
X40002Y158272D01*
Y157256D01*
X92085Y183443D02*
Y182427D01*
Y183443D02*
X91746D01*
X91601Y183395D01*
X91504Y183298D01*
X91456Y183201D01*
X91408Y183056D01*
Y182814D01*
X91456Y182669D01*
X91504Y182573D01*
X91601Y182476D01*
X91746Y182427D01*
X92085D01*
X91084Y183443D02*
X90551D01*
X90842Y183056D01*
X90697D01*
X90600Y183008D01*
X90551Y182959D01*
X90503Y182814D01*
Y182718D01*
X90551Y182573D01*
X90648Y182476D01*
X90793Y182427D01*
X90938D01*
X91084Y182476D01*
X91132Y182524D01*
X91180Y182621D01*
X120471Y158127D02*
X120568Y158223D01*
X120713Y158272D01*
X120906D01*
X121051Y158223D01*
X121148Y158127D01*
Y158030D01*
X121100Y157933D01*
X121051Y157885D01*
X120955Y157836D01*
X120664Y157740D01*
X120568Y157691D01*
X120519Y157643D01*
X120471Y157546D01*
Y157401D01*
X120568Y157304D01*
X120713Y157256D01*
X120906D01*
X121051Y157304D01*
X121148Y157401D01*
X120243Y158078D02*
X120147Y158127D01*
X120002Y158272D01*
Y157256D01*
X12085Y230443D02*
Y229427D01*
Y230443D02*
X11746D01*
X11601Y230395D01*
X11504Y230298D01*
X11456Y230201D01*
X11408Y230056D01*
Y229814D01*
X11456Y229669D01*
X11504Y229573D01*
X11601Y229476D01*
X11746Y229427D01*
X12085D01*
X11084Y230443D02*
X10551D01*
X10842Y230056D01*
X10697D01*
X10600Y230008D01*
X10551Y229959D01*
X10503Y229814D01*
Y229718D01*
X10551Y229573D01*
X10648Y229476D01*
X10793Y229427D01*
X10938D01*
X11084Y229476D01*
X11132Y229524D01*
X11180Y229621D01*
X40471Y205127D02*
X40568Y205223D01*
X40713Y205272D01*
X40906D01*
X41051Y205223D01*
X41148Y205127D01*
Y205030D01*
X41100Y204933D01*
X41051Y204885D01*
X40955Y204836D01*
X40664Y204740D01*
X40568Y204691D01*
X40519Y204643D01*
X40471Y204546D01*
Y204401D01*
X40568Y204304D01*
X40713Y204256D01*
X40906D01*
X41051Y204304D01*
X41148Y204401D01*
X40243Y205078D02*
X40147Y205127D01*
X40002Y205272D01*
Y204256D01*
X92085Y230443D02*
Y229427D01*
Y230443D02*
X91746D01*
X91601Y230395D01*
X91504Y230298D01*
X91456Y230201D01*
X91408Y230056D01*
Y229814D01*
X91456Y229669D01*
X91504Y229573D01*
X91601Y229476D01*
X91746Y229427D01*
X92085D01*
X91084Y230443D02*
X90551D01*
X90842Y230056D01*
X90697D01*
X90600Y230008D01*
X90551Y229959D01*
X90503Y229814D01*
Y229718D01*
X90551Y229573D01*
X90648Y229476D01*
X90793Y229427D01*
X90938D01*
X91084Y229476D01*
X91132Y229524D01*
X91180Y229621D01*
X120471Y205127D02*
X120568Y205223D01*
X120713Y205272D01*
X120906D01*
X121051Y205223D01*
X121148Y205127D01*
Y205030D01*
X121100Y204933D01*
X121051Y204885D01*
X120955Y204836D01*
X120664Y204740D01*
X120568Y204691D01*
X120519Y204643D01*
X120471Y204546D01*
Y204401D01*
X120568Y204304D01*
X120713Y204256D01*
X120906D01*
X121051Y204304D01*
X121148Y204401D01*
X120243Y205078D02*
X120147Y205127D01*
X120002Y205272D01*
Y204256D01*
M02*
