G04*
G04 #@! TF.GenerationSoftware,Altium Limited,Altium Designer,19.1.8 (144)*
G04*
G04 Layer_Color=128*
%FSLAX43Y43*%
%MOMM*%
G71*
G01*
G75*
%ADD53C,0.051*%
D53*
X53910Y15240D02*
X55310D01*
X54610Y14540D02*
Y15940D01*
X48830Y15240D02*
X50230D01*
X49530Y14540D02*
Y15940D01*
X43750Y15240D02*
X45150D01*
X44450Y14540D02*
Y15940D01*
X31336Y4830D02*
X32504D01*
X31920Y4246D02*
Y5414D01*
X21336Y4830D02*
X22504D01*
X21920Y4246D02*
Y5414D01*
X26336Y4830D02*
X27504D01*
X26920Y4246D02*
Y5414D01*
X38990Y5080D02*
X40090D01*
X39540Y4530D02*
Y5630D01*
X41530Y5080D02*
X42630D01*
X42080Y4530D02*
Y5630D01*
X59116Y4830D02*
X60284D01*
X59700Y4246D02*
Y5414D01*
X49116Y4830D02*
X50284D01*
X49700Y4246D02*
Y5414D01*
X54116Y4830D02*
X55284D01*
X54700Y4246D02*
Y5414D01*
X3110Y10160D02*
X4510D01*
X3810Y9460D02*
Y10860D01*
X3110Y15240D02*
X4510D01*
X3810Y14540D02*
Y15940D01*
X3110Y20320D02*
X4510D01*
X3810Y19620D02*
Y21020D01*
X1540Y2540D02*
X3540D01*
X2540Y1540D02*
Y3540D01*
X76470Y44450D02*
X78470D01*
X77470Y43450D02*
Y45450D01*
X12020Y35560D02*
X14020D01*
X13020Y34560D02*
Y36560D01*
X12020Y43180D02*
X14020D01*
X13020Y42180D02*
Y44180D01*
X51588Y26670D02*
X52044D01*
X51816Y26441D02*
Y26899D01*
X55397Y33528D02*
X55854D01*
X55626Y33299D02*
Y33757D01*
X7137Y35306D02*
X7595D01*
X7366Y35077D02*
Y35535D01*
X12979Y26162D02*
X13436D01*
X13208Y25934D02*
Y26390D01*
X16535Y18034D02*
X16993D01*
X16764Y17806D02*
Y18263D01*
X8153Y11176D02*
X8611D01*
X8382Y10948D02*
Y11405D01*
X15774Y13208D02*
X16230D01*
X16002Y12979D02*
Y13436D01*
X8915Y1778D02*
X9373D01*
X9144Y1549D02*
Y2007D01*
X13741Y3048D02*
X14198D01*
X13970Y2819D02*
Y3276D01*
X66827Y9906D02*
X67285D01*
X67056Y9677D02*
Y10134D01*
X76479Y10160D02*
X76937D01*
X76708Y9932D02*
Y10389D01*
X76479Y3302D02*
X76937D01*
X76708Y3073D02*
Y3530D01*
X66065Y2540D02*
X66522D01*
X66294Y2312D02*
Y2769D01*
X68859Y6858D02*
X69316D01*
X69088Y6629D02*
Y7087D01*
X77242Y35052D02*
X77699D01*
X77470Y34824D02*
Y35280D01*
X70130Y31496D02*
X70587D01*
X70358Y31267D02*
Y31725D01*
X69114Y37084D02*
X69571D01*
X69342Y36855D02*
Y37312D01*
X71908Y42164D02*
X72365D01*
X72136Y41936D02*
Y42393D01*
X62256Y31242D02*
X62713D01*
X62484Y31014D02*
Y31471D01*
X60223Y13462D02*
X60681D01*
X60452Y13233D02*
Y13691D01*
X54127Y22352D02*
X54584D01*
X54356Y22124D02*
Y22580D01*
X66827Y20320D02*
X67285D01*
X67056Y20091D02*
Y20549D01*
X47015Y30480D02*
X47472D01*
X47244Y30251D02*
Y30708D01*
X42444Y25908D02*
X42901D01*
X42672Y25680D02*
Y26136D01*
X46507Y25654D02*
X46965D01*
X46736Y25426D02*
Y25882D01*
X46000Y21590D02*
X46457D01*
X46228Y21361D02*
Y21819D01*
X36347Y24638D02*
X36805D01*
X36576Y24410D02*
Y24867D01*
X37871Y22860D02*
X38328D01*
X38100Y22632D02*
Y23088D01*
X31775Y23114D02*
X32232D01*
X32004Y22885D02*
Y23343D01*
X31267Y27178D02*
X31725D01*
X31496Y26949D02*
Y27406D01*
X23902Y26924D02*
X24358D01*
X24130Y26695D02*
Y27153D01*
X17806Y37592D02*
X18263D01*
X18034Y37363D02*
Y37820D01*
X6122Y43688D02*
X6578D01*
X6350Y43459D02*
Y43917D01*
X4597Y39878D02*
X5055D01*
X4826Y39650D02*
Y40106D01*
X3328Y36322D02*
X3784D01*
X3556Y36093D02*
Y36550D01*
X18313Y25400D02*
X18771D01*
X18542Y25171D02*
Y25628D01*
X8915Y21844D02*
X9373D01*
X9144Y21615D02*
Y22073D01*
X4597Y27686D02*
X5055D01*
X4826Y27458D02*
Y27914D01*
X4852Y32512D02*
X5308D01*
X5080Y32284D02*
Y32741D01*
X9424Y27940D02*
X9880D01*
X9652Y27712D02*
Y28169D01*
X20091Y19812D02*
X20549D01*
X20320Y19583D02*
Y20041D01*
X18313Y10160D02*
X18771D01*
X18542Y9932D02*
Y10389D01*
X6122Y6350D02*
X6578D01*
X6350Y6122D02*
Y6578D01*
X8408Y4826D02*
X8865D01*
X8636Y4597D02*
Y5055D01*
X15012Y5588D02*
X15469D01*
X15240Y5359D02*
Y5817D01*
X11964Y9652D02*
X12420D01*
X12192Y9424D02*
Y9880D01*
X13488Y22352D02*
X13944D01*
X13716Y22124D02*
Y22580D01*
X35840Y43942D02*
X36297D01*
X36068Y43714D02*
Y44171D01*
X47523Y43434D02*
X47980D01*
X47752Y43206D02*
Y43662D01*
X58700Y42926D02*
X59157D01*
X58928Y42697D02*
Y43154D01*
X49810Y33782D02*
X50266D01*
X50038Y33554D02*
Y34011D01*
X44729Y35052D02*
X45187D01*
X44958Y34824D02*
Y35280D01*
X50318Y37592D02*
X50775D01*
X50546Y37363D02*
Y37820D01*
X55144Y28956D02*
X55600D01*
X55372Y28728D02*
Y29184D01*
X60731Y23622D02*
X61188D01*
X60960Y23393D02*
Y23851D01*
X65558Y14732D02*
X66015D01*
X65786Y14503D02*
Y14960D01*
X72670Y8382D02*
X73127D01*
X72898Y8153D02*
Y8611D01*
X75464Y16002D02*
X75921D01*
X75692Y15774D02*
Y16230D01*
X75464Y28194D02*
X75921D01*
X75692Y27965D02*
Y28423D01*
X72924Y36068D02*
X73381D01*
X73152Y35840D02*
Y36297D01*
X64796Y39116D02*
X65253D01*
X65024Y38888D02*
Y39345D01*
X59208Y37338D02*
X59665D01*
X59436Y37110D02*
Y37567D01*
X65812Y29718D02*
X66269D01*
X66040Y29490D02*
Y29947D01*
X70892Y25400D02*
X71349D01*
X71120Y25171D02*
Y25628D01*
X8408Y38532D02*
X8865D01*
X8636Y38303D02*
Y38760D01*
X14961Y36398D02*
X15418D01*
X15189Y36170D02*
Y36627D01*
X23622Y32207D02*
X24079D01*
X23851Y31979D02*
Y32436D01*
X37999Y33807D02*
X38456D01*
X38227Y33579D02*
Y34036D01*
X31090Y34265D02*
X31547D01*
X31318Y34036D02*
Y34493D01*
X23546Y24562D02*
X24003D01*
X23774Y24333D02*
Y24790D01*
X23597Y29667D02*
X24054D01*
X23825Y29439D02*
Y29896D01*
X133910Y15240D02*
X135310D01*
X134610Y14540D02*
Y15940D01*
X128830Y15240D02*
X130230D01*
X129530Y14540D02*
Y15940D01*
X123750Y15240D02*
X125150D01*
X124450Y14540D02*
Y15940D01*
X111336Y4830D02*
X112504D01*
X111920Y4246D02*
Y5414D01*
X101336Y4830D02*
X102504D01*
X101920Y4246D02*
Y5414D01*
X106336Y4830D02*
X107504D01*
X106920Y4246D02*
Y5414D01*
X118990Y5080D02*
X120090D01*
X119540Y4530D02*
Y5630D01*
X121530Y5080D02*
X122630D01*
X122080Y4530D02*
Y5630D01*
X139116Y4830D02*
X140284D01*
X139700Y4246D02*
Y5414D01*
X129116Y4830D02*
X130284D01*
X129700Y4246D02*
Y5414D01*
X134116Y4830D02*
X135284D01*
X134700Y4246D02*
Y5414D01*
X83110Y10160D02*
X84510D01*
X83810Y9460D02*
Y10860D01*
X83110Y15240D02*
X84510D01*
X83810Y14540D02*
Y15940D01*
X83110Y20320D02*
X84510D01*
X83810Y19620D02*
Y21020D01*
X81540Y2540D02*
X83540D01*
X82540Y1540D02*
Y3540D01*
X156470Y44450D02*
X158470D01*
X157470Y43450D02*
Y45450D01*
X92020Y35560D02*
X94020D01*
X93020Y34560D02*
Y36560D01*
X92020Y43180D02*
X94020D01*
X93020Y42180D02*
Y44180D01*
X131587Y26670D02*
X132044D01*
X131816Y26441D02*
Y26899D01*
X135398Y33528D02*
X135855D01*
X135626Y33299D02*
Y33757D01*
X87137Y35306D02*
X87594D01*
X87366Y35077D02*
Y35535D01*
X92979Y26162D02*
X93437D01*
X93208Y25934D02*
Y26390D01*
X96535Y18034D02*
X96993D01*
X96764Y17806D02*
Y18263D01*
X88154Y11176D02*
X88610D01*
X88382Y10948D02*
Y11405D01*
X95773Y13208D02*
X96230D01*
X96002Y12979D02*
Y13436D01*
X88915Y1778D02*
X89372D01*
X89144Y1549D02*
Y2007D01*
X93742Y3048D02*
X94199D01*
X93970Y2819D02*
Y3276D01*
X146827Y9906D02*
X147285D01*
X147056Y9677D02*
Y10134D01*
X156480Y10160D02*
X156936D01*
X156708Y9932D02*
Y10389D01*
X156480Y3302D02*
X156936D01*
X156708Y3073D02*
Y3530D01*
X146066Y2540D02*
X146523D01*
X146294Y2312D02*
Y2769D01*
X148859Y6858D02*
X149316D01*
X149088Y6629D02*
Y7087D01*
X157242Y35052D02*
X157699D01*
X157470Y34824D02*
Y35280D01*
X150130Y31496D02*
X150587D01*
X150358Y31267D02*
Y31725D01*
X149113Y37084D02*
X149570D01*
X149342Y36855D02*
Y37312D01*
X151908Y42164D02*
X152365D01*
X152136Y41936D02*
Y42393D01*
X142255Y31242D02*
X142712D01*
X142484Y31014D02*
Y31471D01*
X140223Y13462D02*
X140680D01*
X140452Y13233D02*
Y13691D01*
X134128Y22352D02*
X134585D01*
X134356Y22124D02*
Y22580D01*
X146827Y20320D02*
X147285D01*
X147056Y20091D02*
Y20549D01*
X127016Y30480D02*
X127473D01*
X127244Y30251D02*
Y30708D01*
X122443Y25908D02*
X122900D01*
X122672Y25680D02*
Y26136D01*
X126507Y25654D02*
X126965D01*
X126736Y25426D02*
Y25882D01*
X125999Y21590D02*
X126456D01*
X126228Y21361D02*
Y21819D01*
X116348Y24638D02*
X116804D01*
X116576Y24410D02*
Y24867D01*
X117871Y22860D02*
X118328D01*
X118100Y22632D02*
Y23088D01*
X111775Y23114D02*
X112232D01*
X112004Y22885D02*
Y23343D01*
X111268Y27178D02*
X111725D01*
X111496Y26949D02*
Y27406D01*
X103901Y26924D02*
X104358D01*
X104130Y26695D02*
Y27153D01*
X97805Y37592D02*
X98262D01*
X98034Y37363D02*
Y37820D01*
X86121Y43688D02*
X86578D01*
X86350Y43459D02*
Y43917D01*
X84598Y39878D02*
X85054D01*
X84826Y39650D02*
Y40106D01*
X83327Y36322D02*
X83785D01*
X83556Y36093D02*
Y36550D01*
X98313Y25400D02*
X98771D01*
X98542Y25171D02*
Y25628D01*
X88915Y21844D02*
X89372D01*
X89144Y21615D02*
Y22073D01*
X84598Y27686D02*
X85054D01*
X84826Y27458D02*
Y27914D01*
X84852Y32512D02*
X85309D01*
X85080Y32284D02*
Y32741D01*
X89424Y27940D02*
X89881D01*
X89652Y27712D02*
Y28169D01*
X100091Y19812D02*
X100549D01*
X100320Y19583D02*
Y20041D01*
X98313Y10160D02*
X98771D01*
X98542Y9932D02*
Y10389D01*
X86121Y6350D02*
X86578D01*
X86350Y6122D02*
Y6578D01*
X88408Y4826D02*
X88865D01*
X88636Y4597D02*
Y5055D01*
X95011Y5588D02*
X95468D01*
X95240Y5359D02*
Y5817D01*
X91964Y9652D02*
X92421D01*
X92192Y9424D02*
Y9880D01*
X93488Y22352D02*
X93945D01*
X93716Y22124D02*
Y22580D01*
X115840Y43942D02*
X116297D01*
X116068Y43714D02*
Y44171D01*
X127523Y43434D02*
X127980D01*
X127752Y43206D02*
Y43662D01*
X138699Y42926D02*
X139156D01*
X138928Y42697D02*
Y43154D01*
X129809Y33782D02*
X130266D01*
X130038Y33554D02*
Y34011D01*
X124729Y35052D02*
X125187D01*
X124958Y34824D02*
Y35280D01*
X130318Y37592D02*
X130775D01*
X130546Y37363D02*
Y37820D01*
X135143Y28956D02*
X135600D01*
X135372Y28728D02*
Y29184D01*
X140732Y23622D02*
X141189D01*
X140960Y23393D02*
Y23851D01*
X145557Y14732D02*
X146014D01*
X145786Y14503D02*
Y14960D01*
X152669Y8382D02*
X153126D01*
X152898Y8153D02*
Y8611D01*
X155464Y16002D02*
X155921D01*
X155692Y15774D02*
Y16230D01*
X155464Y28194D02*
X155921D01*
X155692Y27965D02*
Y28423D01*
X152923Y36068D02*
X153380D01*
X153152Y35840D02*
Y36297D01*
X144796Y39116D02*
X145253D01*
X145024Y38888D02*
Y39345D01*
X139208Y37338D02*
X139665D01*
X139436Y37110D02*
Y37567D01*
X145811Y29718D02*
X146268D01*
X146040Y29490D02*
Y29947D01*
X150891Y25400D02*
X151348D01*
X151120Y25171D02*
Y25628D01*
X88408Y38532D02*
X88865D01*
X88636Y38303D02*
Y38760D01*
X94961Y36398D02*
X95418D01*
X95189Y36170D02*
Y36627D01*
X103622Y32207D02*
X104079D01*
X103851Y31979D02*
Y32436D01*
X117998Y33807D02*
X118455D01*
X118227Y33579D02*
Y34036D01*
X111090Y34265D02*
X111547D01*
X111318Y34036D02*
Y34493D01*
X103546Y24562D02*
X104003D01*
X103774Y24333D02*
Y24790D01*
X103597Y29667D02*
X104054D01*
X103825Y29439D02*
Y29896D01*
X53910Y62240D02*
X55310D01*
X54610Y61540D02*
Y62940D01*
X48830Y62240D02*
X50230D01*
X49530Y61540D02*
Y62940D01*
X43750Y62240D02*
X45150D01*
X44450Y61540D02*
Y62940D01*
X31336Y51830D02*
X32504D01*
X31920Y51246D02*
Y52414D01*
X21336Y51830D02*
X22504D01*
X21920Y51246D02*
Y52414D01*
X26336Y51830D02*
X27504D01*
X26920Y51246D02*
Y52414D01*
X38990Y52080D02*
X40090D01*
X39540Y51530D02*
Y52630D01*
X41530Y52080D02*
X42630D01*
X42080Y51530D02*
Y52630D01*
X59116Y51830D02*
X60284D01*
X59700Y51246D02*
Y52414D01*
X49116Y51830D02*
X50284D01*
X49700Y51246D02*
Y52414D01*
X54116Y51830D02*
X55284D01*
X54700Y51246D02*
Y52414D01*
X3110Y57160D02*
X4510D01*
X3810Y56460D02*
Y57860D01*
X3110Y62240D02*
X4510D01*
X3810Y61540D02*
Y62940D01*
X3110Y67320D02*
X4510D01*
X3810Y66620D02*
Y68020D01*
X1540Y49540D02*
X3540D01*
X2540Y48540D02*
Y50540D01*
X76470Y91450D02*
X78470D01*
X77470Y90450D02*
Y92450D01*
X12020Y82560D02*
X14020D01*
X13020Y81560D02*
Y83560D01*
X12020Y90180D02*
X14020D01*
X13020Y89180D02*
Y91180D01*
X51588Y73670D02*
X52044D01*
X51816Y73441D02*
Y73898D01*
X55397Y80528D02*
X55854D01*
X55626Y80299D02*
Y80757D01*
X7137Y82306D02*
X7595D01*
X7366Y82077D02*
Y82535D01*
X12979Y73162D02*
X13436D01*
X13208Y72934D02*
Y73391D01*
X16535Y65034D02*
X16993D01*
X16764Y64805D02*
Y65262D01*
X8153Y58176D02*
X8611D01*
X8382Y57947D02*
Y58404D01*
X15774Y60208D02*
X16230D01*
X16002Y59979D02*
Y60437D01*
X8915Y48778D02*
X9373D01*
X9144Y48549D02*
Y49007D01*
X13741Y50048D02*
X14198D01*
X13970Y49819D02*
Y50277D01*
X66827Y56906D02*
X67285D01*
X67056Y56678D02*
Y57134D01*
X76479Y57160D02*
X76937D01*
X76708Y56931D02*
Y57389D01*
X76479Y50302D02*
X76937D01*
X76708Y50074D02*
Y50530D01*
X66065Y49540D02*
X66522D01*
X66294Y49312D02*
Y49769D01*
X68859Y53858D02*
X69316D01*
X69088Y53630D02*
Y54086D01*
X77242Y82052D02*
X77699D01*
X77470Y81824D02*
Y82281D01*
X70130Y78496D02*
X70587D01*
X70358Y78268D02*
Y78725D01*
X69114Y84084D02*
X69571D01*
X69342Y83855D02*
Y84312D01*
X71908Y89164D02*
X72365D01*
X72136Y88936D02*
Y89393D01*
X62256Y78242D02*
X62713D01*
X62484Y78013D02*
Y78470D01*
X60223Y60462D02*
X60681D01*
X60452Y60234D02*
Y60690D01*
X54127Y69352D02*
X54584D01*
X54356Y69123D02*
Y69580D01*
X66827Y67320D02*
X67285D01*
X67056Y67091D02*
Y67549D01*
X47015Y77480D02*
X47472D01*
X47244Y77252D02*
Y77709D01*
X42444Y72908D02*
X42901D01*
X42672Y72679D02*
Y73136D01*
X46507Y72654D02*
X46965D01*
X46736Y72425D02*
Y72882D01*
X46000Y68590D02*
X46457D01*
X46228Y68362D02*
Y68818D01*
X36347Y71638D02*
X36805D01*
X36576Y71410D02*
Y71867D01*
X37871Y69860D02*
X38328D01*
X38100Y69632D02*
Y70089D01*
X31775Y70114D02*
X32232D01*
X32004Y69885D02*
Y70342D01*
X31267Y74178D02*
X31725D01*
X31496Y73950D02*
Y74407D01*
X23902Y73924D02*
X24358D01*
X24130Y73696D02*
Y74152D01*
X17806Y84592D02*
X18263D01*
X18034Y84364D02*
Y84821D01*
X6122Y90688D02*
X6578D01*
X6350Y90460D02*
Y90916D01*
X4597Y86878D02*
X5055D01*
X4826Y86649D02*
Y87106D01*
X3328Y83322D02*
X3784D01*
X3556Y83093D02*
Y83550D01*
X18313Y72400D02*
X18771D01*
X18542Y72172D02*
Y72629D01*
X8915Y68844D02*
X9373D01*
X9144Y68616D02*
Y69073D01*
X4597Y74686D02*
X5055D01*
X4826Y74457D02*
Y74914D01*
X4852Y79512D02*
X5308D01*
X5080Y79284D02*
Y79741D01*
X9424Y74940D02*
X9880D01*
X9652Y74712D02*
Y75169D01*
X20091Y66812D02*
X20549D01*
X20320Y66584D02*
Y67040D01*
X18313Y57160D02*
X18771D01*
X18542Y56931D02*
Y57389D01*
X6122Y53350D02*
X6578D01*
X6350Y53121D02*
Y53578D01*
X8408Y51826D02*
X8865D01*
X8636Y51597D02*
Y52055D01*
X15012Y52588D02*
X15469D01*
X15240Y52360D02*
Y52817D01*
X11964Y56652D02*
X12420D01*
X12192Y56424D02*
Y56881D01*
X13488Y69352D02*
X13944D01*
X13716Y69123D02*
Y69580D01*
X35840Y90942D02*
X36297D01*
X36068Y90714D02*
Y91171D01*
X47523Y90434D02*
X47980D01*
X47752Y90205D02*
Y90662D01*
X58700Y89926D02*
X59157D01*
X58928Y89698D02*
Y90155D01*
X49810Y80782D02*
X50266D01*
X50038Y80553D02*
Y81010D01*
X44729Y82052D02*
X45187D01*
X44958Y81824D02*
Y82281D01*
X50318Y84592D02*
X50775D01*
X50546Y84364D02*
Y84821D01*
X55144Y75956D02*
X55600D01*
X55372Y75728D02*
Y76185D01*
X60731Y70622D02*
X61188D01*
X60960Y70394D02*
Y70851D01*
X65558Y61732D02*
X66015D01*
X65786Y61504D02*
Y61960D01*
X72670Y55382D02*
X73127D01*
X72898Y55153D02*
Y55611D01*
X75464Y63002D02*
X75921D01*
X75692Y62773D02*
Y63230D01*
X75464Y75194D02*
X75921D01*
X75692Y74965D02*
Y75423D01*
X72924Y83068D02*
X73381D01*
X73152Y82840D02*
Y83297D01*
X64796Y86116D02*
X65253D01*
X65024Y85887D02*
Y86344D01*
X59208Y84338D02*
X59665D01*
X59436Y84109D02*
Y84566D01*
X65812Y76718D02*
X66269D01*
X66040Y76490D02*
Y76947D01*
X70892Y72400D02*
X71349D01*
X71120Y72172D02*
Y72629D01*
X8408Y85532D02*
X8865D01*
X8636Y85303D02*
Y85760D01*
X14961Y83398D02*
X15418D01*
X15189Y83170D02*
Y83627D01*
X23622Y79207D02*
X24079D01*
X23851Y78979D02*
Y79436D01*
X37999Y80807D02*
X38456D01*
X38227Y80579D02*
Y81036D01*
X31090Y81265D02*
X31547D01*
X31318Y81036D02*
Y81493D01*
X23546Y71562D02*
X24003D01*
X23774Y71333D02*
Y71790D01*
X23597Y76667D02*
X24054D01*
X23825Y76439D02*
Y76896D01*
X133910Y62240D02*
X135310D01*
X134610Y61540D02*
Y62940D01*
X128830Y62240D02*
X130230D01*
X129530Y61540D02*
Y62940D01*
X123750Y62240D02*
X125150D01*
X124450Y61540D02*
Y62940D01*
X111336Y51830D02*
X112504D01*
X111920Y51246D02*
Y52414D01*
X101336Y51830D02*
X102504D01*
X101920Y51246D02*
Y52414D01*
X106336Y51830D02*
X107504D01*
X106920Y51246D02*
Y52414D01*
X118990Y52080D02*
X120090D01*
X119540Y51530D02*
Y52630D01*
X121530Y52080D02*
X122630D01*
X122080Y51530D02*
Y52630D01*
X139116Y51830D02*
X140284D01*
X139700Y51246D02*
Y52414D01*
X129116Y51830D02*
X130284D01*
X129700Y51246D02*
Y52414D01*
X134116Y51830D02*
X135284D01*
X134700Y51246D02*
Y52414D01*
X83110Y57160D02*
X84510D01*
X83810Y56460D02*
Y57860D01*
X83110Y62240D02*
X84510D01*
X83810Y61540D02*
Y62940D01*
X83110Y67320D02*
X84510D01*
X83810Y66620D02*
Y68020D01*
X81540Y49540D02*
X83540D01*
X82540Y48540D02*
Y50540D01*
X156470Y91450D02*
X158470D01*
X157470Y90450D02*
Y92450D01*
X92020Y82560D02*
X94020D01*
X93020Y81560D02*
Y83560D01*
X92020Y90180D02*
X94020D01*
X93020Y89180D02*
Y91180D01*
X131587Y73670D02*
X132044D01*
X131816Y73441D02*
Y73898D01*
X135398Y80528D02*
X135855D01*
X135626Y80299D02*
Y80757D01*
X87137Y82306D02*
X87594D01*
X87366Y82077D02*
Y82535D01*
X92979Y73162D02*
X93437D01*
X93208Y72934D02*
Y73391D01*
X96535Y65034D02*
X96993D01*
X96764Y64805D02*
Y65262D01*
X88154Y58176D02*
X88610D01*
X88382Y57947D02*
Y58404D01*
X95773Y60208D02*
X96230D01*
X96002Y59979D02*
Y60437D01*
X88915Y48778D02*
X89372D01*
X89144Y48549D02*
Y49007D01*
X93742Y50048D02*
X94199D01*
X93970Y49819D02*
Y50277D01*
X146827Y56906D02*
X147285D01*
X147056Y56678D02*
Y57134D01*
X156480Y57160D02*
X156936D01*
X156708Y56931D02*
Y57389D01*
X156480Y50302D02*
X156936D01*
X156708Y50074D02*
Y50530D01*
X146066Y49540D02*
X146523D01*
X146294Y49312D02*
Y49769D01*
X148859Y53858D02*
X149316D01*
X149088Y53630D02*
Y54086D01*
X157242Y82052D02*
X157699D01*
X157470Y81824D02*
Y82281D01*
X150130Y78496D02*
X150587D01*
X150358Y78268D02*
Y78725D01*
X149113Y84084D02*
X149570D01*
X149342Y83855D02*
Y84312D01*
X151908Y89164D02*
X152365D01*
X152136Y88936D02*
Y89393D01*
X142255Y78242D02*
X142712D01*
X142484Y78013D02*
Y78470D01*
X140223Y60462D02*
X140680D01*
X140452Y60234D02*
Y60690D01*
X134128Y69352D02*
X134585D01*
X134356Y69123D02*
Y69580D01*
X146827Y67320D02*
X147285D01*
X147056Y67091D02*
Y67549D01*
X127016Y77480D02*
X127473D01*
X127244Y77252D02*
Y77709D01*
X122443Y72908D02*
X122900D01*
X122672Y72679D02*
Y73136D01*
X126507Y72654D02*
X126965D01*
X126736Y72425D02*
Y72882D01*
X125999Y68590D02*
X126456D01*
X126228Y68362D02*
Y68818D01*
X116348Y71638D02*
X116804D01*
X116576Y71410D02*
Y71867D01*
X117871Y69860D02*
X118328D01*
X118100Y69632D02*
Y70089D01*
X111775Y70114D02*
X112232D01*
X112004Y69885D02*
Y70342D01*
X111268Y74178D02*
X111725D01*
X111496Y73950D02*
Y74407D01*
X103901Y73924D02*
X104358D01*
X104130Y73696D02*
Y74152D01*
X97805Y84592D02*
X98262D01*
X98034Y84364D02*
Y84821D01*
X86121Y90688D02*
X86578D01*
X86350Y90460D02*
Y90916D01*
X84598Y86878D02*
X85054D01*
X84826Y86649D02*
Y87106D01*
X83327Y83322D02*
X83785D01*
X83556Y83093D02*
Y83550D01*
X98313Y72400D02*
X98771D01*
X98542Y72172D02*
Y72629D01*
X88915Y68844D02*
X89372D01*
X89144Y68616D02*
Y69073D01*
X84598Y74686D02*
X85054D01*
X84826Y74457D02*
Y74914D01*
X84852Y79512D02*
X85309D01*
X85080Y79284D02*
Y79741D01*
X89424Y74940D02*
X89881D01*
X89652Y74712D02*
Y75169D01*
X100091Y66812D02*
X100549D01*
X100320Y66584D02*
Y67040D01*
X98313Y57160D02*
X98771D01*
X98542Y56931D02*
Y57389D01*
X86121Y53350D02*
X86578D01*
X86350Y53121D02*
Y53578D01*
X88408Y51826D02*
X88865D01*
X88636Y51597D02*
Y52055D01*
X95011Y52588D02*
X95468D01*
X95240Y52360D02*
Y52817D01*
X91964Y56652D02*
X92421D01*
X92192Y56424D02*
Y56881D01*
X93488Y69352D02*
X93945D01*
X93716Y69123D02*
Y69580D01*
X115840Y90942D02*
X116297D01*
X116068Y90714D02*
Y91171D01*
X127523Y90434D02*
X127980D01*
X127752Y90205D02*
Y90662D01*
X138699Y89926D02*
X139156D01*
X138928Y89698D02*
Y90155D01*
X129809Y80782D02*
X130266D01*
X130038Y80553D02*
Y81010D01*
X124729Y82052D02*
X125187D01*
X124958Y81824D02*
Y82281D01*
X130318Y84592D02*
X130775D01*
X130546Y84364D02*
Y84821D01*
X135143Y75956D02*
X135600D01*
X135372Y75728D02*
Y76185D01*
X140732Y70622D02*
X141189D01*
X140960Y70394D02*
Y70851D01*
X145557Y61732D02*
X146014D01*
X145786Y61504D02*
Y61960D01*
X152669Y55382D02*
X153126D01*
X152898Y55153D02*
Y55611D01*
X155464Y63002D02*
X155921D01*
X155692Y62773D02*
Y63230D01*
X155464Y75194D02*
X155921D01*
X155692Y74965D02*
Y75423D01*
X152923Y83068D02*
X153380D01*
X153152Y82840D02*
Y83297D01*
X144796Y86116D02*
X145253D01*
X145024Y85887D02*
Y86344D01*
X139208Y84338D02*
X139665D01*
X139436Y84109D02*
Y84566D01*
X145811Y76718D02*
X146268D01*
X146040Y76490D02*
Y76947D01*
X150891Y72400D02*
X151348D01*
X151120Y72172D02*
Y72629D01*
X88408Y85532D02*
X88865D01*
X88636Y85303D02*
Y85760D01*
X94961Y83398D02*
X95418D01*
X95189Y83170D02*
Y83627D01*
X103622Y79207D02*
X104079D01*
X103851Y78979D02*
Y79436D01*
X117998Y80807D02*
X118455D01*
X118227Y80579D02*
Y81036D01*
X111090Y81265D02*
X111547D01*
X111318Y81036D02*
Y81493D01*
X103546Y71562D02*
X104003D01*
X103774Y71333D02*
Y71790D01*
X103597Y76667D02*
X104054D01*
X103825Y76439D02*
Y76896D01*
X53910Y109240D02*
X55310D01*
X54610Y108540D02*
Y109940D01*
X48830Y109240D02*
X50230D01*
X49530Y108540D02*
Y109940D01*
X43750Y109240D02*
X45150D01*
X44450Y108540D02*
Y109940D01*
X31336Y98830D02*
X32504D01*
X31920Y98246D02*
Y99414D01*
X21336Y98830D02*
X22504D01*
X21920Y98246D02*
Y99414D01*
X26336Y98830D02*
X27504D01*
X26920Y98246D02*
Y99414D01*
X38990Y99080D02*
X40090D01*
X39540Y98530D02*
Y99630D01*
X41530Y99080D02*
X42630D01*
X42080Y98530D02*
Y99630D01*
X59116Y98830D02*
X60284D01*
X59700Y98246D02*
Y99414D01*
X49116Y98830D02*
X50284D01*
X49700Y98246D02*
Y99414D01*
X54116Y98830D02*
X55284D01*
X54700Y98246D02*
Y99414D01*
X3110Y104160D02*
X4510D01*
X3810Y103460D02*
Y104860D01*
X3110Y109240D02*
X4510D01*
X3810Y108540D02*
Y109940D01*
X3110Y114320D02*
X4510D01*
X3810Y113620D02*
Y115020D01*
X1540Y96540D02*
X3540D01*
X2540Y95540D02*
Y97540D01*
X76470Y138450D02*
X78470D01*
X77470Y137450D02*
Y139450D01*
X12020Y129560D02*
X14020D01*
X13020Y128560D02*
Y130560D01*
X12020Y137180D02*
X14020D01*
X13020Y136180D02*
Y138180D01*
X51588Y120670D02*
X52044D01*
X51816Y120441D02*
Y120898D01*
X55397Y127528D02*
X55854D01*
X55626Y127299D02*
Y127757D01*
X7137Y129306D02*
X7595D01*
X7366Y129077D02*
Y129535D01*
X12979Y120162D02*
X13436D01*
X13208Y119934D02*
Y120391D01*
X16535Y112034D02*
X16993D01*
X16764Y111805D02*
Y112262D01*
X8153Y105176D02*
X8611D01*
X8382Y104948D02*
Y105405D01*
X15774Y107208D02*
X16230D01*
X16002Y106979D02*
Y107437D01*
X8915Y95778D02*
X9373D01*
X9144Y95549D02*
Y96007D01*
X13741Y97048D02*
X14198D01*
X13970Y96820D02*
Y97276D01*
X66827Y103906D02*
X67285D01*
X67056Y103677D02*
Y104134D01*
X76479Y104160D02*
X76937D01*
X76708Y103932D02*
Y104388D01*
X76479Y97302D02*
X76937D01*
X76708Y97074D02*
Y97531D01*
X66065Y96540D02*
X66522D01*
X66294Y96312D02*
Y96769D01*
X68859Y100858D02*
X69316D01*
X69088Y100630D02*
Y101087D01*
X77242Y129052D02*
X77699D01*
X77470Y128824D02*
Y129281D01*
X70130Y125496D02*
X70587D01*
X70358Y125268D02*
Y125725D01*
X69114Y131084D02*
X69571D01*
X69342Y130855D02*
Y131312D01*
X71908Y136164D02*
X72365D01*
X72136Y135936D02*
Y136393D01*
X62256Y125242D02*
X62713D01*
X62484Y125013D02*
Y125470D01*
X60223Y107462D02*
X60681D01*
X60452Y107233D02*
Y107690D01*
X54127Y116352D02*
X54584D01*
X54356Y116123D02*
Y116580D01*
X66827Y114320D02*
X67285D01*
X67056Y114091D02*
Y114549D01*
X47015Y124480D02*
X47472D01*
X47244Y124252D02*
Y124709D01*
X42444Y119908D02*
X42901D01*
X42672Y119679D02*
Y120136D01*
X46507Y119654D02*
X46965D01*
X46736Y119425D02*
Y119882D01*
X46000Y115590D02*
X46457D01*
X46228Y115362D02*
Y115818D01*
X36347Y118638D02*
X36805D01*
X36576Y118410D02*
Y118867D01*
X37871Y116860D02*
X38328D01*
X38100Y116632D02*
Y117089D01*
X31775Y117114D02*
X32232D01*
X32004Y116885D02*
Y117342D01*
X31267Y121178D02*
X31725D01*
X31496Y120950D02*
Y121407D01*
X23902Y120924D02*
X24358D01*
X24130Y120696D02*
Y121152D01*
X17806Y131592D02*
X18263D01*
X18034Y131363D02*
Y131820D01*
X6122Y137688D02*
X6578D01*
X6350Y137460D02*
Y137917D01*
X4597Y133878D02*
X5055D01*
X4826Y133650D02*
Y134107D01*
X3328Y130322D02*
X3784D01*
X3556Y130094D02*
Y130551D01*
X18313Y119400D02*
X18771D01*
X18542Y119172D02*
Y119629D01*
X8915Y115844D02*
X9373D01*
X9144Y115616D02*
Y116073D01*
X4597Y121686D02*
X5055D01*
X4826Y121457D02*
Y121914D01*
X4852Y126512D02*
X5308D01*
X5080Y126284D02*
Y126741D01*
X9424Y121940D02*
X9880D01*
X9652Y121712D02*
Y122169D01*
X20091Y113812D02*
X20549D01*
X20320Y113584D02*
Y114040D01*
X18313Y104160D02*
X18771D01*
X18542Y103932D02*
Y104388D01*
X6122Y100350D02*
X6578D01*
X6350Y100121D02*
Y100578D01*
X8408Y98826D02*
X8865D01*
X8636Y98598D02*
Y99054D01*
X15012Y99588D02*
X15469D01*
X15240Y99359D02*
Y99816D01*
X11964Y103652D02*
X12420D01*
X12192Y103424D02*
Y103881D01*
X13488Y116352D02*
X13944D01*
X13716Y116123D02*
Y116580D01*
X35840Y137942D02*
X36297D01*
X36068Y137714D02*
Y138171D01*
X47523Y137434D02*
X47980D01*
X47752Y137206D02*
Y137663D01*
X58700Y136926D02*
X59157D01*
X58928Y136697D02*
Y137154D01*
X49810Y127782D02*
X50266D01*
X50038Y127553D02*
Y128010D01*
X44729Y129052D02*
X45187D01*
X44958Y128824D02*
Y129281D01*
X50318Y131592D02*
X50775D01*
X50546Y131363D02*
Y131820D01*
X55144Y122956D02*
X55600D01*
X55372Y122728D02*
Y123185D01*
X60731Y117622D02*
X61188D01*
X60960Y117394D02*
Y117851D01*
X65558Y108732D02*
X66015D01*
X65786Y108504D02*
Y108961D01*
X72670Y102382D02*
X73127D01*
X72898Y102154D02*
Y102610D01*
X75464Y110002D02*
X75921D01*
X75692Y109773D02*
Y110230D01*
X75464Y122194D02*
X75921D01*
X75692Y121965D02*
Y122423D01*
X72924Y130068D02*
X73381D01*
X73152Y129839D02*
Y130296D01*
X64796Y133116D02*
X65253D01*
X65024Y132887D02*
Y133344D01*
X59208Y131338D02*
X59665D01*
X59436Y131109D02*
Y131566D01*
X65812Y123718D02*
X66269D01*
X66040Y123490D02*
Y123947D01*
X70892Y119400D02*
X71349D01*
X71120Y119172D02*
Y119629D01*
X8408Y132532D02*
X8865D01*
X8636Y132303D02*
Y132760D01*
X14961Y130398D02*
X15418D01*
X15189Y130170D02*
Y130627D01*
X23622Y126207D02*
X24079D01*
X23851Y125979D02*
Y126436D01*
X37999Y127807D02*
X38456D01*
X38227Y127579D02*
Y128036D01*
X31090Y128265D02*
X31547D01*
X31318Y128036D02*
Y128493D01*
X23546Y118562D02*
X24003D01*
X23774Y118333D02*
Y118790D01*
X23597Y123667D02*
X24054D01*
X23825Y123439D02*
Y123896D01*
X133910Y109240D02*
X135310D01*
X134610Y108540D02*
Y109940D01*
X128830Y109240D02*
X130230D01*
X129530Y108540D02*
Y109940D01*
X123750Y109240D02*
X125150D01*
X124450Y108540D02*
Y109940D01*
X111336Y98830D02*
X112504D01*
X111920Y98246D02*
Y99414D01*
X101336Y98830D02*
X102504D01*
X101920Y98246D02*
Y99414D01*
X106336Y98830D02*
X107504D01*
X106920Y98246D02*
Y99414D01*
X118990Y99080D02*
X120090D01*
X119540Y98530D02*
Y99630D01*
X121530Y99080D02*
X122630D01*
X122080Y98530D02*
Y99630D01*
X139116Y98830D02*
X140284D01*
X139700Y98246D02*
Y99414D01*
X129116Y98830D02*
X130284D01*
X129700Y98246D02*
Y99414D01*
X134116Y98830D02*
X135284D01*
X134700Y98246D02*
Y99414D01*
X83110Y104160D02*
X84510D01*
X83810Y103460D02*
Y104860D01*
X83110Y109240D02*
X84510D01*
X83810Y108540D02*
Y109940D01*
X83110Y114320D02*
X84510D01*
X83810Y113620D02*
Y115020D01*
X81540Y96540D02*
X83540D01*
X82540Y95540D02*
Y97540D01*
X156470Y138450D02*
X158470D01*
X157470Y137450D02*
Y139450D01*
X92020Y129560D02*
X94020D01*
X93020Y128560D02*
Y130560D01*
X92020Y137180D02*
X94020D01*
X93020Y136180D02*
Y138180D01*
X131587Y120670D02*
X132044D01*
X131816Y120441D02*
Y120898D01*
X135398Y127528D02*
X135855D01*
X135626Y127299D02*
Y127757D01*
X87137Y129306D02*
X87594D01*
X87366Y129077D02*
Y129535D01*
X92979Y120162D02*
X93437D01*
X93208Y119934D02*
Y120391D01*
X96535Y112034D02*
X96993D01*
X96764Y111805D02*
Y112262D01*
X88154Y105176D02*
X88610D01*
X88382Y104948D02*
Y105405D01*
X95773Y107208D02*
X96230D01*
X96002Y106979D02*
Y107437D01*
X88915Y95778D02*
X89372D01*
X89144Y95549D02*
Y96007D01*
X93742Y97048D02*
X94199D01*
X93970Y96820D02*
Y97276D01*
X146827Y103906D02*
X147285D01*
X147056Y103677D02*
Y104134D01*
X156480Y104160D02*
X156936D01*
X156708Y103932D02*
Y104388D01*
X156480Y97302D02*
X156936D01*
X156708Y97074D02*
Y97531D01*
X146066Y96540D02*
X146523D01*
X146294Y96312D02*
Y96769D01*
X148859Y100858D02*
X149316D01*
X149088Y100630D02*
Y101087D01*
X157242Y129052D02*
X157699D01*
X157470Y128824D02*
Y129281D01*
X150130Y125496D02*
X150587D01*
X150358Y125268D02*
Y125725D01*
X149113Y131084D02*
X149570D01*
X149342Y130855D02*
Y131312D01*
X151908Y136164D02*
X152365D01*
X152136Y135936D02*
Y136393D01*
X142255Y125242D02*
X142712D01*
X142484Y125013D02*
Y125470D01*
X140223Y107462D02*
X140680D01*
X140452Y107233D02*
Y107690D01*
X134128Y116352D02*
X134585D01*
X134356Y116123D02*
Y116580D01*
X146827Y114320D02*
X147285D01*
X147056Y114091D02*
Y114549D01*
X127016Y124480D02*
X127473D01*
X127244Y124252D02*
Y124709D01*
X122443Y119908D02*
X122900D01*
X122672Y119679D02*
Y120136D01*
X126507Y119654D02*
X126965D01*
X126736Y119425D02*
Y119882D01*
X125999Y115590D02*
X126456D01*
X126228Y115362D02*
Y115818D01*
X116348Y118638D02*
X116804D01*
X116576Y118410D02*
Y118867D01*
X117871Y116860D02*
X118328D01*
X118100Y116632D02*
Y117089D01*
X111775Y117114D02*
X112232D01*
X112004Y116885D02*
Y117342D01*
X111268Y121178D02*
X111725D01*
X111496Y120950D02*
Y121407D01*
X103901Y120924D02*
X104358D01*
X104130Y120696D02*
Y121152D01*
X97805Y131592D02*
X98262D01*
X98034Y131363D02*
Y131820D01*
X86121Y137688D02*
X86578D01*
X86350Y137460D02*
Y137917D01*
X84598Y133878D02*
X85054D01*
X84826Y133650D02*
Y134107D01*
X83327Y130322D02*
X83785D01*
X83556Y130094D02*
Y130551D01*
X98313Y119400D02*
X98771D01*
X98542Y119172D02*
Y119629D01*
X88915Y115844D02*
X89372D01*
X89144Y115616D02*
Y116073D01*
X84598Y121686D02*
X85054D01*
X84826Y121457D02*
Y121914D01*
X84852Y126512D02*
X85309D01*
X85080Y126284D02*
Y126741D01*
X89424Y121940D02*
X89881D01*
X89652Y121712D02*
Y122169D01*
X100091Y113812D02*
X100549D01*
X100320Y113584D02*
Y114040D01*
X98313Y104160D02*
X98771D01*
X98542Y103932D02*
Y104388D01*
X86121Y100350D02*
X86578D01*
X86350Y100121D02*
Y100578D01*
X88408Y98826D02*
X88865D01*
X88636Y98598D02*
Y99054D01*
X95011Y99588D02*
X95468D01*
X95240Y99359D02*
Y99816D01*
X91964Y103652D02*
X92421D01*
X92192Y103424D02*
Y103881D01*
X93488Y116352D02*
X93945D01*
X93716Y116123D02*
Y116580D01*
X115840Y137942D02*
X116297D01*
X116068Y137714D02*
Y138171D01*
X127523Y137434D02*
X127980D01*
X127752Y137206D02*
Y137663D01*
X138699Y136926D02*
X139156D01*
X138928Y136697D02*
Y137154D01*
X129809Y127782D02*
X130266D01*
X130038Y127553D02*
Y128010D01*
X124729Y129052D02*
X125187D01*
X124958Y128824D02*
Y129281D01*
X130318Y131592D02*
X130775D01*
X130546Y131363D02*
Y131820D01*
X135143Y122956D02*
X135600D01*
X135372Y122728D02*
Y123185D01*
X140732Y117622D02*
X141189D01*
X140960Y117394D02*
Y117851D01*
X145557Y108732D02*
X146014D01*
X145786Y108504D02*
Y108961D01*
X152669Y102382D02*
X153126D01*
X152898Y102154D02*
Y102610D01*
X155464Y110002D02*
X155921D01*
X155692Y109773D02*
Y110230D01*
X155464Y122194D02*
X155921D01*
X155692Y121965D02*
Y122423D01*
X152923Y130068D02*
X153380D01*
X153152Y129839D02*
Y130296D01*
X144796Y133116D02*
X145253D01*
X145024Y132887D02*
Y133344D01*
X139208Y131338D02*
X139665D01*
X139436Y131109D02*
Y131566D01*
X145811Y123718D02*
X146268D01*
X146040Y123490D02*
Y123947D01*
X150891Y119400D02*
X151348D01*
X151120Y119172D02*
Y119629D01*
X88408Y132532D02*
X88865D01*
X88636Y132303D02*
Y132760D01*
X94961Y130398D02*
X95418D01*
X95189Y130170D02*
Y130627D01*
X103622Y126207D02*
X104079D01*
X103851Y125979D02*
Y126436D01*
X117998Y127807D02*
X118455D01*
X118227Y127579D02*
Y128036D01*
X111090Y128265D02*
X111547D01*
X111318Y128036D02*
Y128493D01*
X103546Y118562D02*
X104003D01*
X103774Y118333D02*
Y118790D01*
X103597Y123667D02*
X104054D01*
X103825Y123439D02*
Y123896D01*
X53910Y156240D02*
X55310D01*
X54610Y155540D02*
Y156940D01*
X48830Y156240D02*
X50230D01*
X49530Y155540D02*
Y156940D01*
X43750Y156240D02*
X45150D01*
X44450Y155540D02*
Y156940D01*
X31336Y145830D02*
X32504D01*
X31920Y145246D02*
Y146414D01*
X21336Y145830D02*
X22504D01*
X21920Y145246D02*
Y146414D01*
X26336Y145830D02*
X27504D01*
X26920Y145246D02*
Y146414D01*
X38990Y146080D02*
X40090D01*
X39540Y145530D02*
Y146630D01*
X41530Y146080D02*
X42630D01*
X42080Y145530D02*
Y146630D01*
X59116Y145830D02*
X60284D01*
X59700Y145246D02*
Y146414D01*
X49116Y145830D02*
X50284D01*
X49700Y145246D02*
Y146414D01*
X54116Y145830D02*
X55284D01*
X54700Y145246D02*
Y146414D01*
X3110Y151160D02*
X4510D01*
X3810Y150460D02*
Y151860D01*
X3110Y156240D02*
X4510D01*
X3810Y155540D02*
Y156940D01*
X3110Y161320D02*
X4510D01*
X3810Y160620D02*
Y162020D01*
X1540Y143540D02*
X3540D01*
X2540Y142540D02*
Y144540D01*
X76470Y185450D02*
X78470D01*
X77470Y184450D02*
Y186450D01*
X12020Y176560D02*
X14020D01*
X13020Y175560D02*
Y177560D01*
X12020Y184180D02*
X14020D01*
X13020Y183180D02*
Y185180D01*
X51588Y167670D02*
X52044D01*
X51816Y167441D02*
Y167898D01*
X55397Y174528D02*
X55854D01*
X55626Y174299D02*
Y174757D01*
X7137Y176306D02*
X7595D01*
X7366Y176077D02*
Y176535D01*
X12979Y167162D02*
X13436D01*
X13208Y166934D02*
Y167391D01*
X16535Y159034D02*
X16993D01*
X16764Y158805D02*
Y159262D01*
X8153Y152176D02*
X8611D01*
X8382Y151947D02*
Y152404D01*
X15774Y154208D02*
X16230D01*
X16002Y153980D02*
Y154436D01*
X8915Y142778D02*
X9373D01*
X9144Y142549D02*
Y143007D01*
X13741Y144048D02*
X14198D01*
X13970Y143820D02*
Y144277D01*
X66827Y150906D02*
X67285D01*
X67056Y150678D02*
Y151135D01*
X76479Y151160D02*
X76937D01*
X76708Y150932D02*
Y151389D01*
X76479Y144302D02*
X76937D01*
X76708Y144074D02*
Y144531D01*
X66065Y143540D02*
X66522D01*
X66294Y143311D02*
Y143768D01*
X68859Y147858D02*
X69316D01*
X69088Y147630D02*
Y148087D01*
X77242Y176052D02*
X77699D01*
X77470Y175824D02*
Y176281D01*
X70130Y172496D02*
X70587D01*
X70358Y172268D02*
Y172725D01*
X69114Y178084D02*
X69571D01*
X69342Y177855D02*
Y178312D01*
X71908Y183164D02*
X72365D01*
X72136Y182936D02*
Y183393D01*
X62256Y172242D02*
X62713D01*
X62484Y172014D02*
Y172471D01*
X60223Y154462D02*
X60681D01*
X60452Y154234D02*
Y154691D01*
X54127Y163352D02*
X54584D01*
X54356Y163124D02*
Y163581D01*
X66827Y161320D02*
X67285D01*
X67056Y161092D02*
Y161548D01*
X47015Y171480D02*
X47472D01*
X47244Y171251D02*
Y171708D01*
X42444Y166908D02*
X42901D01*
X42672Y166680D02*
Y167137D01*
X46507Y166654D02*
X46965D01*
X46736Y166426D02*
Y166883D01*
X46000Y162590D02*
X46457D01*
X46228Y162361D02*
Y162818D01*
X36347Y165638D02*
X36805D01*
X36576Y165410D02*
Y165867D01*
X37871Y163860D02*
X38328D01*
X38100Y163632D02*
Y164089D01*
X31775Y164114D02*
X32232D01*
X32004Y163885D02*
Y164342D01*
X31267Y168178D02*
X31725D01*
X31496Y167949D02*
Y168406D01*
X23902Y167924D02*
X24358D01*
X24130Y167695D02*
Y168152D01*
X17806Y178592D02*
X18263D01*
X18034Y178363D02*
Y178820D01*
X6122Y184688D02*
X6578D01*
X6350Y184460D02*
Y184917D01*
X4597Y180878D02*
X5055D01*
X4826Y180650D02*
Y181107D01*
X3328Y177322D02*
X3784D01*
X3556Y177094D02*
Y177551D01*
X18313Y166400D02*
X18771D01*
X18542Y166171D02*
Y166628D01*
X8915Y162844D02*
X9373D01*
X9144Y162615D02*
Y163072D01*
X4597Y168686D02*
X5055D01*
X4826Y168458D02*
Y168915D01*
X4852Y173512D02*
X5308D01*
X5080Y173283D02*
Y173740D01*
X9424Y168940D02*
X9880D01*
X9652Y168712D02*
Y169169D01*
X20091Y160812D02*
X20549D01*
X20320Y160583D02*
Y161040D01*
X18313Y151160D02*
X18771D01*
X18542Y150932D02*
Y151389D01*
X6122Y147350D02*
X6578D01*
X6350Y147122D02*
Y147579D01*
X8408Y145826D02*
X8865D01*
X8636Y145598D02*
Y146055D01*
X15012Y146588D02*
X15469D01*
X15240Y146359D02*
Y146816D01*
X11964Y150652D02*
X12420D01*
X12192Y150423D02*
Y150880D01*
X13488Y163352D02*
X13944D01*
X13716Y163124D02*
Y163581D01*
X35840Y184942D02*
X36297D01*
X36068Y184714D02*
Y185171D01*
X47523Y184434D02*
X47980D01*
X47752Y184206D02*
Y184663D01*
X58700Y183926D02*
X59157D01*
X58928Y183697D02*
Y184154D01*
X49810Y174782D02*
X50266D01*
X50038Y174553D02*
Y175010D01*
X44729Y176052D02*
X45187D01*
X44958Y175824D02*
Y176281D01*
X50318Y178592D02*
X50775D01*
X50546Y178363D02*
Y178820D01*
X55144Y169956D02*
X55600D01*
X55372Y169727D02*
Y170184D01*
X60731Y164622D02*
X61188D01*
X60960Y164393D02*
Y164850D01*
X65558Y155732D02*
X66015D01*
X65786Y155503D02*
Y155960D01*
X72670Y149382D02*
X73127D01*
X72898Y149154D02*
Y149611D01*
X75464Y157002D02*
X75921D01*
X75692Y156773D02*
Y157230D01*
X75464Y169194D02*
X75921D01*
X75692Y168965D02*
Y169423D01*
X72924Y177068D02*
X73381D01*
X73152Y176839D02*
Y177296D01*
X64796Y180116D02*
X65253D01*
X65024Y179887D02*
Y180344D01*
X59208Y178338D02*
X59665D01*
X59436Y178109D02*
Y178566D01*
X65812Y170718D02*
X66269D01*
X66040Y170490D02*
Y170947D01*
X70892Y166400D02*
X71349D01*
X71120Y166171D02*
Y166628D01*
X8408Y179532D02*
X8865D01*
X8636Y179303D02*
Y179760D01*
X14961Y177398D02*
X15418D01*
X15189Y177170D02*
Y177627D01*
X23622Y173207D02*
X24079D01*
X23851Y172979D02*
Y173436D01*
X37999Y174807D02*
X38456D01*
X38227Y174579D02*
Y175036D01*
X31090Y175265D02*
X31547D01*
X31318Y175036D02*
Y175493D01*
X23546Y165562D02*
X24003D01*
X23774Y165333D02*
Y165790D01*
X23597Y170667D02*
X24054D01*
X23825Y170439D02*
Y170896D01*
X133910Y156240D02*
X135310D01*
X134610Y155540D02*
Y156940D01*
X128830Y156240D02*
X130230D01*
X129530Y155540D02*
Y156940D01*
X123750Y156240D02*
X125150D01*
X124450Y155540D02*
Y156940D01*
X111336Y145830D02*
X112504D01*
X111920Y145246D02*
Y146414D01*
X101336Y145830D02*
X102504D01*
X101920Y145246D02*
Y146414D01*
X106336Y145830D02*
X107504D01*
X106920Y145246D02*
Y146414D01*
X118990Y146080D02*
X120090D01*
X119540Y145530D02*
Y146630D01*
X121530Y146080D02*
X122630D01*
X122080Y145530D02*
Y146630D01*
X139116Y145830D02*
X140284D01*
X139700Y145246D02*
Y146414D01*
X129116Y145830D02*
X130284D01*
X129700Y145246D02*
Y146414D01*
X134116Y145830D02*
X135284D01*
X134700Y145246D02*
Y146414D01*
X83110Y151160D02*
X84510D01*
X83810Y150460D02*
Y151860D01*
X83110Y156240D02*
X84510D01*
X83810Y155540D02*
Y156940D01*
X83110Y161320D02*
X84510D01*
X83810Y160620D02*
Y162020D01*
X81540Y143540D02*
X83540D01*
X82540Y142540D02*
Y144540D01*
X156470Y185450D02*
X158470D01*
X157470Y184450D02*
Y186450D01*
X92020Y176560D02*
X94020D01*
X93020Y175560D02*
Y177560D01*
X92020Y184180D02*
X94020D01*
X93020Y183180D02*
Y185180D01*
X131587Y167670D02*
X132044D01*
X131816Y167441D02*
Y167898D01*
X135398Y174528D02*
X135855D01*
X135626Y174299D02*
Y174757D01*
X87137Y176306D02*
X87594D01*
X87366Y176077D02*
Y176535D01*
X92979Y167162D02*
X93437D01*
X93208Y166934D02*
Y167391D01*
X96535Y159034D02*
X96993D01*
X96764Y158805D02*
Y159262D01*
X88154Y152176D02*
X88610D01*
X88382Y151947D02*
Y152404D01*
X95773Y154208D02*
X96230D01*
X96002Y153980D02*
Y154436D01*
X88915Y142778D02*
X89372D01*
X89144Y142549D02*
Y143007D01*
X93742Y144048D02*
X94199D01*
X93970Y143820D02*
Y144277D01*
X146827Y150906D02*
X147285D01*
X147056Y150678D02*
Y151135D01*
X156480Y151160D02*
X156936D01*
X156708Y150932D02*
Y151389D01*
X156480Y144302D02*
X156936D01*
X156708Y144074D02*
Y144531D01*
X146066Y143540D02*
X146523D01*
X146294Y143311D02*
Y143768D01*
X148859Y147858D02*
X149316D01*
X149088Y147630D02*
Y148087D01*
X157242Y176052D02*
X157699D01*
X157470Y175824D02*
Y176281D01*
X150130Y172496D02*
X150587D01*
X150358Y172268D02*
Y172725D01*
X149113Y178084D02*
X149570D01*
X149342Y177855D02*
Y178312D01*
X151908Y183164D02*
X152365D01*
X152136Y182936D02*
Y183393D01*
X142255Y172242D02*
X142712D01*
X142484Y172014D02*
Y172471D01*
X140223Y154462D02*
X140680D01*
X140452Y154234D02*
Y154691D01*
X134128Y163352D02*
X134585D01*
X134356Y163124D02*
Y163581D01*
X146827Y161320D02*
X147285D01*
X147056Y161092D02*
Y161548D01*
X127016Y171480D02*
X127473D01*
X127244Y171251D02*
Y171708D01*
X122443Y166908D02*
X122900D01*
X122672Y166680D02*
Y167137D01*
X126507Y166654D02*
X126965D01*
X126736Y166426D02*
Y166883D01*
X125999Y162590D02*
X126456D01*
X126228Y162361D02*
Y162818D01*
X116348Y165638D02*
X116804D01*
X116576Y165410D02*
Y165867D01*
X117871Y163860D02*
X118328D01*
X118100Y163632D02*
Y164089D01*
X111775Y164114D02*
X112232D01*
X112004Y163885D02*
Y164342D01*
X111268Y168178D02*
X111725D01*
X111496Y167949D02*
Y168406D01*
X103901Y167924D02*
X104358D01*
X104130Y167695D02*
Y168152D01*
X97805Y178592D02*
X98262D01*
X98034Y178363D02*
Y178820D01*
X86121Y184688D02*
X86578D01*
X86350Y184460D02*
Y184917D01*
X84598Y180878D02*
X85054D01*
X84826Y180650D02*
Y181107D01*
X83327Y177322D02*
X83785D01*
X83556Y177094D02*
Y177551D01*
X98313Y166400D02*
X98771D01*
X98542Y166171D02*
Y166628D01*
X88915Y162844D02*
X89372D01*
X89144Y162615D02*
Y163072D01*
X84598Y168686D02*
X85054D01*
X84826Y168458D02*
Y168915D01*
X84852Y173512D02*
X85309D01*
X85080Y173283D02*
Y173740D01*
X89424Y168940D02*
X89881D01*
X89652Y168712D02*
Y169169D01*
X100091Y160812D02*
X100549D01*
X100320Y160583D02*
Y161040D01*
X98313Y151160D02*
X98771D01*
X98542Y150932D02*
Y151389D01*
X86121Y147350D02*
X86578D01*
X86350Y147122D02*
Y147579D01*
X88408Y145826D02*
X88865D01*
X88636Y145598D02*
Y146055D01*
X95011Y146588D02*
X95468D01*
X95240Y146359D02*
Y146816D01*
X91964Y150652D02*
X92421D01*
X92192Y150423D02*
Y150880D01*
X93488Y163352D02*
X93945D01*
X93716Y163124D02*
Y163581D01*
X115840Y184942D02*
X116297D01*
X116068Y184714D02*
Y185171D01*
X127523Y184434D02*
X127980D01*
X127752Y184206D02*
Y184663D01*
X138699Y183926D02*
X139156D01*
X138928Y183697D02*
Y184154D01*
X129809Y174782D02*
X130266D01*
X130038Y174553D02*
Y175010D01*
X124729Y176052D02*
X125187D01*
X124958Y175824D02*
Y176281D01*
X130318Y178592D02*
X130775D01*
X130546Y178363D02*
Y178820D01*
X135143Y169956D02*
X135600D01*
X135372Y169727D02*
Y170184D01*
X140732Y164622D02*
X141189D01*
X140960Y164393D02*
Y164850D01*
X145557Y155732D02*
X146014D01*
X145786Y155503D02*
Y155960D01*
X152669Y149382D02*
X153126D01*
X152898Y149154D02*
Y149611D01*
X155464Y157002D02*
X155921D01*
X155692Y156773D02*
Y157230D01*
X155464Y169194D02*
X155921D01*
X155692Y168965D02*
Y169423D01*
X152923Y177068D02*
X153380D01*
X153152Y176839D02*
Y177296D01*
X144796Y180116D02*
X145253D01*
X145024Y179887D02*
Y180344D01*
X139208Y178338D02*
X139665D01*
X139436Y178109D02*
Y178566D01*
X145811Y170718D02*
X146268D01*
X146040Y170490D02*
Y170947D01*
X150891Y166400D02*
X151348D01*
X151120Y166171D02*
Y166628D01*
X88408Y179532D02*
X88865D01*
X88636Y179303D02*
Y179760D01*
X94961Y177398D02*
X95418D01*
X95189Y177170D02*
Y177627D01*
X103622Y173207D02*
X104079D01*
X103851Y172979D02*
Y173436D01*
X117998Y174807D02*
X118455D01*
X118227Y174579D02*
Y175036D01*
X111090Y175265D02*
X111547D01*
X111318Y175036D02*
Y175493D01*
X103546Y165562D02*
X104003D01*
X103774Y165333D02*
Y165790D01*
X103597Y170667D02*
X104054D01*
X103825Y170439D02*
Y170896D01*
X53910Y203240D02*
X55310D01*
X54610Y202540D02*
Y203940D01*
X48830Y203240D02*
X50230D01*
X49530Y202540D02*
Y203940D01*
X43750Y203240D02*
X45150D01*
X44450Y202540D02*
Y203940D01*
X31336Y192830D02*
X32504D01*
X31920Y192246D02*
Y193414D01*
X21336Y192830D02*
X22504D01*
X21920Y192246D02*
Y193414D01*
X26336Y192830D02*
X27504D01*
X26920Y192246D02*
Y193414D01*
X38990Y193080D02*
X40090D01*
X39540Y192530D02*
Y193630D01*
X41530Y193080D02*
X42630D01*
X42080Y192530D02*
Y193630D01*
X59116Y192830D02*
X60284D01*
X59700Y192246D02*
Y193414D01*
X49116Y192830D02*
X50284D01*
X49700Y192246D02*
Y193414D01*
X54116Y192830D02*
X55284D01*
X54700Y192246D02*
Y193414D01*
X3110Y198160D02*
X4510D01*
X3810Y197460D02*
Y198860D01*
X3110Y203240D02*
X4510D01*
X3810Y202540D02*
Y203940D01*
X3110Y208320D02*
X4510D01*
X3810Y207620D02*
Y209020D01*
X1540Y190540D02*
X3540D01*
X2540Y189540D02*
Y191540D01*
X76470Y232450D02*
X78470D01*
X77470Y231450D02*
Y233450D01*
X12020Y223560D02*
X14020D01*
X13020Y222560D02*
Y224560D01*
X12020Y231180D02*
X14020D01*
X13020Y230180D02*
Y232180D01*
X51588Y214670D02*
X52044D01*
X51816Y214441D02*
Y214898D01*
X55397Y221528D02*
X55854D01*
X55626Y221299D02*
Y221757D01*
X7137Y223306D02*
X7595D01*
X7366Y223077D02*
Y223535D01*
X12979Y214162D02*
X13436D01*
X13208Y213934D02*
Y214391D01*
X16535Y206034D02*
X16993D01*
X16764Y205805D02*
Y206262D01*
X8153Y199176D02*
X8611D01*
X8382Y198947D02*
Y199404D01*
X15774Y201208D02*
X16230D01*
X16002Y200980D02*
Y201436D01*
X8915Y189778D02*
X9373D01*
X9144Y189549D02*
Y190007D01*
X13741Y191048D02*
X14198D01*
X13970Y190820D02*
Y191277D01*
X66827Y197906D02*
X67285D01*
X67056Y197678D02*
Y198135D01*
X76479Y198160D02*
X76937D01*
X76708Y197932D02*
Y198389D01*
X76479Y191302D02*
X76937D01*
X76708Y191074D02*
Y191531D01*
X66065Y190540D02*
X66522D01*
X66294Y190311D02*
Y190768D01*
X68859Y194858D02*
X69316D01*
X69088Y194630D02*
Y195087D01*
X77242Y223052D02*
X77699D01*
X77470Y222824D02*
Y223281D01*
X70130Y219496D02*
X70587D01*
X70358Y219268D02*
Y219725D01*
X69114Y225084D02*
X69571D01*
X69342Y224855D02*
Y225312D01*
X71908Y230164D02*
X72365D01*
X72136Y229936D02*
Y230393D01*
X62256Y219242D02*
X62713D01*
X62484Y219014D02*
Y219471D01*
X60223Y201462D02*
X60681D01*
X60452Y201234D02*
Y201691D01*
X54127Y210352D02*
X54584D01*
X54356Y210124D02*
Y210581D01*
X66827Y208320D02*
X67285D01*
X67056Y208092D02*
Y208548D01*
X47015Y218480D02*
X47472D01*
X47244Y218251D02*
Y218708D01*
X42444Y213908D02*
X42901D01*
X42672Y213680D02*
Y214137D01*
X46507Y213654D02*
X46965D01*
X46736Y213426D02*
Y213883D01*
X46000Y209590D02*
X46457D01*
X46228Y209361D02*
Y209818D01*
X36347Y212638D02*
X36805D01*
X36576Y212410D02*
Y212867D01*
X37871Y210860D02*
X38328D01*
X38100Y210632D02*
Y211089D01*
X31775Y211114D02*
X32232D01*
X32004Y210885D02*
Y211342D01*
X31267Y215178D02*
X31725D01*
X31496Y214949D02*
Y215406D01*
X23902Y214924D02*
X24358D01*
X24130Y214695D02*
Y215152D01*
X17806Y225592D02*
X18263D01*
X18034Y225363D02*
Y225820D01*
X6122Y231688D02*
X6578D01*
X6350Y231460D02*
Y231917D01*
X4597Y227878D02*
X5055D01*
X4826Y227650D02*
Y228107D01*
X3328Y224322D02*
X3784D01*
X3556Y224094D02*
Y224551D01*
X18313Y213400D02*
X18771D01*
X18542Y213171D02*
Y213628D01*
X8915Y209844D02*
X9373D01*
X9144Y209615D02*
Y210072D01*
X4597Y215686D02*
X5055D01*
X4826Y215458D02*
Y215915D01*
X4852Y220512D02*
X5308D01*
X5080Y220283D02*
Y220740D01*
X9424Y215940D02*
X9880D01*
X9652Y215712D02*
Y216169D01*
X20091Y207812D02*
X20549D01*
X20320Y207583D02*
Y208040D01*
X18313Y198160D02*
X18771D01*
X18542Y197932D02*
Y198389D01*
X6122Y194350D02*
X6578D01*
X6350Y194122D02*
Y194579D01*
X8408Y192826D02*
X8865D01*
X8636Y192598D02*
Y193055D01*
X15012Y193588D02*
X15469D01*
X15240Y193359D02*
Y193816D01*
X11964Y197652D02*
X12420D01*
X12192Y197423D02*
Y197880D01*
X13488Y210352D02*
X13944D01*
X13716Y210124D02*
Y210581D01*
X35840Y231942D02*
X36297D01*
X36068Y231714D02*
Y232171D01*
X47523Y231434D02*
X47980D01*
X47752Y231206D02*
Y231663D01*
X58700Y230926D02*
X59157D01*
X58928Y230697D02*
Y231154D01*
X49810Y221782D02*
X50266D01*
X50038Y221553D02*
Y222010D01*
X44729Y223052D02*
X45187D01*
X44958Y222824D02*
Y223281D01*
X50318Y225592D02*
X50775D01*
X50546Y225363D02*
Y225820D01*
X55144Y216956D02*
X55600D01*
X55372Y216727D02*
Y217184D01*
X60731Y211622D02*
X61188D01*
X60960Y211393D02*
Y211850D01*
X65558Y202732D02*
X66015D01*
X65786Y202503D02*
Y202960D01*
X72670Y196382D02*
X73127D01*
X72898Y196154D02*
Y196611D01*
X75464Y204002D02*
X75921D01*
X75692Y203773D02*
Y204230D01*
X75464Y216194D02*
X75921D01*
X75692Y215965D02*
Y216423D01*
X72924Y224068D02*
X73381D01*
X73152Y223839D02*
Y224296D01*
X64796Y227116D02*
X65253D01*
X65024Y226887D02*
Y227344D01*
X59208Y225338D02*
X59665D01*
X59436Y225109D02*
Y225566D01*
X65812Y217718D02*
X66269D01*
X66040Y217490D02*
Y217947D01*
X70892Y213400D02*
X71349D01*
X71120Y213171D02*
Y213628D01*
X8408Y226532D02*
X8865D01*
X8636Y226303D02*
Y226760D01*
X14961Y224398D02*
X15418D01*
X15189Y224170D02*
Y224627D01*
X23622Y220207D02*
X24079D01*
X23851Y219979D02*
Y220436D01*
X37999Y221807D02*
X38456D01*
X38227Y221579D02*
Y222036D01*
X31090Y222265D02*
X31547D01*
X31318Y222036D02*
Y222493D01*
X23546Y212562D02*
X24003D01*
X23774Y212333D02*
Y212790D01*
X23597Y217667D02*
X24054D01*
X23825Y217439D02*
Y217896D01*
X133910Y203240D02*
X135310D01*
X134610Y202540D02*
Y203940D01*
X128830Y203240D02*
X130230D01*
X129530Y202540D02*
Y203940D01*
X123750Y203240D02*
X125150D01*
X124450Y202540D02*
Y203940D01*
X111336Y192830D02*
X112504D01*
X111920Y192246D02*
Y193414D01*
X101336Y192830D02*
X102504D01*
X101920Y192246D02*
Y193414D01*
X106336Y192830D02*
X107504D01*
X106920Y192246D02*
Y193414D01*
X118990Y193080D02*
X120090D01*
X119540Y192530D02*
Y193630D01*
X121530Y193080D02*
X122630D01*
X122080Y192530D02*
Y193630D01*
X139116Y192830D02*
X140284D01*
X139700Y192246D02*
Y193414D01*
X129116Y192830D02*
X130284D01*
X129700Y192246D02*
Y193414D01*
X134116Y192830D02*
X135284D01*
X134700Y192246D02*
Y193414D01*
X83110Y198160D02*
X84510D01*
X83810Y197460D02*
Y198860D01*
X83110Y203240D02*
X84510D01*
X83810Y202540D02*
Y203940D01*
X83110Y208320D02*
X84510D01*
X83810Y207620D02*
Y209020D01*
X81540Y190540D02*
X83540D01*
X82540Y189540D02*
Y191540D01*
X156470Y232450D02*
X158470D01*
X157470Y231450D02*
Y233450D01*
X92020Y223560D02*
X94020D01*
X93020Y222560D02*
Y224560D01*
X92020Y231180D02*
X94020D01*
X93020Y230180D02*
Y232180D01*
X131587Y214670D02*
X132044D01*
X131816Y214441D02*
Y214898D01*
X135398Y221528D02*
X135855D01*
X135626Y221299D02*
Y221757D01*
X87137Y223306D02*
X87594D01*
X87366Y223077D02*
Y223535D01*
X92979Y214162D02*
X93437D01*
X93208Y213934D02*
Y214391D01*
X96535Y206034D02*
X96993D01*
X96764Y205805D02*
Y206262D01*
X88154Y199176D02*
X88610D01*
X88382Y198947D02*
Y199404D01*
X95773Y201208D02*
X96230D01*
X96002Y200980D02*
Y201436D01*
X88915Y189778D02*
X89372D01*
X89144Y189549D02*
Y190007D01*
X93742Y191048D02*
X94199D01*
X93970Y190820D02*
Y191277D01*
X146827Y197906D02*
X147285D01*
X147056Y197678D02*
Y198135D01*
X156480Y198160D02*
X156936D01*
X156708Y197932D02*
Y198389D01*
X156480Y191302D02*
X156936D01*
X156708Y191074D02*
Y191531D01*
X146066Y190540D02*
X146523D01*
X146294Y190311D02*
Y190768D01*
X148859Y194858D02*
X149316D01*
X149088Y194630D02*
Y195087D01*
X157242Y223052D02*
X157699D01*
X157470Y222824D02*
Y223281D01*
X150130Y219496D02*
X150587D01*
X150358Y219268D02*
Y219725D01*
X149113Y225084D02*
X149570D01*
X149342Y224855D02*
Y225312D01*
X151908Y230164D02*
X152365D01*
X152136Y229936D02*
Y230393D01*
X142255Y219242D02*
X142712D01*
X142484Y219014D02*
Y219471D01*
X140223Y201462D02*
X140680D01*
X140452Y201234D02*
Y201691D01*
X134128Y210352D02*
X134585D01*
X134356Y210124D02*
Y210581D01*
X146827Y208320D02*
X147285D01*
X147056Y208092D02*
Y208548D01*
X127016Y218480D02*
X127473D01*
X127244Y218251D02*
Y218708D01*
X122443Y213908D02*
X122900D01*
X122672Y213680D02*
Y214137D01*
X126507Y213654D02*
X126965D01*
X126736Y213426D02*
Y213883D01*
X125999Y209590D02*
X126456D01*
X126228Y209361D02*
Y209818D01*
X116348Y212638D02*
X116804D01*
X116576Y212410D02*
Y212867D01*
X117871Y210860D02*
X118328D01*
X118100Y210632D02*
Y211089D01*
X111775Y211114D02*
X112232D01*
X112004Y210885D02*
Y211342D01*
X111268Y215178D02*
X111725D01*
X111496Y214949D02*
Y215406D01*
X103901Y214924D02*
X104358D01*
X104130Y214695D02*
Y215152D01*
X97805Y225592D02*
X98262D01*
X98034Y225363D02*
Y225820D01*
X86121Y231688D02*
X86578D01*
X86350Y231460D02*
Y231917D01*
X84598Y227878D02*
X85054D01*
X84826Y227650D02*
Y228107D01*
X83327Y224322D02*
X83785D01*
X83556Y224094D02*
Y224551D01*
X98313Y213400D02*
X98771D01*
X98542Y213171D02*
Y213628D01*
X88915Y209844D02*
X89372D01*
X89144Y209615D02*
Y210072D01*
X84598Y215686D02*
X85054D01*
X84826Y215458D02*
Y215915D01*
X84852Y220512D02*
X85309D01*
X85080Y220283D02*
Y220740D01*
X89424Y215940D02*
X89881D01*
X89652Y215712D02*
Y216169D01*
X100091Y207812D02*
X100549D01*
X100320Y207583D02*
Y208040D01*
X98313Y198160D02*
X98771D01*
X98542Y197932D02*
Y198389D01*
X86121Y194350D02*
X86578D01*
X86350Y194122D02*
Y194579D01*
X88408Y192826D02*
X88865D01*
X88636Y192598D02*
Y193055D01*
X95011Y193588D02*
X95468D01*
X95240Y193359D02*
Y193816D01*
X91964Y197652D02*
X92421D01*
X92192Y197423D02*
Y197880D01*
X93488Y210352D02*
X93945D01*
X93716Y210124D02*
Y210581D01*
X115840Y231942D02*
X116297D01*
X116068Y231714D02*
Y232171D01*
X127523Y231434D02*
X127980D01*
X127752Y231206D02*
Y231663D01*
X138699Y230926D02*
X139156D01*
X138928Y230697D02*
Y231154D01*
X129809Y221782D02*
X130266D01*
X130038Y221553D02*
Y222010D01*
X124729Y223052D02*
X125187D01*
X124958Y222824D02*
Y223281D01*
X130318Y225592D02*
X130775D01*
X130546Y225363D02*
Y225820D01*
X135143Y216956D02*
X135600D01*
X135372Y216727D02*
Y217184D01*
X140732Y211622D02*
X141189D01*
X140960Y211393D02*
Y211850D01*
X145557Y202732D02*
X146014D01*
X145786Y202503D02*
Y202960D01*
X152669Y196382D02*
X153126D01*
X152898Y196154D02*
Y196611D01*
X155464Y204002D02*
X155921D01*
X155692Y203773D02*
Y204230D01*
X155464Y216194D02*
X155921D01*
X155692Y215965D02*
Y216423D01*
X152923Y224068D02*
X153380D01*
X153152Y223839D02*
Y224296D01*
X144796Y227116D02*
X145253D01*
X145024Y226887D02*
Y227344D01*
X139208Y225338D02*
X139665D01*
X139436Y225109D02*
Y225566D01*
X145811Y217718D02*
X146268D01*
X146040Y217490D02*
Y217947D01*
X150891Y213400D02*
X151348D01*
X151120Y213171D02*
Y213628D01*
X88408Y226532D02*
X88865D01*
X88636Y226303D02*
Y226760D01*
X94961Y224398D02*
X95418D01*
X95189Y224170D02*
Y224627D01*
X103622Y220207D02*
X104079D01*
X103851Y219979D02*
Y220436D01*
X117998Y221807D02*
X118455D01*
X118227Y221579D02*
Y222036D01*
X111090Y222265D02*
X111547D01*
X111318Y222036D02*
Y222493D01*
X103546Y212562D02*
X104003D01*
X103774Y212333D02*
Y212790D01*
X103597Y217667D02*
X104054D01*
X103825Y217439D02*
Y217896D01*
M02*
