G04*
G04 #@! TF.GenerationSoftware,Altium Limited,Altium Designer,19.1.8 (144)*
G04*
G04 Layer_Color=16711935*
%FSLAX43Y43*%
%MOMM*%
G71*
G01*
G75*
%ADD33C,0.254*%
D33*
X0Y188000D02*
Y235000D01*
Y188000D02*
X80000D01*
X0Y235000D02*
X80000D01*
Y188000D02*
Y235000D01*
X0Y141000D02*
Y188000D01*
Y141000D02*
X80000D01*
X0Y188000D02*
X80000D01*
Y141000D02*
Y188000D01*
X0Y94000D02*
Y141000D01*
Y94000D02*
X80000D01*
X0Y141000D02*
X80000D01*
Y94000D02*
Y141000D01*
X0Y47000D02*
Y94000D01*
Y47000D02*
X80000D01*
X0Y94000D02*
X80000D01*
Y47000D02*
Y94000D01*
Y188000D02*
Y235000D01*
Y188000D02*
X160000D01*
X80000Y235000D02*
X160000D01*
Y188000D02*
Y235000D01*
X80000Y141000D02*
Y188000D01*
Y141000D02*
X160000D01*
X80000Y188000D02*
X160000D01*
Y141000D02*
Y188000D01*
X80000Y94000D02*
Y141000D01*
Y94000D02*
X160000D01*
X80000Y141000D02*
X160000D01*
Y94000D02*
Y141000D01*
X80000Y47000D02*
Y94000D01*
Y47000D02*
X160000D01*
X80000Y94000D02*
X160000D01*
Y47000D02*
Y94000D01*
X80000Y0D02*
Y47000D01*
Y0D02*
X160000D01*
X80000Y47000D02*
X160000D01*
Y0D02*
Y47000D01*
X0Y0D02*
Y47000D01*
Y0D02*
X80000D01*
X0Y47000D02*
X80000D01*
Y0D02*
Y47000D01*
Y0D02*
Y47000D01*
X0D02*
X80000D01*
X0Y0D02*
X80000D01*
X0D02*
Y47000D01*
X160000Y0D02*
Y47000D01*
X80000D02*
X160000D01*
X80000Y0D02*
X160000D01*
X80000D02*
Y47000D01*
Y94000D01*
X0D02*
X80000D01*
X0Y47000D02*
X80000D01*
X0D02*
Y94000D01*
X160000Y47000D02*
Y94000D01*
X80000D02*
X160000D01*
X80000Y47000D02*
X160000D01*
X80000D02*
Y94000D01*
Y141000D01*
X0D02*
X80000D01*
X0Y94000D02*
X80000D01*
X0D02*
Y141000D01*
X160000Y94000D02*
Y141000D01*
X80000D02*
X160000D01*
X80000Y94000D02*
X160000D01*
X80000D02*
Y141000D01*
Y188000D01*
X0D02*
X80000D01*
X0Y141000D02*
X80000D01*
X0D02*
Y188000D01*
X160000Y141000D02*
Y188000D01*
X80000D02*
X160000D01*
X80000Y141000D02*
X160000D01*
X80000D02*
Y188000D01*
Y235000D01*
X0D02*
X80000D01*
X0Y188000D02*
X80000D01*
X0D02*
Y235000D01*
X160000Y188000D02*
Y235000D01*
X80000D02*
X160000D01*
X80000Y188000D02*
X160000D01*
X80000D02*
Y235000D01*
M02*
